<svg width="769" height="289" viewBox="0 0 769 289" fill="none" xmlns="http://www.w3.org/2000/svg">
<g clip-path="url(#clip0_6_2575)">
<path d="M768.646 0H0V289H768.646V0Z" fill="white"/>
<path d="M574.354 115.646L584.354 110.146L574.354 104.646V109.646H570.501V110.646H574.354V115.646Z" fill="#C9CACE"/>
<path d="M564.748 94.998V200.331H546.248" stroke="#C9CACE"/>
<path d="M571 110.458V261.5H547.167" stroke="#C9CACE"/>
<path d="M558.748 79.8313V142.831H546.248" stroke="#C9CACE"/>
<path d="M561.164 64.8313H552.748V84.8313H546.248" stroke="#C9CACE"/>
<path d="M39.2478 49.3313H147.248C167.192 49.3313 183.248 65.3873 183.248 85.3313C183.248 105.275 167.192 121.331 147.248 121.331H39.2478C19.3038 121.331 3.2478 105.275 3.2478 85.3313C3.2478 65.3873 19.3038 49.3313 39.2478 49.3313Z" fill="#00285A"/>
<path d="M263.248 49.3313H371.248C391.192 49.3313 407.248 65.3873 407.248 85.3313C407.248 105.275 391.192 121.331 371.248 121.331H263.248C243.304 121.331 227.248 105.275 227.248 85.3313C227.248 65.3873 243.304 49.3313 263.248 49.3313Z" fill="#00285A"/>
<path d="M622.248 49.3313H730.248C750.192 49.3313 766.248 65.3873 766.248 85.3313C766.248 105.275 750.192 121.331 730.248 121.331H622.248C602.304 121.331 586.248 105.275 586.248 85.3313C586.248 65.3873 602.304 49.3313 622.248 49.3313Z" fill="#76CEFF"/>
<path d="M540.248 68.2063H451.248V103.456C451.248 106.701 471.171 109.331 495.748 109.331C520.325 109.331 540.248 106.701 540.248 103.456V68.2063Z" fill="#00285A"/>
<path d="M540.248 68.2063C540.248 69.7644 535.559 71.2588 527.214 72.3605C518.869 73.4623 507.55 74.0813 495.748 74.0813C483.946 74.0813 472.627 73.4623 464.282 72.3605C455.936 71.2588 451.248 69.7644 451.248 68.2063C451.248 66.6482 455.936 65.1538 464.282 64.052C472.627 62.9503 483.946 62.3313 495.748 62.3313C507.55 62.3313 518.869 62.9503 527.214 64.052C535.559 65.1538 540.248 66.6482 540.248 68.2063Z" fill="#0068B5"/>
<path d="M540.248 126.206H451.248V161.456C451.248 164.701 471.171 167.331 495.748 167.331C520.325 167.331 540.248 164.701 540.248 161.456V126.206Z" fill="#00285A"/>
<path d="M540.248 126.206C540.248 127.764 535.559 129.259 527.214 130.361C518.869 131.462 507.55 132.081 495.748 132.081C483.946 132.081 472.627 131.462 464.282 130.361C455.936 129.259 451.248 127.764 451.248 126.206C451.248 124.648 455.936 123.154 464.282 122.052C472.627 120.95 483.946 120.331 495.748 120.331C507.55 120.331 518.869 120.95 527.214 122.052C535.559 123.154 540.248 124.648 540.248 126.206Z" fill="#0068B5"/>
<path d="M540.248 9.2666H451.248V44.5166C451.248 47.7616 471.171 50.3916 495.748 50.3916C520.325 50.3916 540.248 47.7616 540.248 44.5166V9.2666Z" fill="#00285A"/>
<path d="M540.248 9.2666C540.248 10.8247 535.559 12.3191 527.214 13.4209C518.869 14.5226 507.55 15.1416 495.748 15.1416C483.946 15.1416 472.627 14.5226 464.282 13.4209C455.936 12.3191 451.248 10.8247 451.248 9.2666C451.248 7.70845 455.936 6.21413 464.282 5.11235C472.627 4.01057 483.946 3.3916 495.748 3.3916C507.55 3.3916 518.869 4.01057 527.214 5.11235C535.559 6.21413 540.248 7.70845 540.248 9.2666Z" fill="#0068B5"/>
<path d="M622.248 153.331H730.248C750.192 153.331 766.248 169.387 766.248 189.331C766.248 209.275 750.192 225.331 730.248 225.331H622.248C602.304 225.331 586.248 209.275 586.248 189.331C586.248 169.387 602.304 153.331 622.248 153.331Z" fill="#00285A"/>
<path d="M207.248 90.3313L217.248 84.8313L207.248 79.3313V84.3313H193.248V85.3313H207.248V90.3313Z" fill="#C9CACE"/>
<path d="M431.248 90.3313L441.248 84.8313L431.248 79.3313V84.3313H417.248V85.3313H431.248V90.3313Z" fill="#C9CACE"/>
<path d="M418.248 142.831H103.248V131.331" stroke="#C9CACE"/>
<path d="M431.248 148.331L441.248 142.831L431.248 137.331V142.331H417.248V143.331H431.248V148.331Z" fill="#C9CACE"/>
<path d="M417.944 203.378H90.9441V131.878" stroke="#C9CACE"/>
<path d="M430.944 208.878L440.944 203.378L430.944 197.878V202.878H416.944V203.878H430.944V208.878Z" fill="#C9CACE"/>
<path d="M574.248 70.3313L584.248 64.8313L574.248 59.3313V64.3313H560.248V65.3313H574.248V70.3313Z" fill="#C9CACE"/>
<path d="M574.248 85.3313L584.248 79.8313L574.248 74.3313V79.3313H558.248V80.3313H574.248V85.3313Z" fill="#C9CACE"/>
<path d="M574.248 100.331L584.248 94.8313L574.248 89.3313V94.3313H564.248V95.3313H574.248V100.331Z" fill="#C9CACE"/>
<path d="M699.248 136.331L693.748 126.331L688.248 136.331H693.248V150.331H694.248V136.331H699.248Z" fill="#C9CACE"/>
<path d="M653.248 138.331L658.748 148.331L664.248 138.331H659.248V124.331H658.248V138.331H653.248Z" fill="#C9CACE"/>
<path d="M540.048 184.968H451.048V220.218C451.048 223.463 470.971 226.093 495.548 226.093C520.125 226.093 540.048 223.463 540.048 220.218V184.968Z" fill="#00285A"/>
<path d="M540.048 184.968C540.048 186.526 535.359 188.02 527.014 189.122C518.669 190.224 507.35 190.843 495.548 190.843C483.746 190.843 472.427 190.224 464.082 189.122C455.736 188.02 451.048 186.526 451.048 184.968C451.048 183.409 455.736 181.915 464.082 180.813C472.427 179.712 483.746 179.093 495.548 179.093C507.35 179.093 518.669 179.712 527.014 180.813C535.359 181.915 540.048 183.409 540.048 184.968Z" fill="#0068B5"/>
<path d="M540.557 244.525H451.557V279.775C451.557 283.02 471.48 285.65 496.057 285.65C520.634 285.65 540.557 283.02 540.557 279.775V244.525Z" fill="#00285A"/>
<path d="M540.557 244.525C540.557 246.083 535.869 247.577 527.524 248.679C519.178 249.781 507.86 250.4 496.057 250.4C484.255 250.4 472.936 249.781 464.591 248.679C456.246 247.577 451.557 246.083 451.557 244.525C451.557 242.967 456.246 241.472 464.591 240.371C472.936 239.269 484.255 238.65 496.057 238.65C507.86 238.65 519.178 239.269 527.524 240.371C535.869 241.472 540.557 242.967 540.557 244.525Z" fill="#0068B5"/>
<path d="M673.393 25.0396L546.393 25.0396" stroke="#C9CACE"/>
<path d="M667.893 36.5396L673.393 46.5396L678.893 36.5396H673.893V24.5396H672.893V36.5396H667.893Z" fill="#C9CACE"/>
<path d="M430.245 262.994H76.6208L76.1736 132.282" stroke="#C9CACE"/>
<path d="M430.281 268.471L440.281 262.971L430.281 257.471V262.471H416.281V263.471H430.281V268.471Z" fill="#C9CACE"/>
<path d="M466.444 261.821H463.044V260.314H471.564V261.821H468.151V269.648H466.444V261.821Z" fill="white"/>
<path d="M474.537 268.554C474.902 268.554 475.248 268.474 475.577 268.314C475.915 268.154 476.222 267.923 476.497 267.621L477.337 268.528C476.973 268.963 476.537 269.296 476.031 269.528C475.533 269.75 474.986 269.861 474.391 269.861C473.342 269.861 472.493 269.541 471.844 268.901C471.195 268.252 470.871 267.408 470.871 266.368C470.871 265.372 471.199 264.541 471.857 263.874C472.515 263.208 473.333 262.874 474.311 262.874C475.288 262.874 476.075 263.19 476.671 263.821C477.275 264.443 477.577 265.27 477.577 266.301C477.577 266.39 477.573 266.479 477.564 266.568C477.555 266.648 477.542 266.759 477.524 266.901H472.511C472.6 267.408 472.826 267.812 473.191 268.114C473.555 268.408 474.004 268.554 474.537 268.554ZM474.311 264.154C473.848 264.154 473.457 264.301 473.137 264.594C472.817 264.879 472.608 265.274 472.511 265.781H475.991C475.919 265.274 475.733 264.879 475.431 264.594C475.128 264.301 474.755 264.154 474.311 264.154Z" fill="white"/>
<path d="M478.524 263.061H480.071V263.861C480.328 263.541 480.635 263.301 480.991 263.141C481.355 262.981 481.764 262.901 482.217 262.901C483.079 262.901 483.751 263.172 484.231 263.714C484.711 264.248 484.951 264.99 484.951 265.941V269.648H483.351V266.088C483.351 265.528 483.213 265.088 482.937 264.768C482.662 264.448 482.279 264.288 481.791 264.288C481.293 264.288 480.888 264.461 480.577 264.808C480.275 265.154 480.124 265.608 480.124 266.168V269.648H478.524V263.061Z" fill="white"/>
<path d="M491.604 267.674C491.604 268.323 491.337 268.847 490.804 269.247C490.271 269.639 489.56 269.834 488.671 269.834C488.111 269.834 487.573 269.75 487.057 269.581C486.542 269.412 486.088 269.172 485.697 268.861L486.351 267.687C486.804 267.99 487.213 268.207 487.577 268.341C487.951 268.474 488.328 268.541 488.711 268.541C489.155 268.541 489.502 268.47 489.751 268.327C489.999 268.185 490.124 267.994 490.124 267.754C490.124 267.505 490.017 267.327 489.804 267.221C489.591 267.105 489.239 267.039 488.751 267.021C487.755 266.967 487.039 266.785 486.604 266.474C486.168 266.154 485.951 265.661 485.951 264.994C485.951 264.372 486.199 263.865 486.697 263.474C487.204 263.083 487.871 262.887 488.697 262.887C489.213 262.887 489.706 262.963 490.177 263.114C490.657 263.265 491.071 263.479 491.417 263.754L490.831 264.914C490.448 264.665 490.079 264.483 489.724 264.367C489.368 264.243 489.013 264.181 488.657 264.181C488.284 264.181 487.986 264.252 487.764 264.394C487.542 264.527 487.431 264.705 487.431 264.927C487.431 265.159 487.528 265.327 487.724 265.434C487.928 265.541 488.257 265.607 488.711 265.634C489.751 265.687 490.493 265.87 490.937 266.181C491.382 266.492 491.604 266.99 491.604 267.674Z" fill="white"/>
<path d="M499.297 266.354C499.297 267.35 498.96 268.185 498.284 268.861C497.608 269.528 496.764 269.861 495.751 269.861C494.746 269.861 493.911 269.528 493.244 268.861C492.586 268.194 492.257 267.363 492.257 266.368C492.257 265.372 492.595 264.541 493.271 263.874C493.946 263.208 494.791 262.874 495.804 262.874C496.808 262.874 497.64 263.208 498.297 263.874C498.964 264.532 499.297 265.359 499.297 266.354ZM493.871 266.368C493.871 266.972 494.053 267.479 494.417 267.888C494.782 268.288 495.235 268.488 495.777 268.488C496.328 268.488 496.782 268.288 497.137 267.888C497.502 267.479 497.684 266.968 497.684 266.354C497.684 265.75 497.502 265.248 497.137 264.848C496.773 264.439 496.32 264.234 495.777 264.234C495.226 264.234 494.768 264.439 494.404 264.848C494.048 265.248 493.871 265.754 493.871 266.368Z" fill="white"/>
<path d="M500.244 263.061H501.791V263.821C501.986 263.554 502.235 263.354 502.537 263.221C502.839 263.088 503.199 263.021 503.617 263.021H504.231V264.514H503.524C502.946 264.514 502.519 264.657 502.244 264.941C501.977 265.225 501.844 265.665 501.844 266.261V269.648H500.244V263.061Z" fill="white"/>
<path d="M505.511 264.461H504.631V263.061H505.511V262.261C505.511 261.621 505.679 261.136 506.017 260.808C506.364 260.479 506.866 260.314 507.524 260.314H508.537V261.581H507.791C507.559 261.581 507.386 261.639 507.271 261.754C507.164 261.87 507.111 262.048 507.111 262.288V263.061H508.537V264.461H507.111V269.648H505.511V264.461ZM509.391 260.314H510.991V269.648H509.391V260.314Z" fill="white"/>
<path d="M519.07 266.354C519.07 267.35 518.733 268.185 518.057 268.861C517.382 269.528 516.537 269.861 515.524 269.861C514.519 269.861 513.684 269.528 513.017 268.861C512.359 268.194 512.031 267.363 512.031 266.368C512.031 265.372 512.368 264.541 513.044 263.874C513.719 263.208 514.564 262.874 515.577 262.874C516.582 262.874 517.413 263.208 518.07 263.874C518.737 264.532 519.07 265.359 519.07 266.354ZM513.644 266.368C513.644 266.972 513.826 267.479 514.19 267.888C514.555 268.288 515.008 268.488 515.551 268.488C516.102 268.488 516.555 268.288 516.911 267.888C517.275 267.479 517.457 266.968 517.457 266.354C517.457 265.75 517.275 265.248 516.911 264.848C516.546 264.439 516.093 264.234 515.551 264.234C514.999 264.234 514.542 264.439 514.177 264.848C513.822 265.248 513.644 265.754 513.644 266.368Z" fill="white"/>
<path d="M529.07 263.061L527.524 269.647H525.79L524.244 265.181L522.697 269.647H520.99L519.457 263.061H521.084L521.99 267.581L523.51 263.061H525.017L526.524 267.581L527.444 263.061H529.07Z" fill="white"/>
<path d="M66.1763 70.4233C64.9861 70.4233 63.9865 70.845 63.1776 71.6886C62.3687 72.5322 61.9643 73.5779 61.9643 74.8259C61.9643 76.1086 62.3572 77.1717 63.1429 78.0153C63.9287 78.8473 64.9109 79.2633 66.0896 79.2633C67.1412 79.2633 67.9905 78.9917 68.6376 78.4486C69.2963 77.9055 69.7007 77.137 69.8509 76.1433H65.7083V74.3233H71.9483C71.9714 74.485 71.9887 74.641 72.0003 74.7913C72.0118 74.9415 72.0176 75.0744 72.0176 75.1899C72.0176 77.0042 71.4687 78.4602 70.3709 79.5579C69.2847 80.6442 67.8287 81.1873 66.0029 81.1873C64.1887 81.1873 62.6865 80.5922 61.4963 79.4019C60.3176 78.2002 59.7283 76.6864 59.7283 74.8606C59.7283 73.0464 60.3465 71.5326 61.5829 70.3193C62.8194 69.1059 64.3563 68.4993 66.1936 68.4993C67.3029 68.4993 68.3083 68.7419 69.2096 69.2273C70.1225 69.701 70.8389 70.3597 71.3589 71.2033L69.7989 72.4339C69.3483 71.7637 68.8167 71.261 68.2043 70.9259C67.6034 70.5908 66.9274 70.4233 66.1763 70.4233Z" fill="white"/>
<path d="M77.7896 79.4885C78.2634 79.4885 78.7141 79.3845 79.1416 79.1765C79.5807 78.9685 79.9794 78.6681 80.3376 78.2752L81.4296 79.4538C80.9558 80.02 80.3896 80.4534 79.7309 80.7538C79.0838 81.0427 78.3732 81.1872 77.599 81.1872C76.2354 81.1872 75.1318 80.7712 74.2883 79.9392C73.4447 79.0956 73.0229 77.9978 73.0229 76.6458C73.0229 75.3516 73.4505 74.2712 74.3056 73.4045C75.1607 72.5378 76.2238 72.1045 77.4949 72.1045C78.7661 72.1045 79.7887 72.5147 80.563 73.3352C81.3487 74.144 81.7416 75.2187 81.7416 76.5592C81.7416 76.6747 81.7358 76.7903 81.7243 76.9058C81.7127 77.0098 81.6954 77.1543 81.6723 77.3392H75.155C75.2705 77.9978 75.5652 78.5236 76.0389 78.9165C76.5127 79.2978 77.0963 79.4885 77.7896 79.4885ZM77.4949 73.7685C76.8941 73.7685 76.3856 73.9592 75.9696 74.3405C75.5536 74.7103 75.2821 75.2245 75.155 75.8832H79.6789C79.5865 75.2245 79.3438 74.7103 78.951 74.3405C78.5581 73.9592 78.0727 73.7685 77.4949 73.7685Z" fill="white"/>
<path d="M83.4577 78.206V74.1673H82.3137V72.3473H83.4577V69.9207H85.5377V72.3473H87.4444V74.1673H85.5377V77.998C85.5377 78.3793 85.6186 78.6567 85.7804 78.83C85.9422 79.0033 86.1964 79.09 86.5431 79.09H87.4444V80.91H86.1964C85.2257 80.91 84.5266 80.6962 84.0991 80.2687C83.6715 79.8411 83.4577 79.1535 83.4577 78.206Z" fill="white"/>
<path d="M100.219 68.7766H102.784L97.8442 75.8313V80.9099H95.6255V75.8139L90.7029 68.7766H93.3202L96.7696 73.9766L100.219 68.7766Z" fill="white"/>
<path d="M110.55 76.6285C110.55 77.9227 110.111 79.0089 109.232 79.8872C108.354 80.7538 107.256 81.1872 105.939 81.1872C104.633 81.1872 103.547 80.7538 102.68 79.8872C101.825 79.0205 101.398 77.9401 101.398 76.6458C101.398 75.3516 101.837 74.2712 102.715 73.4045C103.593 72.5378 104.691 72.1045 106.008 72.1045C107.314 72.1045 108.395 72.5378 109.25 73.4045C110.116 74.2596 110.55 75.3343 110.55 76.6285ZM103.495 76.6458C103.495 77.4316 103.732 78.0903 104.206 78.6218C104.679 79.1418 105.269 79.4018 105.974 79.4018C106.69 79.4018 107.279 79.1418 107.742 78.6218C108.215 78.0903 108.452 77.4258 108.452 76.6285C108.452 75.8427 108.215 75.1898 107.742 74.6698C107.268 74.1383 106.679 73.8725 105.974 73.8725C105.257 73.8725 104.662 74.1383 104.188 74.6698C103.726 75.1898 103.495 75.8485 103.495 76.6458Z" fill="white"/>
<path d="M120.048 80.9098H118.02V79.8872C117.685 80.2916 117.281 80.5978 116.807 80.8058C116.345 81.0138 115.819 81.1178 115.23 81.1178C114.12 81.1178 113.254 80.7712 112.63 80.0778C112.006 79.3729 111.694 78.4023 111.694 77.1658V72.3472H113.774V76.9752C113.774 77.7032 113.947 78.2752 114.294 78.6912C114.652 79.1072 115.149 79.3152 115.784 79.3152C116.443 79.3152 116.969 79.0898 117.362 78.6392C117.766 78.1885 117.968 77.5992 117.968 76.8712V72.3472H120.048V80.9098Z" fill="white"/>
<path d="M121.608 72.3472H123.619V73.3352C123.873 72.9885 124.197 72.7285 124.589 72.5552C124.982 72.3818 125.45 72.2952 125.993 72.2952H126.791V74.2365H125.872C125.121 74.2365 124.566 74.4214 124.208 74.7912C123.861 75.1609 123.688 75.7329 123.688 76.5072V80.9098H121.608V72.3472Z" fill="white"/>
<path d="M79.5228 90.4895H82.6775V102.623H80.4762V92.9855L77.0615 99.4682H75.2415L71.8615 93.0028V102.623H69.6602V90.4895H72.8322L76.1602 96.8855L79.5228 90.4895Z" fill="white"/>
<path d="M93.2509 98.3416C93.2509 99.6359 92.8118 100.722 91.9335 101.6C91.0553 102.467 89.9575 102.9 88.6402 102.9C87.3344 102.9 86.2482 102.467 85.3815 101.6C84.5264 100.734 84.0989 99.6532 84.0989 98.359C84.0989 97.0647 84.538 95.9843 85.4162 95.1176C86.2944 94.251 87.3922 93.8176 88.7095 93.8176C90.0153 93.8176 91.0958 94.251 91.9509 95.1176C92.8175 95.9727 93.2509 97.0474 93.2509 98.3416ZM86.1962 98.359C86.1962 99.1447 86.4331 99.8034 86.9069 100.335C87.3807 100.855 87.97 101.115 88.6749 101.115C89.3913 101.115 89.9807 100.855 90.4429 100.335C90.9167 99.8034 91.1535 99.139 91.1535 98.3416C91.1535 97.5558 90.9167 96.903 90.4429 96.383C89.9691 95.8514 89.3798 95.5856 88.6749 95.5856C87.9584 95.5856 87.3633 95.8514 86.8895 96.383C86.4273 96.903 86.1962 97.5616 86.1962 98.359Z" fill="white"/>
<path d="M101.172 90.4895H103.252V102.623H101.224V101.531C100.843 101.947 100.404 102.265 99.907 102.484C99.4217 102.704 98.8901 102.813 98.3123 102.813C97.1221 102.813 96.1283 102.398 95.331 101.566C94.5452 100.722 94.1523 99.6531 94.1523 98.3588C94.1523 97.0531 94.5683 95.9784 95.4003 95.1348C96.2323 94.2797 97.2608 93.8522 98.4857 93.8522C99.0057 93.8522 99.4968 93.9446 99.959 94.1295C100.421 94.3028 100.826 94.5628 101.172 94.9095V90.4895ZM98.6937 101.028C99.4101 101.028 100.011 100.774 100.496 100.266C100.982 99.7455 101.224 99.0984 101.224 98.3242C101.224 97.55 100.987 96.9086 100.514 96.4002C100.04 95.8917 99.4448 95.6375 98.7283 95.6375C98.0003 95.6375 97.4052 95.8859 96.943 96.3828C96.4808 96.8797 96.2497 97.5268 96.2497 98.3242C96.2497 99.1331 96.475 99.786 96.9257 100.283C97.3763 100.78 97.9657 101.028 98.6937 101.028Z" fill="white"/>
<path d="M109.232 101.202C109.706 101.202 110.157 101.098 110.584 100.89C111.023 100.682 111.422 100.381 111.78 99.9883L112.872 101.167C112.398 101.733 111.832 102.167 111.174 102.467C110.526 102.756 109.816 102.9 109.042 102.9C107.678 102.9 106.574 102.484 105.731 101.652C104.887 100.809 104.466 99.711 104.466 98.359C104.466 97.0647 104.893 95.9843 105.748 95.1176C106.603 94.251 107.666 93.8176 108.938 93.8176C110.209 93.8176 111.231 94.2278 112.006 95.0483C112.791 95.8572 113.184 96.9318 113.184 98.2723C113.184 98.3878 113.178 98.5034 113.167 98.619C113.155 98.723 113.138 98.8674 113.115 99.0523H106.598C106.713 99.711 107.008 100.237 107.482 100.63C107.955 101.011 108.539 101.202 109.232 101.202ZM108.938 95.4816C108.337 95.4816 107.828 95.6723 107.412 96.0536C106.996 96.4234 106.725 96.9376 106.598 97.5963H111.122C111.029 96.9376 110.786 96.4234 110.394 96.0536C110.001 95.6723 109.515 95.4816 108.938 95.4816Z" fill="white"/>
<path d="M114.536 90.4895H116.616V102.623H114.536V90.4895Z" fill="white"/>
<path d="M664.49 181.806C665.53 181.806 666.368 181.465 667.004 180.783C667.639 180.09 667.957 179.183 667.957 178.062V171.337H670.158V178.097C670.158 179.807 669.633 181.176 668.581 182.205C667.541 183.233 666.16 183.747 664.438 183.747C662.74 183.747 661.376 183.233 660.348 182.205C659.319 181.176 658.805 179.807 658.805 178.097V171.337H661.024V178.062C661.024 179.183 661.341 180.09 661.977 180.783C662.624 181.465 663.462 181.806 664.49 181.806Z" fill="white"/>
<path d="M678.877 180.905C678.877 181.748 678.53 182.43 677.837 182.95C677.144 183.459 676.219 183.713 675.064 183.713C674.336 183.713 673.637 183.603 672.966 183.383C672.296 183.164 671.707 182.852 671.198 182.447L672.048 180.922C672.637 181.315 673.169 181.598 673.642 181.771C674.128 181.945 674.619 182.031 675.116 182.031C675.693 182.031 676.144 181.939 676.468 181.754C676.791 181.569 676.953 181.321 676.953 181.009C676.953 180.685 676.814 180.454 676.537 180.315C676.26 180.165 675.803 180.079 675.168 180.055C673.873 179.986 672.943 179.749 672.377 179.345C671.811 178.929 671.528 178.287 671.528 177.421C671.528 176.612 671.851 175.953 672.498 175.445C673.157 174.936 674.024 174.682 675.098 174.682C675.769 174.682 676.41 174.78 677.022 174.977C677.646 175.173 678.184 175.451 678.634 175.809L677.872 177.317C677.375 176.993 676.895 176.756 676.433 176.606C675.971 176.444 675.509 176.363 675.046 176.363C674.561 176.363 674.174 176.456 673.885 176.641C673.596 176.814 673.452 177.045 673.452 177.334C673.452 177.635 673.579 177.854 673.833 177.993C674.099 178.131 674.526 178.218 675.116 178.253C676.468 178.322 677.433 178.559 678.01 178.963C678.588 179.368 678.877 180.015 678.877 180.905Z" fill="white"/>
<path d="M684.493 182.049C684.967 182.049 685.417 181.945 685.845 181.737C686.284 181.529 686.683 181.228 687.041 180.835L688.133 182.014C687.659 182.58 687.093 183.013 686.434 183.314C685.787 183.603 685.077 183.747 684.302 183.747C682.939 183.747 681.835 183.331 680.992 182.499C680.148 181.656 679.726 180.558 679.726 179.206C679.726 177.912 680.154 176.831 681.009 175.965C681.864 175.098 682.927 174.665 684.198 174.665C685.469 174.665 686.492 175.075 687.266 175.895C688.052 176.704 688.445 177.779 688.445 179.119C688.445 179.235 688.439 179.35 688.428 179.466C688.416 179.57 688.399 179.714 688.376 179.899H681.858C681.974 180.558 682.269 181.084 682.742 181.477C683.216 181.858 683.8 182.049 684.493 182.049ZM684.198 176.329C683.597 176.329 683.089 176.519 682.673 176.901C682.257 177.27 681.985 177.785 681.858 178.443H686.382C686.29 177.785 686.047 177.27 685.654 176.901C685.261 176.519 684.776 176.329 684.198 176.329Z" fill="white"/>
<path d="M689.676 174.907H691.686V175.895C691.941 175.549 692.264 175.289 692.657 175.115C693.05 174.942 693.518 174.855 694.061 174.855H694.858V176.797H693.94C693.189 176.797 692.634 176.981 692.276 177.351C691.929 177.721 691.756 178.293 691.756 179.067V183.47H689.676V174.907Z" fill="white"/>
<path d="M635.526 202.15L634.261 205.183H631.973L637.208 193.05H639.513L644.748 205.183H642.408L641.125 202.15H635.526ZM638.334 195.476L636.324 200.243H640.328L638.334 195.476Z" fill="white"/>
<path d="M647.712 208.303H645.632V196.62H647.642V197.712C648.012 197.296 648.445 196.979 648.942 196.759C649.451 196.539 649.988 196.43 650.554 196.43C651.745 196.43 652.733 196.846 653.518 197.678C654.316 198.51 654.714 199.573 654.714 200.867C654.714 202.184 654.298 203.271 653.466 204.126C652.646 204.969 651.623 205.391 650.398 205.391C649.89 205.391 649.405 205.304 648.942 205.131C648.48 204.946 648.07 204.686 647.712 204.351V208.303ZM650.173 198.198C649.457 198.198 648.856 198.458 648.37 198.978C647.885 199.498 647.642 200.145 647.642 200.919C647.642 201.693 647.879 202.335 648.353 202.843C648.838 203.351 649.433 203.606 650.138 203.606C650.878 203.606 651.473 203.357 651.924 202.86C652.386 202.363 652.617 201.711 652.617 200.902C652.617 200.093 652.386 199.44 651.924 198.943C651.473 198.446 650.889 198.198 650.173 198.198Z" fill="white"/>
<path d="M658.025 208.303H655.945V196.62H657.956V197.712C658.326 197.296 658.759 196.979 659.256 196.759C659.764 196.539 660.302 196.43 660.868 196.43C662.058 196.43 663.046 196.846 663.832 197.678C664.629 198.51 665.028 199.573 665.028 200.867C665.028 202.184 664.612 203.271 663.78 204.126C662.959 204.969 661.937 205.391 660.712 205.391C660.203 205.391 659.718 205.304 659.256 205.131C658.794 204.946 658.383 204.686 658.025 204.351V208.303ZM660.486 198.198C659.77 198.198 659.169 198.458 658.684 198.978C658.198 199.498 657.956 200.145 657.956 200.919C657.956 201.693 658.193 202.335 658.666 202.843C659.152 203.351 659.747 203.606 660.452 203.606C661.191 203.606 661.786 203.357 662.237 202.86C662.699 202.363 662.93 201.711 662.93 200.902C662.93 200.093 662.699 199.44 662.237 198.943C661.786 198.446 661.203 198.198 660.486 198.198Z" fill="white"/>
<path d="M666.38 193.05H668.46V205.183H666.38V193.05Z" fill="white"/>
<path d="M670.193 193.05H672.412V195.147H670.193V193.05ZM670.262 205.183V196.62H672.342V205.183H670.262Z" fill="white"/>
<path d="M678.218 205.46C676.855 205.46 675.757 205.044 674.925 204.212C674.105 203.38 673.694 202.283 673.694 200.919C673.694 199.636 674.133 198.562 675.012 197.695C675.89 196.817 676.976 196.378 678.27 196.378C679.195 196.378 679.986 196.586 680.645 197.002C681.304 197.418 681.789 198.013 682.101 198.787L680.42 199.671C680.189 199.163 679.894 198.781 679.536 198.527C679.177 198.273 678.75 198.146 678.253 198.146C677.537 198.146 676.947 198.411 676.485 198.943C676.023 199.463 675.792 200.122 675.792 200.919C675.792 201.728 676.029 202.392 676.502 202.912C676.976 203.421 677.583 203.675 678.322 203.675C678.796 203.675 679.224 203.548 679.605 203.294C679.998 203.039 680.327 202.675 680.593 202.202L682.188 203.068C681.876 203.796 681.361 204.38 680.645 204.819C679.929 205.247 679.12 205.46 678.218 205.46Z" fill="white"/>
<path d="M691.045 205.183H689.069V204.108C688.711 204.524 688.272 204.842 687.752 205.062C687.243 205.27 686.677 205.374 686.053 205.374C685.094 205.374 684.32 205.131 683.73 204.646C683.153 204.16 682.864 203.519 682.864 202.722C682.864 201.843 683.205 201.179 683.886 200.728C684.568 200.278 685.574 200.052 686.902 200.052H689.017C689.006 199.405 688.832 198.914 688.497 198.579C688.174 198.232 687.694 198.059 687.058 198.059C686.619 198.059 686.186 198.146 685.758 198.319C685.331 198.492 684.909 198.752 684.493 199.099L683.522 197.747C684.054 197.296 684.632 196.955 685.256 196.724C685.88 196.493 686.544 196.378 687.249 196.378C688.451 196.378 689.381 196.713 690.04 197.383C690.71 198.053 691.045 198.995 691.045 200.208V205.183ZM689.017 201.491H686.885C686.203 201.491 685.695 201.589 685.36 201.786C685.036 201.971 684.874 202.265 684.874 202.67C684.874 203.016 685.019 203.299 685.308 203.519C685.597 203.739 685.978 203.848 686.452 203.848C687.157 203.848 687.752 203.635 688.237 203.207C688.722 202.768 688.982 202.196 689.017 201.491Z" fill="white"/>
<path d="M692.986 202.479V198.44H691.842V196.62H692.986V194.194H695.066V196.62H696.973V198.44H695.066V202.271C695.066 202.652 695.147 202.93 695.309 203.103C695.471 203.276 695.725 203.363 696.072 203.363H696.973V205.183H695.725C694.754 205.183 694.055 204.969 693.628 204.542C693.2 204.114 692.986 203.426 692.986 202.479Z" fill="white"/>
<path d="M698.238 193.05H700.457V195.147H698.238V193.05ZM698.308 205.183V196.62H700.388V205.183H698.308Z" fill="white"/>
<path d="M710.892 200.902C710.892 202.196 710.453 203.282 709.574 204.16C708.696 205.027 707.598 205.46 706.281 205.46C704.975 205.46 703.889 205.027 703.022 204.16C702.167 203.294 701.74 202.213 701.74 200.919C701.74 199.625 702.179 198.544 703.057 197.678C703.935 196.811 705.033 196.378 706.35 196.378C707.656 196.378 708.737 196.811 709.592 197.678C710.458 198.533 710.892 199.607 710.892 200.902ZM703.837 200.919C703.837 201.705 704.074 202.363 704.548 202.895C705.022 203.415 705.611 203.675 706.316 203.675C707.032 203.675 707.622 203.415 708.084 202.895C708.558 202.363 708.794 201.699 708.794 200.902C708.794 200.116 708.558 199.463 708.084 198.943C707.61 198.411 707.021 198.146 706.316 198.146C705.599 198.146 705.004 198.411 704.53 198.943C704.068 199.463 703.837 200.122 703.837 200.919Z" fill="white"/>
<path d="M712.122 196.62H714.133V197.66C714.468 197.244 714.867 196.932 715.329 196.724C715.803 196.516 716.334 196.412 716.924 196.412C718.045 196.412 718.917 196.765 719.541 197.47C720.165 198.163 720.477 199.128 720.477 200.364V205.183H718.397V200.555C718.397 199.827 718.218 199.255 717.86 198.839C717.502 198.423 717.005 198.215 716.369 198.215C715.722 198.215 715.196 198.44 714.792 198.891C714.399 199.342 714.202 199.931 714.202 200.659V205.183H712.122V196.62Z" fill="white"/>
<path d="M628.27 74.8606C628.27 73.0579 628.871 71.5499 630.072 70.3366C631.274 69.1117 632.776 68.4993 634.579 68.4993C636.382 68.4993 637.878 69.1059 639.068 70.3193C640.259 71.521 640.854 73.0233 640.854 74.8259C640.854 76.6286 640.253 78.1424 639.051 79.3673C637.849 80.5806 636.353 81.1873 634.562 81.1873C632.759 81.1873 631.257 80.5864 630.055 79.3846C628.865 78.1713 628.27 76.6633 628.27 74.8606ZM630.506 74.8259C630.506 76.0855 630.893 77.137 631.667 77.9806C632.441 78.8242 633.412 79.2459 634.579 79.2459C635.735 79.2459 636.694 78.8299 637.456 77.9979C638.219 77.1659 638.6 76.1202 638.6 74.8606C638.6 73.6126 638.213 72.5668 637.439 71.7233C636.665 70.8682 635.706 70.4406 634.562 70.4406C633.395 70.4406 632.424 70.8566 631.65 71.6886C630.887 72.5206 630.506 73.5664 630.506 74.8259Z" fill="#00285A"/>
<path d="M644.251 84.0298H642.171V72.3472H644.182V73.4392C644.552 73.0232 644.985 72.7054 645.482 72.4858C645.99 72.2663 646.528 72.1565 647.094 72.1565C648.284 72.1565 649.272 72.5725 650.058 73.4045C650.855 74.2365 651.254 75.2996 651.254 76.5938C651.254 77.9112 650.838 78.9974 650.006 79.8525C649.185 80.696 648.163 81.1178 646.938 81.1178C646.429 81.1178 645.944 81.0312 645.482 80.8578C645.02 80.6729 644.609 80.4129 644.251 80.0778V84.0298ZM646.712 73.9245C645.996 73.9245 645.395 74.1845 644.91 74.7045C644.424 75.2245 644.182 75.8716 644.182 76.6458C644.182 77.4201 644.419 78.0614 644.892 78.5698C645.378 79.0783 645.973 79.3325 646.678 79.3325C647.417 79.3325 648.012 79.084 648.463 78.5872C648.925 78.0903 649.156 77.4374 649.156 76.6285C649.156 75.8196 648.925 75.1667 648.463 74.6698C648.012 74.1729 647.429 73.9245 646.712 73.9245Z" fill="#00285A"/>
<path d="M656.922 79.4885C657.395 79.4885 657.846 79.3845 658.274 79.1765C658.713 78.9685 659.112 78.6681 659.47 78.2752L660.562 79.4538C660.088 80.02 659.522 80.4534 658.863 80.7538C658.216 81.0427 657.505 81.1872 656.731 81.1872C655.368 81.1872 654.264 80.7712 653.42 79.9392C652.577 79.0956 652.155 77.9978 652.155 76.6458C652.155 75.3516 652.583 74.2712 653.438 73.4045C654.293 72.5378 655.356 72.1045 656.627 72.1045C657.898 72.1045 658.921 72.5147 659.695 73.3352C660.481 74.144 660.874 75.2187 660.874 76.5592C660.874 76.6747 660.868 76.7903 660.856 76.9058C660.845 77.0098 660.828 77.1543 660.804 77.3392H654.287C654.403 77.9978 654.697 78.5236 655.171 78.9165C655.645 79.2978 656.228 79.4885 656.922 79.4885ZM656.627 73.7685C656.026 73.7685 655.518 73.9592 655.102 74.3405C654.686 74.7103 654.414 75.2245 654.287 75.8832H658.811C658.719 75.2245 658.476 74.7103 658.083 74.3405C657.69 73.9592 657.205 73.7685 656.627 73.7685Z" fill="#00285A"/>
<path d="M662.104 72.3472H664.115V73.3872C664.45 72.9712 664.849 72.6592 665.311 72.4512C665.785 72.2432 666.316 72.1392 666.906 72.1392C668.027 72.1392 668.899 72.4916 669.523 73.1965C670.147 73.8898 670.459 74.8547 670.459 76.0912V80.9098H668.379V76.2818C668.379 75.5538 668.2 74.9818 667.842 74.5658C667.484 74.1498 666.987 73.9418 666.351 73.9418C665.704 73.9418 665.178 74.1672 664.774 74.6178C664.381 75.0685 664.185 75.6578 664.185 76.3858V80.9098H662.104V72.3472Z" fill="#00285A"/>
<path d="M675.624 80.9099L670.39 68.7766H672.782L676.803 78.3099L680.824 68.7766H683.164L677.947 80.9099H675.624Z" fill="#00285A"/>
<path d="M684.343 80.9099V68.7766H686.562V80.9099H684.343Z" fill="#00285A"/>
<path d="M690.757 72.0353V80.9099H688.607V68.7766H690.913L697.551 77.5993V68.7766H699.701V80.9099H697.43L690.757 72.0353Z" fill="#00285A"/>
<path d="M701.226 74.8606C701.226 73.0579 701.827 71.5499 703.029 70.3366C704.23 69.1117 705.732 68.4993 707.535 68.4993C709.338 68.4993 710.834 69.1059 712.024 70.3193C713.215 71.521 713.81 73.0233 713.81 74.8259C713.81 76.6286 713.209 78.1424 712.007 79.3673C710.805 80.5806 709.309 81.1873 707.518 81.1873C705.715 81.1873 704.213 80.5864 703.011 79.3846C701.821 78.1713 701.226 76.6633 701.226 74.8606ZM703.462 74.8259C703.462 76.0855 703.849 77.137 704.623 77.9806C705.397 78.8242 706.368 79.2459 707.535 79.2459C708.691 79.2459 709.65 78.8299 710.412 77.9979C711.175 77.1659 711.556 76.1202 711.556 74.8606C711.556 73.6126 711.169 72.5668 710.395 71.7233C709.621 70.8682 708.662 70.4406 707.518 70.4406C706.351 70.4406 705.38 70.8566 704.606 71.6886C703.843 72.5206 703.462 73.5664 703.462 74.8259Z" fill="#00285A"/>
<path d="M715.942 69.5739H714.382V68.6379H718.524V69.5739H716.947V73.1619H715.942V69.5739ZM722.685 68.6379H724.21V73.1619H723.204V69.6433L722.043 71.9833H721.229L720.05 69.6433V73.1619H719.044V68.6379H720.587L721.644 70.7699L722.685 68.6379Z" fill="#00285A"/>
<path d="M651.947 97.6482L655.154 102.623H652.536L649.659 98.0122H646.868V102.623H644.667V90.4895H650.266C651.722 90.4895 652.848 90.8131 653.646 91.4602C654.443 92.0957 654.842 92.9971 654.842 94.1642C654.842 95.0424 654.588 95.7819 654.079 96.3828C653.582 96.9837 652.872 97.4055 651.947 97.6482ZM652.589 94.2335C652.589 93.6442 652.386 93.1935 651.982 92.8815C651.577 92.558 650.994 92.3962 650.231 92.3962H646.868V96.1228H650.144C650.907 96.1228 651.502 95.9553 651.93 95.6202C652.369 95.2851 652.589 94.8228 652.589 94.2335Z" fill="#00285A"/>
<path d="M664.583 102.623H662.555V101.6C662.22 102.005 661.816 102.311 661.342 102.519C660.88 102.727 660.354 102.831 659.765 102.831C658.655 102.831 657.789 102.484 657.165 101.791C656.541 101.086 656.229 100.115 656.229 98.879V94.0603H658.309V98.6883C658.309 99.4163 658.482 99.9883 658.829 100.404C659.187 100.82 659.684 101.028 660.319 101.028C660.978 101.028 661.504 100.803 661.897 100.352C662.301 99.9016 662.503 99.3123 662.503 98.5843V94.0603H664.583V102.623Z" fill="#00285A"/>
<path d="M666.143 94.0603H668.154V95.1003C668.489 94.6843 668.888 94.3723 669.35 94.1643C669.824 93.9563 670.355 93.8523 670.944 93.8523C672.065 93.8523 672.938 94.2047 673.562 94.9096C674.186 95.603 674.498 96.5678 674.498 97.8043V102.623H672.418V97.995C672.418 97.267 672.239 96.695 671.88 96.279C671.522 95.863 671.025 95.655 670.39 95.655C669.743 95.655 669.217 95.8803 668.812 96.331C668.42 96.7816 668.223 97.371 668.223 98.099V102.623H666.143V94.0603Z" fill="#00285A"/>
<path d="M676.543 99.9189V95.8802H675.399V94.0602H676.543V91.6335H678.623V94.0602H680.53V95.8802H678.623V99.7109C678.623 100.092 678.704 100.37 678.866 100.543C679.028 100.716 679.282 100.803 679.629 100.803H680.53V102.623H679.282C678.311 102.623 677.612 102.409 677.185 101.982C676.757 101.554 676.543 100.866 676.543 99.9189Z" fill="#00285A"/>
<path d="M681.795 90.4895H684.014V92.5868H681.795V90.4895ZM681.864 102.623V94.0602H683.944V102.623H681.864Z" fill="#00285A"/>
<path d="M685.626 94.0603H687.636V94.9096C687.937 94.563 688.284 94.303 688.676 94.1296C689.069 93.9447 689.503 93.8523 689.976 93.8523C690.531 93.8523 691.028 93.9563 691.467 94.1643C691.906 94.3723 692.264 94.6727 692.542 95.0656C692.877 94.6727 693.276 94.3723 693.738 94.1643C694.212 93.9563 694.737 93.8523 695.315 93.8523C696.355 93.8523 697.176 94.1701 697.776 94.8056C698.377 95.4296 698.678 96.2732 698.678 97.3363V102.623H696.598V97.527C696.598 96.9376 696.453 96.4812 696.164 96.1576C695.876 95.8225 695.471 95.655 694.951 95.655C694.42 95.655 693.992 95.8398 693.668 96.2096C693.345 96.5678 693.183 97.0416 693.183 97.631V102.623H691.103V97.527C691.103 96.9376 690.959 96.4812 690.67 96.1576C690.381 95.8225 689.976 95.655 689.456 95.655C688.925 95.655 688.497 95.8398 688.174 96.2096C687.862 96.5678 687.706 97.0416 687.706 97.631V102.623H685.626V94.0603Z" fill="#00285A"/>
<path d="M704.588 101.202C705.062 101.202 705.513 101.098 705.94 100.89C706.38 100.682 706.778 100.381 707.136 99.9883L708.228 101.167C707.755 101.733 707.188 102.167 706.53 102.467C705.883 102.756 705.172 102.9 704.398 102.9C703.034 102.9 701.931 102.484 701.087 101.652C700.244 100.809 699.822 99.711 699.822 98.359C699.822 97.0647 700.249 95.9843 701.104 95.1176C701.96 94.251 703.023 93.8176 704.294 93.8176C705.565 93.8176 706.588 94.2278 707.362 95.0483C708.148 95.8572 708.54 96.9318 708.54 98.2723C708.54 98.3878 708.535 98.5034 708.523 98.619C708.512 98.723 708.494 98.8674 708.471 99.0523H701.954C702.069 99.711 702.364 100.237 702.838 100.63C703.312 101.011 703.895 101.202 704.588 101.202ZM704.294 95.4816C703.693 95.4816 703.184 95.6723 702.768 96.0536C702.352 96.4234 702.081 96.9376 701.954 97.5963H706.478C706.385 96.9376 706.143 96.4234 705.75 96.0536C705.357 95.6723 704.872 95.4816 704.294 95.4816Z" fill="#00285A"/>
<path d="M475.175 205.406V196.072H479.455C480.521 196.072 481.366 196.343 481.988 196.886C482.61 197.419 482.921 198.143 482.921 199.059C482.921 199.974 482.583 200.712 481.908 201.272C481.241 201.832 480.361 202.112 479.268 202.112H476.881V205.406H475.175ZM481.188 199.086C481.188 198.614 481.032 198.246 480.721 197.979C480.41 197.712 479.975 197.579 479.415 197.579H476.881V200.619H479.335C479.903 200.619 480.352 200.481 480.681 200.206C481.019 199.93 481.188 199.557 481.188 199.086Z" fill="white"/>
<path d="M489.494 205.406H487.974V204.579C487.699 204.899 487.361 205.143 486.961 205.312C486.57 205.472 486.135 205.552 485.655 205.552C484.917 205.552 484.321 205.366 483.868 204.992C483.423 204.619 483.201 204.126 483.201 203.512C483.201 202.837 483.463 202.326 483.988 201.979C484.512 201.632 485.286 201.459 486.308 201.459H487.934C487.926 200.961 487.792 200.583 487.534 200.326C487.286 200.059 486.917 199.926 486.428 199.926C486.09 199.926 485.757 199.992 485.428 200.126C485.099 200.259 484.774 200.459 484.454 200.726L483.708 199.686C484.117 199.339 484.561 199.077 485.041 198.899C485.521 198.721 486.032 198.632 486.574 198.632C487.499 198.632 488.215 198.89 488.721 199.406C489.237 199.921 489.494 200.646 489.494 201.579V205.406ZM487.934 202.566H486.294C485.77 202.566 485.379 202.641 485.121 202.792C484.872 202.935 484.748 203.161 484.748 203.472C484.748 203.739 484.859 203.957 485.081 204.126C485.303 204.295 485.597 204.379 485.961 204.379C486.503 204.379 486.961 204.215 487.335 203.886C487.708 203.548 487.908 203.108 487.934 202.566Z" fill="white"/>
<path d="M495.761 196.072H497.361V205.406H495.801V204.566C495.508 204.886 495.17 205.13 494.788 205.299C494.414 205.468 494.006 205.552 493.561 205.552C492.646 205.552 491.881 205.232 491.268 204.592C490.663 203.943 490.361 203.121 490.361 202.126C490.361 201.121 490.681 200.294 491.321 199.646C491.961 198.988 492.752 198.659 493.694 198.659C494.094 198.659 494.472 198.73 494.828 198.872C495.183 199.006 495.494 199.206 495.761 199.472V196.072ZM493.854 204.179C494.406 204.179 494.868 203.983 495.241 203.592C495.614 203.192 495.801 202.694 495.801 202.099C495.801 201.503 495.619 201.01 495.254 200.619C494.89 200.228 494.432 200.032 493.881 200.032C493.321 200.032 492.863 200.223 492.508 200.606C492.152 200.988 491.974 201.486 491.974 202.099C491.974 202.721 492.148 203.223 492.494 203.606C492.841 203.988 493.294 204.179 493.854 204.179Z" fill="white"/>
<path d="M503.694 196.072H505.294V205.406H503.734V204.566C503.441 204.886 503.103 205.13 502.721 205.299C502.348 205.468 501.939 205.552 501.494 205.552C500.579 205.552 499.814 205.232 499.201 204.592C498.597 203.943 498.294 203.121 498.294 202.126C498.294 201.121 498.614 200.294 499.254 199.646C499.894 198.988 500.686 198.659 501.628 198.659C502.028 198.659 502.406 198.73 502.761 198.872C503.117 199.006 503.428 199.206 503.694 199.472V196.072ZM501.788 204.179C502.339 204.179 502.801 203.983 503.174 203.592C503.548 203.192 503.734 202.694 503.734 202.099C503.734 201.503 503.552 201.01 503.188 200.619C502.823 200.228 502.366 200.032 501.814 200.032C501.254 200.032 500.797 200.223 500.441 200.606C500.086 200.988 499.908 201.486 499.908 202.099C499.908 202.721 500.081 203.223 500.428 203.606C500.774 203.988 501.228 204.179 501.788 204.179Z" fill="white"/>
<path d="M506.574 196.072H508.174V205.406H506.574V196.072Z" fill="white"/>
<path d="M512.881 204.312C513.245 204.312 513.592 204.232 513.921 204.072C514.259 203.912 514.565 203.681 514.841 203.379L515.681 204.286C515.317 204.721 514.881 205.055 514.374 205.286C513.877 205.508 513.33 205.619 512.734 205.619C511.685 205.619 510.837 205.299 510.188 204.659C509.539 204.01 509.214 203.166 509.214 202.126C509.214 201.13 509.543 200.299 510.201 199.632C510.859 198.966 511.677 198.632 512.654 198.632C513.632 198.632 514.419 198.948 515.014 199.579C515.619 200.201 515.921 201.028 515.921 202.059C515.921 202.148 515.917 202.237 515.908 202.326C515.899 202.406 515.885 202.517 515.868 202.659H510.854C510.943 203.166 511.17 203.57 511.534 203.872C511.899 204.166 512.348 204.312 512.881 204.312ZM512.654 199.912C512.192 199.912 511.801 200.059 511.481 200.352C511.161 200.637 510.952 201.032 510.854 201.539H514.334C514.263 201.032 514.077 200.637 513.774 200.352C513.472 200.059 513.099 199.912 512.654 199.912Z" fill="white"/>
<path d="M475.175 218.774V209.441H479.455C480.521 209.441 481.366 209.712 481.988 210.254C482.61 210.788 482.921 211.512 482.921 212.428C482.921 213.343 482.583 214.081 481.908 214.641C481.241 215.201 480.361 215.481 479.268 215.481H476.881V218.774H475.175ZM481.188 212.454C481.188 211.983 481.032 211.614 480.721 211.348C480.41 211.081 479.975 210.948 479.415 210.948H476.881V213.988H479.335C479.903 213.988 480.352 213.85 480.681 213.574C481.019 213.299 481.188 212.926 481.188 212.454Z" fill="white"/>
<path d="M489.494 218.775H487.974V217.948C487.699 218.268 487.361 218.512 486.961 218.681C486.57 218.841 486.135 218.921 485.655 218.921C484.917 218.921 484.321 218.735 483.868 218.361C483.423 217.988 483.201 217.495 483.201 216.881C483.201 216.206 483.463 215.695 483.988 215.348C484.512 215.001 485.286 214.828 486.308 214.828H487.934C487.926 214.33 487.792 213.952 487.534 213.695C487.286 213.428 486.917 213.295 486.428 213.295C486.09 213.295 485.757 213.361 485.428 213.495C485.099 213.628 484.774 213.828 484.454 214.095L483.708 213.055C484.117 212.708 484.561 212.446 485.041 212.268C485.521 212.09 486.032 212.001 486.574 212.001C487.499 212.001 488.215 212.259 488.721 212.775C489.237 213.29 489.494 214.015 489.494 214.948V218.775ZM487.934 215.935H486.294C485.77 215.935 485.379 216.01 485.121 216.161C484.872 216.303 484.748 216.53 484.748 216.841C484.748 217.108 484.859 217.326 485.081 217.495C485.303 217.663 485.597 217.748 485.961 217.748C486.503 217.748 486.961 217.583 487.335 217.255C487.708 216.917 487.908 216.477 487.934 215.935Z" fill="white"/>
<path d="M495.761 209.441H497.361V218.774H495.801V217.934C495.508 218.254 495.17 218.499 494.788 218.668C494.414 218.837 494.006 218.921 493.561 218.921C492.646 218.921 491.881 218.601 491.268 217.961C490.663 217.312 490.361 216.49 490.361 215.494C490.361 214.49 490.681 213.663 491.321 213.014C491.961 212.357 492.752 212.028 493.694 212.028C494.094 212.028 494.472 212.099 494.828 212.241C495.183 212.374 495.494 212.574 495.761 212.841V209.441ZM493.854 217.548C494.406 217.548 494.868 217.352 495.241 216.961C495.614 216.561 495.801 216.063 495.801 215.468C495.801 214.872 495.619 214.379 495.254 213.988C494.89 213.597 494.432 213.401 493.881 213.401C493.321 213.401 492.863 213.592 492.508 213.974C492.152 214.357 491.974 214.854 491.974 215.468C491.974 216.09 492.148 216.592 492.494 216.974C492.841 217.357 493.294 217.548 493.854 217.548Z" fill="white"/>
<path d="M503.694 209.441H505.294V218.774H503.734V217.934C503.441 218.254 503.103 218.499 502.721 218.668C502.348 218.837 501.939 218.921 501.494 218.921C500.579 218.921 499.814 218.601 499.201 217.961C498.597 217.312 498.294 216.49 498.294 215.494C498.294 214.49 498.614 213.663 499.254 213.014C499.894 212.357 500.686 212.028 501.628 212.028C502.028 212.028 502.406 212.099 502.761 212.241C503.117 212.374 503.428 212.574 503.694 212.841V209.441ZM501.788 217.548C502.339 217.548 502.801 217.352 503.174 216.961C503.548 216.561 503.734 216.063 503.734 215.468C503.734 214.872 503.552 214.379 503.188 213.988C502.823 213.597 502.366 213.401 501.814 213.401C501.254 213.401 500.797 213.592 500.441 213.974C500.086 214.357 499.908 214.854 499.908 215.468C499.908 216.09 500.081 216.592 500.428 216.974C500.774 217.357 501.228 217.548 501.788 217.548Z" fill="white"/>
<path d="M506.574 209.441H508.174V218.774H506.574V209.441Z" fill="white"/>
<path d="M512.881 217.681C513.245 217.681 513.592 217.601 513.921 217.441C514.259 217.281 514.565 217.05 514.841 216.748L515.681 217.655C515.317 218.09 514.881 218.423 514.374 218.655C513.877 218.877 513.33 218.988 512.734 218.988C511.685 218.988 510.837 218.668 510.188 218.028C509.539 217.379 509.214 216.535 509.214 215.495C509.214 214.499 509.543 213.668 510.201 213.001C510.859 212.335 511.677 212.001 512.654 212.001C513.632 212.001 514.419 212.317 515.014 212.948C515.619 213.57 515.921 214.397 515.921 215.428C515.921 215.517 515.917 215.606 515.908 215.695C515.899 215.775 515.885 215.886 515.868 216.028H510.854C510.943 216.535 511.17 216.939 511.534 217.241C511.899 217.535 512.348 217.681 512.881 217.681ZM512.654 213.281C512.192 213.281 511.801 213.428 511.481 213.721C511.161 214.006 510.952 214.401 510.854 214.908H514.334C514.263 214.401 514.077 214.006 513.774 213.721C513.472 213.428 513.099 213.281 512.654 213.281Z" fill="white"/>
<path d="M475.881 146.782C475.881 145.395 476.343 144.235 477.268 143.302C478.192 142.36 479.348 141.889 480.734 141.889C482.121 141.889 483.272 142.355 484.188 143.289C485.103 144.213 485.561 145.369 485.561 146.755C485.561 148.142 485.099 149.306 484.174 150.249C483.25 151.182 482.099 151.649 480.721 151.649C479.334 151.649 478.179 151.186 477.254 150.262C476.339 149.329 475.881 148.169 475.881 146.782ZM477.601 146.755C477.601 147.724 477.899 148.533 478.494 149.182C479.09 149.831 479.837 150.155 480.734 150.155C481.623 150.155 482.361 149.835 482.948 149.195C483.534 148.555 483.828 147.751 483.828 146.782C483.828 145.822 483.53 145.018 482.934 144.369C482.339 143.711 481.601 143.382 480.721 143.382C479.823 143.382 479.077 143.702 478.481 144.342C477.894 144.982 477.601 145.786 477.601 146.755Z" fill="white"/>
<path d="M488.375 144.609V151.435H486.721V142.102H488.495L493.601 148.889V142.102H495.255V151.435H493.508L488.375 144.609Z" fill="white"/>
<path d="M498.414 144.609V151.435H496.761V142.102H498.534L503.641 148.889V142.102H505.294V151.435H503.548L498.414 144.609Z" fill="white"/>
<path d="M508.241 151.435H506.214L509.894 146.635L506.428 142.102H508.521L510.908 145.395L513.321 142.102H515.361L511.921 146.609L515.614 151.435H513.521L510.881 147.835L508.241 151.435Z" fill="white"/>
<path d="M474.068 31.096C474.068 32.0915 473.73 32.9271 473.054 33.6026C472.379 34.2693 471.534 34.6026 470.521 34.6026C469.517 34.6026 468.681 34.2693 468.014 33.6026C467.357 32.936 467.028 32.1048 467.028 31.1093C467.028 30.1137 467.366 29.2826 468.041 28.616C468.717 27.9493 469.561 27.616 470.574 27.616C471.579 27.616 472.41 27.9493 473.068 28.616C473.734 29.2737 474.068 30.1004 474.068 31.096ZM468.641 31.1093C468.641 31.7137 468.823 32.2204 469.188 32.6293C469.552 33.0293 470.006 33.2293 470.548 33.2293C471.099 33.2293 471.552 33.0293 471.908 32.6293C472.272 32.2204 472.454 31.7093 472.454 31.096C472.454 30.4915 472.272 29.9893 471.908 29.5893C471.543 29.1804 471.09 28.976 470.548 28.976C469.997 28.976 469.539 29.1804 469.174 29.5893C468.819 29.9893 468.641 30.496 468.641 31.1093Z" fill="white"/>
<path d="M476.881 34.3891L474.148 27.8025H475.868L477.694 32.5091L479.521 27.8025H481.174L478.454 34.3891H476.881Z" fill="white"/>
<path d="M481.948 27.8025H483.801V29.6558H481.948V27.8025ZM481.948 32.5358H483.801V34.3891H481.948V32.5358Z" fill="white"/>
<path d="M485.094 27.8025H486.948V29.6558H485.094V27.8025ZM485.094 32.5358H486.948V34.3891H485.094V32.5358Z" fill="white"/>
<path d="M495.934 25.0559H498.361V34.3892H496.668V26.9759L494.041 31.9626H492.641L490.041 26.9892V34.3892H488.348V25.0559H490.788L493.348 29.9759L495.934 25.0559Z" fill="white"/>
<path d="M506.494 31.096C506.494 32.0915 506.157 32.9271 505.481 33.6026C504.805 34.2693 503.961 34.6026 502.948 34.6026C501.943 34.6026 501.108 34.2693 500.441 33.6026C499.783 32.936 499.454 32.1048 499.454 31.1093C499.454 30.1137 499.792 29.2826 500.468 28.616C501.143 27.9493 501.988 27.616 503.001 27.616C504.005 27.616 504.837 27.9493 505.494 28.616C506.161 29.2737 506.494 30.1004 506.494 31.096ZM501.068 31.1093C501.068 31.7137 501.25 32.2204 501.614 32.6293C501.979 33.0293 502.432 33.2293 502.974 33.2293C503.525 33.2293 503.979 33.0293 504.334 32.6293C504.699 32.2204 504.881 31.7093 504.881 31.096C504.881 30.4915 504.699 29.9893 504.334 29.5893C503.97 29.1804 503.517 28.976 502.974 28.976C502.423 28.976 501.965 29.1804 501.601 29.5893C501.245 29.9893 501.068 30.496 501.068 31.1093Z" fill="white"/>
<path d="M512.588 25.0559H514.188V34.3892H512.628V33.5492C512.334 33.8692 511.997 34.1137 511.614 34.2826C511.241 34.4514 510.832 34.5359 510.388 34.5359C509.472 34.5359 508.708 34.2159 508.094 33.5759C507.49 32.927 507.188 32.1048 507.188 31.1092C507.188 30.1048 507.508 29.2781 508.148 28.6292C508.788 27.9715 509.579 27.6426 510.521 27.6426C510.921 27.6426 511.299 27.7137 511.654 27.8559C512.01 27.9892 512.321 28.1892 512.588 28.4559V25.0559ZM510.681 33.1626C511.232 33.1626 511.694 32.967 512.068 32.5759C512.441 32.1759 512.628 31.6781 512.628 31.0826C512.628 30.487 512.445 29.9937 512.081 29.6026C511.717 29.2115 511.259 29.0159 510.708 29.0159C510.148 29.0159 509.69 29.207 509.334 29.5892C508.979 29.9715 508.801 30.4692 508.801 31.0826C508.801 31.7048 508.974 32.207 509.321 32.5892C509.668 32.9714 510.121 33.1626 510.681 33.1626Z" fill="white"/>
<path d="M518.788 33.296C519.152 33.296 519.499 33.216 519.828 33.056C520.166 32.896 520.472 32.6648 520.748 32.3626L521.588 33.2693C521.223 33.7048 520.788 34.0382 520.281 34.2693C519.783 34.4915 519.237 34.6026 518.641 34.6026C517.592 34.6026 516.743 34.2826 516.094 33.6426C515.446 32.9937 515.121 32.1493 515.121 31.1093C515.121 30.1137 515.45 29.2826 516.108 28.616C516.766 27.9493 517.583 27.616 518.561 27.616C519.539 27.616 520.326 27.9315 520.921 28.5626C521.526 29.1849 521.828 30.0115 521.828 31.0426C521.828 31.1315 521.823 31.2204 521.814 31.3093C521.806 31.3893 521.792 31.5004 521.774 31.6426H516.761C516.85 32.1493 517.077 32.5537 517.441 32.856C517.806 33.1493 518.254 33.296 518.788 33.296ZM518.561 28.896C518.099 28.896 517.708 29.0426 517.388 29.336C517.068 29.6204 516.859 30.016 516.761 30.5226H520.241C520.17 30.016 519.983 29.6204 519.681 29.336C519.379 29.0426 519.006 28.896 518.561 28.896Z" fill="white"/>
<path d="M522.868 25.0559H524.468V34.3892H522.868V25.0559Z" fill="white"/>
<path d="M490.381 88.6776V79.3442H492.088V88.6776H490.381Z" fill="white"/>
<path d="M499.261 84.8509L501.728 88.6776H499.714L497.501 85.1309H495.354V88.6776H493.661V79.3442H497.968C499.088 79.3442 499.954 79.5931 500.568 80.0909C501.181 80.5798 501.488 81.2731 501.488 82.1709C501.488 82.8465 501.292 83.4153 500.901 83.8776C500.519 84.3398 499.972 84.6642 499.261 84.8509ZM499.754 82.2242C499.754 81.7709 499.599 81.4242 499.288 81.1842C498.977 80.9353 498.528 80.8109 497.941 80.8109H495.354V83.6776H497.874C498.461 83.6776 498.919 83.5487 499.248 83.2909C499.586 83.0331 499.754 82.6776 499.754 82.2242Z" fill="white"/>
<path d="M473.274 100.193H475.128V102.046H473.274V100.193Z" fill="white"/>
<path d="M476.994 102.046H475.781L478.288 98.7264L475.954 95.6064H477.234L478.928 97.9664L480.648 95.6064H481.848L479.514 98.7131L482.061 102.046H480.794L478.901 99.4464L476.994 102.046Z" fill="white"/>
<path d="M482.888 95.6065H483.954V96.3799C484.194 96.0687 484.465 95.8376 484.768 95.6865C485.079 95.5265 485.425 95.4465 485.808 95.4465C486.252 95.4465 486.648 95.5399 486.994 95.7265C487.341 95.9132 487.617 96.1843 487.821 96.5399C488.061 96.1843 488.363 95.9132 488.728 95.7265C489.101 95.5399 489.519 95.4465 489.981 95.4465C490.737 95.4465 491.337 95.691 491.781 96.1799C492.234 96.6688 492.461 97.3043 492.461 98.0865V102.047H491.368V98.1532C491.368 97.611 491.23 97.1887 490.954 96.8865C490.688 96.5754 490.31 96.4199 489.821 96.4199C489.341 96.4199 488.95 96.5888 488.648 96.9265C488.354 97.2554 488.208 97.6865 488.208 98.2199V102.047H487.128V98.1532C487.128 97.611 486.99 97.1887 486.714 96.8865C486.448 96.5754 486.07 96.4199 485.581 96.4199C485.101 96.4199 484.71 96.5888 484.408 96.9265C484.114 97.2554 483.968 97.6865 483.968 98.2199V102.047H482.888V95.6065Z" fill="white"/>
<path d="M493.914 92.7131H495.008V102.046H493.914V92.7131Z" fill="white"/>
<path d="M498.941 100.7H500.288V102.046H498.941V100.7Z" fill="white"/>
<path d="M502.701 102.046H501.634V92.7131H502.714V96.6065C502.999 96.242 503.345 95.962 503.754 95.7665C504.172 95.562 504.612 95.4598 505.074 95.4598C505.981 95.4598 506.737 95.7754 507.341 96.4065C507.954 97.0287 508.261 97.8287 508.261 98.8065C508.261 99.7931 507.95 100.606 507.328 101.246C506.705 101.878 505.936 102.193 505.021 102.193C504.568 102.193 504.137 102.095 503.728 101.9C503.328 101.704 502.985 101.433 502.701 101.086V102.046ZM504.968 96.4198C504.328 96.4198 503.785 96.6553 503.341 97.1265C502.897 97.5887 502.674 98.1665 502.674 98.8598C502.674 99.5353 502.892 100.104 503.328 100.566C503.763 101.02 504.296 101.246 504.928 101.246C505.585 101.246 506.119 101.029 506.528 100.593C506.945 100.149 507.154 99.562 507.154 98.8331C507.154 98.1131 506.95 97.5309 506.541 97.0865C506.141 96.642 505.617 96.4198 504.968 96.4198Z" fill="white"/>
<path d="M509.448 93.4465H510.648V94.6332H509.448V93.4465ZM509.501 102.047V95.6065H510.594V102.047H509.501Z" fill="white"/>
<path d="M512.128 95.6065H513.194V96.6065C513.452 96.2332 513.777 95.9488 514.168 95.7532C514.568 95.5488 515.012 95.4465 515.501 95.4465C516.354 95.4465 517.021 95.7221 517.501 96.2732C517.981 96.8243 518.221 97.5799 518.221 98.5399V102.047H517.141V98.6065C517.141 97.931 516.972 97.3976 516.634 97.0065C516.305 96.6154 515.843 96.4199 515.248 96.4199C514.634 96.4199 514.141 96.6287 513.768 97.0465C513.394 97.4643 513.208 98.0065 513.208 98.6732V102.047H512.128V95.6065Z" fill="white"/>
<path d="M267.539 59.192C267.539 59.9493 267.326 60.6107 266.899 61.176C266.472 61.7307 265.896 62.0933 265.171 62.264L268.307 67H265.619L263.283 63.16C263.166 62.968 263.054 62.84 262.947 62.776C262.84 62.712 262.675 62.68 262.451 62.68H261.763V67H259.491V55.96H263.731C264.318 55.96 264.846 56.0347 265.315 56.184C265.784 56.3333 266.184 56.5467 266.515 56.824C266.846 57.1013 267.096 57.4427 267.267 57.848C267.448 58.2427 267.539 58.6907 267.539 59.192ZM265.219 59.368C265.219 58.824 265.075 58.424 264.787 58.168C264.499 57.912 264.035 57.784 263.395 57.784H261.763V61.016H263.347C263.955 61.016 264.419 60.8773 264.739 60.6C265.059 60.3227 265.219 59.912 265.219 59.368ZM276.782 67H275.486C275.188 67 274.974 66.936 274.846 66.808C274.718 66.68 274.654 66.4827 274.654 66.216V65.768C274.441 66.248 274.11 66.6107 273.662 66.856C273.225 67.0907 272.718 67.208 272.142 67.208C271.257 67.208 270.585 66.9467 270.126 66.424C269.678 65.9013 269.454 65.1387 269.454 64.136V58.92H271.726V63.992C271.726 64.5147 271.828 64.888 272.03 65.112C272.233 65.336 272.532 65.448 272.926 65.448C273.449 65.448 273.844 65.2613 274.11 64.888C274.377 64.5147 274.51 64.008 274.51 63.368V58.92H276.782V67ZM279.018 58.92H280.314C280.858 58.92 281.13 59.1547 281.13 59.624V60.216C281.344 59.7573 281.68 59.3947 282.138 59.128C282.597 58.8507 283.146 58.712 283.786 58.712C284.65 58.712 285.317 58.9627 285.786 59.464C286.266 59.9653 286.506 60.7173 286.506 61.72V67H284.234V61.88C284.234 60.9413 283.818 60.472 282.986 60.472C282.464 60.472 282.048 60.6587 281.738 61.032C281.44 61.4053 281.29 61.9227 281.29 62.584V67H279.018V58.92ZM297.684 65.32C298.654 65.32 299.39 65 299.892 64.36C300.404 63.72 300.66 62.76 300.66 61.48C300.66 60.2107 300.404 59.256 299.892 58.616C299.39 57.9653 298.654 57.64 297.684 57.64C296.713 57.64 295.972 57.9653 295.46 58.616C294.958 59.256 294.708 60.2107 294.708 61.48C294.708 62.76 294.958 63.72 295.46 64.36C295.972 65 296.713 65.32 297.684 65.32ZM297.684 67.24C296.852 67.24 296.1 67.112 295.428 66.856C294.756 66.5893 294.185 66.2107 293.716 65.72C293.257 65.2187 292.9 64.6107 292.644 63.896C292.398 63.1813 292.276 62.376 292.276 61.48C292.276 60.584 292.398 59.784 292.644 59.08C292.9 58.3653 293.257 57.7627 293.716 57.272C294.185 56.7707 294.756 56.3867 295.428 56.12C296.1 55.8533 296.852 55.72 297.684 55.72C298.516 55.72 299.268 55.8533 299.94 56.12C300.612 56.3867 301.177 56.7707 301.636 57.272C302.105 57.7627 302.462 58.3653 302.708 59.08C302.964 59.784 303.092 60.584 303.092 61.48C303.092 62.376 302.964 63.1813 302.708 63.896C302.462 64.6107 302.105 65.2187 301.636 65.72C301.177 66.2107 300.612 66.5893 299.94 66.856C299.268 67.112 298.516 67.24 297.684 67.24ZM307.115 60.296C307.361 59.752 307.739 59.352 308.251 59.096C308.763 58.84 309.307 58.712 309.883 58.712C310.854 58.712 311.638 59.0587 312.235 59.752C312.833 60.4347 313.131 61.4427 313.131 62.776C313.131 63.4267 313.051 64.024 312.891 64.568C312.742 65.112 312.518 65.5813 312.219 65.976C311.931 66.36 311.574 66.664 311.147 66.888C310.721 67.1013 310.241 67.208 309.707 67.208C309.259 67.208 308.806 67.1227 308.347 66.952C307.899 66.7707 307.537 66.4613 307.259 66.024V70.36H304.987V58.92H306.299C306.843 58.92 307.115 59.16 307.115 59.64V60.296ZM307.195 63.064C307.195 63.8107 307.345 64.3973 307.643 64.824C307.953 65.24 308.406 65.448 309.003 65.448C309.323 65.448 309.595 65.384 309.819 65.256C310.054 65.128 310.241 64.952 310.379 64.728C310.529 64.4933 310.635 64.2213 310.699 63.912C310.774 63.6027 310.811 63.272 310.811 62.92C310.811 62.1307 310.667 61.528 310.379 61.112C310.091 60.6853 309.659 60.472 309.083 60.472C308.475 60.472 308.006 60.7067 307.675 61.176C307.355 61.6347 307.195 62.264 307.195 63.064ZM316.685 63.448C316.77 64.152 317.005 64.664 317.389 64.984C317.783 65.2933 318.327 65.448 319.021 65.448C319.394 65.448 319.751 65.4 320.093 65.304C320.434 65.208 320.738 65.0693 321.005 64.888L321.773 66.232C321.015 66.8827 320.018 67.208 318.781 67.208C318.045 67.208 317.405 67.1013 316.861 66.888C316.327 66.664 315.879 66.36 315.517 65.976C315.165 65.592 314.903 65.1387 314.733 64.616C314.562 64.0933 314.477 63.5333 314.477 62.936C314.477 62.2427 314.583 61.6347 314.797 61.112C315.01 60.5787 315.298 60.136 315.661 59.784C316.034 59.432 316.466 59.1653 316.957 58.984C317.458 58.8027 317.986 58.712 318.541 58.712C319.106 58.712 319.607 58.8027 320.045 58.984C320.482 59.1547 320.845 59.4 321.133 59.72C321.431 60.04 321.655 60.424 321.805 60.872C321.965 61.3093 322.045 61.8 322.045 62.344C322.045 62.5253 322.034 62.7173 322.013 62.92C322.002 63.112 321.975 63.288 321.933 63.448H316.685ZM318.541 60.376C318.029 60.376 317.613 60.5307 317.293 60.84C316.973 61.1493 316.786 61.576 316.733 62.12H319.997V61.912C319.997 61.4213 319.863 61.0427 319.597 60.776C319.341 60.5093 318.989 60.376 318.541 60.376ZM323.8 58.92H325.096C325.64 58.92 325.912 59.1547 325.912 59.624V60.216C326.125 59.7573 326.461 59.3947 326.92 59.128C327.378 58.8507 327.928 58.712 328.568 58.712C329.432 58.712 330.098 58.9627 330.568 59.464C331.048 59.9653 331.288 60.7173 331.288 61.72V67H329.016V61.88C329.016 60.9413 328.6 60.472 327.768 60.472C327.245 60.472 326.829 60.6587 326.52 61.032C326.221 61.4053 326.072 61.9227 326.072 62.584V67H323.8V58.92ZM335.071 55.96L337.743 64.696L340.367 55.96H342.943L338.927 67H336.463L332.447 55.96H335.071ZM346.624 67H344.288V55.96H346.624V67ZM351.754 55.96L356.042 63.88V55.96H358.25V67H355.674L351.386 59.224V67H349.178V55.96H351.754ZM365.699 65.32C366.67 65.32 367.406 65 367.907 64.36C368.419 63.72 368.675 62.76 368.675 61.48C368.675 60.2107 368.419 59.256 367.907 58.616C367.406 57.9653 366.67 57.64 365.699 57.64C364.729 57.64 363.987 57.9653 363.475 58.616C362.974 59.256 362.723 60.2107 362.723 61.48C362.723 62.76 362.974 63.72 363.475 64.36C363.987 65 364.729 65.32 365.699 65.32ZM365.699 67.24C364.867 67.24 364.115 67.112 363.443 66.856C362.771 66.5893 362.201 66.2107 361.731 65.72C361.273 65.2187 360.915 64.6107 360.659 63.896C360.414 63.1813 360.291 62.376 360.291 61.48C360.291 60.584 360.414 59.784 360.659 59.08C360.915 58.3653 361.273 57.7627 361.731 57.272C362.201 56.7707 362.771 56.3867 363.443 56.12C364.115 55.8533 364.867 55.72 365.699 55.72C366.531 55.72 367.283 55.8533 367.955 56.12C368.627 56.3867 369.193 56.7707 369.651 57.272C370.121 57.7627 370.478 58.3653 370.723 59.08C370.979 59.784 371.107 60.584 371.107 61.48C371.107 62.376 370.979 63.1813 370.723 63.896C370.478 64.6107 370.121 65.2187 369.651 65.72C369.193 66.2107 368.627 66.5893 367.955 66.856C367.283 67.112 366.531 67.24 365.699 67.24ZM258.043 83.448V91H255.835V79.96H258.411L261.403 85.976L264.411 79.96H266.891V91H264.683V83.432L262.283 88.216H260.443L258.043 83.448ZM277.156 86.952C277.156 87.624 277.055 88.2267 276.852 88.76C276.66 89.2827 276.383 89.7253 276.02 90.088C275.657 90.4507 275.22 90.728 274.708 90.92C274.196 91.112 273.625 91.208 272.996 91.208C272.367 91.208 271.796 91.112 271.284 90.92C270.772 90.728 270.335 90.4507 269.972 90.088C269.609 89.7253 269.327 89.2827 269.124 88.76C268.932 88.2267 268.836 87.624 268.836 86.952C268.836 86.28 268.932 85.6827 269.124 85.16C269.327 84.6373 269.609 84.1947 269.972 83.832C270.335 83.4693 270.772 83.192 271.284 83C271.796 82.808 272.367 82.712 272.996 82.712C273.625 82.712 274.196 82.808 274.708 83C275.22 83.192 275.657 83.4693 276.02 83.832C276.383 84.1947 276.66 84.6373 276.852 85.16C277.055 85.6827 277.156 86.28 277.156 86.952ZM274.836 86.952C274.836 86.1307 274.676 85.512 274.356 85.096C274.047 84.68 273.593 84.472 272.996 84.472C272.399 84.472 271.94 84.68 271.62 85.096C271.311 85.512 271.156 86.1307 271.156 86.952C271.156 87.784 271.311 88.408 271.62 88.824C271.94 89.24 272.399 89.448 272.996 89.448C273.593 89.448 274.047 89.24 274.356 88.824C274.676 88.408 274.836 87.784 274.836 86.952ZM286.636 91H285.324C284.78 91 284.508 90.76 284.508 90.28V89.752C284.295 90.2 283.964 90.5573 283.516 90.824C283.079 91.08 282.551 91.208 281.932 91.208C281.399 91.208 280.919 91.1067 280.492 90.904C280.066 90.7013 279.703 90.4187 279.404 90.056C279.116 89.6827 278.892 89.2347 278.732 88.712C278.572 88.1893 278.492 87.6027 278.492 86.952C278.492 86.28 278.578 85.6827 278.748 85.16C278.919 84.6267 279.159 84.184 279.468 83.832C279.778 83.4693 280.146 83.192 280.572 83C281.01 82.808 281.495 82.712 282.028 82.712C282.54 82.712 282.999 82.8133 283.404 83.016C283.81 83.2187 284.13 83.5067 284.364 83.88V79.528H286.636V91ZM284.428 86.968C284.428 86.1893 284.274 85.5813 283.964 85.144C283.666 84.696 283.223 84.472 282.636 84.472C282.06 84.472 281.612 84.6907 281.292 85.128C280.972 85.5653 280.812 86.1787 280.812 86.968C280.812 87.768 280.962 88.3813 281.26 88.808C281.559 89.2347 282.002 89.448 282.588 89.448C283.164 89.448 283.612 89.2293 283.932 88.792C284.263 88.344 284.428 87.736 284.428 86.968ZM290.638 87.448C290.723 88.152 290.958 88.664 291.342 88.984C291.736 89.2933 292.28 89.448 292.974 89.448C293.347 89.448 293.704 89.4 294.046 89.304C294.387 89.208 294.691 89.0693 294.958 88.888L295.726 90.232C294.968 90.8827 293.971 91.208 292.734 91.208C291.998 91.208 291.358 91.1013 290.814 90.888C290.28 90.664 289.832 90.36 289.47 89.976C289.118 89.592 288.856 89.1387 288.686 88.616C288.515 88.0933 288.43 87.5333 288.43 86.936C288.43 86.2427 288.536 85.6347 288.75 85.112C288.963 84.5787 289.251 84.136 289.614 83.784C289.987 83.432 290.419 83.1653 290.91 82.984C291.411 82.8027 291.939 82.712 292.494 82.712C293.059 82.712 293.56 82.8027 293.998 82.984C294.435 83.1547 294.798 83.4 295.086 83.72C295.384 84.04 295.608 84.424 295.758 84.872C295.918 85.3093 295.998 85.8 295.998 86.344C295.998 86.5253 295.987 86.7173 295.966 86.92C295.955 87.112 295.928 87.288 295.886 87.448H290.638ZM292.494 84.376C291.982 84.376 291.566 84.5307 291.246 84.84C290.926 85.1493 290.739 85.576 290.686 86.12H293.95V85.912C293.95 85.4213 293.816 85.0427 293.55 84.776C293.294 84.5093 292.942 84.376 292.494 84.376ZM299.993 79.528V88.248C299.993 88.6747 300.057 88.9573 300.185 89.096C300.323 89.224 300.595 89.288 301.001 89.288H301.145V91C300.91 91.0533 300.569 91.08 300.121 91.08C299.257 91.08 298.638 90.8667 298.265 90.44C297.902 90.0133 297.721 89.3733 297.721 88.52V79.528H299.993ZM315.426 90.232C315.01 90.5413 314.508 90.7867 313.922 90.968C313.346 91.1493 312.69 91.24 311.954 91.24C311.068 91.24 310.284 91.1067 309.602 90.84C308.919 90.5627 308.343 90.1787 307.874 89.688C307.404 89.1867 307.047 88.584 306.802 87.88C306.556 87.1653 306.434 86.3707 306.434 85.496C306.434 84.5787 306.567 83.7627 306.834 83.048C307.1 82.3227 307.479 81.7147 307.97 81.224C308.46 80.7333 309.047 80.36 309.73 80.104C310.423 79.848 311.196 79.72 312.05 79.72C313.394 79.72 314.476 80.0347 315.298 80.664L314.434 82.28C314.103 82.056 313.751 81.896 313.378 81.8C313.015 81.6933 312.631 81.64 312.226 81.64C311.127 81.64 310.29 81.9707 309.714 82.632C309.148 83.2933 308.866 84.248 308.866 85.496C308.866 86.7333 309.148 87.6773 309.714 88.328C310.29 88.9787 311.127 89.304 312.226 89.304C312.706 89.304 313.138 89.2453 313.522 89.128C313.906 89 314.252 88.8293 314.562 88.616L315.426 90.232ZM324.406 86.952C324.406 87.624 324.305 88.2267 324.102 88.76C323.91 89.2827 323.633 89.7253 323.27 90.088C322.907 90.4507 322.47 90.728 321.958 90.92C321.446 91.112 320.875 91.208 320.246 91.208C319.617 91.208 319.046 91.112 318.534 90.92C318.022 90.728 317.585 90.4507 317.222 90.088C316.859 89.7253 316.577 89.2827 316.374 88.76C316.182 88.2267 316.086 87.624 316.086 86.952C316.086 86.28 316.182 85.6827 316.374 85.16C316.577 84.6373 316.859 84.1947 317.222 83.832C317.585 83.4693 318.022 83.192 318.534 83C319.046 82.808 319.617 82.712 320.246 82.712C320.875 82.712 321.446 82.808 321.958 83C322.47 83.192 322.907 83.4693 323.27 83.832C323.633 84.1947 323.91 84.6373 324.102 85.16C324.305 85.6827 324.406 86.28 324.406 86.952ZM322.086 86.952C322.086 86.1307 321.926 85.512 321.606 85.096C321.297 84.68 320.843 84.472 320.246 84.472C319.649 84.472 319.19 84.68 318.87 85.096C318.561 85.512 318.406 86.1307 318.406 86.952C318.406 87.784 318.561 88.408 318.87 88.824C319.19 89.24 319.649 89.448 320.246 89.448C320.843 89.448 321.297 89.24 321.606 88.824C321.926 88.408 322.086 87.784 322.086 86.952ZM326.19 82.92H327.486C328.03 82.92 328.302 83.1547 328.302 83.624V84.216C328.516 83.7573 328.852 83.3947 329.31 83.128C329.769 82.8507 330.318 82.712 330.958 82.712C331.822 82.712 332.489 82.9627 332.958 83.464C333.438 83.9653 333.678 84.7173 333.678 85.72V91H331.406V85.88C331.406 84.9413 330.99 84.472 330.158 84.472C329.636 84.472 329.22 84.6587 328.91 85.032C328.612 85.4053 328.462 85.9227 328.462 86.584V91H326.19V82.92ZM337.003 82.92L338.811 89L340.619 82.92H343.003L339.899 91H337.675L334.571 82.92H337.003ZM345.919 87.448C346.004 88.152 346.239 88.664 346.623 88.984C347.018 89.2933 347.562 89.448 348.255 89.448C348.628 89.448 348.986 89.4 349.327 89.304C349.668 89.208 349.972 89.0693 350.239 88.888L351.007 90.232C350.25 90.8827 349.252 91.208 348.015 91.208C347.279 91.208 346.639 91.1013 346.095 90.888C345.562 90.664 345.114 90.36 344.751 89.976C344.399 89.592 344.138 89.1387 343.967 88.616C343.796 88.0933 343.711 87.5333 343.711 86.936C343.711 86.2427 343.818 85.6347 344.031 85.112C344.244 84.5787 344.532 84.136 344.895 83.784C345.268 83.432 345.7 83.1653 346.191 82.984C346.692 82.8027 347.22 82.712 347.775 82.712C348.34 82.712 348.842 82.8027 349.279 82.984C349.716 83.1547 350.079 83.4 350.367 83.72C350.666 84.04 350.89 84.424 351.039 84.872C351.199 85.3093 351.279 85.8 351.279 86.344C351.279 86.5253 351.268 86.7173 351.247 86.92C351.236 87.112 351.21 87.288 351.167 87.448H345.919ZM347.775 84.376C347.263 84.376 346.847 84.5307 346.527 84.84C346.207 85.1493 346.02 85.576 345.967 86.12H349.231V85.912C349.231 85.4213 349.098 85.0427 348.831 84.776C348.575 84.5093 348.223 84.376 347.775 84.376ZM353.034 82.92H354.33C354.874 82.92 355.146 83.1547 355.146 83.624V84.616C355.317 84.072 355.599 83.64 355.994 83.32C356.399 82.9893 356.901 82.824 357.498 82.824C357.743 82.824 357.957 82.8507 358.138 82.904V84.76H357.674C356.863 84.76 356.266 84.968 355.882 85.384C355.498 85.8 355.306 86.4933 355.306 87.464V91H353.034V82.92ZM363.965 89.256V90.952C363.794 90.9947 363.607 91.0267 363.405 91.048C363.202 91.0693 362.962 91.08 362.685 91.08C361.725 91.08 361.021 90.8613 360.573 90.424C360.125 89.976 359.901 89.2507 359.901 88.248V84.648H358.701V82.92H359.901V80.984H362.173V82.92H363.965V84.648H362.173V88.04C362.173 88.52 362.279 88.8453 362.493 89.016C362.706 89.176 363.09 89.256 363.645 89.256H363.965ZM367.2 87.448C367.286 88.152 367.52 88.664 367.904 88.984C368.299 89.2933 368.843 89.448 369.536 89.448C369.91 89.448 370.267 89.4 370.608 89.304C370.95 89.208 371.254 89.0693 371.52 88.888L372.288 90.232C371.531 90.8827 370.534 91.208 369.296 91.208C368.56 91.208 367.92 91.1013 367.376 90.888C366.843 90.664 366.395 90.36 366.032 89.976C365.68 89.592 365.419 89.1387 365.248 88.616C365.078 88.0933 364.992 87.5333 364.992 86.936C364.992 86.2427 365.099 85.6347 365.312 85.112C365.526 84.5787 365.814 84.136 366.176 83.784C366.55 83.432 366.982 83.1653 367.472 82.984C367.974 82.8027 368.502 82.712 369.056 82.712C369.622 82.712 370.123 82.8027 370.56 82.984C370.998 83.1547 371.36 83.4 371.648 83.72C371.947 84.04 372.171 84.424 372.32 84.872C372.48 85.3093 372.56 85.8 372.56 86.344C372.56 86.5253 372.55 86.7173 372.528 86.92C372.518 87.112 372.491 87.288 372.448 87.448H367.2ZM369.056 84.376C368.544 84.376 368.128 84.5307 367.808 84.84C367.488 85.1493 367.302 85.576 367.248 86.12H370.512V85.912C370.512 85.4213 370.379 85.0427 370.112 84.776C369.856 84.5093 369.504 84.376 369.056 84.376ZM374.315 82.92H375.611C376.155 82.92 376.427 83.1547 376.427 83.624V84.616C376.598 84.072 376.881 83.64 377.275 83.32C377.681 82.9893 378.182 82.824 378.779 82.824C379.025 82.824 379.238 82.8507 379.419 82.904V84.76H378.955C378.145 84.76 377.547 84.968 377.163 85.384C376.779 85.8 376.587 86.4933 376.587 87.464V91H374.315V82.92ZM298.69 110.472C298.69 111.827 298.845 113.075 299.154 114.216C299.474 115.357 299.943 116.493 300.562 117.624H298.386C297.746 116.685 297.239 115.613 296.866 114.408C296.503 113.192 296.322 111.88 296.322 110.472C296.322 109.064 296.503 107.757 296.866 106.552C297.239 105.336 297.746 104.259 298.386 103.32H300.562C299.943 104.451 299.474 105.587 299.154 106.728C298.845 107.869 298.69 109.117 298.69 110.472ZM306.934 113.32C307.904 113.32 308.64 113 309.142 112.36C309.654 111.72 309.91 110.76 309.91 109.48C309.91 108.211 309.654 107.256 309.142 106.616C308.64 105.965 307.904 105.64 306.934 105.64C305.963 105.64 305.222 105.965 304.71 106.616C304.208 107.256 303.958 108.211 303.958 109.48C303.958 110.76 304.208 111.72 304.71 112.36C305.222 113 305.963 113.32 306.934 113.32ZM306.934 115.24C306.102 115.24 305.35 115.112 304.678 114.856C304.006 114.589 303.435 114.211 302.966 113.72C302.507 113.219 302.15 112.611 301.894 111.896C301.648 111.181 301.526 110.376 301.526 109.48C301.526 108.584 301.648 107.784 301.894 107.08C302.15 106.365 302.507 105.763 302.966 105.272C303.435 104.771 304.006 104.387 304.678 104.12C305.35 103.853 306.102 103.72 306.934 103.72C307.766 103.72 308.518 103.853 309.19 104.12C309.862 104.387 310.427 104.771 310.886 105.272C311.355 105.763 311.712 106.365 311.958 107.08C312.214 107.784 312.342 108.584 312.342 109.48C312.342 110.376 312.214 111.181 311.958 111.896C311.712 112.611 311.355 113.219 310.886 113.72C310.427 114.211 309.862 114.589 309.19 114.856C308.518 115.112 307.766 115.24 306.934 115.24ZM315.493 103.96L318.165 112.696L320.789 103.96H323.365L319.349 115H316.885L312.869 103.96H315.493ZM332.941 114.232C332.525 114.541 332.024 114.787 331.437 114.968C330.861 115.149 330.205 115.24 329.469 115.24C328.584 115.24 327.8 115.107 327.117 114.84C326.435 114.563 325.859 114.179 325.389 113.688C324.92 113.187 324.563 112.584 324.317 111.88C324.072 111.165 323.949 110.371 323.949 109.496C323.949 108.579 324.083 107.763 324.349 107.048C324.616 106.323 324.995 105.715 325.485 105.224C325.976 104.733 326.563 104.36 327.245 104.104C327.939 103.848 328.712 103.72 329.565 103.72C330.909 103.72 331.992 104.035 332.813 104.664L331.949 106.28C331.619 106.056 331.267 105.896 330.893 105.8C330.531 105.693 330.147 105.64 329.741 105.64C328.643 105.64 327.805 105.971 327.229 106.632C326.664 107.293 326.381 108.248 326.381 109.496C326.381 110.733 326.664 111.677 327.229 112.328C327.805 112.979 328.643 113.304 329.741 113.304C330.221 113.304 330.653 113.245 331.037 113.128C331.421 113 331.768 112.829 332.077 112.616L332.941 114.232ZM335.306 110.472C335.306 109.117 335.146 107.869 334.826 106.728C334.517 105.587 334.053 104.451 333.434 103.32H335.61C336.25 104.259 336.752 105.336 337.114 106.552C337.488 107.757 337.674 109.064 337.674 110.472C337.674 111.88 337.488 113.192 337.114 114.408C336.752 115.613 336.25 116.685 335.61 117.624H333.434C334.053 116.493 334.517 115.357 334.826 114.216C335.146 113.075 335.306 111.827 335.306 110.472Z" fill="white"/>
</g>
<defs>
<clipPath id="clip0_6_2575">
<rect width="768.646" height="289" fill="white"/>
</clipPath>
</defs>
</svg>
