<?xml version="1.0" encoding="UTF-8" standalone="no"?>
<svg
   width="992"
   height="432"
   overflow="hidden"
   version="1.1"
   id="svg2763"
   sodipodi:docname="MO_connection_example_1.svg"
   inkscape:version="1.2.1 (9c6d41e410, 2022-07-14)"
   xmlns:inkscape="http://www.inkscape.org/namespaces/inkscape"
   xmlns:sodipodi="http://sodipodi.sourceforge.net/DTD/sodipodi-0.dtd"
   xmlns="http://www.w3.org/2000/svg"
   xmlns:svg="http://www.w3.org/2000/svg">
  <sodipodi:namedview
     id="namedview2765"
     pagecolor="#ffffff"
     bordercolor="#000000"
     borderopacity="0.25"
     inkscape:showpageshadow="2"
     inkscape:pageopacity="0.0"
     inkscape:pagecheckerboard="0"
     inkscape:deskcolor="#d1d1d1"
     showgrid="false"
     inkscape:zoom="1.2409274"
     inkscape:cx="496"
     inkscape:cy="215.96751"
     inkscape:window-width="1920"
     inkscape:window-height="1009"
     inkscape:window-x="-8"
     inkscape:window-y="-8"
     inkscape:window-maximized="1"
     inkscape:current-layer="svg2763" />
  <defs
     id="defs2611">
    <clipPath
       id="clip0">
      <rect
         x="0"
         y="0"
         width="992"
         height="432"
         id="rect2608" />
    </clipPath>
  </defs>
  <g
     clip-path="url(#clip0)"
     id="g2761">
    <path
       id="rect2613"
       style="fill:#ffffff"
       d="M 0,0 H 992 V 432 H 0 Z" />
    <path
       id="rect2615"
       style="fill:#e9e9e9;stroke:#000000;stroke-width:1.33333;stroke-miterlimit:8"
       d="M 58.500099,26.500099 H 315.5001 V 186.5001 H 58.500099 Z" />
    <g
       aria-label="Op1"
       transform="translate(160.013 118)"
       id="text2617"
       style="font-size:32px;font-family:'IntelOne Display Regular', 'IntelOne Display Regular_MSFontService', sans-serif">
      <path
         d="m 1.184,-11.168 q 0,-4.96 3.296,-8.352 3.296,-3.392 8.128,-3.392 4.864,0 8.096,3.36 3.264,3.328 3.264,8.32 0,4.992 -3.296,8.384 -3.264,3.36 -8.096,3.36 -4.864,0 -8.128,-3.328 -3.264,-3.36 -3.264,-8.352 z M 4,-11.232 q 0,3.936 2.464,6.624 2.496,2.656 6.144,2.656 3.648,0 6.08,-2.624 2.464,-2.656 2.464,-6.592 0,-3.936 -2.464,-6.592 -2.464,-2.688 -6.112,-2.688 -3.68,0 -6.144,2.656 Q 4,-15.168 4,-11.232 Z"
         id="path2769" />
      <path
         d="m 29.439978,5.76 h -2.592 v -21.216 h 2.56 v 2.496 q 1.024,-1.344 2.528,-2.08 1.504,-0.768 3.2,-0.768 3.264,0 5.44,2.272 2.176,2.24 2.176,5.76 0,3.552 -2.272,5.856 -2.24,2.272 -5.536,2.272 -1.568,0 -3.04,-0.64 -1.44,-0.672 -2.464,-1.888 z m 5.408,-19.264 q -2.336,0 -3.936,1.696 -1.568,1.664 -1.568,4.16 0,2.464 1.536,4.096 1.568,1.632 3.872,1.632 2.368,0 3.84,-1.568 1.504,-1.6 1.504,-4.224 0,-2.592 -1.472,-4.192 -1.44,-1.6 -3.776,-1.6 z"
         id="path2771" />
      <path
         d="m 48.063958,-19.968 h -3.456 V -22.4 h 6.144 V 0 h -2.688 z"
         id="path2773" />
    </g>
    <path
       id="rect2619"
       style="fill:#ffe17a;stroke:#edb200;stroke-width:1.33333;stroke-miterlimit:8"
       d="M 58.500099,26.500099 H 102.5001 v 42 H 58.500099 Z" />
    <g
       aria-label="0"
       transform="translate(74.1892 54)"
       id="text2621"
       style="font-size:19px;font-family:'IntelOne Display Regular', 'IntelOne Display Regular_MSFontService', sans-serif">
      <path
         d="m 0.703,-6.327 v -0.608 q 0,-3.059 1.463,-4.864 1.463,-1.805 3.914,-1.805 2.451,0 3.876,1.786 1.444,1.786 1.444,4.845 v 0.608 q 0,3.059 -1.463,4.864 -1.444,1.805 -3.895,1.805 -2.451,0 -3.895,-1.786 -1.444,-1.786 -1.444,-4.845 z m 5.339,-5.833 q -1.748,0 -2.736,1.368 -0.969,1.368 -0.969,3.819 v 0.608 q 0,2.47 0.988,3.857 0.988,1.368 2.736,1.368 1.748,0 2.717,-1.368 0.988,-1.368 0.988,-3.819 v -0.608 q 0,-2.47 -0.988,-3.838 Q 7.79,-12.16 6.042,-12.16 Z"
         id="path2777" />
    </g>
    <path
       id="rect2623"
       style="fill:#ffe17a;stroke:#edb200;stroke-width:1.33333;stroke-miterlimit:8"
       d="M 58.500099,85.500099 H 102.5001 V 127.5001 H 58.500099 Z" />
    <g
       aria-label="1"
       transform="translate(77.3559 113)"
       id="text2625"
       style="font-size:19px;font-family:'IntelOne Display Regular', 'IntelOne Display Regular_MSFontService', sans-serif">
      <path
         d="M 2.565,-11.856 H 0.513 V -13.3 H 4.161 V 0 H 2.565 Z"
         id="path2781" />
    </g>
    <path
       id="rect2627"
       style="fill:#ffe17a;stroke:#edb200;stroke-width:1.33333;stroke-miterlimit:8"
       d="M 58.500099,144.5 H 102.5001 v 42 H 58.500099 Z" />
    <g
       aria-label="2"
       transform="translate(74.8559 172)"
       id="text2629"
       style="font-size:19px;font-family:'IntelOne Display Regular', 'IntelOne Display Regular_MSFontService', sans-serif">
      <path
         d="M 10.203,0 H 0.722 V -1.33 L 5.32,-5.548 q 1.634,-1.482 2.223,-2.356 0.589,-0.874 0.589,-1.862 0,-1.045 -0.779,-1.71 -0.76,-0.684 -1.9,-0.684 -1.406,0 -2.223,0.874 -0.798,0.855 -0.855,2.413 H 0.817 q 0.038,-2.166 1.292,-3.439 1.273,-1.292 3.382,-1.292 1.862,0 3.059,1.083 1.216,1.064 1.216,2.717 0,1.33 -0.741,2.47 -0.722,1.121 -2.755,2.907 l -3.363,3.002 h 7.296 z"
         id="path2785" />
    </g>
    <path
       id="rect2631"
       style="fill:#eec3f7;stroke:#653171;stroke-width:1.33333;stroke-miterlimit:8"
       d="m 271.5,47.500099 h 44 v 42 h -44 z" />
    <g
       aria-label="0"
       transform="translate(287.169 75)"
       id="text2633"
       style="font-size:19px;font-family:'IntelOne Display Regular', 'IntelOne Display Regular_MSFontService', sans-serif">
      <path
         d="m 0.703,-6.327 v -0.608 q 0,-3.059 1.463,-4.864 1.463,-1.805 3.914,-1.805 2.451,0 3.876,1.786 1.444,1.786 1.444,4.845 v 0.608 q 0,3.059 -1.463,4.864 -1.444,1.805 -3.895,1.805 -2.451,0 -3.895,-1.786 -1.444,-1.786 -1.444,-4.845 z m 5.339,-5.833 q -1.748,0 -2.736,1.368 -0.969,1.368 -0.969,3.819 v 0.608 q 0,2.47 0.988,3.857 0.988,1.368 2.736,1.368 1.748,0 2.717,-1.368 0.988,-1.368 0.988,-3.819 v -0.608 q 0,-2.47 -0.988,-3.838 Q 7.79,-12.16 6.042,-12.16 Z"
         id="path2789" />
    </g>
    <path
       id="rect2635"
       style="fill:#eec3f7;stroke:#653171;stroke-width:1.33333;stroke-miterlimit:8"
       d="m 271.5,123.5 h 44 v 42 h -44 z" />
    <g
       aria-label="1"
       transform="translate(290.336 151)"
       id="text2637"
       style="font-size:19px;font-family:'IntelOne Display Regular', 'IntelOne Display Regular_MSFontService', sans-serif">
      <path
         d="M 2.565,-11.856 H 0.513 V -13.3 H 4.161 V 0 H 2.565 Z"
         id="path2793" />
    </g>
    <path
       id="rect2639"
       style="fill:#e9e9e9;stroke:#000000;stroke-width:1.33333;stroke-miterlimit:8"
       d="M 59.500099,246.5 H 317.5001 v 160 H 59.500099 Z" />
    <g
       aria-label="Op3"
       transform="translate(157.019 338)"
       id="text2641"
       style="font-size:32px;font-family:'IntelOne Display Regular', 'IntelOne Display Regular_MSFontService', sans-serif">
      <path
         d="m 1.184,-11.168 q 0,-4.96 3.296,-8.352 3.296,-3.392 8.128,-3.392 4.864,0 8.096,3.36 3.264,3.328 3.264,8.32 0,4.992 -3.296,8.384 -3.264,3.36 -8.096,3.36 -4.864,0 -8.128,-3.328 -3.264,-3.36 -3.264,-8.352 z M 4,-11.232 q 0,3.936 2.464,6.624 2.496,2.656 6.144,2.656 3.648,0 6.08,-2.624 2.464,-2.656 2.464,-6.592 0,-3.936 -2.464,-6.592 -2.464,-2.688 -6.112,-2.688 -3.68,0 -6.144,2.656 Q 4,-15.168 4,-11.232 Z"
         id="path2797" />
      <path
         d="m 29.439978,5.76 h -2.592 v -21.216 h 2.56 v 2.496 q 1.024,-1.344 2.528,-2.08 1.504,-0.768 3.2,-0.768 3.264,0 5.44,2.272 2.176,2.24 2.176,5.76 0,3.552 -2.272,5.856 -2.24,2.272 -5.536,2.272 -1.568,0 -3.04,-0.64 -1.44,-0.672 -2.464,-1.888 z m 5.408,-19.264 q -2.336,0 -3.936,1.696 -1.568,1.664 -1.568,4.16 0,2.464 1.536,4.096 1.568,1.632 3.872,1.632 2.368,0 3.84,-1.568 1.504,-1.6 1.504,-4.224 0,-2.592 -1.472,-4.192 -1.44,-1.6 -3.776,-1.6 z"
         id="path2799" />
      <path
         d="m 53.055958,-1.92 q 2.272,0 3.776,-1.248 1.536,-1.28 1.536,-3.168 0,-1.984 -1.568,-3.136 -1.536,-1.152 -4.288,-1.152 h -1.408 v -2.272 h 1.344 q 2.528,0 4,-1.088 1.472,-1.12 1.472,-2.848 0,-1.6 -1.344,-2.624 -1.344,-1.024 -3.52,-1.024 -2.304,0 -3.68,1.248 -1.344,1.216 -1.504,3.36 h -2.624 q 0.096,-3.008 2.272,-5.024 2.208,-2.016 5.664,-2.016 3.296,0 5.376,1.696 2.112,1.664 2.112,4.16 0,1.856 -1.088,3.232 -1.056,1.376 -3.072,2.08 2.304,0.64 3.456,2.016 1.152,1.376 1.152,3.52 0,2.848 -2.304,4.8 -2.304,1.92 -5.824,1.92 -3.744,0 -5.952,-2.016 -2.176,-2.048 -2.208,-5.6 h 2.592 q 0.128,2.496 1.568,3.84 1.472,1.344 4.064,1.344 z"
         id="path2801" />
    </g>
    <path
       id="rect2643"
       style="fill:#eec3f7;stroke:#653171;stroke-width:1.33333;stroke-miterlimit:8"
       d="m 272.5,305.5 h 45 v 42 h -45 z" />
    <g
       aria-label="0"
       transform="translate(288.759 333)"
       id="text2645"
       style="font-size:19px;font-family:'IntelOne Display Regular', 'IntelOne Display Regular_MSFontService', sans-serif">
      <path
         d="m 0.703,-6.327 v -0.608 q 0,-3.059 1.463,-4.864 1.463,-1.805 3.914,-1.805 2.451,0 3.876,1.786 1.444,1.786 1.444,4.845 v 0.608 q 0,3.059 -1.463,4.864 -1.444,1.805 -3.895,1.805 -2.451,0 -3.895,-1.786 -1.444,-1.786 -1.444,-4.845 z m 5.339,-5.833 q -1.748,0 -2.736,1.368 -0.969,1.368 -0.969,3.819 v 0.608 q 0,2.47 0.988,3.857 0.988,1.368 2.736,1.368 1.748,0 2.717,-1.368 0.988,-1.368 0.988,-3.819 v -0.608 q 0,-2.47 -0.988,-3.838 Q 7.79,-12.16 6.042,-12.16 Z"
         id="path2805" />
    </g>
    <path
       id="rect2647"
       style="fill:#e9e9e9;stroke:#000000;stroke-width:1.33333;stroke-miterlimit:8"
       d="m 561.5,26.500099 h 257 V 186.5001 h -257 z" />
    <g
       aria-label="Op2"
       transform="translate(658.589 118)"
       id="text2649"
       style="font-size:32px;font-family:'IntelOne Display Regular', 'IntelOne Display Regular_MSFontService', sans-serif">
      <path
         d="m 1.184,-11.168 q 0,-4.96 3.296,-8.352 3.296,-3.392 8.128,-3.392 4.864,0 8.096,3.36 3.264,3.328 3.264,8.32 0,4.992 -3.296,8.384 -3.264,3.36 -8.096,3.36 -4.864,0 -8.128,-3.328 -3.264,-3.36 -3.264,-8.352 z M 4,-11.232 q 0,3.936 2.464,6.624 2.496,2.656 6.144,2.656 3.648,0 6.08,-2.624 2.464,-2.656 2.464,-6.592 0,-3.936 -2.464,-6.592 -2.464,-2.688 -6.112,-2.688 -3.68,0 -6.144,2.656 Q 4,-15.168 4,-11.232 Z"
         id="path2809" />
      <path
         d="m 29.439978,5.76 h -2.592 v -21.216 h 2.56 v 2.496 q 1.024,-1.344 2.528,-2.08 1.504,-0.768 3.2,-0.768 3.264,0 5.44,2.272 2.176,2.24 2.176,5.76 0,3.552 -2.272,5.856 -2.24,2.272 -5.536,2.272 -1.568,0 -3.04,-0.64 -1.44,-0.672 -2.464,-1.888 z m 5.408,-19.264 q -2.336,0 -3.936,1.696 -1.568,1.664 -1.568,4.16 0,2.464 1.536,4.096 1.568,1.632 3.872,1.632 2.368,0 3.84,-1.568 1.504,-1.6 1.504,-4.224 0,-2.592 -1.472,-4.192 -1.44,-1.6 -3.776,-1.6 z"
         id="path2811" />
      <path
         d="m 60.927958,0 h -15.968 v -2.24 l 7.744,-7.104 q 2.752,-2.496 3.744,-3.968 0.992,-1.472 0.992,-3.136 0,-1.76 -1.312,-2.88 -1.28,-1.152 -3.2,-1.152 -2.368,0 -3.744,1.472 -1.344,1.44 -1.44,4.064 h -2.624 q 0.064,-3.648 2.176,-5.792 2.144,-2.176 5.696,-2.176 3.136,0 5.152,1.824 2.048,1.792 2.048,4.576 0,2.24 -1.248,4.16 -1.216,1.888 -4.64,4.896 l -5.664,5.056 h 12.288 z"
         id="path2813" />
    </g>
    <path
       id="rect2651"
       style="fill:#ffe17a;stroke:#edb200;stroke-width:1.33333;stroke-miterlimit:8"
       d="m 561.5,85.500099 h 44 V 127.5001 h -44 z" />
    <g
       aria-label="0"
       transform="translate(577.183 113)"
       id="text2653"
       style="font-size:19px;font-family:'IntelOne Display Regular', 'IntelOne Display Regular_MSFontService', sans-serif">
      <path
         d="m 0.703,-6.327 v -0.608 q 0,-3.059 1.463,-4.864 1.463,-1.805 3.914,-1.805 2.451,0 3.876,1.786 1.444,1.786 1.444,4.845 v 0.608 q 0,3.059 -1.463,4.864 -1.444,1.805 -3.895,1.805 -2.451,0 -3.895,-1.786 -1.444,-1.786 -1.444,-4.845 z m 5.339,-5.833 q -1.748,0 -2.736,1.368 -0.969,1.368 -0.969,3.819 v 0.608 q 0,2.47 0.988,3.857 0.988,1.368 2.736,1.368 1.748,0 2.717,-1.368 0.988,-1.368 0.988,-3.819 v -0.608 q 0,-2.47 -0.988,-3.838 Q 7.79,-12.16 6.042,-12.16 Z"
         id="path2817" />
    </g>
    <path
       id="rect2655"
       style="fill:#eec3f7;stroke:#653171;stroke-width:1.33333;stroke-miterlimit:8"
       d="m 774.5,85.500099 h 44 V 127.5001 h -44 z" />
    <g
       aria-label="0"
       transform="translate(790.163 113)"
       id="text2657"
       style="font-size:19px;font-family:'IntelOne Display Regular', 'IntelOne Display Regular_MSFontService', sans-serif">
      <path
         d="m 0.703,-6.327 v -0.608 q 0,-3.059 1.463,-4.864 1.463,-1.805 3.914,-1.805 2.451,0 3.876,1.786 1.444,1.786 1.444,4.845 v 0.608 q 0,3.059 -1.463,4.864 -1.444,1.805 -3.895,1.805 -2.451,0 -3.895,-1.786 -1.444,-1.786 -1.444,-4.845 z m 5.339,-5.833 q -1.748,0 -2.736,1.368 -0.969,1.368 -0.969,3.819 v 0.608 q 0,2.47 0.988,3.857 0.988,1.368 2.736,1.368 1.748,0 2.717,-1.368 0.988,-1.368 0.988,-3.819 v -0.608 q 0,-2.47 -0.988,-3.838 Q 7.79,-12.16 6.042,-12.16 Z"
         id="path2821" />
    </g>
    <path
       id="rect2659"
       style="fill:#e9e9e9;stroke:#000000;stroke-width:1.33333;stroke-miterlimit:8"
       d="m 561.5,246.5 h 257 v 160 h -257 z" />
    <g
       aria-label="Op4"
       transform="translate(657.839 338)"
       id="text2661"
       style="font-size:32px;font-family:'IntelOne Display Regular', 'IntelOne Display Regular_MSFontService', sans-serif">
      <path
         d="m 1.184,-11.168 q 0,-4.96 3.296,-8.352 3.296,-3.392 8.128,-3.392 4.864,0 8.096,3.36 3.264,3.328 3.264,8.32 0,4.992 -3.296,8.384 -3.264,3.36 -8.096,3.36 -4.864,0 -8.128,-3.328 -3.264,-3.36 -3.264,-8.352 z M 4,-11.232 q 0,3.936 2.464,6.624 2.496,2.656 6.144,2.656 3.648,0 6.08,-2.624 2.464,-2.656 2.464,-6.592 0,-3.936 -2.464,-6.592 -2.464,-2.688 -6.112,-2.688 -3.68,0 -6.144,2.656 Q 4,-15.168 4,-11.232 Z"
         id="path2825" />
      <path
         d="m 29.439978,5.76 h -2.592 v -21.216 h 2.56 v 2.496 q 1.024,-1.344 2.528,-2.08 1.504,-0.768 3.2,-0.768 3.264,0 5.44,2.272 2.176,2.24 2.176,5.76 0,3.552 -2.272,5.856 -2.24,2.272 -5.536,2.272 -1.568,0 -3.04,-0.64 -1.44,-0.672 -2.464,-1.888 z m 5.408,-19.264 q -2.336,0 -3.936,1.696 -1.568,1.664 -1.568,4.16 0,2.464 1.536,4.096 1.568,1.632 3.872,1.632 2.368,0 3.84,-1.568 1.504,-1.6 1.504,-4.224 0,-2.592 -1.472,-4.192 -1.44,-1.6 -3.776,-1.6 z"
         id="path2827" />
      <path
         d="m 56.319958,-5.28 h -12.16 v -2.048 l 11.072,-15.072 h 3.776 v 14.848 h 3.776 v 2.272 h -3.776 V 0 h -2.688 z m 0.096,-14.944 -9.312,12.672 h 9.312 z"
         id="path2829" />
    </g>
    <path
       id="rect2663"
       style="fill:#ffe17a;stroke:#edb200;stroke-width:1.33333;stroke-miterlimit:8"
       d="m 561.5,267.5 h 44 v 42 h -44 z" />
    <g
       aria-label="0"
       transform="translate(577.183 294)"
       id="text2665"
       style="font-size:19px;font-family:'IntelOne Display Regular', 'IntelOne Display Regular_MSFontService', sans-serif">
      <path
         d="m 0.703,-6.327 v -0.608 q 0,-3.059 1.463,-4.864 1.463,-1.805 3.914,-1.805 2.451,0 3.876,1.786 1.444,1.786 1.444,4.845 v 0.608 q 0,3.059 -1.463,4.864 -1.444,1.805 -3.895,1.805 -2.451,0 -3.895,-1.786 -1.444,-1.786 -1.444,-4.845 z m 5.339,-5.833 q -1.748,0 -2.736,1.368 -0.969,1.368 -0.969,3.819 v 0.608 q 0,2.47 0.988,3.857 0.988,1.368 2.736,1.368 1.748,0 2.717,-1.368 0.988,-1.368 0.988,-3.819 v -0.608 q 0,-2.47 -0.988,-3.838 Q 7.79,-12.16 6.042,-12.16 Z"
         id="path2833" />
    </g>
    <path
       id="rect2667"
       style="fill:#ffe17a;stroke:#edb200;stroke-width:1.33333;stroke-miterlimit:8"
       d="m 561.5,343.5 h 44 v 42 h -44 z" />
    <g
       aria-label="1"
       transform="translate(580.349 371)"
       id="text2669"
       style="font-size:19px;font-family:'IntelOne Display Regular', 'IntelOne Display Regular_MSFontService', sans-serif">
      <path
         d="M 2.565,-11.856 H 0.513 V -13.3 H 4.161 V 0 H 2.565 Z"
         id="path2837" />
    </g>
    <path
       id="rect2671"
       style="fill:#eec3f7;stroke:#653171;stroke-width:1.33333;stroke-miterlimit:8"
       d="m 774.5,267.5 h 44 v 42 h -44 z" />
    <g
       aria-label="0"
       transform="translate(790.163 294)"
       id="text2673"
       style="font-size:19px;font-family:'IntelOne Display Regular', 'IntelOne Display Regular_MSFontService', sans-serif">
      <path
         d="m 0.703,-6.327 v -0.608 q 0,-3.059 1.463,-4.864 1.463,-1.805 3.914,-1.805 2.451,0 3.876,1.786 1.444,1.786 1.444,4.845 v 0.608 q 0,3.059 -1.463,4.864 -1.444,1.805 -3.895,1.805 -2.451,0 -3.895,-1.786 -1.444,-1.786 -1.444,-4.845 z m 5.339,-5.833 q -1.748,0 -2.736,1.368 -0.969,1.368 -0.969,3.819 v 0.608 q 0,2.47 0.988,3.857 0.988,1.368 2.736,1.368 1.748,0 2.717,-1.368 0.988,-1.368 0.988,-3.819 v -0.608 q 0,-2.47 -0.988,-3.838 Q 7.79,-12.16 6.042,-12.16 Z"
         id="path2841" />
    </g>
    <path
       id="rect2675"
       style="fill:#eec3f7;stroke:#653171;stroke-width:1.33333;stroke-miterlimit:8"
       d="m 774.5,343.5 h 44 v 42 h -44 z" />
    <g
       aria-label="1"
       transform="translate(793.329 371)"
       id="text2677"
       style="font-size:19px;font-family:'IntelOne Display Regular', 'IntelOne Display Regular_MSFontService', sans-serif">
      <path
         d="M 2.565,-11.856 H 0.513 V -13.3 H 4.161 V 0 H 2.565 Z"
         id="path2845" />
    </g>
    <path
       d="M14.5001 46.8334 51.7009 46.8335 51.7009 48.1668 14.5001 48.1667ZM50.3676 43.5001 58.3676 47.5002 50.3675 51.5001Z"
       id="path2679" />
    <path
       d="M14.5001 105.833 51.7009 105.833 51.7009 107.167 14.5001 107.167ZM50.3676 102.5 58.3676 106.5 50.3675 110.5Z"
       id="path2681" />
    <path
       id="rect2683"
       style="fill:#d7f3a2;stroke:#708541;stroke-width:1.33333;stroke-miterlimit:8"
       d="m 369.5,57.500099 h 78 v 22 h -78 z" />
    <g
       aria-label="data_0_0"
       transform="translate(380.352 73)"
       id="text2685"
       style="font-size:13px;font-family:'IntelOne Display Regular', 'IntelOne Display Regular_MSFontService', sans-serif">
      <path
         d="M 5.811,-9.1 H 6.877 V 0 H 5.824 V -1.014 Q 5.395,-0.468 4.784,-0.169 4.186,0.13 3.497,0.13 q -1.313,0 -2.21,-0.91 -0.884,-0.923 -0.884,-2.34 0,-1.43 0.91,-2.366 0.923,-0.949 2.262,-0.949 0.65,0 1.222,0.273 0.585,0.26 1.014,0.754 z m -2.197,8.307 q 0.949,0 1.586,-0.676 0.65,-0.689 0.65,-1.69 0,-1.014 -0.624,-1.677 -0.624,-0.663 -1.56,-0.663 -0.962,0 -1.573,0.65 -0.611,0.65 -0.611,1.703 0,1.053 0.598,1.703 0.598,0.65 1.534,0.65 z"
         id="path2849" />
      <path
         d="m 13.636992,0 h -1.027 v -1.027 q -0.377,0.546 -1.027,0.858 -0.637,0.299 -1.378,0.299 -1.0400001,0 -1.6900001,-0.52 -0.65,-0.533 -0.65,-1.391 0,-0.949 0.728,-1.43 0.728,-0.494 2.1580001,-0.494 h 1.846 q -0.013,-0.884 -0.468,-1.365 -0.442,-0.481 -1.274,-0.481 -0.494,0 -0.9750001,0.208 -0.481,0.208 -0.949,0.637 l -0.559,-0.702 q 0.546,-0.52 1.196,-0.78 0.6500001,-0.273 1.3910001,-0.273 1.261,0 1.963,0.754 0.715,0.741 0.715,2.054 z m -1.04,-2.886 h -1.833 q -0.9490001,0 -1.4040001,0.26 -0.455,0.26 -0.455,0.819 0,0.468 0.39,0.78 0.403,0.312 1.0270001,0.312 0.936,0 1.573,-0.598 0.65,-0.611 0.702,-1.573 z"
         id="path2851" />
      <path
         d="m 15.222995,-1.677 v -3.666 h -0.858 v -0.936 h 0.858 v -1.924 h 1.053 v 1.924 h 1.456 v 0.936 h -1.456 v 3.575 q 0,0.416 0.182,0.624 0.195,0.195 0.585,0.195 h 0.689 V 0 h -0.845 q -0.871,0 -1.274,-0.403 -0.39,-0.403 -0.39,-1.274 z"
         id="path2853" />
      <path
         d="m 24.257985,0 h -1.027 v -1.027 q -0.377,0.546 -1.027,0.858 -0.637,0.299 -1.378,0.299 -1.04,0 -1.69,-0.52 -0.65,-0.533 -0.65,-1.391 0,-0.949 0.728,-1.43 0.728,-0.494 2.158,-0.494 h 1.846 q -0.013,-0.884 -0.468,-1.365 -0.442,-0.481 -1.274,-0.481 -0.494,0 -0.975,0.208 -0.481,0.208 -0.949,0.637 l -0.559,-0.702 q 0.546,-0.52 1.196,-0.78 0.65,-0.273 1.391,-0.273 1.261,0 1.963,0.754 0.715,0.741 0.715,2.054 z m -1.04,-2.886 h -1.833 q -0.949,0 -1.404,0.26 -0.455,0.26 -0.455,0.819 0,0.468 0.39,0.78 0.403,0.312 1.027,0.312 0.936,0 1.573,-0.598 0.65,-0.611 0.702,-1.573 z"
         id="path2855" />
      <path
         d="M 24.842977,1.677 V 0.728 h 6.604 v 0.949 z"
         id="path2857" />
      <path
         d="m 31.901973,-4.329 v -0.416 q 0,-2.093 1.001,-3.328 1.001,-1.235 2.678,-1.235 1.677,0 2.652,1.222 0.988,1.222 0.988,3.315 v 0.416 q 0,2.093 -1.001,3.328 -0.988,1.235 -2.665,1.235 -1.677,0 -2.665,-1.222 -0.988,-1.222 -0.988,-3.315 z m 3.653,-3.991 q -1.196,0 -1.872,0.936 -0.663,0.936 -0.663,2.613 v 0.416 q 0,1.69 0.676,2.639 0.676,0.936 1.872,0.936 1.196,0 1.859,-0.936 0.676,-0.936 0.676,-2.613 v -0.416 q 0,-1.69 -0.676,-2.626 -0.676,-0.949 -1.872,-0.949 z"
         id="path2859" />
      <path
         d="M 39.675962,1.677 V 0.728 h 6.604 v 0.949 z"
         id="path2861" />
      <path
         d="m 46.73496,-4.329 v -0.416 q 0,-2.093 1.001,-3.328 1.001,-1.235 2.678,-1.235 1.677,0 2.652,1.222 0.988,1.222 0.988,3.315 v 0.416 q 0,2.093 -1.001,3.328 -0.988,1.235 -2.665,1.235 -1.677,0 -2.665,-1.222 -0.988,-1.222 -0.988,-3.315 z m 3.653,-3.991 q -1.196,0 -1.872,0.936 -0.663,0.936 -0.663,2.613 v 0.416 q 0,1.69 0.676,2.639 0.676,0.936 1.872,0.936 1.196,0 1.859,-0.936 0.676,-0.936 0.676,-2.613 v -0.416 q 0,-1.69 -0.676,-2.626 -0.676,-0.949 -1.872,-0.949 z"
         id="path2863" />
    </g>
    <path
       id="rect2687"
       style="fill:#d7f3a2;stroke:#708541;stroke-width:1.33333;stroke-miterlimit:8"
       d="m 369.5,133.5 h 78 v 22 h -78 z" />
    <g
       aria-label="data_0_1"
       transform="translate(382.685 149)"
       id="text2689"
       style="font-size:13px;font-family:'IntelOne Display Regular', 'IntelOne Display Regular_MSFontService', sans-serif">
      <path
         d="M 5.811,-9.1 H 6.877 V 0 H 5.824 V -1.014 Q 5.395,-0.468 4.784,-0.169 4.186,0.13 3.497,0.13 q -1.313,0 -2.21,-0.91 -0.884,-0.923 -0.884,-2.34 0,-1.43 0.91,-2.366 0.923,-0.949 2.262,-0.949 0.65,0 1.222,0.273 0.585,0.26 1.014,0.754 z m -2.197,8.307 q 0.949,0 1.586,-0.676 0.65,-0.689 0.65,-1.69 0,-1.014 -0.624,-1.677 -0.624,-0.663 -1.56,-0.663 -0.962,0 -1.573,0.65 -0.611,0.65 -0.611,1.703 0,1.053 0.598,1.703 0.598,0.65 1.534,0.65 z"
         id="path2867" />
      <path
         d="m 13.636992,0 h -1.027 v -1.027 q -0.377,0.546 -1.027,0.858 -0.637,0.299 -1.378,0.299 -1.0400001,0 -1.6900001,-0.52 -0.65,-0.533 -0.65,-1.391 0,-0.949 0.728,-1.43 0.728,-0.494 2.1580001,-0.494 h 1.846 q -0.013,-0.884 -0.468,-1.365 -0.442,-0.481 -1.274,-0.481 -0.494,0 -0.9750001,0.208 -0.481,0.208 -0.949,0.637 l -0.559,-0.702 q 0.546,-0.52 1.196,-0.78 0.6500001,-0.273 1.3910001,-0.273 1.261,0 1.963,0.754 0.715,0.741 0.715,2.054 z m -1.04,-2.886 h -1.833 q -0.9490001,0 -1.4040001,0.26 -0.455,0.26 -0.455,0.819 0,0.468 0.39,0.78 0.403,0.312 1.0270001,0.312 0.936,0 1.573,-0.598 0.65,-0.611 0.702,-1.573 z"
         id="path2869" />
      <path
         d="m 15.222995,-1.677 v -3.666 h -0.858 v -0.936 h 0.858 v -1.924 h 1.053 v 1.924 h 1.456 v 0.936 h -1.456 v 3.575 q 0,0.416 0.182,0.624 0.195,0.195 0.585,0.195 h 0.689 V 0 h -0.845 q -0.871,0 -1.274,-0.403 -0.39,-0.403 -0.39,-1.274 z"
         id="path2871" />
      <path
         d="m 24.257985,0 h -1.027 v -1.027 q -0.377,0.546 -1.027,0.858 -0.637,0.299 -1.378,0.299 -1.04,0 -1.69,-0.52 -0.65,-0.533 -0.65,-1.391 0,-0.949 0.728,-1.43 0.728,-0.494 2.158,-0.494 h 1.846 q -0.013,-0.884 -0.468,-1.365 -0.442,-0.481 -1.274,-0.481 -0.494,0 -0.975,0.208 -0.481,0.208 -0.949,0.637 l -0.559,-0.702 q 0.546,-0.52 1.196,-0.78 0.65,-0.273 1.391,-0.273 1.261,0 1.963,0.754 0.715,0.741 0.715,2.054 z m -1.04,-2.886 h -1.833 q -0.949,0 -1.404,0.26 -0.455,0.26 -0.455,0.819 0,0.468 0.39,0.78 0.403,0.312 1.027,0.312 0.936,0 1.573,-0.598 0.65,-0.611 0.702,-1.573 z"
         id="path2873" />
      <path
         d="M 24.842977,1.677 V 0.728 h 6.604 v 0.949 z"
         id="path2875" />
      <path
         d="m 31.901973,-4.329 v -0.416 q 0,-2.093 1.001,-3.328 1.001,-1.235 2.678,-1.235 1.677,0 2.652,1.222 0.988,1.222 0.988,3.315 v 0.416 q 0,2.093 -1.001,3.328 -0.988,1.235 -2.665,1.235 -1.677,0 -2.665,-1.222 -0.988,-1.222 -0.988,-3.315 z m 3.653,-3.991 q -1.196,0 -1.872,0.936 -0.663,0.936 -0.663,2.613 v 0.416 q 0,1.69 0.676,2.639 0.676,0.936 1.872,0.936 1.196,0 1.859,-0.936 0.676,-0.936 0.676,-2.613 v -0.416 q 0,-1.69 -0.676,-2.626 -0.676,-0.949 -1.872,-0.949 z"
         id="path2877" />
      <path
         d="M 39.675962,1.677 V 0.728 h 6.604 v 0.949 z"
         id="path2879" />
      <path
         d="m 48.00896,-8.112 h -1.404 V -9.1 h 2.496 V 0 h -1.092 z"
         id="path2881" />
    </g>
    <path
       id="rect2691"
       style="fill:#d7f3a2;stroke:#708541;stroke-width:1.33333;stroke-miterlimit:8"
       d="m 369.5,315.5 h 78 v 22 h -78 z" />
    <g
       aria-label="data_3_0"
       transform="translate(380.769 331)"
       id="text2693"
       style="font-size:13px;font-family:'IntelOne Display Regular', 'IntelOne Display Regular_MSFontService', sans-serif">
      <path
         d="M 5.811,-9.1 H 6.877 V 0 H 5.824 V -1.014 Q 5.395,-0.468 4.784,-0.169 4.186,0.13 3.497,0.13 q -1.313,0 -2.21,-0.91 -0.884,-0.923 -0.884,-2.34 0,-1.43 0.91,-2.366 0.923,-0.949 2.262,-0.949 0.65,0 1.222,0.273 0.585,0.26 1.014,0.754 z m -2.197,8.307 q 0.949,0 1.586,-0.676 0.65,-0.689 0.65,-1.69 0,-1.014 -0.624,-1.677 -0.624,-0.663 -1.56,-0.663 -0.962,0 -1.573,0.65 -0.611,0.65 -0.611,1.703 0,1.053 0.598,1.703 0.598,0.65 1.534,0.65 z"
         id="path2885" />
      <path
         d="m 13.636992,0 h -1.027 v -1.027 q -0.377,0.546 -1.027,0.858 -0.637,0.299 -1.378,0.299 -1.0400001,0 -1.6900001,-0.52 -0.65,-0.533 -0.65,-1.391 0,-0.949 0.728,-1.43 0.728,-0.494 2.1580001,-0.494 h 1.846 q -0.013,-0.884 -0.468,-1.365 -0.442,-0.481 -1.274,-0.481 -0.494,0 -0.9750001,0.208 -0.481,0.208 -0.949,0.637 l -0.559,-0.702 q 0.546,-0.52 1.196,-0.78 0.6500001,-0.273 1.3910001,-0.273 1.261,0 1.963,0.754 0.715,0.741 0.715,2.054 z m -1.04,-2.886 h -1.833 q -0.9490001,0 -1.4040001,0.26 -0.455,0.26 -0.455,0.819 0,0.468 0.39,0.78 0.403,0.312 1.0270001,0.312 0.936,0 1.573,-0.598 0.65,-0.611 0.702,-1.573 z"
         id="path2887" />
      <path
         d="m 15.222995,-1.677 v -3.666 h -0.858 v -0.936 h 0.858 v -1.924 h 1.053 v 1.924 h 1.456 v 0.936 h -1.456 v 3.575 q 0,0.416 0.182,0.624 0.195,0.195 0.585,0.195 h 0.689 V 0 h -0.845 q -0.871,0 -1.274,-0.403 -0.39,-0.403 -0.39,-1.274 z"
         id="path2889" />
      <path
         d="m 24.257985,0 h -1.027 v -1.027 q -0.377,0.546 -1.027,0.858 -0.637,0.299 -1.378,0.299 -1.04,0 -1.69,-0.52 -0.65,-0.533 -0.65,-1.391 0,-0.949 0.728,-1.43 0.728,-0.494 2.158,-0.494 h 1.846 q -0.013,-0.884 -0.468,-1.365 -0.442,-0.481 -1.274,-0.481 -0.494,0 -0.975,0.208 -0.481,0.208 -0.949,0.637 l -0.559,-0.702 q 0.546,-0.52 1.196,-0.78 0.65,-0.273 1.391,-0.273 1.261,0 1.963,0.754 0.715,0.741 0.715,2.054 z m -1.04,-2.886 h -1.833 q -0.949,0 -1.404,0.26 -0.455,0.26 -0.455,0.819 0,0.468 0.39,0.78 0.403,0.312 1.027,0.312 0.936,0 1.573,-0.598 0.65,-0.611 0.702,-1.573 z"
         id="path2891" />
      <path
         d="M 24.842977,1.677 V 0.728 h 6.604 v 0.949 z"
         id="path2893" />
      <path
         d="m 35.203973,-0.78 q 0.923,0 1.534,-0.507 0.624,-0.52 0.624,-1.287 0,-0.806 -0.637,-1.274 -0.624,-0.468 -1.742,-0.468 h -0.572 v -0.923 h 0.546 q 1.027,0 1.625,-0.442 0.598,-0.455 0.598,-1.157 0,-0.65 -0.546,-1.066 -0.546,-0.416 -1.43,-0.416 -0.936,0 -1.495,0.507 -0.546,0.494 -0.611,1.365 h -1.066 q 0.039,-1.222 0.923,-2.041 0.897,-0.819 2.301,-0.819 1.339,0 2.184,0.689 0.858,0.676 0.858,1.69 0,0.754 -0.442,1.313 -0.429,0.559 -1.248,0.845 0.936,0.26 1.404,0.819 0.468,0.559 0.468,1.43 0,1.157 -0.936,1.95 -0.936,0.78 -2.366,0.78 -1.521,0 -2.418,-0.819 -0.884,-0.832 -0.897,-2.275 h 1.053 q 0.052,1.014 0.637,1.56 0.598,0.546 1.651,0.546 z"
         id="path2895" />
      <path
         d="M 38.921979,1.677 V 0.728 h 6.604 v 0.949 z"
         id="path2897" />
      <path
         d="m 45.980977,-4.329 v -0.416 q 0,-2.093 1.001,-3.328 1.001,-1.235 2.678,-1.235 1.677,0 2.652,1.222 0.988,1.222 0.988,3.315 v 0.416 q 0,2.093 -1.001,3.328 -0.988,1.235 -2.665,1.235 -1.677,0 -2.665,-1.222 -0.988,-1.222 -0.988,-3.315 z m 3.653,-3.991 q -1.196,0 -1.872,0.936 -0.663,0.936 -0.663,2.613 v 0.416 q 0,1.69 0.676,2.639 0.676,0.936 1.872,0.936 1.196,0 1.859,-0.936 0.676,-0.936 0.676,-2.613 v -0.416 q 0,-1.69 -0.676,-2.626 -0.676,-0.949 -1.872,-0.949 z"
         id="path2899" />
    </g>
    <path
       id="rect2695"
       style="fill:#d7f3a2;stroke:#708541;stroke-width:1.33333;stroke-miterlimit:8"
       d="m 871.5,95.500099 h 79 V 117.5001 h -79 z" />
    <g
       aria-label="data_2_0"
       transform="translate(883.395 111)"
       id="text2697"
       style="font-size:13px;font-family:'IntelOne Display Regular', 'IntelOne Display Regular_MSFontService', sans-serif">
      <path
         d="M 5.811,-9.1 H 6.877 V 0 H 5.824 V -1.014 Q 5.395,-0.468 4.784,-0.169 4.186,0.13 3.497,0.13 q -1.313,0 -2.21,-0.91 -0.884,-0.923 -0.884,-2.34 0,-1.43 0.91,-2.366 0.923,-0.949 2.262,-0.949 0.65,0 1.222,0.273 0.585,0.26 1.014,0.754 z m -2.197,8.307 q 0.949,0 1.586,-0.676 0.65,-0.689 0.65,-1.69 0,-1.014 -0.624,-1.677 -0.624,-0.663 -1.56,-0.663 -0.962,0 -1.573,0.65 -0.611,0.65 -0.611,1.703 0,1.053 0.598,1.703 0.598,0.65 1.534,0.65 z"
         id="path2903" />
      <path
         d="m 13.636992,0 h -1.027 v -1.027 q -0.377,0.546 -1.027,0.858 -0.637,0.299 -1.378,0.299 -1.0400001,0 -1.6900001,-0.52 -0.65,-0.533 -0.65,-1.391 0,-0.949 0.728,-1.43 0.728,-0.494 2.1580001,-0.494 h 1.846 q -0.013,-0.884 -0.468,-1.365 -0.442,-0.481 -1.274,-0.481 -0.494,0 -0.9750001,0.208 -0.481,0.208 -0.949,0.637 l -0.559,-0.702 q 0.546,-0.52 1.196,-0.78 0.6500001,-0.273 1.3910001,-0.273 1.261,0 1.963,0.754 0.715,0.741 0.715,2.054 z m -1.04,-2.886 h -1.833 q -0.9490001,0 -1.4040001,0.26 -0.455,0.26 -0.455,0.819 0,0.468 0.39,0.78 0.403,0.312 1.0270001,0.312 0.936,0 1.573,-0.598 0.65,-0.611 0.702,-1.573 z"
         id="path2905" />
      <path
         d="m 15.222995,-1.677 v -3.666 h -0.858 v -0.936 h 0.858 v -1.924 h 1.053 v 1.924 h 1.456 v 0.936 h -1.456 v 3.575 q 0,0.416 0.182,0.624 0.195,0.195 0.585,0.195 h 0.689 V 0 h -0.845 q -0.871,0 -1.274,-0.403 -0.39,-0.403 -0.39,-1.274 z"
         id="path2907" />
      <path
         d="m 24.257985,0 h -1.027 v -1.027 q -0.377,0.546 -1.027,0.858 -0.637,0.299 -1.378,0.299 -1.04,0 -1.69,-0.52 -0.65,-0.533 -0.65,-1.391 0,-0.949 0.728,-1.43 0.728,-0.494 2.158,-0.494 h 1.846 q -0.013,-0.884 -0.468,-1.365 -0.442,-0.481 -1.274,-0.481 -0.494,0 -0.975,0.208 -0.481,0.208 -0.949,0.637 l -0.559,-0.702 q 0.546,-0.52 1.196,-0.78 0.65,-0.273 1.391,-0.273 1.261,0 1.963,0.754 0.715,0.741 0.715,2.054 z m -1.04,-2.886 h -1.833 q -0.949,0 -1.404,0.26 -0.455,0.26 -0.455,0.819 0,0.468 0.39,0.78 0.403,0.312 1.027,0.312 0.936,0 1.573,-0.598 0.65,-0.611 0.702,-1.573 z"
         id="path2909" />
      <path
         d="M 24.842977,1.677 V 0.728 h 6.604 v 0.949 z"
         id="path2911" />
      <path
         d="m 38.401973,0 h -6.487 v -0.91 l 3.146,-2.886 q 1.118,-1.014 1.521,-1.612 0.403,-0.598 0.403,-1.274 0,-0.715 -0.533,-1.17 -0.52,-0.468 -1.3,-0.468 -0.962,0 -1.521,0.598 -0.546,0.585 -0.585,1.651 h -1.066 q 0.026,-1.482 0.884,-2.353 0.871,-0.884 2.314,-0.884 1.274,0 2.093,0.741 0.832,0.728 0.832,1.859 0,0.91 -0.507,1.69 -0.494,0.767 -1.885,1.989 l -2.301,2.054 h 4.992 z"
         id="path2913" />
      <path
         d="M 38.752973,1.677 V 0.728 h 6.604 v 0.949 z"
         id="path2915" />
      <path
         d="m 45.811971,-4.329 v -0.416 q 0,-2.093 1.001,-3.328 1.001,-1.235 2.678,-1.235 1.677,0 2.652,1.222 0.988,1.222 0.988,3.315 v 0.416 q 0,2.093 -1.001,3.328 -0.988,1.235 -2.665,1.235 -1.677,0 -2.665,-1.222 -0.988,-1.222 -0.988,-3.315 z m 3.653,-3.991 q -1.196,0 -1.872,0.936 -0.663,0.936 -0.663,2.613 v 0.416 q 0,1.69 0.676,2.639 0.676,0.936 1.872,0.936 1.196,0 1.859,-0.936 0.676,-0.936 0.676,-2.613 v -0.416 q 0,-1.69 -0.676,-2.626 -0.676,-0.949 -1.872,-0.949 z"
         id="path2917" />
    </g>
    <path
       id="rect2699"
       style="fill:#d7f3a2;stroke:#708541;stroke-width:1.33333;stroke-miterlimit:8"
       d="m 871.5,277.5 h 79 v 22 h -79 z" />
    <g
       aria-label="data_4_0"
       transform="translate(883.062 293)"
       id="text2701"
       style="font-size:13px;font-family:'IntelOne Display Regular', 'IntelOne Display Regular_MSFontService', sans-serif">
      <path
         d="M 5.811,-9.1 H 6.877 V 0 H 5.824 V -1.014 Q 5.395,-0.468 4.784,-0.169 4.186,0.13 3.497,0.13 q -1.313,0 -2.21,-0.91 -0.884,-0.923 -0.884,-2.34 0,-1.43 0.91,-2.366 0.923,-0.949 2.262,-0.949 0.65,0 1.222,0.273 0.585,0.26 1.014,0.754 z m -2.197,8.307 q 0.949,0 1.586,-0.676 0.65,-0.689 0.65,-1.69 0,-1.014 -0.624,-1.677 -0.624,-0.663 -1.56,-0.663 -0.962,0 -1.573,0.65 -0.611,0.65 -0.611,1.703 0,1.053 0.598,1.703 0.598,0.65 1.534,0.65 z"
         id="path2921" />
      <path
         d="m 13.636992,0 h -1.027 v -1.027 q -0.377,0.546 -1.027,0.858 -0.637,0.299 -1.378,0.299 -1.0400001,0 -1.6900001,-0.52 -0.65,-0.533 -0.65,-1.391 0,-0.949 0.728,-1.43 0.728,-0.494 2.1580001,-0.494 h 1.846 q -0.013,-0.884 -0.468,-1.365 -0.442,-0.481 -1.274,-0.481 -0.494,0 -0.9750001,0.208 -0.481,0.208 -0.949,0.637 l -0.559,-0.702 q 0.546,-0.52 1.196,-0.78 0.6500001,-0.273 1.3910001,-0.273 1.261,0 1.963,0.754 0.715,0.741 0.715,2.054 z m -1.04,-2.886 h -1.833 q -0.9490001,0 -1.4040001,0.26 -0.455,0.26 -0.455,0.819 0,0.468 0.39,0.78 0.403,0.312 1.0270001,0.312 0.936,0 1.573,-0.598 0.65,-0.611 0.702,-1.573 z"
         id="path2923" />
      <path
         d="m 15.222995,-1.677 v -3.666 h -0.858 v -0.936 h 0.858 v -1.924 h 1.053 v 1.924 h 1.456 v 0.936 h -1.456 v 3.575 q 0,0.416 0.182,0.624 0.195,0.195 0.585,0.195 h 0.689 V 0 h -0.845 q -0.871,0 -1.274,-0.403 -0.39,-0.403 -0.39,-1.274 z"
         id="path2925" />
      <path
         d="m 24.257985,0 h -1.027 v -1.027 q -0.377,0.546 -1.027,0.858 -0.637,0.299 -1.378,0.299 -1.04,0 -1.69,-0.52 -0.65,-0.533 -0.65,-1.391 0,-0.949 0.728,-1.43 0.728,-0.494 2.158,-0.494 h 1.846 q -0.013,-0.884 -0.468,-1.365 -0.442,-0.481 -1.274,-0.481 -0.494,0 -0.975,0.208 -0.481,0.208 -0.949,0.637 l -0.559,-0.702 q 0.546,-0.52 1.196,-0.78 0.65,-0.273 1.391,-0.273 1.261,0 1.963,0.754 0.715,0.741 0.715,2.054 z m -1.04,-2.886 h -1.833 q -0.949,0 -1.404,0.26 -0.455,0.26 -0.455,0.819 0,0.468 0.39,0.78 0.403,0.312 1.027,0.312 0.936,0 1.573,-0.598 0.65,-0.611 0.702,-1.573 z"
         id="path2927" />
      <path
         d="M 24.842977,1.677 V 0.728 h 6.604 v 0.949 z"
         id="path2929" />
      <path
         d="m 36.529973,-2.145 h -4.94 v -0.832 l 4.498,-6.123 h 1.534 v 6.032 h 1.534 v 0.923 h -1.534 V 0 h -1.092 z m 0.039,-6.071 -3.783,5.148 h 3.783 z"
         id="path2931" />
      <path
         d="M 39.38997,1.677 V 0.728 h 6.604 v 0.949 z"
         id="path2933" />
      <path
         d="m 46.448964,-4.329 v -0.416 q 0,-2.093 1.001,-3.328 1.001,-1.235 2.678,-1.235 1.677,0 2.652,1.222 0.988,1.222 0.988,3.315 v 0.416 q 0,2.093 -1.001,3.328 -0.988,1.235 -2.665,1.235 -1.677,0 -2.665,-1.222 -0.988,-1.222 -0.988,-3.315 z m 3.653,-3.991 q -1.196,0 -1.872,0.936 -0.663,0.936 -0.663,2.613 v 0.416 q 0,1.69 0.676,2.639 0.676,0.936 1.872,0.936 1.196,0 1.859,-0.936 0.676,-0.936 0.676,-2.613 v -0.416 q 0,-1.69 -0.676,-2.626 -0.676,-0.949 -1.872,-0.949 z"
         id="path2935" />
    </g>
    <path
       id="rect2703"
       style="fill:#d7f3a2;stroke:#708541;stroke-width:1.33333;stroke-miterlimit:8"
       d="m 871.5,353.5 h 79 v 22 h -79 z" />
    <g
       aria-label="data_4_1"
       transform="translate(885.395 369)"
       id="text2705"
       style="font-size:13px;font-family:'IntelOne Display Regular', 'IntelOne Display Regular_MSFontService', sans-serif">
      <path
         d="M 5.811,-9.1 H 6.877 V 0 H 5.824 V -1.014 Q 5.395,-0.468 4.784,-0.169 4.186,0.13 3.497,0.13 q -1.313,0 -2.21,-0.91 -0.884,-0.923 -0.884,-2.34 0,-1.43 0.91,-2.366 0.923,-0.949 2.262,-0.949 0.65,0 1.222,0.273 0.585,0.26 1.014,0.754 z m -2.197,8.307 q 0.949,0 1.586,-0.676 0.65,-0.689 0.65,-1.69 0,-1.014 -0.624,-1.677 -0.624,-0.663 -1.56,-0.663 -0.962,0 -1.573,0.65 -0.611,0.65 -0.611,1.703 0,1.053 0.598,1.703 0.598,0.65 1.534,0.65 z"
         id="path2939" />
      <path
         d="m 13.636992,0 h -1.027 v -1.027 q -0.377,0.546 -1.027,0.858 -0.637,0.299 -1.378,0.299 -1.0400001,0 -1.6900001,-0.52 -0.65,-0.533 -0.65,-1.391 0,-0.949 0.728,-1.43 0.728,-0.494 2.1580001,-0.494 h 1.846 q -0.013,-0.884 -0.468,-1.365 -0.442,-0.481 -1.274,-0.481 -0.494,0 -0.9750001,0.208 -0.481,0.208 -0.949,0.637 l -0.559,-0.702 q 0.546,-0.52 1.196,-0.78 0.6500001,-0.273 1.3910001,-0.273 1.261,0 1.963,0.754 0.715,0.741 0.715,2.054 z m -1.04,-2.886 h -1.833 q -0.9490001,0 -1.4040001,0.26 -0.455,0.26 -0.455,0.819 0,0.468 0.39,0.78 0.403,0.312 1.0270001,0.312 0.936,0 1.573,-0.598 0.65,-0.611 0.702,-1.573 z"
         id="path2941" />
      <path
         d="m 15.222995,-1.677 v -3.666 h -0.858 v -0.936 h 0.858 v -1.924 h 1.053 v 1.924 h 1.456 v 0.936 h -1.456 v 3.575 q 0,0.416 0.182,0.624 0.195,0.195 0.585,0.195 h 0.689 V 0 h -0.845 q -0.871,0 -1.274,-0.403 -0.39,-0.403 -0.39,-1.274 z"
         id="path2943" />
      <path
         d="m 24.257985,0 h -1.027 v -1.027 q -0.377,0.546 -1.027,0.858 -0.637,0.299 -1.378,0.299 -1.04,0 -1.69,-0.52 -0.65,-0.533 -0.65,-1.391 0,-0.949 0.728,-1.43 0.728,-0.494 2.158,-0.494 h 1.846 q -0.013,-0.884 -0.468,-1.365 -0.442,-0.481 -1.274,-0.481 -0.494,0 -0.975,0.208 -0.481,0.208 -0.949,0.637 l -0.559,-0.702 q 0.546,-0.52 1.196,-0.78 0.65,-0.273 1.391,-0.273 1.261,0 1.963,0.754 0.715,0.741 0.715,2.054 z m -1.04,-2.886 h -1.833 q -0.949,0 -1.404,0.26 -0.455,0.26 -0.455,0.819 0,0.468 0.39,0.78 0.403,0.312 1.027,0.312 0.936,0 1.573,-0.598 0.65,-0.611 0.702,-1.573 z"
         id="path2945" />
      <path
         d="M 24.842977,1.677 V 0.728 h 6.604 v 0.949 z"
         id="path2947" />
      <path
         d="m 36.529973,-2.145 h -4.94 v -0.832 l 4.498,-6.123 h 1.534 v 6.032 h 1.534 v 0.923 h -1.534 V 0 h -1.092 z m 0.039,-6.071 -3.783,5.148 h 3.783 z"
         id="path2949" />
      <path
         d="M 39.38997,1.677 V 0.728 h 6.604 v 0.949 z"
         id="path2951" />
      <path
         d="m 47.722964,-8.112 h -1.404 V -9.1 h 2.496 V 0 h -1.092 z"
         id="path2953" />
    </g>
    <path
       d="M315.5 67.8334 362.37 67.8335 362.37 69.1668 315.5 69.1667ZM361.036 64.5001 369.036 68.5002 361.036 72.5001Z"
       id="path2707" />
    <path
       d="M315.5 143.833 362.37 143.833 362.37 145.167 315.5 145.167ZM361.036 140.5 369.036 144.5 361.036 148.5Z"
       id="path2709" />
    <path
       d="M1.34736e-06-0.666667 45.2801-0.666575 45.2801 0.666758-1.34736e-06 0.666667ZM43.9468-3.99991 51.9468 0.000104987 43.9468 4.00009Z"
       transform="matrix(1 0 0 -1 317.5 326.5)"
       id="path2711" />
    <path
       d="M1.31845e-06-0.666667 46.4194-0.666575 46.4194 0.666758-1.31845e-06 0.666667ZM45.0861-3.99991 53.0861 0.000104987 45.0861 4.00009Z"
       transform="matrix(1 0 0 -1 818.5 106.5)"
       id="path2713" />
    <path
       d="M818.508 287.833 864.928 288.389 864.912 289.723 818.492 289.167ZM863.635 285.04 871.586 289.136 863.539 293.04Z"
       id="path2715" />
    <path
       d="M818.5 363.833 864.919 363.833 864.919 365.167 818.5 365.167ZM863.586 360.5 871.586 364.5 863.586 368.5Z"
       id="path2717" />
    <path
       d="M950.5 105.833 986.747 105.833 986.747 107.167 950.5 107.167ZM985.414 102.5 993.414 106.5 985.414 110.5Z"
       id="path2719" />
    <path
       d="M3.3027e-06-0.666667 35.7176-0.66649 35.7176 0.666844-3.3027e-06 0.666667ZM34.3843-3.99983 42.3843 0.000209974 34.3842 4.00017Z"
       transform="matrix(1 0 0 -1 950.5 364.5)"
       id="path2721" />
    <path
       d="M447.5 67.8334 487.676 67.8334 487.676 288.155 487.01 287.489 554.184 287.489 554.184 288.822 486.343 288.822 486.343 68.5001 487.01 69.1667 447.5 69.1667ZM552.851 284.155 560.851 288.155 552.851 292.155Z"
       id="path2723" />
    <path
       d="M0-0.666667 57.3422-0.666667 57.3422 38.1459 56.6755 37.4793 106.684 37.4793 106.684 38.8126 56.0089 38.8126 56.0089 0 56.6755 0.666667 0 0.666667ZM105.351 34.1459 113.351 38.1459 105.351 42.1459Z"
       transform="matrix(1 0 0 -1 447.5 144.646)"
       id="path2725" />
    <path
       d="M447.5 67.8334 468.604 67.8334 468.604 364.447 467.937 363.78 554.184 363.78 554.184 365.114 467.271 365.114 467.271 68.5001 467.937 69.1667 447.5 69.1667ZM552.851 360.447 560.851 364.447 552.851 368.447Z"
       id="path2727" />
    <g
       aria-label="in:0in:1out: 0out: 1out: 0in:0in:0in:1out: 0out: 0out: 1"
       transform="translate(17.8649 40)"
       id="text2759"
       style="font-size:16px;font-family:'IntelOne Display Regular', 'IntelOne Display Regular_MSFontService', sans-serif">
      <path
         d="m 0.928,-10.32 h 1.44 v 1.424 H 0.928 Z M 0.992,0 V -7.728 H 2.304 V 0 Z"
         id="path2956" />
      <path
         d="m 4.14399,-7.728 h 1.28 v 1.2 q 0.464,-0.672 1.168,-1.024 0.72,-0.368 1.6,-0.368 1.536,0 2.4,0.992 0.864,0.992 0.864,2.72 V 0 h -1.296 v -4.128 q 0,-1.216 -0.608,-1.92 -0.592,-0.704 -1.664,-0.704 -1.104,0 -1.776,0.752 -0.672,0.752 -0.672,1.952 V 0 h -1.296 z"
         id="path2958" />
      <path
         d="m 13.135977,-7.728 h 1.6 v 1.6 h -1.6 z m 0,6.112 h 1.6 V 0 h -1.6 z"
         id="path2960" />
      <path
         d="M 19.2587,-5.328 V -5.84 q 0,-2.576 1.232,-4.096 1.232,-1.52 3.296,-1.52 2.064,0 3.264,1.504 1.216,1.504 1.216,4.08 v 0.512 q 0,2.576 -1.232,4.096 -1.216,1.52 -3.28,1.52 -2.064,0 -3.28,-1.504 -1.216,-1.504 -1.216,-4.08 z m 4.496,-4.912 q -1.472,0 -2.304,1.152 -0.816,1.152 -0.816,3.216 v 0.512 q 0,2.08 0.832,3.248 0.832,1.152 2.304,1.152 1.472,0 2.288,-1.152 0.832,-1.152 0.832,-3.216 V -5.84 q 0,-2.08 -0.832,-3.232 -0.832,-1.168 -2.304,-1.168 z"
         id="path2962" />
      <path
         d="m 0.928,47.68 h 1.44 v 1.424 H 0.928 Z M 0.992,58 V 50.272 H 2.304 V 58 Z"
         id="path2964" />
      <path
         d="m 4.14399,50.272 h 1.28 v 1.2 q 0.464,-0.672 1.168,-1.024 0.72,-0.368 1.6,-0.368 1.536,0 2.4,0.992 0.864,0.992 0.864,2.72 V 58 h -1.296 v -4.128 q 0,-1.216 -0.608,-1.92 -0.592,-0.704 -1.664,-0.704 -1.104,0 -1.776,0.752 -0.672,0.752 -0.672,1.952 V 58 h -1.296 z"
         id="path2966" />
      <path
         d="m 13.135977,50.272 h 1.6 v 1.6 h -1.6 z m 0,6.112 h 1.6 V 58 h -1.6 z"
         id="path2968" />
      <path
         d="m 20.8267,48.016 h -1.728 V 46.8 h 3.072 V 58 h -1.344 z"
         id="path2970" />
      <path
         d="m 310.43801,18.144 q 0,1.744 -1.168,2.928 -1.168,1.168 -2.88,1.168 -1.712,0 -2.864,-1.168 -1.136,-1.168 -1.136,-2.912 0,-1.744 1.168,-2.912 1.168,-1.184 2.88,-1.184 1.712,0 2.848,1.168 1.152,1.168 1.152,2.912 z m -6.72,0.016 q 0,1.248 0.768,2.096 0.784,0.848 1.936,0.848 1.136,0 1.904,-0.848 0.784,-0.848 0.784,-2.112 0,-1.232 -0.784,-2.08 -0.784,-0.864 -1.92,-0.864 -1.136,0 -1.92,0.848 -0.768,0.848 -0.768,2.112 z"
         id="path2972" />
      <path
         d="m 319.01402,22 h -1.296 v -1.184 q -0.464,0.672 -1.168,1.024 -0.704,0.336 -1.6,0.336 -1.52,0 -2.4,-0.992 -0.864,-0.992 -0.864,-2.704 v -4.208 h 1.312 V 18.4 q 0,1.216 0.592,1.92 0.608,0.704 1.68,0.704 1.088,0 1.76,-0.752 0.672,-0.752 0.672,-1.952 v -4.048 h 1.312 z"
         id="path2974" />
      <path
         d="m 321.12601,19.936 v -4.512 h -1.056 v -1.152 h 1.056 v -2.368 h 1.296 v 2.368 h 1.792 v 1.152 h -1.792 v 4.4 q 0,0.512 0.224,0.768 0.24,0.24 0.72,0.24 h 0.848 V 22 h -1.04 q -1.072,0 -1.568,-0.496 -0.48,-0.496 -0.48,-1.568 z"
         id="path2976" />
      <path
         d="m 325.76601,14.272 h 1.6 v 1.6 h -1.6 z m 0,6.112 h 1.6 V 22 h -1.6 z"
         id="path2978" />
      <path
         d="M 331.846,16.672 V 16.16 q 0,-2.576 1.232,-4.096 1.232,-1.52 3.296,-1.52 2.064,0 3.264,1.504 1.216,1.504 1.216,4.08 v 0.512 q 0,2.576 -1.232,4.096 -1.216,1.52 -3.28,1.52 -2.064,0 -3.28,-1.504 -1.216,-1.504 -1.216,-4.08 z m 4.496,-4.912 q -1.472,0 -2.304,1.152 -0.816,1.152 -0.816,3.216 v 0.512 q 0,2.08 0.832,3.248 0.832,1.152 2.304,1.152 1.472,0 2.288,-1.152 0.832,-1.152 0.832,-3.216 V 16.16 q 0,-2.08 -0.832,-3.232 -0.832,-1.168 -2.304,-1.168 z"
         id="path2980" />
      <path
         d="m 312.941,92.144 q 0,1.744 -1.168,2.928 -1.168,1.168 -2.88,1.168 -1.712,0 -2.864,-1.168 -1.136,-1.168 -1.136,-2.912 0,-1.744 1.168,-2.912 1.168,-1.184 2.88,-1.184 1.712,0 2.848,1.168 1.152,1.168 1.152,2.912 z m -6.72,0.016 q 0,1.248 0.768,2.096 0.784,0.848 1.936,0.848 1.136,0 1.904,-0.848 0.784,-0.848 0.784,-2.112 0,-1.232 -0.784,-2.08 -0.784,-0.864 -1.92,-0.864 -1.136,0 -1.92,0.848 -0.768,0.848 -0.768,2.112 z"
         id="path2982" />
      <path
         d="m 321.51701,96 h -1.296 v -1.184 q -0.464,0.672 -1.168,1.024 -0.704,0.336 -1.6,0.336 -1.52,0 -2.4,-0.992 -0.864,-0.992 -0.864,-2.704 v -4.208 h 1.312 V 92.4 q 0,1.216 0.592,1.92 0.608,0.704 1.68,0.704 1.088,0 1.76,-0.752 0.672,-0.752 0.672,-1.952 v -4.048 h 1.312 z"
         id="path2984" />
      <path
         d="m 323.629,93.936 v -4.512 h -1.056 v -1.152 h 1.056 v -2.368 h 1.296 v 2.368 h 1.792 v 1.152 h -1.792 v 4.4 q 0,0.512 0.224,0.768 0.24,0.24 0.72,0.24 h 0.848 V 96 h -1.04 q -1.072,0 -1.568,-0.496 -0.48,-0.496 -0.48,-1.568 z"
         id="path2986" />
      <path
         d="m 328.269,88.272 h 1.6 v 1.6 h -1.6 z m 0,6.112 h 1.6 V 96 h -1.6 z"
         id="path2988" />
      <path
         d="m 335.91699,86.016 h -1.728 V 84.8 h 3.072 V 96 h -1.344 z"
         id="path2990" />
      <path
         d="m 310.43801,274.144 q 0,1.744 -1.168,2.928 -1.168,1.168 -2.88,1.168 -1.712,0 -2.864,-1.168 -1.136,-1.168 -1.136,-2.912 0,-1.744 1.168,-2.912 1.168,-1.184 2.88,-1.184 1.712,0 2.848,1.168 1.152,1.168 1.152,2.912 z m -6.72,0.016 q 0,1.248 0.768,2.096 0.784,0.848 1.936,0.848 1.136,0 1.904,-0.848 0.784,-0.848 0.784,-2.112 0,-1.232 -0.784,-2.08 -0.784,-0.864 -1.92,-0.864 -1.136,0 -1.92,0.848 -0.768,0.848 -0.768,2.112 z"
         id="path2992" />
      <path
         d="m 319.01402,278 h -1.296 v -1.184 q -0.464,0.672 -1.168,1.024 -0.704,0.336 -1.6,0.336 -1.52,0 -2.4,-0.992 -0.864,-0.992 -0.864,-2.704 v -4.208 h 1.312 v 4.128 q 0,1.216 0.592,1.92 0.608,0.704 1.68,0.704 1.088,0 1.76,-0.752 0.672,-0.752 0.672,-1.952 v -4.048 h 1.312 z"
         id="path2994" />
      <path
         d="m 321.12601,275.936 v -4.512 h -1.056 v -1.152 h 1.056 v -2.368 h 1.296 v 2.368 h 1.792 v 1.152 h -1.792 v 4.4 q 0,0.512 0.224,0.768 0.24,0.24 0.72,0.24 h 0.848 V 278 h -1.04 q -1.072,0 -1.568,-0.496 -0.48,-0.496 -0.48,-1.568 z"
         id="path2996" />
      <path
         d="m 325.76601,270.272 h 1.6 v 1.6 h -1.6 z m 0,6.112 h 1.6 V 278 h -1.6 z"
         id="path2998" />
      <path
         d="m 331.846,272.672 v -0.512 q 0,-2.576 1.232,-4.096 1.232,-1.52 3.296,-1.52 2.064,0 3.264,1.504 1.216,1.504 1.216,4.08 v 0.512 q 0,2.576 -1.232,4.096 -1.216,1.52 -3.28,1.52 -2.064,0 -3.28,-1.504 -1.216,-1.504 -1.216,-4.08 z m 4.496,-4.912 q -1.472,0 -2.304,1.152 -0.816,1.152 -0.816,3.216 v 0.512 q 0,2.08 0.832,3.248 0.832,1.152 2.304,1.152 1.472,0 2.288,-1.152 0.832,-1.152 0.832,-3.216 v -0.512 q 0,-2.08 -0.832,-3.232 -0.832,-1.168 -2.304,-1.168 z"
         id="path3000" />
      <path
         d="m 498.09399,51.68 h 1.44 v 1.424 h -1.44 z m 0.064,10.32 v -7.728 h 1.312 V 62 Z"
         id="path3002" />
      <path
         d="m 501.30998,54.272 h 1.28 v 1.2 q 0.464,-0.672 1.168,-1.024 0.72,-0.368 1.6,-0.368 1.536,0 2.4,0.992 0.864,0.992 0.864,2.72 V 62 h -1.296 v -4.128 q 0,-1.216 -0.608,-1.92 -0.592,-0.704 -1.664,-0.704 -1.104,0 -1.776,0.752 -0.672,0.752 -0.672,1.952 V 62 h -1.296 z"
         id="path3004" />
      <path
         d="m 510.30196,54.272 h 1.6 v 1.6 h -1.6 z m 0,6.112 h 1.6 V 62 h -1.6 z"
         id="path3006" />
      <path
         d="M 516.42397,56.672 V 56.16 q 0,-2.576 1.232,-4.096 1.232,-1.52 3.296,-1.52 2.064,0 3.264,1.504 1.216,1.504 1.216,4.08 v 0.512 q 0,2.576 -1.232,4.096 -1.216,1.52 -3.28,1.52 -2.064,0 -3.28,-1.504 -1.216,-1.504 -1.216,-4.08 z m 4.496,-4.912 q -1.472,0 -2.304,1.152 -0.816,1.152 -0.816,3.216 v 0.512 q 0,2.08 0.832,3.248 0.832,1.152 2.304,1.152 1.472,0 2.288,-1.152 0.832,-1.152 0.832,-3.216 V 56.16 q 0,-2.08 -0.832,-3.232 -0.832,-1.168 -2.304,-1.168 z"
         id="path3008" />
      <path
         d="m 498.09399,232.68 h 1.44 v 1.424 h -1.44 z m 0.064,10.32 v -7.728 h 1.312 V 243 Z"
         id="path3010" />
      <path
         d="m 501.30998,235.272 h 1.28 v 1.2 q 0.464,-0.672 1.168,-1.024 0.72,-0.368 1.6,-0.368 1.536,0 2.4,0.992 0.864,0.992 0.864,2.72 V 243 h -1.296 v -4.128 q 0,-1.216 -0.608,-1.92 -0.592,-0.704 -1.664,-0.704 -1.104,0 -1.776,0.752 -0.672,0.752 -0.672,1.952 V 243 h -1.296 z"
         id="path3012" />
      <path
         d="m 510.30196,235.272 h 1.6 v 1.6 h -1.6 z m 0,6.112 h 1.6 V 243 h -1.6 z"
         id="path3014" />
      <path
         d="m 516.42397,237.672 v -0.512 q 0,-2.576 1.232,-4.096 1.232,-1.52 3.296,-1.52 2.064,0 3.264,1.504 1.216,1.504 1.216,4.08 v 0.512 q 0,2.576 -1.232,4.096 -1.216,1.52 -3.28,1.52 -2.064,0 -3.28,-1.504 -1.216,-1.504 -1.216,-4.08 z m 4.496,-4.912 q -1.472,0 -2.304,1.152 -0.816,1.152 -0.816,3.216 v 0.512 q 0,2.08 0.832,3.248 0.832,1.152 2.304,1.152 1.472,0 2.288,-1.152 0.832,-1.152 0.832,-3.216 v -0.512 q 0,-2.08 -0.832,-3.232 -0.832,-1.168 -2.304,-1.168 z"
         id="path3016" />
      <path
         d="m 498.09399,308.68 h 1.44 v 1.424 h -1.44 z m 0.064,10.32 v -7.728 h 1.312 V 319 Z"
         id="path3018" />
      <path
         d="m 501.30998,311.272 h 1.28 v 1.2 q 0.464,-0.672 1.168,-1.024 0.72,-0.368 1.6,-0.368 1.536,0 2.4,0.992 0.864,0.992 0.864,2.72 V 319 h -1.296 v -4.128 q 0,-1.216 -0.608,-1.92 -0.592,-0.704 -1.664,-0.704 -1.104,0 -1.776,0.752 -0.672,0.752 -0.672,1.952 V 319 h -1.296 z"
         id="path3020" />
      <path
         d="m 510.30196,311.272 h 1.6 v 1.6 h -1.6 z m 0,6.112 h 1.6 V 319 h -1.6 z"
         id="path3022" />
      <path
         d="m 517.99197,309.016 h -1.728 V 307.8 h 3.072 V 319 h -1.344 z"
         id="path3024" />
      <path
         d="m 815.43102,57.144 q 0,1.744 -1.168,2.928 -1.168,1.168 -2.88,1.168 -1.712,0 -2.864,-1.168 -1.136,-1.168 -1.136,-2.912 0,-1.744 1.168,-2.912 1.168,-1.184 2.88,-1.184 1.712,0 2.848,1.168 1.152,1.168 1.152,2.912 z m -6.72,0.016 q 0,1.248 0.768,2.096 0.784,0.848 1.936,0.848 1.136,0 1.904,-0.848 0.784,-0.848 0.784,-2.112 0,-1.232 -0.784,-2.08 -0.784,-0.864 -1.92,-0.864 -1.136,0 -1.92,0.848 -0.768,0.848 -0.768,2.112 z"
         id="path3026" />
      <path
         d="m 824.00703,61 h -1.296 v -1.184 q -0.464,0.672 -1.168,1.024 -0.704,0.336 -1.6,0.336 -1.52,0 -2.4,-0.992 -0.864,-0.992 -0.864,-2.704 v -4.208 h 1.312 V 57.4 q 0,1.216 0.592,1.92 0.608,0.704 1.68,0.704 1.088,0 1.76,-0.752 0.672,-0.752 0.672,-1.952 v -4.048 h 1.312 z"
         id="path3028" />
      <path
         d="m 826.11902,58.936 v -4.512 h -1.056 v -1.152 h 1.056 v -2.368 h 1.296 v 2.368 h 1.792 v 1.152 h -1.792 v 4.4 q 0,0.512 0.224,0.768 0.24,0.24 0.72,0.24 h 0.848 V 61 h -1.04 q -1.072,0 -1.568,-0.496 -0.48,-0.496 -0.48,-1.568 z"
         id="path3030" />
      <path
         d="m 830.75902,53.272 h 1.6 v 1.6 h -1.6 z m 0,6.112 h 1.6 V 61 h -1.6 z"
         id="path3032" />
      <path
         d="M 836.83901,55.672 V 55.16 q 0,-2.576 1.232,-4.096 1.232,-1.52 3.296,-1.52 2.064,0 3.264,1.504 1.216,1.504 1.216,4.08 v 0.512 q 0,2.576 -1.232,4.096 -1.216,1.52 -3.28,1.52 -2.064,0 -3.28,-1.504 -1.216,-1.504 -1.216,-4.08 z m 4.496,-4.912 q -1.472,0 -2.304,1.152 -0.816,1.152 -0.816,3.216 v 0.512 q 0,2.08 0.832,3.248 0.832,1.152 2.304,1.152 1.472,0 2.288,-1.152 0.832,-1.152 0.832,-3.216 V 55.16 q 0,-2.08 -0.832,-3.232 -0.832,-1.168 -2.304,-1.168 z"
         id="path3034" />
      <path
         d="m 812.411,238.144 q 0,1.744 -1.168,2.928 -1.168,1.168 -2.88,1.168 -1.712,0 -2.864,-1.168 -1.136,-1.168 -1.136,-2.912 0,-1.744 1.168,-2.912 1.168,-1.184 2.88,-1.184 1.712,0 2.848,1.168 1.152,1.168 1.152,2.912 z m -6.72,0.016 q 0,1.248 0.768,2.096 0.784,0.848 1.936,0.848 1.136,0 1.904,-0.848 0.784,-0.848 0.784,-2.112 0,-1.232 -0.784,-2.08 -0.784,-0.864 -1.92,-0.864 -1.136,0 -1.92,0.848 -0.768,0.848 -0.768,2.112 z"
         id="path3036" />
      <path
         d="m 820.98701,242 h -1.296 v -1.184 q -0.464,0.672 -1.168,1.024 -0.704,0.336 -1.6,0.336 -1.52,0 -2.4,-0.992 -0.864,-0.992 -0.864,-2.704 v -4.208 h 1.312 v 4.128 q 0,1.216 0.592,1.92 0.608,0.704 1.68,0.704 1.088,0 1.76,-0.752 0.672,-0.752 0.672,-1.952 v -4.048 h 1.312 z"
         id="path3038" />
      <path
         d="m 823.099,239.936 v -4.512 h -1.056 v -1.152 h 1.056 v -2.368 h 1.296 v 2.368 h 1.792 v 1.152 h -1.792 v 4.4 q 0,0.512 0.224,0.768 0.24,0.24 0.72,0.24 h 0.848 V 242 h -1.04 q -1.072,0 -1.568,-0.496 -0.48,-0.496 -0.48,-1.568 z"
         id="path3040" />
      <path
         d="m 827.739,234.272 h 1.6 v 1.6 h -1.6 z m 0,6.112 h 1.6 V 242 h -1.6 z"
         id="path3042" />
      <path
         d="m 833.81899,236.672 v -0.512 q 0,-2.576 1.232,-4.096 1.232,-1.52 3.296,-1.52 2.064,0 3.264,1.504 1.216,1.504 1.216,4.08 v 0.512 q 0,2.576 -1.232,4.096 -1.216,1.52 -3.28,1.52 -2.064,0 -3.28,-1.504 -1.216,-1.504 -1.216,-4.08 z m 4.496,-4.912 q -1.472,0 -2.304,1.152 -0.816,1.152 -0.816,3.216 v 0.512 q 0,2.08 0.832,3.248 0.832,1.152 2.304,1.152 1.472,0 2.288,-1.152 0.832,-1.152 0.832,-3.216 v -0.512 q 0,-2.08 -0.832,-3.232 -0.832,-1.168 -2.304,-1.168 z"
         id="path3044" />
      <path
         d="m 812.411,315.144 q 0,1.744 -1.168,2.928 -1.168,1.168 -2.88,1.168 -1.712,0 -2.864,-1.168 -1.136,-1.168 -1.136,-2.912 0,-1.744 1.168,-2.912 1.168,-1.184 2.88,-1.184 1.712,0 2.848,1.168 1.152,1.168 1.152,2.912 z m -6.72,0.016 q 0,1.248 0.768,2.096 0.784,0.848 1.936,0.848 1.136,0 1.904,-0.848 0.784,-0.848 0.784,-2.112 0,-1.232 -0.784,-2.08 -0.784,-0.864 -1.92,-0.864 -1.136,0 -1.92,0.848 -0.768,0.848 -0.768,2.112 z"
         id="path3046" />
      <path
         d="m 820.98701,319 h -1.296 v -1.184 q -0.464,0.672 -1.168,1.024 -0.704,0.336 -1.6,0.336 -1.52,0 -2.4,-0.992 -0.864,-0.992 -0.864,-2.704 v -4.208 h 1.312 v 4.128 q 0,1.216 0.592,1.92 0.608,0.704 1.68,0.704 1.088,0 1.76,-0.752 0.672,-0.752 0.672,-1.952 v -4.048 h 1.312 z"
         id="path3048" />
      <path
         d="m 823.099,316.936 v -4.512 h -1.056 v -1.152 h 1.056 v -2.368 h 1.296 v 2.368 h 1.792 v 1.152 h -1.792 v 4.4 q 0,0.512 0.224,0.768 0.24,0.24 0.72,0.24 h 0.848 V 319 h -1.04 q -1.072,0 -1.568,-0.496 -0.48,-0.496 -0.48,-1.568 z"
         id="path3050" />
      <path
         d="m 827.739,311.272 h 1.6 v 1.6 h -1.6 z m 0,6.112 h 1.6 V 319 h -1.6 z"
         id="path3052" />
      <path
         d="m 835.38699,309.016 h -1.728 V 307.8 h 3.072 V 319 h -1.344 z"
         id="path3054" />
    </g>
  </g>
</svg>
