<?xml version="1.0" encoding="UTF-8" standalone="no"?>
<svg
   width="992"
   height="384"
   overflow="hidden"
   version="1.1"
   id="svg4761"
   sodipodi:docname="MO_graph_after_extractors.svg"
   inkscape:version="1.2.1 (9c6d41e410, 2022-07-14)"
   xmlns:inkscape="http://www.inkscape.org/namespaces/inkscape"
   xmlns:sodipodi="http://sodipodi.sourceforge.net/DTD/sodipodi-0.dtd"
   xmlns="http://www.w3.org/2000/svg"
   xmlns:svg="http://www.w3.org/2000/svg">
  <sodipodi:namedview
     id="namedview4763"
     pagecolor="#ffffff"
     bordercolor="#000000"
     borderopacity="0.25"
     inkscape:showpageshadow="2"
     inkscape:pageopacity="0.0"
     inkscape:pagecheckerboard="0"
     inkscape:deskcolor="#d1d1d1"
     showgrid="false"
     inkscape:zoom="1.2409274"
     inkscape:cx="496"
     inkscape:cy="191.79204"
     inkscape:window-width="1920"
     inkscape:window-height="1009"
     inkscape:window-x="-8"
     inkscape:window-y="-8"
     inkscape:window-maximized="1"
     inkscape:current-layer="svg4761" />
  <defs
     id="defs4667">
    <clipPath
       id="clip0">
      <rect
         x="0"
         y="0"
         width="992"
         height="384"
         id="rect4664" />
    </clipPath>
  </defs>
  <g
     clip-path="url(#clip0)"
     id="g4759">
    <path
       id="rect4669"
       style="fill:#ffffff"
       d="M 0,0 H 992 V 384 H 0 Z" />
    <path
       id="rect4671"
       style="fill:#e9e9e9;stroke:#000000;stroke-width:1.33333;stroke-miterlimit:8"
       d="M 57.500099,37.500099 H 209.5001 V 118.5001 H 57.500099 Z" />
    <g
       aria-label="Operation1{attr_a:value_a,attr_b: value_b,...}"
       transform="translate(98.7385 55)"
       id="text4683"
       style="font-size:15px;font-family:'IntelOne Display Regular', 'IntelOne Display Regular_MSFontService', sans-serif">
      <path
         d="m 0.555,-5.235 q 0,-2.325 1.545,-3.915 1.545,-1.59 3.81,-1.59 2.28,0 3.795,1.575 1.53,1.56 1.53,3.9 0,2.34 -1.545,3.93 -1.53,1.575 -3.795,1.575 -2.28,0 -3.81,-1.56 -1.53,-1.575 -1.53,-3.915 z m 1.32,-0.03 q 0,1.845 1.155,3.105 1.17,1.245 2.88,1.245 1.71,0 2.85,-1.23 1.155,-1.245 1.155,-3.09 0,-1.845 -1.155,-3.09 -1.155,-1.26 -2.865,-1.26 -1.725,0 -2.88,1.245 -1.14,1.23 -1.14,3.075 z"
         id="path4767" />
      <path
         d="m 13.799989,2.7 h -1.215 v -9.945 h 1.2 v 1.17 q 0.48,-0.63 1.185,-0.975 0.705,-0.36 1.5,-0.36 1.53,0 2.55,1.065 1.02,1.05 1.02,2.7 0,1.665 -1.065,2.745 -1.05,1.065 -2.595,1.065 -0.735,0 -1.425,-0.3 -0.675,-0.315 -1.155,-0.885 z m 2.535,-9.03 q -1.095,0 -1.845,0.795 -0.735,0.78 -0.735,1.95 0,1.155 0.72,1.92 0.735,0.765 1.815,0.765 1.11,0 1.8,-0.735 0.705,-0.75 0.705,-1.98 0,-1.215 -0.69,-1.965 -0.675,-0.75 -1.77,-0.75 z"
         id="path4769" />
      <path
         d="m 24.79498,-0.81 q 0.72,0 1.32,-0.3 0.615,-0.315 1.125,-0.945 l 0.735,0.675 q -0.615,0.81 -1.44,1.215 -0.825,0.39 -1.845,0.39 -1.635,0 -2.685,-1.065 -1.035,-1.08 -1.035,-2.76 0,-1.635 1.065,-2.73 1.065,-1.095 2.625,-1.095 1.59,0 2.58,1.035 0.99,1.035 0.99,2.7 0,0.12 -0.015,0.285 -0.015,0.15 -0.03,0.225 h -5.955 q 0.12,1.065 0.825,1.725 0.72,0.645 1.74,0.645 z m -0.12,-5.58 q -0.945,0 -1.62,0.615 -0.675,0.615 -0.825,1.65 h 4.77 q -0.135,-1.05 -0.765,-1.65 -0.63,-0.615 -1.56,-0.615 z"
         id="path4771" />
      <path
         d="m 29.459989,-7.245 h 1.2 v 0.915 q 0.33,-0.48 0.855,-0.72 0.525,-0.24 1.245,-0.24 h 0.66 v 1.155 h -0.675 q -1.035,0 -1.56,0.54 -0.51,0.54 -0.51,1.635 V 0 h -1.215 z"
         id="path4773" />
      <path
         d="m 40.33498,0 h -1.185 v -1.185 q -0.435,0.63 -1.185,0.99 -0.735,0.345 -1.59,0.345 -1.2,0 -1.95,-0.6 -0.75,-0.615 -0.75,-1.605 0,-1.095 0.84,-1.65 0.84,-0.57 2.49,-0.57 h 2.13 q -0.015,-1.02 -0.54,-1.575 -0.51,-0.555 -1.47,-0.555 -0.57,0 -1.125,0.24 -0.555,0.24 -1.095,0.735 l -0.645,-0.81 q 0.63,-0.6 1.38,-0.9 0.75,-0.315 1.605,-0.315 1.455,0 2.265,0.87 0.825,0.855 0.825,2.37 z m -1.2,-3.33 h -2.115 q -1.095,0 -1.62,0.3 -0.525,0.3 -0.525,0.945 0,0.54 0.45,0.9 0.465,0.36 1.185,0.36 1.08,0 1.815,-0.69 0.75,-0.705 0.81,-1.815 z"
         id="path4775" />
      <path
         d="m 42.164985,-1.935 v -4.23 h -0.99 v -1.08 h 0.99 v -2.22 h 1.215 v 2.22 h 1.68 v 1.08 h -1.68 v 4.125 q 0,0.48 0.21,0.72 0.225,0.225 0.675,0.225 h 0.795 V 0 h -0.975 q -1.005,0 -1.47,-0.465 -0.45,-0.465 -0.45,-1.47 z"
         id="path4777" />
      <path
         d="m 46.364987,-9.675 h 1.35 v 1.335 h -1.35 z m 0.06,9.675 v -7.245 h 1.23 V 0 Z"
         id="path4779" />
      <path
         d="m 56.594976,-3.615 q 0,1.635 -1.095,2.745 -1.095,1.095 -2.7,1.095 -1.605,0 -2.685,-1.095 -1.065,-1.095 -1.065,-2.73 0,-1.635 1.095,-2.73 1.095,-1.11 2.7,-1.11 1.605,0 2.67,1.095 1.08,1.095 1.08,2.73 z m -6.3,0.015 q 0,1.17 0.72,1.965 0.735,0.795 1.815,0.795 1.065,0 1.785,-0.795 0.735,-0.795 0.735,-1.98 0,-1.155 -0.735,-1.95 -0.735,-0.81 -1.8,-0.81 -1.065,0 -1.8,0.795 -0.72,0.795 -0.72,1.98 z"
         id="path4781" />
      <path
         d="m 57.854982,-7.245 h 1.2 v 1.125 q 0.435,-0.63 1.095,-0.96 0.675,-0.345 1.5,-0.345 1.44,0 2.25,0.93 0.81,0.93 0.81,2.55 V 0 h -1.215 v -3.87 q 0,-1.14 -0.57,-1.8 -0.555,-0.66 -1.56,-0.66 -1.035,0 -1.665,0.705 -0.63,0.705 -0.63,1.83 V 0 h -1.215 z"
         id="path4783" />
      <path
         d="m 67.43997,-9.36 h -1.62 v -1.14 h 2.88 V 0 h -1.26 z"
         id="path4785" />
      <path
         d="m -12.47,31.595 q 0,-0.39 -0.705,-0.69 -0.69,-0.3 -2.295,-0.66 v -0.99 q 1.605,-0.36 2.295,-0.66 0.705,-0.3 0.705,-0.69 0,-0.135 -0.15,-0.39 -0.15,-0.255 -0.555,-0.81 -0.6,-0.78 -0.84,-1.23 -0.225,-0.465 -0.225,-0.93 0,-0.855 0.645,-1.35 0.645,-0.51 1.785,-0.51 h 2.4599999 V 23.78 H -11.81 q -0.54,0 -0.855,0.21 -0.315,0.21 -0.315,0.57 0,0.285 0.18,0.615 0.18,0.315 0.69,1.02 0.495,0.66 0.69,1.065 0.21,0.39 0.21,0.735 0,0.66 -0.66,1.08 -0.645,0.42 -2.01,0.675 1.365,0.255 2.01,0.675 0.66,0.42 0.66,1.08 0,0.345 -0.21,0.75 -0.195,0.39 -0.69,1.05 -0.51,0.705 -0.69,1.035 -0.18,0.315 -0.18,0.6 0,0.36 0.315,0.57 0.315,0.21 0.855,0.21 h 2.4599999 v 1.095 H -11.81 q -1.14,0 -1.785,-0.51 -0.645,-0.495 -0.645,-1.35 0,-0.465 0.225,-0.915 0.24,-0.465 0.84,-1.245 0.405,-0.555 0.555,-0.81 0.15,-0.255 0.15,-0.39 z"
         id="path4787" />
      <path
         d="m -2.1500172,35 h -1.185 v -1.185 q -0.435,0.63 -1.185,0.99 -0.735,0.345 -1.59,0.345 -1.2,0 -1.95,-0.6 -0.75,-0.615 -0.75,-1.605 0,-1.095 0.84,-1.65 0.84,-0.57 2.49,-0.57 h 2.13 q -0.015,-1.02 -0.54,-1.575 -0.51,-0.555 -1.47,-0.555 -0.57,0 -1.125,0.24 -0.555,0.24 -1.095,0.735 l -0.645,-0.81 q 0.63,-0.6 1.38,-0.9 0.75,-0.315 1.605,-0.315 1.455,0 2.265,0.87 0.825,0.855 0.825,2.37 z m -1.2,-3.33 h -2.115 q -1.095,0 -1.62,0.3 -0.525,0.3 -0.525,0.945 0,0.54 0.45,0.9 0.465,0.36 1.185,0.36 1.08,0 1.815,-0.69 0.75,-0.705 0.81,-1.815 z"
         id="path4789" />
      <path
         d="m -0.32001381,33.065 v -4.23 H -1.3100138 v -1.08 h 0.98999999 v -2.22 h 1.215 v 2.22 H 2.5749862 v 1.08 H 0.89498619 v 4.125 q 0,0.48 0.21000001,0.72 0.225,0.225 0.675,0.225 h 0.795 V 35 h -0.975 q -1.00500001,0 -1.47000001,-0.465 -0.45,-0.465 -0.45,-1.47 z"
         id="path4791" />
      <path
         d="m 4.2099869,33.065 v -4.23 h -0.99 v -1.08 h 0.99 v -2.22 h 1.215 v 2.22 h 1.68 v 1.08 h -1.68 v 4.125 q 0,0.48 0.21,0.72 0.225,0.225 0.675,0.225 h 0.795 V 35 h -0.975 q -1.005,0 -1.47,-0.465 -0.45,-0.465 -0.45,-1.47 z"
         id="path4793" />
      <path
         d="m 8.3349876,27.755 h 1.2 v 0.915 q 0.33,-0.48 0.8550004,-0.72 0.525,-0.24 1.245,-0.24 h 0.66 v 1.155 h -0.675 q -1.035,0 -1.56,0.54 -0.5100004,0.54 -0.5100004,1.635 V 35 h -1.215 z"
         id="path4795" />
      <path
         d="M 12.459986,36.935 V 35.84 h 7.62 v 1.095 z"
         id="path4797" />
      <path
         d="m 27.069982,35 h -1.185 v -1.185 q -0.435,0.63 -1.185,0.99 -0.735,0.345 -1.59,0.345 -1.2,0 -1.95,-0.6 -0.75,-0.615 -0.75,-1.605 0,-1.095 0.84,-1.65 0.84,-0.57 2.49,-0.57 h 2.13 q -0.015,-1.02 -0.54,-1.575 -0.51,-0.555 -1.47,-0.555 -0.57,0 -1.125,0.24 -0.555,0.24 -1.095,0.735 l -0.645,-0.81 q 0.63,-0.6 1.38,-0.9 0.75,-0.315 1.605,-0.315 1.455,0 2.265,0.87 0.825,0.855 0.825,2.37 z m -1.2,-3.33 h -2.115 q -1.095,0 -1.62,0.3 -0.525,0.3 -0.525,0.945 0,0.54 0.45,0.9 0.465,0.36 1.185,0.36 1.08,0 1.815,-0.69 0.75,-0.705 0.81,-1.815 z"
         id="path4799" />
      <path
         d="m 28.644973,27.755 h 1.5 v 1.5 h -1.5 z m 0,5.73 h 1.5 V 35 h -1.5 z"
         id="path4801" />
      <path
         d="m 36.0467,35 -3.105,-7.245 h 1.335 l 2.355,5.79 2.34,-5.79 h 1.26 L 37.1567,35 Z"
         id="path4803" />
      <path
         d="m 47.131689,35 h -1.185 v -1.185 q -0.435,0.63 -1.185,0.99 -0.735,0.345 -1.59,0.345 -1.2,0 -1.95,-0.6 -0.75,-0.615 -0.75,-1.605 0,-1.095 0.84,-1.65 0.84,-0.57 2.49,-0.57 h 2.13 q -0.015,-1.02 -0.54,-1.575 -0.51,-0.555 -1.47,-0.555 -0.57,0 -1.125,0.24 -0.555,0.24 -1.095,0.735 l -0.645,-0.81 q 0.63,-0.6 1.38,-0.9 0.75,-0.315 1.605,-0.315 1.455,0 2.265,0.87 0.825,0.855 0.825,2.37 z m -1.2,-3.33 h -2.115 q -1.095,0 -1.62,0.3 -0.525,0.3 -0.525,0.945 0,0.54 0.45,0.9 0.465,0.36 1.185,0.36 1.08,0 1.815,-0.69 0.75,-0.705 0.81,-1.815 z"
         id="path4805" />
      <path
         d="m 48.766679,24.5 h 1.23 V 35 h -1.23 z"
         id="path4807" />
      <path
         d="m 58.50167,35 h -1.215 v -1.11 q -0.435,0.63 -1.095,0.96 -0.66,0.315 -1.5,0.315 -1.425,0 -2.25,-0.93 -0.81,-0.93 -0.81,-2.535 v -3.945 h 1.23 v 3.87 q 0,1.14 0.555,1.8 0.57,0.66 1.575,0.66 1.02,0 1.65,-0.705 0.63,-0.705 0.63,-1.83 v -3.795 h 1.23 z"
         id="path4809" />
      <path
         d="m 63.571658,34.19 q 0.72,0 1.32,-0.3 0.615,-0.315 1.125,-0.945 l 0.735,0.675 q -0.615,0.81 -1.44,1.215 -0.825,0.39 -1.845,0.39 -1.635,0 -2.685,-1.065 -1.035,-1.08 -1.035,-2.76 0,-1.635 1.065,-2.73 1.065,-1.095 2.625,-1.095 1.59,0 2.58,1.035 0.99,1.035 0.99,2.7 0,0.12 -0.015,0.285 -0.015,0.15 -0.03,0.225 h -5.955 q 0.12,1.065 0.825,1.725 0.72,0.645 1.74,0.645 z m -0.12,-5.58 q -0.945,0 -1.62,0.615 -0.675,0.615 -0.825,1.65 h 4.77 q -0.135,-1.05 -0.765,-1.65 -0.63,-0.615 -1.56,-0.615 z"
         id="path4811" />
      <path
         d="M 67.411669,36.935 V 35.84 h 7.62 v 1.095 z"
         id="path4813" />
      <path
         d="m 82.021663,35 h -1.185 v -1.185 q -0.435,0.63 -1.185,0.99 -0.735,0.345 -1.59,0.345 -1.2,0 -1.95,-0.6 -0.75,-0.615 -0.75,-1.605 0,-1.095 0.84,-1.65 0.84,-0.57 2.49,-0.57 h 2.13 q -0.015,-1.02 -0.54,-1.575 -0.51,-0.555 -1.47,-0.555 -0.57,0 -1.125,0.24 -0.555,0.24 -1.095,0.735 l -0.645,-0.81 q 0.63,-0.6 1.38,-0.9 0.75,-0.315 1.605,-0.315 1.455,0 2.265,0.87 0.825,0.855 0.825,2.37 z m -1.2,-3.33 h -2.115 q -1.095,0 -1.62,0.3 -0.525,0.3 -0.525,0.945 0,0.54 0.45,0.9 0.465,0.36 1.185,0.36 1.08,0 1.815,-0.69 0.75,-0.705 0.81,-1.815 z"
         id="path4815" />
      <path
         d="m 83.776654,36.83 h -0.93 l 0.93,-3.36 h 1.44 z"
         id="path4817" />
      <path
         d="m -16.8133,53 h -1.185 v -1.185 q -0.435,0.63 -1.185,0.99 -0.735,0.345 -1.59,0.345 -1.2,0 -1.95,-0.6 -0.75,-0.615 -0.75,-1.605 0,-1.095 0.84,-1.65 0.84,-0.57 2.49,-0.57 h 2.13 q -0.015,-1.02 -0.54,-1.575 -0.51,-0.555 -1.47,-0.555 -0.57,0 -1.125,0.24 -0.555,0.24 -1.095,0.735 l -0.645,-0.81 q 0.63,-0.6 1.38,-0.9 0.75,-0.315 1.605,-0.315 1.455,0 2.265,0.87 0.825,0.855 0.825,2.37 z m -1.2,-3.33 h -2.115 q -1.095,0 -1.62,0.3 -0.525,0.3 -0.525,0.945 0,0.54 0.45,0.9 0.465,0.36 1.185,0.36 1.08,0 1.815,-0.69 0.75,-0.705 0.81,-1.815 z"
         id="path4819" />
      <path
         d="m -14.908309,51.065 v -4.23 h -0.99 v -1.08 h 0.99 v -2.22 h 1.215 v 2.22 h 1.68 v 1.08 h -1.68 v 4.125 q 0,0.48 0.21,0.72 0.225,0.225 0.675,0.225 h 0.795 V 53 h -0.975 q -1.005,0 -1.47,-0.465 -0.45,-0.465 -0.45,-1.47 z"
         id="path4821" />
      <path
         d="m -10.378308,51.065 v -4.23 h -0.99 v -1.08 h 0.99 v -2.22 h 1.2149999 v 2.22 h 1.68 v 1.08 h -1.68 v 4.125 q 0,0.48 0.21,0.72 0.225,0.225 0.675,0.225 h 0.795 V 53 h -0.975 q -1.005,0 -1.47,-0.465 -0.4499999,-0.465 -0.4499999,-1.47 z"
         id="path4823" />
      <path
         d="m -6.2533074,45.755 h 1.2 v 0.915 q 0.33,-0.48 0.855,-0.72 0.525,-0.24 1.245,-0.24 h 0.66 v 1.155 h -0.675 q -1.035,0 -1.56,0.54 -0.51,0.54 -0.51,1.635 V 53 h -1.215 z"
         id="path4825" />
      <path
         d="M -2.1283086,54.935 V 53.84 h 7.62 v 1.095 z"
         id="path4827" />
      <path
         d="m 7.4566871,53 h -1.2 V 42.5 h 1.215 v 4.38 q 0.48,-0.615 1.17,-0.945 0.705,-0.345 1.4849999,-0.345 1.53,0 2.55,1.065 1.035,1.05 1.035,2.7 0,1.665 -1.05,2.745 -1.05,1.065 -2.595,1.065 -0.7649999,0 -1.4549999,-0.33 -0.675,-0.33 -1.155,-0.915 z m 2.5499999,-6.33 q -1.0799999,0 -1.8299999,0.795 -0.75,0.78 -0.75,1.95 0,1.14 0.735,1.92 0.735,0.765 1.8,0.765 1.1099999,0 1.7999999,-0.735 0.705,-0.75 0.705,-1.98 0,-1.215 -0.69,-1.965 -0.675,-0.75 -1.77,-0.75 z"
         id="path4829" />
      <path
         d="m 15.04668,45.755 h 1.5 v 1.5 h -1.5 z m 0,5.73 h 1.5 V 53 h -1.5 z"
         id="path4831" />
      <path
         d="m 23.491664,53 -3.105,-7.245 h 1.335 l 2.355,5.79 2.34,-5.79 h 1.26 l -3.075,7.245 z"
         id="path4833" />
      <path
         d="m 34.576654,53 h -1.185 v -1.185 q -0.435,0.63 -1.185,0.99 -0.735,0.345 -1.59,0.345 -1.2,0 -1.95,-0.6 -0.75,-0.615 -0.75,-1.605 0,-1.095 0.84,-1.65 0.84,-0.57 2.49,-0.57 h 2.13 q -0.015,-1.02 -0.54,-1.575 -0.51,-0.555 -1.47,-0.555 -0.57,0 -1.125,0.24 -0.555,0.24 -1.095,0.735 l -0.645,-0.81 q 0.63,-0.6 1.38,-0.9 0.75,-0.315 1.605,-0.315 1.455,0 2.265,0.87 0.825,0.855 0.825,2.37 z m -1.2,-3.33 h -2.115 q -1.095,0 -1.62,0.3 -0.525,0.3 -0.525,0.945 0,0.54 0.45,0.9 0.465,0.36 1.185,0.36 1.08,0 1.815,-0.69 0.75,-0.705 0.81,-1.815 z"
         id="path4835" />
      <path
         d="m 36.211645,42.5 h 1.23 V 53 h -1.23 z"
         id="path4837" />
      <path
         d="m 45.946634,53 h -1.215 v -1.11 q -0.435,0.63 -1.095,0.96 -0.66,0.315 -1.5,0.315 -1.425,0 -2.25,-0.93 -0.81,-0.93 -0.81,-2.535 v -3.945 h 1.23 v 3.87 q 0,1.14 0.555,1.8 0.57,0.66 1.575,0.66 1.02,0 1.65,-0.705 0.63,-0.705 0.63,-1.83 v -3.795 h 1.23 z"
         id="path4839" />
      <path
         d="m 51.016622,52.19 q 0.72,0 1.32,-0.3 0.615,-0.315 1.125,-0.945 l 0.735,0.675 q -0.615,0.81 -1.44,1.215 -0.825,0.39 -1.845,0.39 -1.635,0 -2.685,-1.065 -1.035,-1.08 -1.035,-2.76 0,-1.635 1.065,-2.73 1.065,-1.095 2.625,-1.095 1.59,0 2.58,1.035 0.99,1.035 0.99,2.7 0,0.12 -0.015,0.285 -0.015,0.15 -0.03,0.225 h -5.955 q 0.12,1.065 0.825,1.725 0.72,0.645 1.74,0.645 z m -0.12,-5.58 q -0.945,0 -1.62,0.615 -0.675,0.615 -0.825,1.65 h 4.77 q -0.135,-1.05 -0.765,-1.65 -0.63,-0.615 -1.56,-0.615 z"
         id="path4841" />
      <path
         d="M 54.856633,54.935 V 53.84 h 7.62 v 1.095 z"
         id="path4843" />
      <path
         d="m 64.441623,53 h -1.2 V 42.5 h 1.215 v 4.38 q 0.48,-0.615 1.17,-0.945 0.705,-0.345 1.485,-0.345 1.53,0 2.55,1.065 1.035,1.05 1.035,2.7 0,1.665 -1.05,2.745 -1.05,1.065 -2.595,1.065 -0.765,0 -1.455,-0.33 -0.675,-0.33 -1.155,-0.915 z m 2.55,-6.33 q -1.08,0 -1.83,0.795 -0.75,0.78 -0.75,1.95 0,1.14 0.735,1.92 0.735,0.765 1.8,0.765 1.11,0 1.8,-0.735 0.705,-0.75 0.705,-1.98 0,-1.215 -0.69,-1.965 -0.675,-0.75 -1.77,-0.75 z"
         id="path4845" />
      <path
         d="m 72.106616,54.83 h -0.93 l 0.93,-3.36 h 1.44 z"
         id="path4847" />
      <path
         d="m 75.386702,51.485 h 1.515 V 53 h -1.515 z"
         id="path4849" />
      <path
         d="m 78.34171,51.485 h 1.515 V 53 h -1.515 z"
         id="path4851" />
      <path
         d="m 81.296717,51.485 h 1.515 V 53 h -1.515 z"
         id="path4853" />
      <path
         d="m 92.298298,47.255 v 0.99 q -1.605,0.36 -2.31,0.66 -0.69,0.3 -0.69,0.69 0,0.15 0.15,0.42 0.165,0.255 0.555,0.78 0.585,0.78 0.81,1.245 0.24,0.45 0.24,0.915 0,0.855 -0.645,1.35 -0.645,0.51 -1.785,0.51 h -2.445 V 53.72 h 2.445 q 0.54,0 0.855,-0.21 0.315,-0.21 0.315,-0.57 0,-0.285 -0.18,-0.6 -0.18,-0.33 -0.69,-1.035 -0.48,-0.63 -0.69,-1.035 -0.195,-0.405 -0.195,-0.765 0,-0.66 0.645,-1.08 0.66,-0.42 2.025,-0.675 -1.365,-0.255 -2.025,-0.675 -0.645,-0.42 -0.645,-1.08 0,-0.36 0.195,-0.765 0.21,-0.405 0.69,-1.035 0.51,-0.705 0.69,-1.02 0.18,-0.33 0.18,-0.615 0,-0.36 -0.315,-0.57 -0.315,-0.21 -0.855,-0.21 h -2.445 v -1.095 h 2.445 q 1.14,0 1.785,0.51 0.645,0.495 0.645,1.35 0,0.465 -0.24,0.93 -0.225,0.45 -0.81,1.23 -0.39,0.525 -0.555,0.795 -0.15,0.255 -0.15,0.405 0,0.39 0.69,0.69 0.705,0.3 2.31,0.66 z"
         id="path4855" />
    </g>
    <path
       id="rect4685"
       style="fill:#e9e9e9;stroke:#000000;stroke-width:1.33333;stroke-miterlimit:8"
       d="m 310.5,37.500099 h 152 V 118.5001 h -152 z" />
    <g
       aria-label="Operation2{attr_c: value_c,attr_d: value_d, ... }"
       transform="translate(349.817 55)"
       id="text4691"
       style="font-size:15px;font-family:'IntelOne Display Regular', 'IntelOne Display Regular_MSFontService', sans-serif">
      <path
         d="m 0.555,-5.235 q 0,-2.325 1.545,-3.915 1.545,-1.59 3.81,-1.59 2.28,0 3.795,1.575 1.53,1.56 1.53,3.9 0,2.34 -1.545,3.93 -1.53,1.575 -3.795,1.575 -2.28,0 -3.81,-1.56 -1.53,-1.575 -1.53,-3.915 z m 1.32,-0.03 q 0,1.845 1.155,3.105 1.17,1.245 2.88,1.245 1.71,0 2.85,-1.23 1.155,-1.245 1.155,-3.09 0,-1.845 -1.155,-3.09 -1.155,-1.26 -2.865,-1.26 -1.725,0 -2.88,1.245 -1.14,1.23 -1.14,3.075 z"
         id="path4859" />
      <path
         d="m 13.799989,2.7 h -1.215 v -9.945 h 1.2 v 1.17 q 0.48,-0.63 1.185,-0.975 0.705,-0.36 1.5,-0.36 1.53,0 2.55,1.065 1.02,1.05 1.02,2.7 0,1.665 -1.065,2.745 -1.05,1.065 -2.595,1.065 -0.735,0 -1.425,-0.3 -0.675,-0.315 -1.155,-0.885 z m 2.535,-9.03 q -1.095,0 -1.845,0.795 -0.735,0.78 -0.735,1.95 0,1.155 0.72,1.92 0.735,0.765 1.815,0.765 1.11,0 1.8,-0.735 0.705,-0.75 0.705,-1.98 0,-1.215 -0.69,-1.965 -0.675,-0.75 -1.77,-0.75 z"
         id="path4861" />
      <path
         d="m 24.79498,-0.81 q 0.72,0 1.32,-0.3 0.615,-0.315 1.125,-0.945 l 0.735,0.675 q -0.615,0.81 -1.44,1.215 -0.825,0.39 -1.845,0.39 -1.635,0 -2.685,-1.065 -1.035,-1.08 -1.035,-2.76 0,-1.635 1.065,-2.73 1.065,-1.095 2.625,-1.095 1.59,0 2.58,1.035 0.99,1.035 0.99,2.7 0,0.12 -0.015,0.285 -0.015,0.15 -0.03,0.225 h -5.955 q 0.12,1.065 0.825,1.725 0.72,0.645 1.74,0.645 z m -0.12,-5.58 q -0.945,0 -1.62,0.615 -0.675,0.615 -0.825,1.65 h 4.77 q -0.135,-1.05 -0.765,-1.65 -0.63,-0.615 -1.56,-0.615 z"
         id="path4863" />
      <path
         d="m 29.459989,-7.245 h 1.2 v 0.915 q 0.33,-0.48 0.855,-0.72 0.525,-0.24 1.245,-0.24 h 0.66 v 1.155 h -0.675 q -1.035,0 -1.56,0.54 -0.51,0.54 -0.51,1.635 V 0 h -1.215 z"
         id="path4865" />
      <path
         d="m 40.33498,0 h -1.185 v -1.185 q -0.435,0.63 -1.185,0.99 -0.735,0.345 -1.59,0.345 -1.2,0 -1.95,-0.6 -0.75,-0.615 -0.75,-1.605 0,-1.095 0.84,-1.65 0.84,-0.57 2.49,-0.57 h 2.13 q -0.015,-1.02 -0.54,-1.575 -0.51,-0.555 -1.47,-0.555 -0.57,0 -1.125,0.24 -0.555,0.24 -1.095,0.735 l -0.645,-0.81 q 0.63,-0.6 1.38,-0.9 0.75,-0.315 1.605,-0.315 1.455,0 2.265,0.87 0.825,0.855 0.825,2.37 z m -1.2,-3.33 h -2.115 q -1.095,0 -1.62,0.3 -0.525,0.3 -0.525,0.945 0,0.54 0.45,0.9 0.465,0.36 1.185,0.36 1.08,0 1.815,-0.69 0.75,-0.705 0.81,-1.815 z"
         id="path4867" />
      <path
         d="m 42.164985,-1.935 v -4.23 h -0.99 v -1.08 h 0.99 v -2.22 h 1.215 v 2.22 h 1.68 v 1.08 h -1.68 v 4.125 q 0,0.48 0.21,0.72 0.225,0.225 0.675,0.225 h 0.795 V 0 h -0.975 q -1.005,0 -1.47,-0.465 -0.45,-0.465 -0.45,-1.47 z"
         id="path4869" />
      <path
         d="m 46.364987,-9.675 h 1.35 v 1.335 h -1.35 z m 0.06,9.675 v -7.245 h 1.23 V 0 Z"
         id="path4871" />
      <path
         d="m 56.594976,-3.615 q 0,1.635 -1.095,2.745 -1.095,1.095 -2.7,1.095 -1.605,0 -2.685,-1.095 -1.065,-1.095 -1.065,-2.73 0,-1.635 1.095,-2.73 1.095,-1.11 2.7,-1.11 1.605,0 2.67,1.095 1.08,1.095 1.08,2.73 z m -6.3,0.015 q 0,1.17 0.72,1.965 0.735,0.795 1.815,0.795 1.065,0 1.785,-0.795 0.735,-0.795 0.735,-1.98 0,-1.155 -0.735,-1.95 -0.735,-0.81 -1.8,-0.81 -1.065,0 -1.8,0.795 -0.72,0.795 -0.72,1.98 z"
         id="path4873" />
      <path
         d="m 57.854982,-7.245 h 1.2 v 1.125 q 0.435,-0.63 1.095,-0.96 0.675,-0.345 1.5,-0.345 1.44,0 2.25,0.93 0.81,0.93 0.81,2.55 V 0 h -1.215 v -3.87 q 0,-1.14 -0.57,-1.8 -0.555,-0.66 -1.56,-0.66 -1.035,0 -1.665,0.705 -0.63,0.705 -0.63,1.83 V 0 h -1.215 z"
         id="path4875" />
      <path
         d="m 73.46997,0 h -7.485 v -1.05 l 3.63,-3.33 q 1.29,-1.17 1.755,-1.86 0.465,-0.69 0.465,-1.47 0,-0.825 -0.615,-1.35 -0.6,-0.54 -1.5,-0.54 -1.11,0 -1.755,0.69 -0.63,0.675 -0.675,1.905 h -1.23 q 0.03,-1.71 1.02,-2.715 1.005,-1.02 2.67,-1.02 1.47,0 2.415,0.855 0.96,0.84 0.96,2.145 0,1.05 -0.585,1.95 -0.57,0.885 -2.175,2.295 l -2.655,2.37 h 5.76 z"
         id="path4877" />
      <path
         d="m -10.6367,31.595 q 0,-0.39 -0.705,-0.69 -0.69,-0.3 -2.295,-0.66 v -0.99 q 1.605,-0.36 2.295,-0.66 0.705,-0.3 0.705,-0.69 0,-0.135 -0.15,-0.39 -0.15,-0.255 -0.555,-0.81 -0.6,-0.78 -0.84,-1.23 -0.225,-0.465 -0.225,-0.93 0,-0.855 0.645,-1.35 0.645,-0.51 1.7849996,-0.51 h 2.46 v 1.095 h -2.46 q -0.5399996,0 -0.8549996,0.21 -0.315,0.21 -0.315,0.57 0,0.285 0.18,0.615 0.18,0.315 0.69,1.02 0.4949996,0.66 0.6899996,1.065 0.21,0.39 0.21,0.735 0,0.66 -0.6599996,1.08 -0.645,0.42 -2.01,0.675 1.365,0.255 2.01,0.675 0.6599996,0.42 0.6599996,1.08 0,0.345 -0.21,0.75 -0.195,0.39 -0.6899996,1.05 -0.51,0.705 -0.69,1.035 -0.18,0.315 -0.18,0.6 0,0.36 0.315,0.57 0.315,0.21 0.8549996,0.21 h 2.46 v 1.095 h -2.46 q -1.1399996,0 -1.7849996,-0.51 -0.645,-0.495 -0.645,-1.35 0,-0.465 0.225,-0.915 0.24,-0.465 0.84,-1.245 0.405,-0.555 0.555,-0.81 0.15,-0.255 0.15,-0.39 z"
         id="path4879" />
      <path
         d="M -0.31671761,35 H -1.5017176 v -1.185 q -0.435,0.63 -1.185,0.99 -0.735,0.345 -1.59,0.345 -1.2,0 -1.95,-0.6 -0.75,-0.615 -0.75,-1.605 0,-1.095 0.84,-1.65 0.84,-0.57 2.49,-0.57 h 2.13 q -0.015,-1.02 -0.54,-1.575 -0.51,-0.555 -1.47,-0.555 -0.57,0 -1.125,0.24 -0.555,0.24 -1.095,0.735 l -0.645,-0.81 q 0.63,-0.6 1.38,-0.9 0.75,-0.315 1.605,-0.315 1.455,0 2.265,0.87 0.82499999,0.855 0.82499999,2.37 z M -1.5167176,31.67 h -2.115 q -1.095,0 -1.62,0.3 -0.525,0.3 -0.525,0.945 0,0.54 0.45,0.9 0.465,0.36 1.185,0.36 1.08,0 1.815,-0.69 0.75,-0.705 0.81,-1.815 z"
         id="path4881" />
      <path
         d="m 1.5132858,33.065 v -4.23 H 0.52328583 v -1.08 H 1.5132858 v -2.22 h 1.215 v 2.22 h 1.68 v 1.08 h -1.68 v 4.125 q 0,0.48 0.21,0.72 0.225,0.225 0.675,0.225 h 0.795 V 35 h -0.975 q -1.005,0 -1.47,-0.465 -0.45,-0.465 -0.45,-1.47 z"
         id="path4883" />
      <path
         d="m 6.0432865,33.065 v -4.23 h -0.99 v -1.08 h 0.99 v -2.22 h 1.215 v 2.22 h 1.68 v 1.08 h -1.68 v 4.125 q 0,0.48 0.21,0.72 0.225,0.225 0.675,0.225 h 0.795 V 35 h -0.975 q -1.005,0 -1.47,-0.465 -0.45,-0.465 -0.45,-1.47 z"
         id="path4885" />
      <path
         d="m 10.168287,27.755 h 1.2 v 0.915 q 0.33,-0.48 0.855,-0.72 0.525,-0.24 1.245,-0.24 h 0.66 v 1.155 h -0.675 q -1.035,0 -1.56,0.54 -0.51,0.54 -0.51,1.635 V 35 h -1.215 z"
         id="path4887" />
      <path
         d="M 14.293286,36.935 V 35.84 h 7.62 v 1.095 z"
         id="path4889" />
      <path
         d="m 26.098282,35.225 q -1.665,0 -2.715,-1.05 -1.035,-1.065 -1.035,-2.775 0,-1.62 1.095,-2.73 1.095,-1.11 2.685,-1.11 1.155,0 1.965,0.54 0.825,0.525 1.245,1.53 l -1.035,0.495 q -0.345,-0.75 -0.9,-1.125 -0.54,-0.375 -1.29,-0.375 -1.065,0 -1.8,0.81 -0.72,0.795 -0.72,1.965 0,1.185 0.72,1.98 0.735,0.78 1.83,0.78 0.705,0 1.305,-0.375 0.615,-0.39 0.99,-1.08 l 0.945,0.51 q -0.435,0.93 -1.305,1.47 -0.87,0.54 -1.98,0.54 z"
         id="path4891" />
      <path
         d="m 30.67328,27.755 h 1.5 v 1.5 h -1.5 z m 0,5.73 h 1.5 V 35 h -1.5 z"
         id="path4893" />
      <path
         d="m 39.118268,35 -3.105,-7.245 h 1.335 l 2.355,5.79 2.34,-5.79 h 1.26 l -3.075,7.245 z"
         id="path4895" />
      <path
         d="m 50.203254,35 h -1.185 v -1.185 q -0.435,0.63 -1.185,0.99 -0.735,0.345 -1.59,0.345 -1.2,0 -1.95,-0.6 -0.75,-0.615 -0.75,-1.605 0,-1.095 0.84,-1.65 0.84,-0.57 2.49,-0.57 h 2.13 q -0.015,-1.02 -0.54,-1.575 -0.51,-0.555 -1.47,-0.555 -0.57,0 -1.125,0.24 -0.555,0.24 -1.095,0.735 l -0.645,-0.81 q 0.63,-0.6 1.38,-0.9 0.75,-0.315 1.605,-0.315 1.455,0 2.265,0.87 0.825,0.855 0.825,2.37 z m -1.2,-3.33 h -2.115 q -1.095,0 -1.62,0.3 -0.525,0.3 -0.525,0.945 0,0.54 0.45,0.9 0.465,0.36 1.185,0.36 1.08,0 1.815,-0.69 0.75,-0.705 0.81,-1.815 z"
         id="path4897" />
      <path
         d="m 51.838249,24.5 h 1.23 V 35 h -1.23 z"
         id="path4899" />
      <path
         d="m 61.573238,35 h -1.215 v -1.11 q -0.435,0.63 -1.095,0.96 -0.66,0.315 -1.5,0.315 -1.425,0 -2.25,-0.93 -0.81,-0.93 -0.81,-2.535 v -3.945 h 1.23 v 3.87 q 0,1.14 0.555,1.8 0.57,0.66 1.575,0.66 1.02,0 1.65,-0.705 0.63,-0.705 0.63,-1.83 v -3.795 h 1.23 z"
         id="path4901" />
      <path
         d="m 66.643226,34.19 q 0.72,0 1.32,-0.3 0.615,-0.315 1.125,-0.945 l 0.735,0.675 q -0.615,0.81 -1.44,1.215 -0.825,0.39 -1.845,0.39 -1.635,0 -2.685,-1.065 -1.035,-1.08 -1.035,-2.76 0,-1.635 1.065,-2.73 1.065,-1.095 2.625,-1.095 1.59,0 2.58,1.035 0.99,1.035 0.99,2.7 0,0.12 -0.015,0.285 -0.015,0.15 -0.03,0.225 h -5.955 q 0.12,1.065 0.825,1.725 0.72,0.645 1.74,0.645 z m -0.12,-5.58 q -0.945,0 -1.62,0.615 -0.675,0.615 -0.825,1.65 h 4.77 q -0.135,-1.05 -0.765,-1.65 -0.63,-0.615 -1.56,-0.615 z"
         id="path4903" />
      <path
         d="M 70.483229,36.935 V 35.84 h 7.62 v 1.095 z"
         id="path4905" />
      <path
         d="m 82.288227,35.225 q -1.665,0 -2.715,-1.05 -1.035,-1.065 -1.035,-2.775 0,-1.62 1.095,-2.73 1.095,-1.11 2.685,-1.11 1.155,0 1.965,0.54 0.825,0.525 1.245,1.53 l -1.035,0.495 q -0.345,-0.75 -0.9,-1.125 -0.54,-0.375 -1.29,-0.375 -1.065,0 -1.8,0.81 -0.72,0.795 -0.72,1.965 0,1.185 0.72,1.98 0.735,0.78 1.83,0.78 0.705,0 1.305,-0.375 0.615,-0.39 0.99,-1.08 l 0.945,0.51 q -0.435,0.93 -1.305,1.47 -0.87,0.54 -1.98,0.54 z"
         id="path4907" />
      <path
         d="m 87.043225,36.83 h -0.93 l 0.93,-3.36 h 1.44 z"
         id="path4909" />
      <path
         d="m -14.8133,53 h -1.185 v -1.185 q -0.435,0.63 -1.185,0.99 -0.735,0.345 -1.59,0.345 -1.2,0 -1.95,-0.6 -0.75,-0.615 -0.75,-1.605 0,-1.095 0.84,-1.65 0.84,-0.57 2.49,-0.57 h 2.13 q -0.015,-1.02 -0.54,-1.575 -0.51,-0.555 -1.47,-0.555 -0.57,0 -1.125,0.24 -0.555,0.24 -1.095,0.735 l -0.645,-0.81 q 0.63,-0.6 1.38,-0.9 0.75,-0.315 1.605,-0.315 1.455,0 2.265,0.87 0.825,0.855 0.825,2.37 z m -1.2,-3.33 h -2.115 q -1.095,0 -1.62,0.3 -0.525,0.3 -0.525,0.945 0,0.54 0.45,0.9 0.465,0.36 1.185,0.36 1.08,0 1.815,-0.69 0.75,-0.705 0.81,-1.815 z"
         id="path4911" />
      <path
         d="m -12.983296,51.065 v -4.23 h -0.99 v -1.08 h 0.99 v -2.22 h 1.215 v 2.22 h 1.68 v 1.08 h -1.68 v 4.125 q 0,0.48 0.21,0.72 0.225,0.225 0.675,0.225 h 0.795 V 53 h -0.975 q -1.005,0 -1.47,-0.465 -0.45,-0.465 -0.45,-1.47 z"
         id="path4913" />
      <path
         d="m -8.4532955,51.065 v -4.23 h -0.99 v -1.08 h 0.99 v -2.22 h 1.215 v 2.22 h 1.68 v 1.08 h -1.68 v 4.125 q 0,0.48 0.21,0.72 0.225,0.225 0.675,0.225 h 0.795 V 53 h -0.975 q -1.005,0 -1.47,-0.465 -0.45,-0.465 -0.45,-1.47 z"
         id="path4915" />
      <path
         d="m -4.3282948,45.755 h 1.2 v 0.915 q 0.33,-0.48 0.855,-0.72 0.525,-0.24 1.245,-0.24 h 0.65999997 v 1.155 H -1.0432948 q -1.035,0 -1.56,0.54 -0.51,0.54 -0.51,1.635 V 53 h -1.215 z"
         id="path4917" />
      <path
         d="M -0.20329597,54.935 V 53.84 H 7.416704 v 1.095 z"
         id="path4919" />
      <path
         d="m 14.0917,42.5 h 1.23 V 53 h -1.215 v -1.17 q -0.495,0.63 -1.2,0.975 -0.69,0.345 -1.485,0.345 -1.5150003,0 -2.5500003,-1.05 -1.02,-1.065 -1.02,-2.7 0,-1.65 1.05,-2.73 1.065,-1.095 2.6100003,-1.095 0.75,0 1.41,0.315 0.675,0.3 1.17,0.87 z m -2.535,9.585 q 1.095,0 1.83,-0.78 0.75,-0.795 0.75,-1.95 0,-1.17 -0.72,-1.935 -0.72,-0.765 -1.8,-0.765 -1.11,0 -1.8150003,0.75 -0.705,0.75 -0.705,1.965 0,1.215 0.69,1.965 0.6900003,0.75 1.7700003,0.75 z"
         id="path4921" />
      <path
         d="m 16.97169,45.755 h 1.5 v 1.5 h -1.5 z m 0,5.73 h 1.5 V 53 h -1.5 z"
         id="path4923" />
      <path
         d="m 25.416674,53 -3.105,-7.245 h 1.335 l 2.355,5.79 2.34,-5.79 h 1.26 l -3.075,7.245 z"
         id="path4925" />
      <path
         d="m 36.501665,53 h -1.185 v -1.185 q -0.435,0.63 -1.185,0.99 -0.735,0.345 -1.59,0.345 -1.2,0 -1.95,-0.6 -0.75,-0.615 -0.75,-1.605 0,-1.095 0.84,-1.65 0.84,-0.57 2.49,-0.57 h 2.13 q -0.015,-1.02 -0.54,-1.575 -0.51,-0.555 -1.47,-0.555 -0.57,0 -1.125,0.24 -0.555,0.24 -1.095,0.735 l -0.645,-0.81 q 0.63,-0.6 1.38,-0.9 0.75,-0.315 1.605,-0.315 1.455,0 2.265,0.87 0.825,0.855 0.825,2.37 z m -1.2,-3.33 h -2.115 q -1.095,0 -1.62,0.3 -0.525,0.3 -0.525,0.945 0,0.54 0.45,0.9 0.465,0.36 1.185,0.36 1.08,0 1.815,-0.69 0.75,-0.705 0.81,-1.815 z"
         id="path4927" />
      <path
         d="m 38.136656,42.5 h 1.23 V 53 h -1.23 z"
         id="path4929" />
      <path
         d="m 47.871644,53 h -1.215 v -1.11 q -0.435,0.63 -1.095,0.96 -0.66,0.315 -1.5,0.315 -1.425,0 -2.25,-0.93 -0.81,-0.93 -0.81,-2.535 v -3.945 h 1.23 v 3.87 q 0,1.14 0.555,1.8 0.57,0.66 1.575,0.66 1.02,0 1.65,-0.705 0.63,-0.705 0.63,-1.83 v -3.795 h 1.23 z"
         id="path4931" />
      <path
         d="m 52.941632,52.19 q 0.72,0 1.32,-0.3 0.615,-0.315 1.125,-0.945 l 0.735,0.675 q -0.615,0.81 -1.44,1.215 -0.825,0.39 -1.845,0.39 -1.635,0 -2.685,-1.065 -1.035,-1.08 -1.035,-2.76 0,-1.635 1.065,-2.73 1.065,-1.095 2.625,-1.095 1.59,0 2.58,1.035 0.99,1.035 0.99,2.7 0,0.12 -0.015,0.285 -0.015,0.15 -0.03,0.225 h -5.955 q 0.12,1.065 0.825,1.725 0.72,0.645 1.74,0.645 z m -0.12,-5.58 q -0.945,0 -1.62,0.615 -0.675,0.615 -0.825,1.65 h 4.77 q -0.135,-1.05 -0.765,-1.65 -0.63,-0.615 -1.56,-0.615 z"
         id="path4933" />
      <path
         d="M 56.781644,54.935 V 53.84 h 7.62 v 1.095 z"
         id="path4935" />
      <path
         d="m 71.076641,42.5 h 1.23 V 53 h -1.215 v -1.17 q -0.495,0.63 -1.2,0.975 -0.69,0.345 -1.485,0.345 -1.515,0 -2.55,-1.05 -1.02,-1.065 -1.02,-2.7 0,-1.65 1.05,-2.73 1.065,-1.095 2.61,-1.095 0.75,0 1.41,0.315 0.675,0.3 1.17,0.87 z m -2.535,9.585 q 1.095,0 1.83,-0.78 0.75,-0.795 0.75,-1.95 0,-1.17 -0.72,-1.935 -0.72,-0.765 -1.8,-0.765 -1.11,0 -1.815,0.75 -0.705,0.75 -0.705,1.965 0,1.215 0.69,1.965 0.69,0.75 1.77,0.75 z"
         id="path4937" />
      <path
         d="m 74.13663,54.83 h -0.93 l 0.93,-3.36 h 1.44 z"
         id="path4939" />
      <path
         d="m 79.536633,51.485 h 1.515 V 53 h -1.515 z"
         id="path4941" />
      <path
         d="m 82.491635,51.485 h 1.515 V 53 h -1.515 z"
         id="path4943" />
      <path
         d="m 85.446645,51.485 h 1.515 V 53 h -1.515 z"
         id="path4945" />
      <path
         d="m 96.921648,47.255 v 0.99 q -1.605,0.36 -2.31,0.66 -0.69,0.3 -0.69,0.69 0,0.15 0.15,0.42 0.165,0.255 0.555,0.78 0.585,0.78 0.81,1.245 0.24,0.45 0.24,0.915 0,0.855 -0.645,1.35 -0.645,0.51 -1.785,0.51 h -2.445 V 53.72 h 2.445 q 0.54,0 0.855,-0.21 0.315,-0.21 0.315,-0.57 0,-0.285 -0.18,-0.6 -0.18,-0.33 -0.69,-1.035 -0.48,-0.63 -0.69,-1.035 -0.195,-0.405 -0.195,-0.765 0,-0.66 0.645,-1.08 0.66,-0.42 2.025,-0.675 -1.365,-0.255 -2.025,-0.675 -0.645,-0.42 -0.645,-1.08 0,-0.36 0.195,-0.765 0.21,-0.405 0.69,-1.035 0.51,-0.705 0.69,-1.02 0.18,-0.33 0.18,-0.615 0,-0.36 -0.315,-0.57 -0.315,-0.21 -0.855,-0.21 h -2.445 v -1.095 h 2.445 q 1.14,0 1.785,0.51 0.645,0.495 0.645,1.35 0,0.465 -0.24,0.93 -0.225,0.45 -0.81,1.23 -0.39,0.525 -0.555,0.795 -0.15,0.255 -0.15,0.405 0,0.39 0.69,0.69 0.705,0.3 2.31,0.66 z"
         id="path4947" />
    </g>
    <path
       id="rect4693"
       style="fill:#e9e9e9;stroke:#000000;stroke-width:1.33333;stroke-miterlimit:8"
       d="m 828.5,37.500099 h 153 V 118.5001 h -153 z" />
    <g
       aria-label="Operation3{attr_i: value_i,attr_j: value_j,... }"
       transform="translate(868.158 55)"
       id="text4701"
       style="font-size:15px;font-family:'IntelOne Display Regular', 'IntelOne Display Regular_MSFontService', sans-serif">
      <path
         d="m 0.555,-5.235 q 0,-2.325 1.545,-3.915 1.545,-1.59 3.81,-1.59 2.28,0 3.795,1.575 1.53,1.56 1.53,3.9 0,2.34 -1.545,3.93 -1.53,1.575 -3.795,1.575 -2.28,0 -3.81,-1.56 -1.53,-1.575 -1.53,-3.915 z m 1.32,-0.03 q 0,1.845 1.155,3.105 1.17,1.245 2.88,1.245 1.71,0 2.85,-1.23 1.155,-1.245 1.155,-3.09 0,-1.845 -1.155,-3.09 -1.155,-1.26 -2.865,-1.26 -1.725,0 -2.88,1.245 -1.14,1.23 -1.14,3.075 z"
         id="path4951" />
      <path
         d="m 13.799989,2.7 h -1.215 v -9.945 h 1.2 v 1.17 q 0.48,-0.63 1.185,-0.975 0.705,-0.36 1.5,-0.36 1.53,0 2.55,1.065 1.02,1.05 1.02,2.7 0,1.665 -1.065,2.745 -1.05,1.065 -2.595,1.065 -0.735,0 -1.425,-0.3 -0.675,-0.315 -1.155,-0.885 z m 2.535,-9.03 q -1.095,0 -1.845,0.795 -0.735,0.78 -0.735,1.95 0,1.155 0.72,1.92 0.735,0.765 1.815,0.765 1.11,0 1.8,-0.735 0.705,-0.75 0.705,-1.98 0,-1.215 -0.69,-1.965 -0.675,-0.75 -1.77,-0.75 z"
         id="path4953" />
      <path
         d="m 24.79498,-0.81 q 0.72,0 1.32,-0.3 0.615,-0.315 1.125,-0.945 l 0.735,0.675 q -0.615,0.81 -1.44,1.215 -0.825,0.39 -1.845,0.39 -1.635,0 -2.685,-1.065 -1.035,-1.08 -1.035,-2.76 0,-1.635 1.065,-2.73 1.065,-1.095 2.625,-1.095 1.59,0 2.58,1.035 0.99,1.035 0.99,2.7 0,0.12 -0.015,0.285 -0.015,0.15 -0.03,0.225 h -5.955 q 0.12,1.065 0.825,1.725 0.72,0.645 1.74,0.645 z m -0.12,-5.58 q -0.945,0 -1.62,0.615 -0.675,0.615 -0.825,1.65 h 4.77 q -0.135,-1.05 -0.765,-1.65 -0.63,-0.615 -1.56,-0.615 z"
         id="path4955" />
      <path
         d="m 29.459989,-7.245 h 1.2 v 0.915 q 0.33,-0.48 0.855,-0.72 0.525,-0.24 1.245,-0.24 h 0.66 v 1.155 h -0.675 q -1.035,0 -1.56,0.54 -0.51,0.54 -0.51,1.635 V 0 h -1.215 z"
         id="path4957" />
      <path
         d="m 40.33498,0 h -1.185 v -1.185 q -0.435,0.63 -1.185,0.99 -0.735,0.345 -1.59,0.345 -1.2,0 -1.95,-0.6 -0.75,-0.615 -0.75,-1.605 0,-1.095 0.84,-1.65 0.84,-0.57 2.49,-0.57 h 2.13 q -0.015,-1.02 -0.54,-1.575 -0.51,-0.555 -1.47,-0.555 -0.57,0 -1.125,0.24 -0.555,0.24 -1.095,0.735 l -0.645,-0.81 q 0.63,-0.6 1.38,-0.9 0.75,-0.315 1.605,-0.315 1.455,0 2.265,0.87 0.825,0.855 0.825,2.37 z m -1.2,-3.33 h -2.115 q -1.095,0 -1.62,0.3 -0.525,0.3 -0.525,0.945 0,0.54 0.45,0.9 0.465,0.36 1.185,0.36 1.08,0 1.815,-0.69 0.75,-0.705 0.81,-1.815 z"
         id="path4959" />
      <path
         d="m 42.164985,-1.935 v -4.23 h -0.99 v -1.08 h 0.99 v -2.22 h 1.215 v 2.22 h 1.68 v 1.08 h -1.68 v 4.125 q 0,0.48 0.21,0.72 0.225,0.225 0.675,0.225 h 0.795 V 0 h -0.975 q -1.005,0 -1.47,-0.465 -0.45,-0.465 -0.45,-1.47 z"
         id="path4961" />
      <path
         d="m 46.364987,-9.675 h 1.35 v 1.335 h -1.35 z m 0.06,9.675 v -7.245 h 1.23 V 0 Z"
         id="path4963" />
      <path
         d="m 56.594976,-3.615 q 0,1.635 -1.095,2.745 -1.095,1.095 -2.7,1.095 -1.605,0 -2.685,-1.095 -1.065,-1.095 -1.065,-2.73 0,-1.635 1.095,-2.73 1.095,-1.11 2.7,-1.11 1.605,0 2.67,1.095 1.08,1.095 1.08,2.73 z m -6.3,0.015 q 0,1.17 0.72,1.965 0.735,0.795 1.815,0.795 1.065,0 1.785,-0.795 0.735,-0.795 0.735,-1.98 0,-1.155 -0.735,-1.95 -0.735,-0.81 -1.8,-0.81 -1.065,0 -1.8,0.795 -0.72,0.795 -0.72,1.98 z"
         id="path4965" />
      <path
         d="m 57.854982,-7.245 h 1.2 v 1.125 q 0.435,-0.63 1.095,-0.96 0.675,-0.345 1.5,-0.345 1.44,0 2.25,0.93 0.81,0.93 0.81,2.55 V 0 h -1.215 v -3.87 q 0,-1.14 -0.57,-1.8 -0.555,-0.66 -1.56,-0.66 -1.035,0 -1.665,0.705 -0.63,0.705 -0.63,1.83 V 0 h -1.215 z"
         id="path4967" />
      <path
         d="m 69.77997,-0.9 q 1.065,0 1.77,-0.585 0.72,-0.6 0.72,-1.485 0,-0.93 -0.735,-1.47 -0.72,-0.54 -2.01,-0.54 h -0.66 v -1.065 h 0.63 q 1.185,0 1.875,-0.51 0.69,-0.525 0.69,-1.335 0,-0.75 -0.63,-1.23 -0.63,-0.48 -1.65,-0.48 -1.08,0 -1.725,0.585 -0.63,0.57 -0.705,1.575 h -1.23 q 0.045,-1.41 1.065,-2.355 1.035,-0.945 2.655,-0.945 1.545,0 2.52,0.795 0.99,0.78 0.99,1.95 0,0.87 -0.51,1.515 -0.495,0.645 -1.44,0.975 1.08,0.3 1.62,0.945 0.54,0.645 0.54,1.65 0,1.335 -1.08,2.25 -1.08,0.9 -2.73,0.9 -1.755,0 -2.79,-0.945 -1.02,-0.96 -1.035,-2.625 h 1.215 q 0.06,1.17 0.735,1.8 0.69,0.63 1.905,0.63 z"
         id="path4969" />
      <path
         d="m -5.8833702,31.595 q 0,-0.39 -0.705,-0.69 -0.69,-0.3 -2.295,-0.66 v -0.99 q 1.605,-0.36 2.295,-0.66 0.705,-0.3 0.705,-0.69 0,-0.135 -0.15,-0.39 -0.15,-0.255 -0.555,-0.81 -0.6,-0.78 -0.84,-1.23 -0.225,-0.465 -0.225,-0.93 0,-0.855 0.645,-1.35 0.645,-0.51 1.785,-0.51 h 2.46 v 1.095 h -2.46 q -0.54,0 -0.855,0.21 -0.315,0.21 -0.315,0.57 0,0.285 0.18,0.615 0.18,0.315 0.69,1.02 0.495,0.66 0.69,1.065 0.21,0.39 0.21,0.735 0,0.66 -0.66,1.08 -0.645,0.42 -2.01,0.675 1.365,0.255 2.01,0.675 0.66,0.42 0.66,1.08 0,0.345 -0.21,0.75 -0.195,0.39 -0.69,1.05 -0.51,0.705 -0.69,1.035 -0.18,0.315 -0.18,0.6 0,0.36 0.315,0.57 0.315,0.21 0.855,0.21 h 2.46 v 1.095 h -2.46 q -1.14,0 -1.785,-0.51 -0.645,-0.495 -0.645,-1.35 0,-0.465 0.225,-0.915 0.24,-0.465 0.84,-1.245 0.405,-0.555 0.555,-0.81 0.15,-0.255 0.15,-0.39 z"
         id="path4971" />
      <path
         d="m 4.4366126,35 h -1.185 v -1.185 q -0.435,0.63 -1.185,0.99 -0.735,0.345 -1.58999997,0.345 -1.2,0 -1.95000003,-0.6 -0.75,-0.615 -0.75,-1.605 0,-1.095 0.84,-1.65 0.84000003,-0.57 2.49,-0.57 h 2.13 q -0.015,-1.02 -0.54,-1.575 -0.51,-0.555 -1.47,-0.555 -0.56999997,0 -1.12499997,0.24 -0.555,0.24 -1.095,0.735 L -1.6383874,28.76 q 0.63,-0.6 1.38000003,-0.9 0.75,-0.315 1.60499997,-0.315 1.455,0 2.265,0.87 0.825,0.855 0.825,2.37 z m -1.2,-3.33 h -2.115 q -1.09499997,0 -1.61999997,0.3 -0.52500003,0.3 -0.52500003,0.945 0,0.54 0.45000003,0.9 0.465,0.36 1.185,0.36 1.07999997,0 1.81499997,-0.69 0.75,-0.705 0.81,-1.815 z"
         id="path4973" />
      <path
         d="m 6.2666161,33.065 v -4.23 h -0.99 v -1.08 h 0.99 v -2.22 h 1.215 v 2.22 h 1.68 v 1.08 h -1.68 v 4.125 q 0,0.48 0.21,0.72 0.225,0.225 0.675,0.225 h 0.795 V 35 h -0.975 q -1.005,0 -1.47,-0.465 -0.45,-0.465 -0.45,-1.47 z"
         id="path4975" />
      <path
         d="m 10.796617,33.065 v -4.23 H 9.8066167 v -1.08 h 0.9900003 v -2.22 h 1.215 v 2.22 h 1.68 v 1.08 h -1.68 v 4.125 q 0,0.48 0.21,0.72 0.225,0.225 0.675,0.225 h 0.795 V 35 h -0.975 q -1.005,0 -1.47,-0.465 -0.45,-0.465 -0.45,-1.47 z"
         id="path4977" />
      <path
         d="m 14.921617,27.755 h 1.2 v 0.915 q 0.33,-0.48 0.855,-0.72 0.525,-0.24 1.245,-0.24 h 0.66 v 1.155 h -0.675 q -1.035,0 -1.56,0.54 -0.51,0.54 -0.51,1.635 V 35 h -1.215 z"
         id="path4979" />
      <path
         d="M 19.046616,36.935 V 35.84 h 7.62 v 1.095 z"
         id="path4981" />
      <path
         d="m 27.506612,25.325 h 1.35 v 1.335 h -1.35 z m 0.06,9.675 v -7.245 h 1.23 V 35 Z"
         id="path4983" />
      <path
         d="m 30.596604,27.755 h 1.5 v 1.5 h -1.5 z m 0,5.73 h 1.5 V 35 h -1.5 z"
         id="path4985" />
      <path
         d="m 39.041589,35 -3.105,-7.245 h 1.335 l 2.355,5.79 2.34,-5.79 h 1.26 l -3.075,7.245 z"
         id="path4987" />
      <path
         d="m 50.126579,35 h -1.185 v -1.185 q -0.435,0.63 -1.185,0.99 -0.735,0.345 -1.59,0.345 -1.2,0 -1.95,-0.6 -0.75,-0.615 -0.75,-1.605 0,-1.095 0.84,-1.65 0.84,-0.57 2.49,-0.57 h 2.13 q -0.015,-1.02 -0.54,-1.575 -0.51,-0.555 -1.47,-0.555 -0.57,0 -1.125,0.24 -0.555,0.24 -1.095,0.735 l -0.645,-0.81 q 0.63,-0.6 1.38,-0.9 0.75,-0.315 1.605,-0.315 1.455,0 2.265,0.87 0.825,0.855 0.825,2.37 z m -1.2,-3.33 h -2.115 q -1.095,0 -1.62,0.3 -0.525,0.3 -0.525,0.945 0,0.54 0.45,0.9 0.465,0.36 1.185,0.36 1.08,0 1.815,-0.69 0.75,-0.705 0.81,-1.815 z"
         id="path4989" />
      <path
         d="m 51.76157,24.5 h 1.23 V 35 h -1.23 z"
         id="path4991" />
      <path
         d="m 61.496558,35 h -1.215 v -1.11 q -0.435,0.63 -1.095,0.96 -0.66,0.315 -1.5,0.315 -1.425,0 -2.25,-0.93 -0.81,-0.93 -0.81,-2.535 v -3.945 h 1.23 v 3.87 q 0,1.14 0.555,1.8 0.57,0.66 1.575,0.66 1.02,0 1.65,-0.705 0.63,-0.705 0.63,-1.83 v -3.795 h 1.23 z"
         id="path4993" />
      <path
         d="m 66.566546,34.19 q 0.72,0 1.32,-0.3 0.615,-0.315 1.125,-0.945 l 0.735,0.675 q -0.615,0.81 -1.44,1.215 -0.825,0.39 -1.845,0.39 -1.635,0 -2.685,-1.065 -1.035,-1.08 -1.035,-2.76 0,-1.635 1.065,-2.73 1.065,-1.095 2.625,-1.095 1.59,0 2.58,1.035 0.99,1.035 0.99,2.7 0,0.12 -0.015,0.285 -0.015,0.15 -0.03,0.225 h -5.955 q 0.12,1.065 0.825,1.725 0.72,0.645 1.74,0.645 z m -0.12,-5.58 q -0.945,0 -1.62,0.615 -0.675,0.615 -0.825,1.65 h 4.77 q -0.135,-1.05 -0.765,-1.65 -0.63,-0.615 -1.56,-0.615 z"
         id="path4995" />
      <path
         d="M 70.406558,36.935 V 35.84 h 7.62 v 1.095 z"
         id="path4997" />
      <path
         d="m 78.866555,25.325 h 1.35 v 1.335 h -1.35 z m 0.06,9.675 v -7.245 h 1.23 V 35 Z"
         id="path4999" />
      <path
         d="m 82.136544,36.83 h -0.93 l 0.93,-3.36 h 1.44 z"
         id="path5001" />
      <path
         d="M -9.2267003,53 H -10.4117 v -1.185 q -0.435,0.63 -1.185,0.99 -0.735,0.345 -1.59,0.345 -1.2,0 -1.95,-0.6 -0.75,-0.615 -0.75,-1.605 0,-1.095 0.84,-1.65 0.84,-0.57 2.49,-0.57 h 2.13 q -0.015,-1.02 -0.54,-1.575 -0.51,-0.555 -1.47,-0.555 -0.57,0 -1.125,0.24 -0.555,0.24 -1.095,0.735 l -0.645,-0.81 q 0.63,-0.6 1.38,-0.9 0.75,-0.315 1.605,-0.315 1.455,0 2.265,0.87 0.8249997,0.855 0.8249997,2.37 z M -10.4267,49.67 h -2.115 q -1.095,0 -1.62,0.3 -0.525,0.3 -0.525,0.945 0,0.54 0.45,0.9 0.465,0.36 1.185,0.36 1.08,0 1.815,-0.69 0.75,-0.705 0.81,-1.815 z"
         id="path5003" />
      <path
         d="m -7.3966969,51.065 v -4.23 h -0.99 v -1.08 h 0.99 v -2.22 h 1.215 v 2.22 h 1.68 v 1.08 h -1.68 v 4.125 q 0,0.48 0.21,0.72 0.225,0.225 0.675,0.225 h 0.795 V 53 h -0.975 q -1.005,0 -1.47,-0.465 -0.45,-0.465 -0.45,-1.47 z"
         id="path5005" />
      <path
         d="m -2.8666962,51.065 v -4.23 h -0.99 v -1.08 h 0.99 v -2.22 h 1.215 v 2.22 h 1.68000003 v 1.08 H -1.6516962 v 4.125 q 0,0.48 0.21,0.72 0.225,0.225 0.67500003,0.225 h 0.795 V 53 h -0.975 q -1.00500003,0 -1.47000003,-0.465 -0.45,-0.465 -0.45,-1.47 z"
         id="path5007" />
      <path
         d="m 1.2583045,45.755 h 1.2 v 0.915 q 0.33,-0.48 0.855,-0.72 0.525,-0.24 1.245,-0.24 h 0.66 v 1.155 h -0.675 q -1.035,0 -1.56,0.54 -0.51,0.54 -0.51,1.635 V 53 h -1.215 z"
         id="path5009" />
      <path
         d="M 5.3833034,54.935 V 53.84 h 7.6199996 v 1.095 z"
         id="path5011" />
      <path
         d="m 13.858299,43.325 h 1.35 v 1.335 h -1.35 z m 1.29,2.43 v 7.995 q 0,0.945 -0.495,1.44 -0.48,0.51 -1.41,0.51 h -0.87 v -1.02 h 0.705 q 0.42,0 0.63,-0.24 0.21,-0.225 0.21,-0.675 v -8.01 z"
         id="path5013" />
      <path
         d="m 16.948312,45.755 h 1.5 v 1.5 h -1.5 z m 0,5.73 h 1.5 V 53 h -1.5 z"
         id="path5015" />
      <path
         d="m 25.393296,53 -3.105,-7.245 h 1.335 l 2.355,5.79 2.34,-5.79 h 1.26 l -3.075,7.245 z"
         id="path5017" />
      <path
         d="m 36.478286,53 h -1.185 v -1.185 q -0.435,0.63 -1.185,0.99 -0.735,0.345 -1.59,0.345 -1.2,0 -1.95,-0.6 -0.75,-0.615 -0.75,-1.605 0,-1.095 0.84,-1.65 0.84,-0.57 2.49,-0.57 h 2.13 q -0.015,-1.02 -0.54,-1.575 -0.51,-0.555 -1.47,-0.555 -0.57,0 -1.125,0.24 -0.555,0.24 -1.095,0.735 l -0.645,-0.81 q 0.63,-0.6 1.38,-0.9 0.75,-0.315 1.605,-0.315 1.455,0 2.265,0.87 0.825,0.855 0.825,2.37 z m -1.2,-3.33 h -2.115 q -1.095,0 -1.62,0.3 -0.525,0.3 -0.525,0.945 0,0.54 0.45,0.9 0.465,0.36 1.185,0.36 1.08,0 1.815,-0.69 0.75,-0.705 0.81,-1.815 z"
         id="path5019" />
      <path
         d="m 38.113277,42.5 h 1.23 V 53 h -1.23 z"
         id="path5021" />
      <path
         d="m 47.848266,53 h -1.215 v -1.11 q -0.435,0.63 -1.095,0.96 -0.66,0.315 -1.5,0.315 -1.425,0 -2.25,-0.93 -0.81,-0.93 -0.81,-2.535 v -3.945 h 1.23 v 3.87 q 0,1.14 0.555,1.8 0.57,0.66 1.575,0.66 1.02,0 1.65,-0.705 0.63,-0.705 0.63,-1.83 v -3.795 h 1.23 z"
         id="path5023" />
      <path
         d="m 52.918254,52.19 q 0.72,0 1.32,-0.3 0.615,-0.315 1.125,-0.945 l 0.735,0.675 q -0.615,0.81 -1.44,1.215 -0.825,0.39 -1.845,0.39 -1.635,0 -2.685,-1.065 -1.035,-1.08 -1.035,-2.76 0,-1.635 1.065,-2.73 1.065,-1.095 2.625,-1.095 1.59,0 2.58,1.035 0.99,1.035 0.99,2.7 0,0.12 -0.015,0.285 -0.015,0.15 -0.03,0.225 h -5.955 q 0.12,1.065 0.825,1.725 0.72,0.645 1.74,0.645 z m -0.12,-5.58 q -0.945,0 -1.62,0.615 -0.675,0.615 -0.825,1.65 h 4.77 q -0.135,-1.05 -0.765,-1.65 -0.63,-0.615 -1.56,-0.615 z"
         id="path5025" />
      <path
         d="M 56.758265,54.935 V 53.84 h 7.62 v 1.095 z"
         id="path5027" />
      <path
         d="m 65.233255,43.325 h 1.35 v 1.335 h -1.35 z m 1.29,2.43 v 7.995 q 0,0.945 -0.495,1.44 -0.48,0.51 -1.41,0.51 h -0.87 v -1.02 h 0.705 q 0.42,0 0.63,-0.24 0.21,-0.225 0.21,-0.675 v -8.01 z"
         id="path5029" />
      <path
         d="m 68.503266,54.83 h -0.93 l 0.93,-3.36 h 1.44 z"
         id="path5031" />
      <path
         d="m 71.973304,51.485 h 1.515 V 53 h -1.515 z"
         id="path5033" />
      <path
         d="m 74.928311,51.485 h 1.515 V 53 h -1.515 z"
         id="path5035" />
      <path
         d="m 77.883319,51.485 h 1.515 V 53 h -1.515 z"
         id="path5037" />
      <path
         d="m 89.358318,47.255 v 0.99 q -1.605,0.36 -2.31,0.66 -0.69,0.3 -0.69,0.69 0,0.15 0.15,0.42 0.165,0.255 0.555,0.78 0.585,0.78 0.81,1.245 0.24,0.45 0.24,0.915 0,0.855 -0.645,1.35 -0.645,0.51 -1.785,0.51 h -2.445 V 53.72 h 2.445 q 0.54,0 0.855,-0.21 0.315,-0.21 0.315,-0.57 0,-0.285 -0.18,-0.6 -0.18,-0.33 -0.69,-1.035 -0.48,-0.63 -0.69,-1.035 -0.195,-0.405 -0.195,-0.765 0,-0.66 0.645,-1.08 0.66,-0.42 2.025,-0.675 -1.365,-0.255 -2.025,-0.675 -0.645,-0.42 -0.645,-1.08 0,-0.36 0.195,-0.765 0.21,-0.405 0.69,-1.035 0.51,-0.705 0.69,-1.02 0.18,-0.33 0.18,-0.615 0,-0.36 -0.315,-0.57 -0.315,-0.21 -0.855,-0.21 h -2.445 v -1.095 h 2.445 q 1.14,0 1.785,0.51 0.645,0.495 0.645,1.35 0,0.465 -0.24,0.93 -0.225,0.45 -0.81,1.23 -0.39,0.525 -0.555,0.795 -0.15,0.255 -0.15,0.405 0,0.39 0.69,0.69 0.705,0.3 2.31,0.66 z"
         id="path5039" />
    </g>
    <path
       id="rect4703"
       style="fill:#e9e9e9;stroke:#000000;stroke-width:1.33333;stroke-miterlimit:8"
       d="m 575.5,77.500099 h 153 V 159.5001 h -153 z" />
    <g
       aria-label="Operation5{attr_e: value_e,attr_f: value_f, ... }"
       transform="translate(615.079 96)"
       id="text4709"
       style="font-size:15px;font-family:'IntelOne Display Regular', 'IntelOne Display Regular_MSFontService', sans-serif">
      <path
         d="m 0.555,-5.235 q 0,-2.325 1.545,-3.915 1.545,-1.59 3.81,-1.59 2.28,0 3.795,1.575 1.53,1.56 1.53,3.9 0,2.34 -1.545,3.93 -1.53,1.575 -3.795,1.575 -2.28,0 -3.81,-1.56 -1.53,-1.575 -1.53,-3.915 z m 1.32,-0.03 q 0,1.845 1.155,3.105 1.17,1.245 2.88,1.245 1.71,0 2.85,-1.23 1.155,-1.245 1.155,-3.09 0,-1.845 -1.155,-3.09 -1.155,-1.26 -2.865,-1.26 -1.725,0 -2.88,1.245 -1.14,1.23 -1.14,3.075 z"
         id="path5043" />
      <path
         d="m 13.799989,2.7 h -1.215 v -9.945 h 1.2 v 1.17 q 0.48,-0.63 1.185,-0.975 0.705,-0.36 1.5,-0.36 1.53,0 2.55,1.065 1.02,1.05 1.02,2.7 0,1.665 -1.065,2.745 -1.05,1.065 -2.595,1.065 -0.735,0 -1.425,-0.3 -0.675,-0.315 -1.155,-0.885 z m 2.535,-9.03 q -1.095,0 -1.845,0.795 -0.735,0.78 -0.735,1.95 0,1.155 0.72,1.92 0.735,0.765 1.815,0.765 1.11,0 1.8,-0.735 0.705,-0.75 0.705,-1.98 0,-1.215 -0.69,-1.965 -0.675,-0.75 -1.77,-0.75 z"
         id="path5045" />
      <path
         d="m 24.79498,-0.81 q 0.72,0 1.32,-0.3 0.615,-0.315 1.125,-0.945 l 0.735,0.675 q -0.615,0.81 -1.44,1.215 -0.825,0.39 -1.845,0.39 -1.635,0 -2.685,-1.065 -1.035,-1.08 -1.035,-2.76 0,-1.635 1.065,-2.73 1.065,-1.095 2.625,-1.095 1.59,0 2.58,1.035 0.99,1.035 0.99,2.7 0,0.12 -0.015,0.285 -0.015,0.15 -0.03,0.225 h -5.955 q 0.12,1.065 0.825,1.725 0.72,0.645 1.74,0.645 z m -0.12,-5.58 q -0.945,0 -1.62,0.615 -0.675,0.615 -0.825,1.65 h 4.77 q -0.135,-1.05 -0.765,-1.65 -0.63,-0.615 -1.56,-0.615 z"
         id="path5047" />
      <path
         d="m 29.459989,-7.245 h 1.2 v 0.915 q 0.33,-0.48 0.855,-0.72 0.525,-0.24 1.245,-0.24 h 0.66 v 1.155 h -0.675 q -1.035,0 -1.56,0.54 -0.51,0.54 -0.51,1.635 V 0 h -1.215 z"
         id="path5049" />
      <path
         d="m 40.33498,0 h -1.185 v -1.185 q -0.435,0.63 -1.185,0.99 -0.735,0.345 -1.59,0.345 -1.2,0 -1.95,-0.6 -0.75,-0.615 -0.75,-1.605 0,-1.095 0.84,-1.65 0.84,-0.57 2.49,-0.57 h 2.13 q -0.015,-1.02 -0.54,-1.575 -0.51,-0.555 -1.47,-0.555 -0.57,0 -1.125,0.24 -0.555,0.24 -1.095,0.735 l -0.645,-0.81 q 0.63,-0.6 1.38,-0.9 0.75,-0.315 1.605,-0.315 1.455,0 2.265,0.87 0.825,0.855 0.825,2.37 z m -1.2,-3.33 h -2.115 q -1.095,0 -1.62,0.3 -0.525,0.3 -0.525,0.945 0,0.54 0.45,0.9 0.465,0.36 1.185,0.36 1.08,0 1.815,-0.69 0.75,-0.705 0.81,-1.815 z"
         id="path5051" />
      <path
         d="m 42.164985,-1.935 v -4.23 h -0.99 v -1.08 h 0.99 v -2.22 h 1.215 v 2.22 h 1.68 v 1.08 h -1.68 v 4.125 q 0,0.48 0.21,0.72 0.225,0.225 0.675,0.225 h 0.795 V 0 h -0.975 q -1.005,0 -1.47,-0.465 -0.45,-0.465 -0.45,-1.47 z"
         id="path5053" />
      <path
         d="m 46.364987,-9.675 h 1.35 v 1.335 h -1.35 z m 0.06,9.675 v -7.245 h 1.23 V 0 Z"
         id="path5055" />
      <path
         d="m 56.594976,-3.615 q 0,1.635 -1.095,2.745 -1.095,1.095 -2.7,1.095 -1.605,0 -2.685,-1.095 -1.065,-1.095 -1.065,-2.73 0,-1.635 1.095,-2.73 1.095,-1.11 2.7,-1.11 1.605,0 2.67,1.095 1.08,1.095 1.08,2.73 z m -6.3,0.015 q 0,1.17 0.72,1.965 0.735,0.795 1.815,0.795 1.065,0 1.785,-0.795 0.735,-0.795 0.735,-1.98 0,-1.155 -0.735,-1.95 -0.735,-0.81 -1.8,-0.81 -1.065,0 -1.8,0.795 -0.72,0.795 -0.72,1.98 z"
         id="path5057" />
      <path
         d="m 57.854982,-7.245 h 1.2 v 1.125 q 0.435,-0.63 1.095,-0.96 0.675,-0.345 1.5,-0.345 1.44,0 2.25,0.93 0.81,0.93 0.81,2.55 V 0 h -1.215 v -3.87 q 0,-1.14 -0.57,-1.8 -0.555,-0.66 -1.56,-0.66 -1.035,0 -1.665,0.705 -0.63,0.705 -0.63,1.83 V 0 h -1.215 z"
         id="path5059" />
      <path
         d="m 73.66497,-3.405 q 0,1.575 -1.125,2.61 -1.11,1.035 -2.88,1.035 -1.35,0 -2.355,-0.66 -1.005,-0.675 -1.41,-1.83 l 1.02,-0.525 q 0.39,0.915 1.11,1.41 0.72,0.48 1.68,0.48 1.17,0 1.92,-0.705 0.75,-0.705 0.75,-1.785 0,-1.035 -0.72,-1.665 -0.72,-0.645 -1.83,-0.645 -0.735,0 -1.41,0.3 -0.675,0.3 -1.23,0.885 l -0.9,-0.135 -0.045,-0.075 0.42,-5.79 h 6.315 v 1.17 h -5.22 l -0.285,3.375 q 0.57,-0.42 1.23,-0.63 0.675,-0.225 1.365,-0.225 1.56,0 2.58,0.945 1.02,0.93 1.02,2.46 z"
         id="path5061" />
      <path
         d="m -10.8833,31.595 q 0,-0.39 -0.705,-0.69 -0.69,-0.3 -2.295,-0.66 v -0.99 q 1.605,-0.36 2.295,-0.66 0.705,-0.3 0.705,-0.69 0,-0.135 -0.15,-0.39 -0.15,-0.255 -0.555,-0.81 -0.6,-0.78 -0.84,-1.23 -0.225,-0.465 -0.225,-0.93 0,-0.855 0.645,-1.35 0.645,-0.51 1.785,-0.51 h 2.4600004 V 23.78 H -10.2233 q -0.54,0 -0.855,0.21 -0.315,0.21 -0.315,0.57 0,0.285 0.18,0.615 0.18,0.315 0.69,1.02 0.495,0.66 0.6900004,1.065 0.21,0.39 0.21,0.735 0,0.66 -0.6600004,1.08 -0.645,0.42 -2.01,0.675 1.365,0.255 2.01,0.675 0.6600004,0.42 0.6600004,1.08 0,0.345 -0.21,0.75 -0.1950004,0.39 -0.6900004,1.05 -0.51,0.705 -0.69,1.035 -0.18,0.315 -0.18,0.6 0,0.36 0.315,0.57 0.315,0.21 0.855,0.21 h 2.4600004 v 1.095 H -10.2233 q -1.14,0 -1.785,-0.51 -0.645,-0.495 -0.645,-1.35 0,-0.465 0.225,-0.915 0.24,-0.465 0.84,-1.245 0.405,-0.555 0.555,-0.81 0.15,-0.255 0.15,-0.39 z"
         id="path5063" />
      <path
         d="m -0.5633168,35 h -1.185 v -1.185 q -0.435,0.63 -1.185,0.99 -0.735,0.345 -1.59,0.345 -1.2,0 -1.95,-0.6 -0.75,-0.615 -0.75,-1.605 0,-1.095 0.84,-1.65 0.84,-0.57 2.49,-0.57 h 2.13 q -0.015,-1.02 -0.54,-1.575 -0.51,-0.555 -1.47,-0.555 -0.57,0 -1.125,0.24 -0.555,0.24 -1.095,0.735 l -0.645,-0.81 q 0.63,-0.6 1.38,-0.9 0.75,-0.315 1.605,-0.315 1.455,0 2.265,0.87 0.825,0.855 0.825,2.37 z m -1.2,-3.33 h -2.115 q -1.095,0 -1.62,0.3 -0.525,0.3 -0.525,0.945 0,0.54 0.45,0.9 0.465,0.36 1.185,0.36 1.08,0 1.815,-0.69 0.75,-0.705 0.81,-1.815 z"
         id="path5065" />
      <path
         d="m 1.2666866,33.065 v -4.23 H 0.27668663 v -1.08 H 1.2666866 v -2.22 h 1.215 v 2.22 h 1.68 v 1.08 h -1.68 v 4.125 q 0,0.48 0.21,0.72 0.225,0.225 0.675,0.225 h 0.795 V 35 h -0.975 q -1.005,0 -1.47,-0.465 -0.45,-0.465 -0.45,-1.47 z"
         id="path5067" />
      <path
         d="m 5.7966873,33.065 v -4.23 h -0.99 v -1.08 h 0.99 v -2.22 h 1.215 v 2.22 h 1.68 v 1.08 h -1.68 v 4.125 q 0,0.48 0.21,0.72 0.225,0.225 0.675,0.225 h 0.795 V 35 h -0.975 q -1.005,0 -1.47,-0.465 -0.45,-0.465 -0.45,-1.47 z"
         id="path5069" />
      <path
         d="m 9.921688,27.755 h 1.2 v 0.915 q 0.33,-0.48 0.855,-0.72 0.525,-0.24 1.245,-0.24 h 0.66 v 1.155 h -0.675 q -1.035,0 -1.56,0.54 -0.51,0.54 -0.51,1.635 V 35 h -1.215 z"
         id="path5071" />
      <path
         d="M 14.046687,36.935 V 35.84 h 7.62 v 1.095 z"
         id="path5073" />
      <path
         d="m 25.926683,34.19 q 0.72,0 1.32,-0.3 0.615,-0.315 1.125,-0.945 l 0.735,0.675 q -0.615,0.81 -1.44,1.215 -0.825,0.39 -1.845,0.39 -1.635,0 -2.685,-1.065 -1.035,-1.08 -1.035,-2.76 0,-1.635 1.065,-2.73 1.065,-1.095 2.625,-1.095 1.59,0 2.58,1.035 0.99,1.035 0.99,2.7 0,0.12 -0.015,0.285 -0.015,0.15 -0.03,0.225 h -5.955 q 0.12,1.065 0.825,1.725 0.72,0.645 1.74,0.645 z m -0.12,-5.58 q -0.945,0 -1.62,0.615 -0.675,0.615 -0.825,1.65 h 4.77 q -0.135,-1.05 -0.765,-1.65 -0.63,-0.615 -1.56,-0.615 z"
         id="path5075" />
      <path
         d="m 30.66669,27.755 h 1.5 v 1.5 h -1.5 z m 0,5.73 h 1.5 V 35 h -1.5 z"
         id="path5077" />
      <path
         d="m 39.111678,35 -3.105,-7.245 h 1.335 l 2.355,5.79 2.34,-5.79 h 1.26 l -3.075,7.245 z"
         id="path5079" />
      <path
         d="m 50.196664,35 h -1.185 v -1.185 q -0.435,0.63 -1.185,0.99 -0.735,0.345 -1.59,0.345 -1.2,0 -1.95,-0.6 -0.75,-0.615 -0.75,-1.605 0,-1.095 0.84,-1.65 0.84,-0.57 2.49,-0.57 h 2.13 q -0.015,-1.02 -0.54,-1.575 -0.51,-0.555 -1.47,-0.555 -0.57,0 -1.125,0.24 -0.555,0.24 -1.095,0.735 l -0.645,-0.81 q 0.63,-0.6 1.38,-0.9 0.75,-0.315 1.605,-0.315 1.455,0 2.265,0.87 0.825,0.855 0.825,2.37 z m -1.2,-3.33 h -2.115 q -1.095,0 -1.62,0.3 -0.525,0.3 -0.525,0.945 0,0.54 0.45,0.9 0.465,0.36 1.185,0.36 1.08,0 1.815,-0.69 0.75,-0.705 0.81,-1.815 z"
         id="path5081" />
      <path
         d="m 51.831655,24.5 h 1.23 V 35 h -1.23 z"
         id="path5083" />
      <path
         d="m 61.566652,35 h -1.215 v -1.11 q -0.435,0.63 -1.095,0.96 -0.66,0.315 -1.5,0.315 -1.425,0 -2.25,-0.93 -0.81,-0.93 -0.81,-2.535 v -3.945 h 1.23 v 3.87 q 0,1.14 0.555,1.8 0.57,0.66 1.575,0.66 1.02,0 1.65,-0.705 0.63,-0.705 0.63,-1.83 v -3.795 h 1.23 z"
         id="path5085" />
      <path
         d="m 66.636632,34.19 q 0.72,0 1.32,-0.3 0.615,-0.315 1.125,-0.945 l 0.735,0.675 q -0.615,0.81 -1.44,1.215 -0.825,0.39 -1.845,0.39 -1.635,0 -2.685,-1.065 -1.035,-1.08 -1.035,-2.76 0,-1.635 1.065,-2.73 1.065,-1.095 2.625,-1.095 1.59,0 2.58,1.035 0.99,1.035 0.99,2.7 0,0.12 -0.015,0.285 -0.015,0.15 -0.03,0.225 h -5.955 q 0.12,1.065 0.825,1.725 0.72,0.645 1.74,0.645 z m -0.12,-5.58 q -0.945,0 -1.62,0.615 -0.675,0.615 -0.825,1.65 h 4.77 q -0.135,-1.05 -0.765,-1.65 -0.63,-0.615 -1.56,-0.615 z"
         id="path5087" />
      <path
         d="M 70.476643,36.935 V 35.84 h 7.62 v 1.095 z"
         id="path5089" />
      <path
         d="m 82.356641,34.19 q 0.72,0 1.32,-0.3 0.615,-0.315 1.125,-0.945 l 0.735,0.675 q -0.615,0.81 -1.44,1.215 -0.825,0.39 -1.845,0.39 -1.635,0 -2.685,-1.065 -1.035,-1.08 -1.035,-2.76 0,-1.635 1.065,-2.73 1.065,-1.095 2.625,-1.095 1.59,0 2.58,1.035 0.99,1.035 0.99,2.7 0,0.12 -0.015,0.285 -0.015,0.15 -0.03,0.225 h -5.955 q 0.12,1.065 0.825,1.725 0.72,0.645 1.74,0.645 z m -0.12,-5.58 q -0.945,0 -1.62,0.615 -0.675,0.615 -0.825,1.65 h 4.77 q -0.135,-1.05 -0.765,-1.65 -0.63,-0.615 -1.56,-0.615 z"
         id="path5091" />
      <path
         d="m 87.276652,36.83 h -0.93 l 0.93,-3.36 h 1.44 z"
         id="path5093" />
      <path
         d="m -10.3933,53 h -1.185 v -1.185 q -0.435,0.63 -1.185,0.99 -0.735,0.345 -1.59,0.345 -1.2,0 -1.95,-0.6 -0.75,-0.615 -0.75,-1.605 0,-1.095 0.84,-1.65 0.84,-0.57 2.49,-0.57 h 2.13 q -0.015,-1.02 -0.54,-1.575 -0.51,-0.555 -1.47,-0.555 -0.57,0 -1.125,0.24 -0.555,0.24 -1.095,0.735 l -0.645,-0.81 q 0.63,-0.6 1.38,-0.9 0.75,-0.315 1.605,-0.315 1.455,0 2.265,0.87 0.825,0.855 0.825,2.37 z m -1.2,-3.33 h -2.115 q -1.095,0 -1.62,0.3 -0.525,0.3 -0.525,0.945 0,0.54 0.45,0.9 0.465,0.36 1.185,0.36 1.08,0 1.815,-0.69 0.75,-0.705 0.81,-1.815 z"
         id="path5095" />
      <path
         d="m -8.5632961,51.065 v -4.23 h -0.99 v -1.08 h 0.99 v -2.22 h 1.215 v 2.22 h 1.68 v 1.08 h -1.68 v 4.125 q 0,0.48 0.21,0.72 0.225,0.225 0.675,0.225 h 0.795 V 53 h -0.975 q -1.005,0 -1.47,-0.465 -0.45,-0.465 -0.45,-1.47 z"
         id="path5097" />
      <path
         d="m -4.0332954,51.065 v -4.23 h -0.99 v -1.08 h 0.99 v -2.22 h 1.215 v 2.22 h 1.68 v 1.08 h -1.68 v 4.125 q 0,0.48 0.21,0.72 0.225,0.225 0.675,0.225 h 0.795 V 53 h -0.975 q -1.005,0 -1.47,-0.465 -0.45,-0.465 -0.45,-1.47 z"
         id="path5099" />
      <path
         d="M 0.09170525,45.755 H 1.2917052 v 0.915 q 0.33,-0.48 0.855,-0.72 0.525,-0.24 1.245,-0.24 h 0.66 v 1.155 h -0.675 q -1.035,0 -1.56,0.54 -0.51,0.54 -0.51,1.635 V 53 H 0.09170525 Z"
         id="path5101" />
      <path
         d="M 4.2167041,54.935 V 53.84 h 7.6199999 v 1.095 z"
         id="path5103" />
      <path
         d="m 13.0817,46.835 h -0.99 v -1.08 h 0.99 V 44.39 q 0,-0.915 0.48,-1.395 0.495,-0.495 1.41,-0.495 h 0.99 v 1.02 h -0.81 q -0.42,0 -0.63,0.225 -0.21,0.225 -0.21,0.675 v 1.335 h 1.65 v 1.08 h -1.65 V 53 h -1.23 z"
         id="path5105" />
      <path
         d="m 16.996701,45.755 h 1.5 v 1.5 h -1.5 z m 0,5.73 h 1.5 V 53 h -1.5 z"
         id="path5107" />
      <path
         d="m 25.441685,53 -3.105,-7.245 h 1.335 l 2.355,5.79 2.34,-5.79 h 1.26 l -3.075,7.245 z"
         id="path5109" />
      <path
         d="m 36.526676,53 h -1.185 v -1.185 q -0.435,0.63 -1.185,0.99 -0.735,0.345 -1.59,0.345 -1.2,0 -1.95,-0.6 -0.75,-0.615 -0.75,-1.605 0,-1.095 0.84,-1.65 0.84,-0.57 2.49,-0.57 h 2.13 q -0.015,-1.02 -0.54,-1.575 -0.51,-0.555 -1.47,-0.555 -0.57,0 -1.125,0.24 -0.555,0.24 -1.095,0.735 l -0.645,-0.81 q 0.63,-0.6 1.38,-0.9 0.75,-0.315 1.605,-0.315 1.455,0 2.265,0.87 0.825,0.855 0.825,2.37 z m -1.2,-3.33 h -2.115 q -1.095,0 -1.62,0.3 -0.525,0.3 -0.525,0.945 0,0.54 0.45,0.9 0.465,0.36 1.185,0.36 1.08,0 1.815,-0.69 0.75,-0.705 0.81,-1.815 z"
         id="path5111" />
      <path
         d="m 38.161667,42.5 h 1.23 V 53 h -1.23 z"
         id="path5113" />
      <path
         d="m 47.896655,53 h -1.215 v -1.11 q -0.435,0.63 -1.095,0.96 -0.66,0.315 -1.5,0.315 -1.425,0 -2.25,-0.93 -0.81,-0.93 -0.81,-2.535 v -3.945 h 1.23 v 3.87 q 0,1.14 0.555,1.8 0.57,0.66 1.575,0.66 1.02,0 1.65,-0.705 0.63,-0.705 0.63,-1.83 v -3.795 h 1.23 z"
         id="path5115" />
      <path
         d="m 52.966643,52.19 q 0.72,0 1.32,-0.3 0.615,-0.315 1.125,-0.945 l 0.735,0.675 q -0.615,0.81 -1.44,1.215 -0.825,0.39 -1.845,0.39 -1.635,0 -2.685,-1.065 -1.035,-1.08 -1.035,-2.76 0,-1.635 1.065,-2.73 1.065,-1.095 2.625,-1.095 1.59,0 2.58,1.035 0.99,1.035 0.99,2.7 0,0.12 -0.015,0.285 -0.015,0.15 -0.03,0.225 h -5.955 q 0.12,1.065 0.825,1.725 0.72,0.645 1.74,0.645 z m -0.12,-5.58 q -0.945,0 -1.62,0.615 -0.675,0.615 -0.825,1.65 h 4.77 q -0.135,-1.05 -0.765,-1.65 -0.63,-0.615 -1.56,-0.615 z"
         id="path5117" />
      <path
         d="M 56.806655,54.935 V 53.84 h 7.62 v 1.095 z"
         id="path5119" />
      <path
         d="m 65.671652,46.835 h -0.99 v -1.08 h 0.99 V 44.39 q 0,-0.915 0.48,-1.395 0.495,-0.495 1.41,-0.495 h 0.99 v 1.02 h -0.81 q -0.42,0 -0.63,0.225 -0.21,0.225 -0.21,0.675 v 1.335 h 1.65 v 1.08 h -1.65 V 53 h -1.23 z"
         id="path5121" />
      <path
         d="m 69.091649,54.83 h -0.93 l 0.93,-3.36 h 1.44 z"
         id="path5123" />
      <path
         d="m 74.491652,51.485 h 1.515 V 53 h -1.515 z"
         id="path5125" />
      <path
         d="m 77.446654,51.485 h 1.515 V 53 h -1.515 z"
         id="path5127" />
      <path
         d="m 80.401664,51.485 h 1.515 V 53 h -1.515 z"
         id="path5129" />
      <path
         d="m 91.876667,47.255 v 0.99 q -1.605,0.36 -2.31,0.66 -0.69,0.3 -0.69,0.69 0,0.15 0.15,0.42 0.165,0.255 0.555,0.78 0.585,0.78 0.81,1.245 0.24,0.45 0.24,0.915 0,0.855 -0.645,1.35 -0.645,0.51 -1.785,0.51 h -2.445 V 53.72 h 2.445 q 0.54,0 0.855,-0.21 0.315,-0.21 0.315,-0.57 0,-0.285 -0.18,-0.6 -0.18,-0.33 -0.69,-1.035 -0.48,-0.63 -0.69,-1.035 -0.195,-0.405 -0.195,-0.765 0,-0.66 0.645,-1.08 0.66,-0.42 2.025,-0.675 -1.365,-0.255 -2.025,-0.675 -0.645,-0.42 -0.645,-1.08 0,-0.36 0.195,-0.765 0.21,-0.405 0.69,-1.035 0.51,-0.705 0.69,-1.02 0.18,-0.33 0.18,-0.615 0,-0.36 -0.315,-0.57 -0.315,-0.21 -0.855,-0.21 h -2.445 v -1.095 h 2.445 q 1.14,0 1.785,0.51 0.645,0.495 0.645,1.35 0,0.465 -0.24,0.93 -0.225,0.45 -0.81,1.23 -0.39,0.525 -0.555,0.795 -0.15,0.255 -0.15,0.405 0,0.39 0.69,0.69 0.705,0.3 2.31,0.66 z"
         id="path5131" />
    </g>
    <path
       id="rect4711"
       style="fill:#e9e9e9;stroke:#000000;stroke-width:1.33333;stroke-miterlimit:8"
       d="m 575.5,219.5 h 153 v 81 h -153 z" />
    <g
       aria-label="Operation4{attr_g: value_g,attr_h: value_h, ... }"
       transform="translate(614.832 238)"
       id="text4717"
       style="font-size:15px;font-family:'IntelOne Display Regular', 'IntelOne Display Regular_MSFontService', sans-serif">
      <path
         d="m 0.555,-5.235 q 0,-2.325 1.545,-3.915 1.545,-1.59 3.81,-1.59 2.28,0 3.795,1.575 1.53,1.56 1.53,3.9 0,2.34 -1.545,3.93 -1.53,1.575 -3.795,1.575 -2.28,0 -3.81,-1.56 -1.53,-1.575 -1.53,-3.915 z m 1.32,-0.03 q 0,1.845 1.155,3.105 1.17,1.245 2.88,1.245 1.71,0 2.85,-1.23 1.155,-1.245 1.155,-3.09 0,-1.845 -1.155,-3.09 -1.155,-1.26 -2.865,-1.26 -1.725,0 -2.88,1.245 -1.14,1.23 -1.14,3.075 z"
         id="path5135" />
      <path
         d="m 13.799989,2.7 h -1.215 v -9.945 h 1.2 v 1.17 q 0.48,-0.63 1.185,-0.975 0.705,-0.36 1.5,-0.36 1.53,0 2.55,1.065 1.02,1.05 1.02,2.7 0,1.665 -1.065,2.745 -1.05,1.065 -2.595,1.065 -0.735,0 -1.425,-0.3 -0.675,-0.315 -1.155,-0.885 z m 2.535,-9.03 q -1.095,0 -1.845,0.795 -0.735,0.78 -0.735,1.95 0,1.155 0.72,1.92 0.735,0.765 1.815,0.765 1.11,0 1.8,-0.735 0.705,-0.75 0.705,-1.98 0,-1.215 -0.69,-1.965 -0.675,-0.75 -1.77,-0.75 z"
         id="path5137" />
      <path
         d="m 24.79498,-0.81 q 0.72,0 1.32,-0.3 0.615,-0.315 1.125,-0.945 l 0.735,0.675 q -0.615,0.81 -1.44,1.215 -0.825,0.39 -1.845,0.39 -1.635,0 -2.685,-1.065 -1.035,-1.08 -1.035,-2.76 0,-1.635 1.065,-2.73 1.065,-1.095 2.625,-1.095 1.59,0 2.58,1.035 0.99,1.035 0.99,2.7 0,0.12 -0.015,0.285 -0.015,0.15 -0.03,0.225 h -5.955 q 0.12,1.065 0.825,1.725 0.72,0.645 1.74,0.645 z m -0.12,-5.58 q -0.945,0 -1.62,0.615 -0.675,0.615 -0.825,1.65 h 4.77 q -0.135,-1.05 -0.765,-1.65 -0.63,-0.615 -1.56,-0.615 z"
         id="path5139" />
      <path
         d="m 29.459989,-7.245 h 1.2 v 0.915 q 0.33,-0.48 0.855,-0.72 0.525,-0.24 1.245,-0.24 h 0.66 v 1.155 h -0.675 q -1.035,0 -1.56,0.54 -0.51,0.54 -0.51,1.635 V 0 h -1.215 z"
         id="path5141" />
      <path
         d="m 40.33498,0 h -1.185 v -1.185 q -0.435,0.63 -1.185,0.99 -0.735,0.345 -1.59,0.345 -1.2,0 -1.95,-0.6 -0.75,-0.615 -0.75,-1.605 0,-1.095 0.84,-1.65 0.84,-0.57 2.49,-0.57 h 2.13 q -0.015,-1.02 -0.54,-1.575 -0.51,-0.555 -1.47,-0.555 -0.57,0 -1.125,0.24 -0.555,0.24 -1.095,0.735 l -0.645,-0.81 q 0.63,-0.6 1.38,-0.9 0.75,-0.315 1.605,-0.315 1.455,0 2.265,0.87 0.825,0.855 0.825,2.37 z m -1.2,-3.33 h -2.115 q -1.095,0 -1.62,0.3 -0.525,0.3 -0.525,0.945 0,0.54 0.45,0.9 0.465,0.36 1.185,0.36 1.08,0 1.815,-0.69 0.75,-0.705 0.81,-1.815 z"
         id="path5143" />
      <path
         d="m 42.164985,-1.935 v -4.23 h -0.99 v -1.08 h 0.99 v -2.22 h 1.215 v 2.22 h 1.68 v 1.08 h -1.68 v 4.125 q 0,0.48 0.21,0.72 0.225,0.225 0.675,0.225 h 0.795 V 0 h -0.975 q -1.005,0 -1.47,-0.465 -0.45,-0.465 -0.45,-1.47 z"
         id="path5145" />
      <path
         d="m 46.364987,-9.675 h 1.35 v 1.335 h -1.35 z m 0.06,9.675 v -7.245 h 1.23 V 0 Z"
         id="path5147" />
      <path
         d="m 56.594976,-3.615 q 0,1.635 -1.095,2.745 -1.095,1.095 -2.7,1.095 -1.605,0 -2.685,-1.095 -1.065,-1.095 -1.065,-2.73 0,-1.635 1.095,-2.73 1.095,-1.11 2.7,-1.11 1.605,0 2.67,1.095 1.08,1.095 1.08,2.73 z m -6.3,0.015 q 0,1.17 0.72,1.965 0.735,0.795 1.815,0.795 1.065,0 1.785,-0.795 0.735,-0.795 0.735,-1.98 0,-1.155 -0.735,-1.95 -0.735,-0.81 -1.8,-0.81 -1.065,0 -1.8,0.795 -0.72,0.795 -0.72,1.98 z"
         id="path5149" />
      <path
         d="m 57.854982,-7.245 h 1.2 v 1.125 q 0.435,-0.63 1.095,-0.96 0.675,-0.345 1.5,-0.345 1.44,0 2.25,0.93 0.81,0.93 0.81,2.55 V 0 h -1.215 v -3.87 q 0,-1.14 -0.57,-1.8 -0.555,-0.66 -1.56,-0.66 -1.035,0 -1.665,0.705 -0.63,0.705 -0.63,1.83 V 0 h -1.215 z"
         id="path5151" />
      <path
         d="m 71.30997,-2.475 h -5.7 v -0.96 l 5.19,-7.065 h 1.77 v 6.96 h 1.77 v 1.065 h -1.77 V 0 h -1.26 z m 0.045,-7.005 -4.365,5.94 h 4.365 z"
         id="path5153" />
      <path
         d="m -11.1367,31.595 q 0,-0.39 -0.705,-0.69 -0.69,-0.3 -2.295,-0.66 v -0.99 q 1.605,-0.36 2.295,-0.66 0.705,-0.3 0.705,-0.69 0,-0.135 -0.15,-0.39 -0.15,-0.255 -0.555,-0.81 -0.6,-0.78 -0.84,-1.23 -0.225,-0.465 -0.225,-0.93 0,-0.855 0.645,-1.35 0.645,-0.51 1.785,-0.51 h 2.4599996 V 23.78 H -10.4767 q -0.54,0 -0.855,0.21 -0.315,0.21 -0.315,0.57 0,0.285 0.18,0.615 0.18,0.315 0.69,1.02 0.495,0.66 0.69,1.065 0.2099996,0.39 0.2099996,0.735 0,0.66 -0.6599996,1.08 -0.645,0.42 -2.01,0.675 1.365,0.255 2.01,0.675 0.6599996,0.42 0.6599996,1.08 0,0.345 -0.2099996,0.75 -0.195,0.39 -0.69,1.05 -0.51,0.705 -0.69,1.035 -0.18,0.315 -0.18,0.6 0,0.36 0.315,0.57 0.315,0.21 0.855,0.21 h 2.4599996 v 1.095 H -10.4767 q -1.14,0 -1.785,-0.51 -0.645,-0.495 -0.645,-1.35 0,-0.465 0.225,-0.915 0.24,-0.465 0.84,-1.245 0.405,-0.555 0.555,-0.81 0.15,-0.255 0.15,-0.39 z"
         id="path5155" />
      <path
         d="M -0.81671761,35 H -2.0017176 v -1.185 q -0.435,0.63 -1.185,0.99 -0.735,0.345 -1.59,0.345 -1.2,0 -1.95,-0.6 -0.75,-0.615 -0.75,-1.605 0,-1.095 0.84,-1.65 0.84,-0.57 2.49,-0.57 h 2.13 q -0.015,-1.02 -0.54,-1.575 -0.51,-0.555 -1.47,-0.555 -0.57,0 -1.125,0.24 -0.555,0.24 -1.095,0.735 l -0.645,-0.81 q 0.63,-0.6 1.38,-0.9 0.75,-0.315 1.605,-0.315 1.455,0 2.265,0.87 0.82499999,0.855 0.82499999,2.37 z M -2.0167176,31.67 h -2.115 q -1.095,0 -1.62,0.3 -0.525,0.3 -0.525,0.945 0,0.54 0.45,0.9 0.465,0.36 1.185,0.36 1.08,0 1.815,-0.69 0.75,-0.705 0.81,-1.815 z"
         id="path5157" />
      <path
         d="m 1.0132858,33.065 v -4.23 H 0.02328583 v -1.08 H 1.0132858 v -2.22 h 1.215 v 2.22 h 1.68 v 1.08 h -1.68 v 4.125 q 0,0.48 0.21,0.72 0.225,0.225 0.675,0.225 h 0.795 V 35 h -0.975 q -1.005,0 -1.47,-0.465 -0.45,-0.465 -0.45,-1.47 z"
         id="path5159" />
      <path
         d="m 5.5432865,33.065 v -4.23 h -0.99 v -1.08 h 0.99 v -2.22 h 1.215 v 2.22 h 1.68 v 1.08 h -1.68 v 4.125 q 0,0.48 0.21,0.72 0.225,0.225 0.675,0.225 h 0.795 V 35 h -0.975 q -1.005,0 -1.47,-0.465 -0.45,-0.465 -0.45,-1.47 z"
         id="path5161" />
      <path
         d="m 9.6682872,27.755 h 1.1999998 v 0.915 q 0.33,-0.48 0.855,-0.72 0.525,-0.24 1.245,-0.24 h 0.66 v 1.155 h -0.675 q -1.035,0 -1.56,0.54 -0.51,0.54 -0.51,1.635 V 35 H 9.6682872 Z"
         id="path5163" />
      <path
         d="M 13.793286,36.935 V 35.84 h 7.62 v 1.095 z"
         id="path5165" />
      <path
         d="m 28.103282,34.145 v -0.51 q -0.495,0.6 -1.2,0.93 -0.69,0.33 -1.485,0.33 -1.53,0 -2.55,-1.02 -1.02,-1.02 -1.02,-2.625 0,-1.59 1.035,-2.625 1.05,-1.05 2.58,-1.05 0.78,0 1.47,0.33 0.69,0.33 1.185,0.93 v -1.08 h 1.215 V 34.1 q 0,1.8 -0.96,2.7 -0.96,0.9 -2.895,0.9 h -1.83 v -1.05 h 1.89 q 1.275,0 1.92,-0.63 0.645,-0.63 0.645,-1.875 z m -2.505,-0.33 q 1.08,0 1.815,-0.735 0.75,-0.75 0.75,-1.83 0,-1.11 -0.75,-1.845 -0.735,-0.75 -1.815,-0.75 -1.125,0 -1.815,0.705 -0.69,0.705 -0.69,1.875 0,1.155 0.69,1.875 0.705,0.705 1.815,0.705 z"
         id="path5167" />
      <path
         d="m 30.983293,27.755 h 1.5 v 1.5 h -1.5 z m 0,5.73 h 1.5 V 35 h -1.5 z"
         id="path5169" />
      <path
         d="m 39.428281,35 -3.105,-7.245 h 1.335 l 2.355,5.79 2.34,-5.79 h 1.26 l -3.075,7.245 z"
         id="path5171" />
      <path
         d="m 50.513267,35 h -1.185 v -1.185 q -0.435,0.63 -1.185,0.99 -0.735,0.345 -1.59,0.345 -1.2,0 -1.95,-0.6 -0.75,-0.615 -0.75,-1.605 0,-1.095 0.84,-1.65 0.84,-0.57 2.49,-0.57 h 2.13 q -0.015,-1.02 -0.54,-1.575 -0.51,-0.555 -1.47,-0.555 -0.57,0 -1.125,0.24 -0.555,0.24 -1.095,0.735 l -0.645,-0.81 q 0.63,-0.6 1.38,-0.9 0.75,-0.315 1.605,-0.315 1.455,0 2.265,0.87 0.825,0.855 0.825,2.37 z m -1.2,-3.33 h -2.115 q -1.095,0 -1.62,0.3 -0.525,0.3 -0.525,0.945 0,0.54 0.45,0.9 0.465,0.36 1.185,0.36 1.08,0 1.815,-0.69 0.75,-0.705 0.81,-1.815 z"
         id="path5173" />
      <path
         d="m 52.148262,24.5 h 1.23 V 35 h -1.23 z"
         id="path5175" />
      <path
         d="m 61.88325,35 h -1.215 v -1.11 q -0.435,0.63 -1.095,0.96 -0.66,0.315 -1.5,0.315 -1.425,0 -2.25,-0.93 -0.81,-0.93 -0.81,-2.535 v -3.945 h 1.23 v 3.87 q 0,1.14 0.555,1.8 0.57,0.66 1.575,0.66 1.02,0 1.65,-0.705 0.63,-0.705 0.63,-1.83 v -3.795 h 1.23 z"
         id="path5177" />
      <path
         d="m 66.953239,34.19 q 0.72,0 1.32,-0.3 0.615,-0.315 1.125,-0.945 l 0.735,0.675 q -0.615,0.81 -1.44,1.215 -0.825,0.39 -1.845,0.39 -1.635,0 -2.685,-1.065 -1.035,-1.08 -1.035,-2.76 0,-1.635 1.065,-2.73 1.065,-1.095 2.625,-1.095 1.59,0 2.58,1.035 0.99,1.035 0.99,2.7 0,0.12 -0.015,0.285 -0.015,0.15 -0.03,0.225 h -5.955 q 0.12,1.065 0.825,1.725 0.72,0.645 1.74,0.645 z m -0.12,-5.58 q -0.945,0 -1.62,0.615 -0.675,0.615 -0.825,1.65 h 4.77 q -0.135,-1.05 -0.765,-1.65 -0.63,-0.615 -1.56,-0.615 z"
         id="path5179" />
      <path
         d="M 70.793242,36.935 V 35.84 h 7.62 v 1.095 z"
         id="path5181" />
      <path
         d="m 85.10324,34.145 v -0.51 q -0.495,0.6 -1.2,0.93 -0.69,0.33 -1.485,0.33 -1.53,0 -2.55,-1.02 -1.02,-1.02 -1.02,-2.625 0,-1.59 1.035,-2.625 1.05,-1.05 2.58,-1.05 0.78,0 1.47,0.33 0.69,0.33 1.185,0.93 v -1.08 h 1.215 V 34.1 q 0,1.8 -0.96,2.7 -0.96,0.9 -2.895,0.9 h -1.83 v -1.05 h 1.89 q 1.275,0 1.92,-0.63 0.645,-0.63 0.645,-1.875 z m -2.505,-0.33 q 1.08,0 1.815,-0.735 0.75,-0.75 0.75,-1.83 0,-1.11 -0.75,-1.845 -0.735,-0.75 -1.815,-0.75 -1.125,0 -1.815,0.705 -0.69,0.705 -0.69,1.875 0,1.155 0.69,1.875 0.705,0.705 1.815,0.705 z"
         id="path5183" />
      <path
         d="m 88.163251,36.83 h -0.93 l 0.93,-3.36 h 1.44 z"
         id="path5185" />
      <path
         d="m -14.1467,53 h -1.185 v -1.185 q -0.435,0.63 -1.185,0.99 -0.735,0.345 -1.59,0.345 -1.2,0 -1.95,-0.6 -0.75,-0.615 -0.75,-1.605 0,-1.095 0.84,-1.65 0.84,-0.57 2.49,-0.57 h 2.13 q -0.015,-1.02 -0.54,-1.575 -0.51,-0.555 -1.47,-0.555 -0.57,0 -1.125,0.24 -0.555,0.24 -1.095,0.735 l -0.645,-0.81 q 0.63,-0.6 1.38,-0.9 0.75,-0.315 1.605,-0.315 1.455,0 2.265,0.87 0.825,0.855 0.825,2.37 z m -1.2,-3.33 h -2.115 q -1.095,0 -1.62,0.3 -0.525,0.3 -0.525,0.945 0,0.54 0.45,0.9 0.465,0.36 1.185,0.36 1.08,0 1.815,-0.69 0.75,-0.705 0.81,-1.815 z"
         id="path5187" />
      <path
         d="m -12.316697,51.065 v -4.23 h -0.99 v -1.08 h 0.99 v -2.22 h 1.215 v 2.22 h 1.6800001 v 1.08 h -1.6800001 v 4.125 q 0,0.48 0.21,0.72 0.225,0.225 0.675,0.225 h 0.7950001 V 53 h -0.9750001 q -1.005,0 -1.47,-0.465 -0.45,-0.465 -0.45,-1.47 z"
         id="path5189" />
      <path
         d="m -7.7866962,51.065 v -4.23 h -0.99 v -1.08 h 0.99 v -2.22 h 1.215 v 2.22 h 1.68 v 1.08 h -1.68 v 4.125 q 0,0.48 0.21,0.72 0.225,0.225 0.675,0.225 h 0.795 V 53 h -0.975 q -1.005,0 -1.47,-0.465 -0.45,-0.465 -0.45,-1.47 z"
         id="path5191" />
      <path
         d="m -3.6616956,45.755 h 1.2 v 0.915 q 0.33,-0.48 0.855,-0.72 0.525,-0.24 1.24500004,-0.24 h 0.66 v 1.155 h -0.675 q -1.03500004,0 -1.56000004,0.54 -0.51,0.54 -0.51,1.635 V 53 h -1.215 z"
         id="path5193" />
      <path
         d="M 0.4633033,54.935 V 53.84 h 7.62 v 1.095 z"
         id="path5195" />
      <path
         d="m 8.848299,42.5 h 1.215 v 4.35 q 0.435,-0.615 1.08,-0.945 0.66,-0.33 1.47,-0.33 1.455,0 2.265,0.93 0.825,0.93 0.825,2.55 V 53 h -1.215 v -3.87 q 0,-1.155 -0.57,-1.8 -0.57,-0.66 -1.59,-0.66 -1.02,0 -1.65,0.705 -0.615,0.705 -0.615,1.83 V 53 h -1.215 z"
         id="path5197" />
      <path
         d="m 17.278289,45.755 h 1.5 v 1.5 h -1.5 z m 0,5.73 h 1.5 V 53 h -1.5 z"
         id="path5199" />
      <path
         d="m 25.723273,53 -3.105,-7.245 h 1.335 l 2.355,5.79 2.34,-5.79 h 1.26 l -3.075,7.245 z"
         id="path5201" />
      <path
         d="m 36.808263,53 h -1.185 v -1.185 q -0.435,0.63 -1.185,0.99 -0.735,0.345 -1.59,0.345 -1.2,0 -1.95,-0.6 -0.75,-0.615 -0.75,-1.605 0,-1.095 0.84,-1.65 0.84,-0.57 2.49,-0.57 h 2.13 q -0.015,-1.02 -0.54,-1.575 -0.51,-0.555 -1.47,-0.555 -0.57,0 -1.125,0.24 -0.555,0.24 -1.095,0.735 l -0.645,-0.81 q 0.63,-0.6 1.38,-0.9 0.75,-0.315 1.605,-0.315 1.455,0 2.265,0.87 0.825,0.855 0.825,2.37 z m -1.2,-3.33 h -2.115 q -1.095,0 -1.62,0.3 -0.525,0.3 -0.525,0.945 0,0.54 0.45,0.9 0.465,0.36 1.185,0.36 1.08,0 1.815,-0.69 0.75,-0.705 0.81,-1.815 z"
         id="path5203" />
      <path
         d="m 38.443254,42.5 h 1.23 V 53 h -1.23 z"
         id="path5205" />
      <path
         d="m 48.178243,53 h -1.215 v -1.11 q -0.435,0.63 -1.095,0.96 -0.66,0.315 -1.5,0.315 -1.425,0 -2.25,-0.93 -0.81,-0.93 -0.81,-2.535 v -3.945 h 1.23 v 3.87 q 0,1.14 0.555,1.8 0.57,0.66 1.575,0.66 1.02,0 1.65,-0.705 0.63,-0.705 0.63,-1.83 v -3.795 h 1.23 z"
         id="path5207" />
      <path
         d="m 53.248231,52.19 q 0.72,0 1.32,-0.3 0.615,-0.315 1.125,-0.945 l 0.735,0.675 q -0.615,0.81 -1.44,1.215 -0.825,0.39 -1.845,0.39 -1.635,0 -2.685,-1.065 -1.035,-1.08 -1.035,-2.76 0,-1.635 1.065,-2.73 1.065,-1.095 2.625,-1.095 1.59,0 2.58,1.035 0.99,1.035 0.99,2.7 0,0.12 -0.015,0.285 -0.015,0.15 -0.03,0.225 h -5.955 q 0.12,1.065 0.825,1.725 0.72,0.645 1.74,0.645 z m -0.12,-5.58 q -0.945,0 -1.62,0.615 -0.675,0.615 -0.825,1.65 h 4.77 q -0.135,-1.05 -0.765,-1.65 -0.63,-0.615 -1.56,-0.615 z"
         id="path5209" />
      <path
         d="M 57.088242,54.935 V 53.84 h 7.62 v 1.095 z"
         id="path5211" />
      <path
         d="m 65.47324,42.5 h 1.215 v 4.35 q 0.435,-0.615 1.08,-0.945 0.66,-0.33 1.47,-0.33 1.455,0 2.265,0.93 0.825,0.93 0.825,2.55 V 53 h -1.215 v -3.87 q 0,-1.155 -0.57,-1.8 -0.57,-0.66 -1.59,-0.66 -1.02,0 -1.65,0.705 -0.615,0.705 -0.615,1.83 V 53 h -1.215 z"
         id="path5213" />
      <path
         d="m 74.08322,54.83 h -0.93 l 0.93,-3.36 h 1.44 z"
         id="path5215" />
      <path
         d="m 79.483224,51.485 h 1.515 V 53 h -1.515 z"
         id="path5217" />
      <path
         d="m 82.438233,51.485 h 1.515 V 53 h -1.515 z"
         id="path5219" />
      <path
         d="m 85.393235,51.485 h 1.515 V 53 h -1.515 z"
         id="path5221" />
      <path
         d="m 96.868238,47.255 v 0.99 q -1.605,0.36 -2.31,0.66 -0.69,0.3 -0.69,0.69 0,0.15 0.15,0.42 0.165,0.255 0.555,0.78 0.585,0.78 0.81,1.245 0.24,0.45 0.24,0.915 0,0.855 -0.645,1.35 -0.645,0.51 -1.785,0.51 h -2.445 V 53.72 h 2.445 q 0.54,0 0.855,-0.21 0.315,-0.21 0.315,-0.57 0,-0.285 -0.18,-0.6 -0.18,-0.33 -0.69,-1.035 -0.48,-0.63 -0.69,-1.035 -0.195,-0.405 -0.195,-0.765 0,-0.66 0.645,-1.08 0.66,-0.42 2.025,-0.675 -1.365,-0.255 -2.025,-0.675 -0.645,-0.42 -0.645,-1.08 0,-0.36 0.195,-0.765 0.21,-0.405 0.69,-1.035 0.51,-0.705 0.69,-1.02 0.18,-0.33 0.18,-0.615 0,-0.36 -0.315,-0.57 -0.315,-0.21 -0.855,-0.21 h -2.445 v -1.095 h 2.445 q 1.14,0 1.785,0.51 0.645,0.495 0.645,1.35 0,0.465 -0.24,0.93 -0.225,0.45 -0.81,1.23 -0.39,0.525 -0.555,0.795 -0.15,0.255 -0.15,0.405 0,0.39 0.69,0.69 0.705,0.3 2.31,0.66 z"
         id="path5223" />
    </g>
    <path
       d="M209.5 76.8334 303.283 76.8336 303.283 78.1669 209.5 78.1667ZM301.95 73.5002 309.95 77.5003 301.95 81.5002Z"
       id="path4719" />
    <path
       d="M462.5 36.8334 821.632 36.8335 821.632 38.1668 462.5 38.1667ZM820.298 33.5002 828.298 37.5002 820.298 41.5002Z"
       id="path4721" />
    <path
       d="M462.5 76.8334 519.526 76.8334 519.526 118.219 518.86 117.552 568.552 117.552 568.552 118.886 518.193 118.886 518.193 77.5001 518.86 78.1667 462.5 78.1667ZM567.219 114.219 575.219 118.219 567.219 122.219Z"
       id="path4723" />
    <path
       d="M462.5 109.833 493.46 109.833 493.46 259.356 492.793 258.69 568.552 258.69 568.552 260.023 492.127 260.023 492.127 110.5 492.793 111.167 462.5 111.167ZM567.219 255.356 575.219 259.356 567.219 263.356Z"
       id="path4725" />
    <path
       d="M0-0.666667 50.8916-0.666667 50.8916 182.292 50.2249 181.626 93.783 181.626 93.783 182.959 49.5583 182.959 49.5583 0 50.2249 0.666667 0 0.666667ZM92.4497 178.292 100.45 182.292 92.4497 186.292Z"
       transform="matrix(1 0 0 -1 728.5 259.792)"
       id="path4727" />
    <g
       aria-label="in:0out: 0out: 0out: 0out: 1in:0in:0in:0in:1"
       transform="translate(271.908 69)"
       id="text4757"
       style="font-size:13px;font-family:'IntelOne Display Regular', 'IntelOne Display Regular_MSFontService', sans-serif">
      <path
         d="m 0.754,-8.385 h 1.17 v 1.157 H 0.754 Z M 0.806,0 V -6.279 H 1.872 V 0 Z"
         id="path5226" />
      <path
         d="m 3.3669919,-6.279 h 1.04 v 0.975 q 0.377,-0.546 0.949,-0.832 0.585,-0.299 1.3,-0.299 1.248,0 1.95,0.806 0.702,0.806 0.702,2.21 V 0 h -1.053 v -3.354 q 0,-0.988 -0.494,-1.56 -0.481,-0.572 -1.352,-0.572 -0.897,0 -1.443,0.611 -0.546,0.611 -0.546,1.586 V 0 h -1.053 z"
         id="path5228" />
      <path
         d="m 10.672982,-6.279 h 1.3 v 1.3 h -1.3 z m 0,4.966 h 1.3 V 0 h -1.3 z"
         id="path5230" />
      <path
         d="m 15.981,-4.329 v -0.416 q 0,-2.093 1.001,-3.328 1.001,-1.235 2.678,-1.235 1.677,0 2.652,1.222 0.988,1.222 0.988,3.315 v 0.416 q 0,2.093 -1.001,3.328 -0.988,1.235 -2.665,1.235 -1.677,0 -2.665,-1.222 -0.988,-1.222 -0.988,-3.315 z m 3.653,-3.991 q -1.196,0 -1.872,0.936 -0.663,0.936 -0.663,2.613 v 0.416 q 0,1.69 0.676,2.639 0.676,0.936 1.872,0.936 1.196,0 1.859,-0.936 0.676,-0.936 0.676,-2.613 v -0.416 q 0,-1.69 -0.676,-2.626 Q 20.83,-8.32 19.634,-8.32 Z"
         id="path5232" />
      <path
         d="m -51.323301,-3.133 q 0,1.417 -0.949,2.379 -0.949,0.949 -2.34,0.949 -1.391,0 -2.327,-0.949 -0.923,-0.949 -0.923,-2.366 0,-1.417 0.949,-2.366 0.949,-0.962 2.34,-0.962 1.391,0 2.314,0.949 0.936,0.949 0.936,2.366 z m -5.46,0.013 q 0,1.014 0.624,1.703 0.637,0.689 1.573,0.689 0.923,0 1.547,-0.689 0.637,-0.689 0.637,-1.716 0,-1.001 -0.637,-1.69 -0.637,-0.702 -1.56,-0.702 -0.923,0 -1.56,0.689 -0.624,0.689 -0.624,1.716 z"
         id="path5234" />
      <path
         d="m -44.355294,0 h -1.053 v -0.962 q -0.377,0.546 -0.949,0.832 -0.572,0.273 -1.3,0.273 -1.235,0 -1.95,-0.806 -0.702,-0.806 -0.702,-2.197 v -3.419 h 1.066 v 3.354 q 0,0.988 0.481,1.56 0.494,0.572 1.365,0.572 0.884,0 1.43,-0.611 0.546,-0.611 0.546,-1.586 v -3.289 h 1.066 z"
         id="path5236" />
      <path
         d="m -42.639304,-1.677 v -3.666 h -0.858 v -0.936 h 0.858 v -1.924 h 1.053 v 1.924 h 1.456 v 0.936 h -1.456 v 3.575 q 0,0.416 0.182,0.624 0.195,0.195 0.585,0.195 h 0.689 V 0 h -0.845 q -0.871,0 -1.274,-0.403 -0.39,-0.403 -0.39,-1.274 z"
         id="path5238" />
      <path
         d="m -38.869301,-6.279 h 1.3 v 1.3 h -1.3 z m 0,4.966 h 1.3 V 0 h -1.3 z"
         id="path5240" />
      <path
         d="m -33.929313,-4.329 v -0.416 q 0,-2.093 1.001,-3.328 1.001,-1.235 2.678,-1.235 1.677,0 2.652,1.222 0.988,1.222 0.988,3.315 v 0.416 q 0,2.093 -1.001,3.328 -0.988,1.235 -2.665,1.235 -1.677,0 -2.665,-1.222 -0.988,-1.222 -0.988,-3.315 z m 3.653,-3.991 q -1.196,0 -1.872,0.936 -0.663,0.936 -0.663,2.613 v 0.416 q 0,1.69 0.676,2.639 0.676,0.936 1.872,0.936 1.196,0 1.859,-0.936 0.676,-0.936 0.676,-2.613 v -0.416 q 0,-1.69 -0.676,-2.626 -0.676,-0.949 -1.872,-0.949 z"
         id="path5242" />
      <path
         d="m 207.1,-42.133 q 0,1.417 -0.949,2.379 -0.949,0.949 -2.34,0.949 -1.391,0 -2.327,-0.949 -0.923,-0.949 -0.923,-2.366 0,-1.417 0.949,-2.366 0.949,-0.962 2.34,-0.962 1.391,0 2.314,0.949 0.936,0.949 0.936,2.366 z m -5.46,0.013 q 0,1.014 0.624,1.703 0.637,0.689 1.573,0.689 0.923,0 1.547,-0.689 0.637,-0.689 0.637,-1.716 0,-1.001 -0.637,-1.69 -0.637,-0.702 -1.56,-0.702 -0.923,0 -1.56,0.689 -0.624,0.689 -0.624,1.716 z"
         id="path5244" />
      <path
         d="m 214.06801,-39 h -1.053 v -0.962 q -0.377,0.546 -0.949,0.832 -0.572,0.273 -1.3,0.273 -1.235,0 -1.95,-0.806 -0.702,-0.806 -0.702,-2.197 v -3.419 h 1.066 v 3.354 q 0,0.988 0.481,1.56 0.494,0.572 1.365,0.572 0.884,0 1.43,-0.611 0.546,-0.611 0.546,-1.586 v -3.289 h 1.066 z"
         id="path5246" />
      <path
         d="m 215.784,-40.677 v -3.666 h -0.858 v -0.936 h 0.858 v -1.924 h 1.053 v 1.924 h 1.456 v 0.936 h -1.456 v 3.575 q 0,0.416 0.182,0.624 0.195,0.195 0.585,0.195 h 0.689 V -39 h -0.845 q -0.871,0 -1.274,-0.403 -0.39,-0.403 -0.39,-1.274 z"
         id="path5248" />
      <path
         d="m 219.554,-45.279 h 1.3 v 1.3 h -1.3 z m 0,4.966 h 1.3 V -39 h -1.3 z"
         id="path5250" />
      <path
         d="m 224.49399,-43.329 v -0.416 q 0,-2.093 1.001,-3.328 1.001,-1.235 2.678,-1.235 1.677,0 2.652,1.222 0.988,1.222 0.988,3.315 v 0.416 q 0,2.093 -1.001,3.328 -0.988,1.235 -2.665,1.235 -1.677,0 -2.665,-1.222 -0.988,-1.222 -0.988,-3.315 z m 3.653,-3.991 q -1.196,0 -1.872,0.936 -0.663,0.936 -0.663,2.613 v 0.416 q 0,1.69 0.676,2.639 0.676,0.936 1.872,0.936 1.196,0 1.859,-0.936 0.676,-0.936 0.676,-2.613 v -0.416 q 0,-1.69 -0.676,-2.626 -0.676,-0.949 -1.872,-0.949 z"
         id="path5252" />
      <path
         d="m 207.1,-3.133 q 0,1.417 -0.949,2.379 -0.949,0.949 -2.34,0.949 -1.391,0 -2.327,-0.949 -0.923,-0.949 -0.923,-2.366 0,-1.417 0.949,-2.366 0.949,-0.962 2.34,-0.962 1.391,0 2.314,0.949 0.936,0.949 0.936,2.366 z m -5.46,0.013 q 0,1.014 0.624,1.703 0.637,0.689 1.573,0.689 0.923,0 1.547,-0.689 0.637,-0.689 0.637,-1.716 0,-1.001 -0.637,-1.69 -0.637,-0.702 -1.56,-0.702 -0.923,0 -1.56,0.689 -0.624,0.689 -0.624,1.716 z"
         id="path5254" />
      <path
         d="m 214.06801,0 h -1.053 v -0.962 q -0.377,0.546 -0.949,0.832 -0.572,0.273 -1.3,0.273 -1.235,0 -1.95,-0.806 -0.702,-0.806 -0.702,-2.197 v -3.419 h 1.066 v 3.354 q 0,0.988 0.481,1.56 0.494,0.572 1.365,0.572 0.884,0 1.43,-0.611 0.546,-0.611 0.546,-1.586 v -3.289 h 1.066 z"
         id="path5256" />
      <path
         d="m 215.784,-1.677 v -3.666 h -0.858 v -0.936 h 0.858 v -1.924 h 1.053 v 1.924 h 1.456 v 0.936 h -1.456 v 3.575 q 0,0.416 0.182,0.624 0.195,0.195 0.585,0.195 h 0.689 V 0 h -0.845 q -0.871,0 -1.274,-0.403 -0.39,-0.403 -0.39,-1.274 z"
         id="path5258" />
      <path
         d="m 219.554,-6.279 h 1.3 v 1.3 h -1.3 z m 0,4.966 h 1.3 V 0 h -1.3 z"
         id="path5260" />
      <path
         d="m 224.49399,-4.329 v -0.416 q 0,-2.093 1.001,-3.328 1.001,-1.235 2.678,-1.235 1.677,0 2.652,1.222 0.988,1.222 0.988,3.315 v 0.416 q 0,2.093 -1.001,3.328 -0.988,1.235 -2.665,1.235 -1.677,0 -2.665,-1.222 -0.988,-1.222 -0.988,-3.315 z m 3.653,-3.991 q -1.196,0 -1.872,0.936 -0.663,0.936 -0.663,2.613 v 0.416 q 0,1.69 0.676,2.639 0.676,0.936 1.872,0.936 1.196,0 1.859,-0.936 0.676,-0.936 0.676,-2.613 v -0.416 q 0,-1.69 -0.676,-2.626 -0.676,-0.949 -1.872,-0.949 z"
         id="path5262" />
      <path
         d="m 207.1,31.867 q 0,1.417 -0.949,2.379 -0.949,0.949 -2.34,0.949 -1.391,0 -2.327,-0.949 -0.923,-0.949 -0.923,-2.366 0,-1.417 0.949,-2.366 0.949,-0.962 2.34,-0.962 1.391,0 2.314,0.949 0.936,0.949 0.936,2.366 z m -5.46,0.013 q 0,1.014 0.624,1.703 0.637,0.689 1.573,0.689 0.923,0 1.547,-0.689 0.637,-0.689 0.637,-1.716 0,-1.001 -0.637,-1.69 -0.637,-0.702 -1.56,-0.702 -0.923,0 -1.56,0.689 -0.624,0.689 -0.624,1.716 z"
         id="path5264" />
      <path
         d="m 214.06801,35 h -1.053 v -0.962 q -0.377,0.546 -0.949,0.832 -0.572,0.273 -1.3,0.273 -1.235,0 -1.95,-0.806 -0.702,-0.806 -0.702,-2.197 v -3.419 h 1.066 v 3.354 q 0,0.988 0.481,1.56 0.494,0.572 1.365,0.572 0.884,0 1.43,-0.611 0.546,-0.611 0.546,-1.586 v -3.289 h 1.066 z"
         id="path5266" />
      <path
         d="m 215.784,33.323 v -3.666 h -0.858 v -0.936 h 0.858 v -1.924 h 1.053 v 1.924 h 1.456 v 0.936 h -1.456 v 3.575 q 0,0.416 0.182,0.624 0.195,0.195 0.585,0.195 h 0.689 V 35 h -0.845 q -0.871,0 -1.274,-0.403 -0.39,-0.403 -0.39,-1.274 z"
         id="path5268" />
      <path
         d="m 219.424,28.721 h 1.3 v 1.3 h -1.3 z m 0,4.966 h 1.3 V 35 h -1.3 z"
         id="path5270" />
      <path
         d="m 226.246,26.888 h -1.404 V 25.9 h 2.496 V 35 h -1.092 z"
         id="path5272" />
      <path
         d="m 263.431,32.615 h 1.17 v 1.157 h -1.17 z M 263.483,41 v -6.279 h 1.066 V 41 Z"
         id="path5274" />
      <path
         d="m 266.04399,34.721 h 1.04 v 0.975 q 0.377,-0.546 0.949,-0.832 0.585,-0.299 1.3,-0.299 1.248,0 1.95,0.806 0.702,0.806 0.702,2.21 V 41 h -1.053 v -3.354 q 0,-0.988 -0.494,-1.56 -0.481,-0.572 -1.352,-0.572 -0.897,0 -1.443,0.611 -0.546,0.611 -0.546,1.586 V 41 h -1.053 z"
         id="path5276" />
      <path
         d="m 273.34998,34.721 h 1.3 v 1.3 h -1.3 z m 0,4.966 h 1.3 V 41 h -1.3 z"
         id="path5278" />
      <path
         d="m 278.658,36.671 v -0.416 q 0,-2.093 1.001,-3.328 1.001,-1.235 2.678,-1.235 1.677,0 2.652,1.222 0.988,1.222 0.988,3.315 v 0.416 q 0,2.093 -1.001,3.328 -0.988,1.235 -2.665,1.235 -1.677,0 -2.665,-1.222 -0.988,-1.222 -0.988,-3.315 z m 3.653,-3.991 q -1.196,0 -1.872,0.936 -0.663,0.936 -0.663,2.613 v 0.416 q 0,1.69 0.676,2.639 0.676,0.936 1.872,0.936 1.196,0 1.859,-0.936 0.676,-0.936 0.676,-2.613 v -0.416 q 0,-1.69 -0.676,-2.626 -0.676,-0.949 -1.872,-0.949 z"
         id="path5280" />
      <path
         d="m 269.78699,173.615 h 1.17 v 1.157 h -1.17 z m 0.052,8.385 v -6.279 h 1.066 V 182 Z"
         id="path5282" />
      <path
         d="m 272.39998,175.721 h 1.04 v 0.975 q 0.377,-0.546 0.949,-0.832 0.585,-0.299 1.3,-0.299 1.248,0 1.95,0.806 0.702,0.806 0.702,2.21 V 182 h -1.053 v -3.354 q 0,-0.988 -0.494,-1.56 -0.481,-0.572 -1.352,-0.572 -0.897,0 -1.443,0.611 -0.546,0.611 -0.546,1.586 V 182 h -1.053 z"
         id="path5284" />
      <path
         d="m 279.70597,175.721 h 1.3 v 1.3 h -1.3 z m 0,4.966 h 1.3 V 182 h -1.3 z"
         id="path5286" />
      <path
         d="m 285.01399,177.671 v -0.416 q 0,-2.093 1.001,-3.328 1.001,-1.235 2.678,-1.235 1.677,0 2.652,1.222 0.988,1.222 0.988,3.315 v 0.416 q 0,2.093 -1.001,3.328 -0.988,1.235 -2.665,1.235 -1.677,0 -2.665,-1.222 -0.988,-1.222 -0.988,-3.315 z m 3.653,-3.991 q -1.196,0 -1.872,0.936 -0.663,0.936 -0.663,2.613 v 0.416 q 0,1.69 0.676,2.639 0.676,0.936 1.872,0.936 1.196,0 1.859,-0.936 0.676,-0.936 0.676,-2.613 v -0.416 q 0,-1.69 -0.676,-2.626 -0.676,-0.949 -1.872,-0.949 z"
         id="path5288" />
      <path
         d="m 516.48502,-8.385 h 1.17 v 1.157 h -1.17 z m 0.052,8.385 v -6.279 h 1.066 V 0 Z"
         id="path5290" />
      <path
         d="m 519.09801,-6.279 h 1.04 v 0.975 q 0.377,-0.546 0.949,-0.832 0.585,-0.299 1.3,-0.299 1.248,0 1.95,0.806 0.702,0.806 0.702,2.21 V 0 h -1.053 v -3.354 q 0,-0.988 -0.494,-1.56 -0.481,-0.572 -1.352,-0.572 -0.897,0 -1.443,0.611 -0.546,0.611 -0.546,1.586 V 0 h -1.053 z"
         id="path5292" />
      <path
         d="m 526.404,-6.279 h 1.3 v 1.3 h -1.3 z m 0,4.966 h 1.3 V 0 h -1.3 z"
         id="path5294" />
      <path
         d="m 531.71202,-4.329 v -0.416 q 0,-2.093 1.001,-3.328 1.001,-1.235 2.678,-1.235 1.677,0 2.652,1.222 0.988,1.222 0.988,3.315 v 0.416 q 0,2.093 -1.001,3.328 -0.988,1.235 -2.665,1.235 -1.677,0 -2.665,-1.222 -0.988,-1.222 -0.988,-3.315 z m 3.653,-3.991 q -1.196,0 -1.872,0.936 -0.663,0.936 -0.663,2.613 v 0.416 q 0,1.69 0.676,2.639 0.676,0.936 1.872,0.936 1.196,0 1.859,-0.936 0.676,-0.936 0.676,-2.613 v -0.416 q 0,-1.69 -0.676,-2.626 -0.676,-0.949 -1.872,-0.949 z"
         id="path5296" />
      <path
         d="m 515.69498,-48.385 h 1.17 v 1.157 h -1.17 z m 0.052,8.385 v -6.279 h 1.066 V -40 Z"
         id="path5298" />
      <path
         d="m 518.30797,-46.279 h 1.04 v 0.975 q 0.377,-0.546 0.949,-0.832 0.585,-0.299 1.3,-0.299 1.248,0 1.95,0.806 0.702,0.806 0.702,2.21 V -40 h -1.053 v -3.354 q 0,-0.988 -0.494,-1.56 -0.481,-0.572 -1.352,-0.572 -0.897,0 -1.443,0.611 -0.546,0.611 -0.546,1.586 V -40 h -1.053 z"
         id="path5300" />
      <path
         d="m 525.61396,-46.279 h 1.3 v 1.3 h -1.3 z m 0,4.966 h 1.3 V -40 h -1.3 z"
         id="path5302" />
      <path
         d="m 532.19598,-48.112 h -1.404 V -49.1 h 2.496 v 9.1 h -1.092 z"
         id="path5304" />
    </g>
  </g>
</svg>
