<?xml version="1.0" encoding="UTF-8" standalone="no"?>
<svg
   width="992"
   height="384"
   overflow="hidden"
   version="1.1"
   id="svg5828"
   sodipodi:docname="MO_graph_after_loader.svg"
   inkscape:version="1.2.1 (9c6d41e410, 2022-07-14)"
   xmlns:inkscape="http://www.inkscape.org/namespaces/inkscape"
   xmlns:sodipodi="http://sodipodi.sourceforge.net/DTD/sodipodi-0.dtd"
   xmlns="http://www.w3.org/2000/svg"
   xmlns:svg="http://www.w3.org/2000/svg">
  <sodipodi:namedview
     id="namedview5830"
     pagecolor="#ffffff"
     bordercolor="#000000"
     borderopacity="0.25"
     inkscape:showpageshadow="2"
     inkscape:pageopacity="0.0"
     inkscape:pagecheckerboard="0"
     inkscape:deskcolor="#d1d1d1"
     showgrid="false"
     inkscape:zoom="1.2409274"
     inkscape:cx="496"
     inkscape:cy="191.79204"
     inkscape:window-width="1920"
     inkscape:window-height="1009"
     inkscape:window-x="-8"
     inkscape:window-y="-8"
     inkscape:window-maximized="1"
     inkscape:current-layer="svg5828" />
  <defs
     id="defs5720">
    <clipPath
       id="clip0">
      <rect
         x="0"
         y="0"
         width="992"
         height="384"
         id="rect5717" />
    </clipPath>
  </defs>
  <g
     clip-path="url(#clip0)"
     id="g5826">
    <path
       id="rect5722"
       style="fill:#ffffff"
       d="M 0,0 H 992 V 384 H 0 Z" />
    <path
       id="rect5724"
       style="fill:#e9e9e9;stroke:#000000;stroke-width:1.33333;stroke-miterlimit:8"
       d="M 57.500099,37.500099 H 209.5001 V 118.5001 H 57.500099 Z" />
    <g
       aria-label="Operation1FW-specificdescritpion"
       transform="translate(98.7419 55)"
       id="text5732"
       style="font-size:15px;font-family:'IntelOne Display Regular', 'IntelOne Display Regular_MSFontService', sans-serif">
      <path
         d="m 0.555,-5.235 q 0,-2.325 1.545,-3.915 1.545,-1.59 3.81,-1.59 2.28,0 3.795,1.575 1.53,1.56 1.53,3.9 0,2.34 -1.545,3.93 -1.53,1.575 -3.795,1.575 -2.28,0 -3.81,-1.56 -1.53,-1.575 -1.53,-3.915 z m 1.32,-0.03 q 0,1.845 1.155,3.105 1.17,1.245 2.88,1.245 1.71,0 2.85,-1.23 1.155,-1.245 1.155,-3.09 0,-1.845 -1.155,-3.09 -1.155,-1.26 -2.865,-1.26 -1.725,0 -2.88,1.245 -1.14,1.23 -1.14,3.075 z"
         id="path5834" />
      <path
         d="m 13.799989,2.7 h -1.215 v -9.945 h 1.2 v 1.17 q 0.48,-0.63 1.185,-0.975 0.705,-0.36 1.5,-0.36 1.53,0 2.55,1.065 1.02,1.05 1.02,2.7 0,1.665 -1.065,2.745 -1.05,1.065 -2.595,1.065 -0.735,0 -1.425,-0.3 -0.675,-0.315 -1.155,-0.885 z m 2.535,-9.03 q -1.095,0 -1.845,0.795 -0.735,0.78 -0.735,1.95 0,1.155 0.72,1.92 0.735,0.765 1.815,0.765 1.11,0 1.8,-0.735 0.705,-0.75 0.705,-1.98 0,-1.215 -0.69,-1.965 -0.675,-0.75 -1.77,-0.75 z"
         id="path5836" />
      <path
         d="m 24.79498,-0.81 q 0.72,0 1.32,-0.3 0.615,-0.315 1.125,-0.945 l 0.735,0.675 q -0.615,0.81 -1.44,1.215 -0.825,0.39 -1.845,0.39 -1.635,0 -2.685,-1.065 -1.035,-1.08 -1.035,-2.76 0,-1.635 1.065,-2.73 1.065,-1.095 2.625,-1.095 1.59,0 2.58,1.035 0.99,1.035 0.99,2.7 0,0.12 -0.015,0.285 -0.015,0.15 -0.03,0.225 h -5.955 q 0.12,1.065 0.825,1.725 0.72,0.645 1.74,0.645 z m -0.12,-5.58 q -0.945,0 -1.62,0.615 -0.675,0.615 -0.825,1.65 h 4.77 q -0.135,-1.05 -0.765,-1.65 -0.63,-0.615 -1.56,-0.615 z"
         id="path5838" />
      <path
         d="m 29.459989,-7.245 h 1.2 v 0.915 q 0.33,-0.48 0.855,-0.72 0.525,-0.24 1.245,-0.24 h 0.66 v 1.155 h -0.675 q -1.035,0 -1.56,0.54 -0.51,0.54 -0.51,1.635 V 0 h -1.215 z"
         id="path5840" />
      <path
         d="m 40.33498,0 h -1.185 v -1.185 q -0.435,0.63 -1.185,0.99 -0.735,0.345 -1.59,0.345 -1.2,0 -1.95,-0.6 -0.75,-0.615 -0.75,-1.605 0,-1.095 0.84,-1.65 0.84,-0.57 2.49,-0.57 h 2.13 q -0.015,-1.02 -0.54,-1.575 -0.51,-0.555 -1.47,-0.555 -0.57,0 -1.125,0.24 -0.555,0.24 -1.095,0.735 l -0.645,-0.81 q 0.63,-0.6 1.38,-0.9 0.75,-0.315 1.605,-0.315 1.455,0 2.265,0.87 0.825,0.855 0.825,2.37 z m -1.2,-3.33 h -2.115 q -1.095,0 -1.62,0.3 -0.525,0.3 -0.525,0.945 0,0.54 0.45,0.9 0.465,0.36 1.185,0.36 1.08,0 1.815,-0.69 0.75,-0.705 0.81,-1.815 z"
         id="path5842" />
      <path
         d="m 42.164985,-1.935 v -4.23 h -0.99 v -1.08 h 0.99 v -2.22 h 1.215 v 2.22 h 1.68 v 1.08 h -1.68 v 4.125 q 0,0.48 0.21,0.72 0.225,0.225 0.675,0.225 h 0.795 V 0 h -0.975 q -1.005,0 -1.47,-0.465 -0.45,-0.465 -0.45,-1.47 z"
         id="path5844" />
      <path
         d="m 46.364987,-9.675 h 1.35 v 1.335 h -1.35 z m 0.06,9.675 v -7.245 h 1.23 V 0 Z"
         id="path5846" />
      <path
         d="m 56.594976,-3.615 q 0,1.635 -1.095,2.745 -1.095,1.095 -2.7,1.095 -1.605,0 -2.685,-1.095 -1.065,-1.095 -1.065,-2.73 0,-1.635 1.095,-2.73 1.095,-1.11 2.7,-1.11 1.605,0 2.67,1.095 1.08,1.095 1.08,2.73 z m -6.3,0.015 q 0,1.17 0.72,1.965 0.735,0.795 1.815,0.795 1.065,0 1.785,-0.795 0.735,-0.795 0.735,-1.98 0,-1.155 -0.735,-1.95 -0.735,-0.81 -1.8,-0.81 -1.065,0 -1.8,0.795 -0.72,0.795 -0.72,1.98 z"
         id="path5848" />
      <path
         d="m 57.854982,-7.245 h 1.2 v 1.125 q 0.435,-0.63 1.095,-0.96 0.675,-0.345 1.5,-0.345 1.44,0 2.25,0.93 0.81,0.93 0.81,2.55 V 0 h -1.215 v -3.87 q 0,-1.14 -0.57,-1.8 -0.555,-0.66 -1.56,-0.66 -1.035,0 -1.665,0.705 -0.63,0.705 -0.63,1.83 V 0 h -1.215 z"
         id="path5850" />
      <path
         d="m 67.43997,-9.36 h -1.62 v -1.14 h 2.88 V 0 h -1.26 z"
         id="path5852" />
      <path
         d="M -2.9450001,35 V 24.5 h 7.53 v 1.14 h -6.24 v 3.57 h 5.82 v 1.14 h -5.82 V 35 Z"
         id="path5854" />
      <path
         d="m 19.045006,24.5 -2.4,10.5 h -1.35 l -2.985,-8.655 L 9.3550056,35 h -1.35 l -2.385,-10.5 h 1.32 l 1.86,8.61 2.9100004,-8.61 h 1.245 l 2.91,8.625 1.845,-8.625 z"
         id="path5856" />
      <path
         d="m 19.99,31.265 v -1.17 h 3.915 v 1.17 z"
         id="path5858" />
      <path
         d="m 30.3767,32.885 q 0,1.02 -0.87,1.665 -0.87,0.645 -2.265,0.645 -0.915,0 -1.725,-0.285 -0.795,-0.3 -1.44,-0.885 l 0.63,-0.93 q 0.69,0.57 1.29,0.825 0.6,0.255 1.275,0.255 0.87,0 1.395,-0.33 0.54,-0.345 0.54,-0.885 0,-0.555 -0.45,-0.795 -0.45,-0.255 -1.485,-0.27 -1.515,-0.06 -2.22,-0.555 -0.69,-0.495 -0.69,-1.545 0,-0.96 0.795,-1.59 0.81,-0.645 2.07,-0.645 0.855,0 1.605,0.27 0.75,0.27 1.365,0.795 l -0.585,0.915 q -0.615,-0.495 -1.185,-0.72 -0.57,-0.225 -1.215,-0.225 -0.735,0 -1.215,0.33 -0.465,0.33 -0.465,0.81 0,0.525 0.42,0.765 0.42,0.24 1.335,0.285 1.635,0.045 2.355,0.54 0.735,0.495 0.735,1.56 z"
         id="path5860" />
      <path
         d="m 32.82171,37.7 h -1.215 v -9.945 h 1.2 v 1.17 q 0.48,-0.63 1.185,-0.975 0.705,-0.36 1.5,-0.36 1.53,0 2.55,1.065 1.02,1.05 1.02,2.7 0,1.665 -1.065,2.745 -1.05,1.065 -2.595,1.065 -0.735,0 -1.425,-0.3 -0.675,-0.315 -1.155,-0.885 z m 2.535,-9.03 q -1.095,0 -1.845,0.795 -0.735,0.78 -0.735,1.95 0,1.155 0.72,1.92 0.735,0.765 1.815,0.765 1.11,0 1.8,-0.735 0.705,-0.75 0.705,-1.98 0,-1.215 -0.69,-1.965 -0.675,-0.75 -1.77,-0.75 z"
         id="path5862" />
      <path
         d="m 43.816701,34.19 q 0.72,0 1.32,-0.3 0.615,-0.315 1.125,-0.945 l 0.735,0.675 q -0.615,0.81 -1.44,1.215 -0.825,0.39 -1.845,0.39 -1.635,0 -2.685,-1.065 -1.035,-1.08 -1.035,-2.76 0,-1.635 1.065,-2.73 1.065,-1.095 2.625,-1.095 1.59,0 2.58,1.035 0.99,1.035 0.99,2.7 0,0.12 -0.015,0.285 -0.015,0.15 -0.03,0.225 h -5.955 q 0.12,1.065 0.825,1.725 0.72,0.645 1.74,0.645 z m -0.12,-5.58 q -0.945,0 -1.62,0.615 -0.675,0.615 -0.825,1.65 h 4.77 q -0.135,-1.05 -0.765,-1.65 -0.63,-0.615 -1.56,-0.615 z"
         id="path5864" />
      <path
         d="m 51.90171,35.225 q -1.665,0 -2.715,-1.05 -1.035,-1.065 -1.035,-2.775 0,-1.62 1.095,-2.73 1.095,-1.11 2.685,-1.11 1.155,0 1.965,0.54 0.825,0.525 1.245,1.53 l -1.035,0.495 q -0.345,-0.75 -0.9,-1.125 -0.54,-0.375 -1.29,-0.375 -1.065,0 -1.8,0.81 -0.72,0.795 -0.72,1.965 0,1.185 0.72,1.98 0.735,0.78 1.83,0.78 0.705,0 1.305,-0.375 0.615,-0.39 0.99,-1.08 l 0.945,0.51 q -0.435,0.93 -1.305,1.47 -0.87,0.54 -1.98,0.54 z"
         id="path5866" />
      <path
         d="m 56.476709,25.325 h 1.35 v 1.335 h -1.35 z m 0.06,9.675 v -7.245 h 1.23 V 35 Z"
         id="path5868" />
      <path
         d="m 59.971697,28.835 h -0.99 v -1.08 h 0.99 V 26.39 q 0,-0.915 0.48,-1.395 0.495,-0.495 1.41,-0.495 h 0.99 v 1.02 h -0.81 q -0.42,0 -0.63,0.225 -0.21,0.225 -0.21,0.675 v 1.335 h 1.65 v 1.08 h -1.65 V 35 h -1.23 z m 3.915,-3.51 h 1.35 v 1.335 h -1.35 z m 0.06,9.675 v -7.245 h 1.23 V 35 Z"
         id="path5870" />
      <path
         d="m 70.321693,35.225 q -1.665,0 -2.715,-1.05 -1.035,-1.065 -1.035,-2.775 0,-1.62 1.095,-2.73 1.095,-1.11 2.685,-1.11 1.155,0 1.965,0.54 0.825,0.525 1.245,1.53 l -1.035,0.495 q -0.345,-0.75 -0.9,-1.125 -0.54,-0.375 -1.29,-0.375 -1.065,0 -1.8,0.81 -0.72,0.795 -0.72,1.965 0,1.185 0.72,1.98 0.735,0.78 1.83,0.78 0.705,0 1.305,-0.375 0.615,-0.39 0.99,-1.08 l 0.945,0.51 q -0.435,0.93 -1.305,1.47 -0.87,0.54 -1.98,0.54 z"
         id="path5872" />
      <path
         d="m 5.37166,42.5 h 1.23 V 53 h -1.215 v -1.17 q -0.495,0.63 -1.2,0.975 -0.69,0.345 -1.485,0.345 -1.515,0 -2.55000005,-1.05 -1.02,-1.065 -1.02,-2.7 0,-1.65 1.05,-2.73 Q 1.24666,45.575 2.79166,45.575 q 0.75,0 1.41,0.315 0.675,0.3 1.17,0.87 z m -2.535,9.585 q 1.095,0 1.83,-0.78 0.75,-0.795 0.75,-1.95 0,-1.17 -0.72,-1.935 -0.72,-0.765 -1.8,-0.765 -1.11,0 -1.815,0.75 -0.70500005,0.75 -0.70500005,1.965 0,1.215 0.69000005,1.965 0.69,0.75 1.77,0.75 z"
         id="path5874" />
      <path
         d="m 11.671651,52.19 q 0.72,0 1.32,-0.3 0.615,-0.315 1.125,-0.945 l 0.735,0.675 q -0.615,0.81 -1.44,1.215 -0.825,0.39 -1.845,0.39 -1.6350004,0 -2.6850004,-1.065 -1.035,-1.08 -1.035,-2.76 0,-1.635 1.065,-2.73 1.065,-1.095 2.6250004,-1.095 1.59,0 2.58,1.035 0.99,1.035 0.99,2.7 0,0.12 -0.015,0.285 -0.015,0.15 -0.03,0.225 H 9.1066506 q 0.12,1.065 0.825,1.725 0.7200004,0.645 1.7400004,0.645 z m -0.12,-5.58 q -0.945,0 -1.6200004,0.615 -0.675,0.615 -0.825,1.65 h 4.7700004 q -0.135,-1.05 -0.765,-1.65 -0.63,-0.615 -1.56,-0.615 z"
         id="path5876" />
      <path
         d="m 22.17166,50.885 q 0,1.02 -0.87,1.665 -0.87,0.645 -2.265,0.645 -0.915,0 -1.725,-0.285 -0.795,-0.3 -1.44,-0.885 l 0.63,-0.93 q 0.69,0.57 1.29,0.825 0.6,0.255 1.275,0.255 0.87,0 1.395,-0.33 0.54,-0.345 0.54,-0.885 0,-0.555 -0.45,-0.795 -0.45,-0.255 -1.485,-0.27 -1.515,-0.06 -2.22,-0.555 -0.69,-0.495 -0.69,-1.545 0,-0.96 0.795,-1.59 0.81,-0.645 2.07,-0.645 0.855,0 1.605,0.27 0.75,0.27 1.365,0.795 l -0.585,0.915 q -0.615,-0.495 -1.185,-0.72 -0.57,-0.225 -1.215,-0.225 -0.735,0 -1.215,0.33 -0.465,0.33 -0.465,0.81 0,0.525 0.42,0.765 0.42,0.24 1.335,0.285 1.635,0.045 2.355,0.54 0.735,0.495 0.735,1.56 z"
         id="path5878" />
      <path
         d="m 26.82167,53.225 q -1.665,0 -2.715,-1.05 -1.035,-1.065 -1.035,-2.775 0,-1.62 1.095,-2.73 1.095,-1.11 2.685,-1.11 1.155,0 1.965,0.54 0.825,0.525 1.245,1.53 l -1.035,0.495 q -0.345,-0.75 -0.9,-1.125 -0.54,-0.375 -1.29,-0.375 -1.065,0 -1.8,0.81 -0.72,0.795 -0.72,1.965 0,1.185 0.72,1.98 0.735,0.78 1.83,0.78 0.705,0 1.305,-0.375 0.615,-0.39 0.99,-1.08 l 0.945,0.51 q -0.435,0.93 -1.305,1.47 -0.87,0.54 -1.98,0.54 z"
         id="path5880" />
      <path
         d="m 31.321668,45.755 h 1.2 v 0.915 q 0.33,-0.48 0.855,-0.72 0.525,-0.24 1.245,-0.24 h 0.66 v 1.155 h -0.675 q -1.035,0 -1.56,0.54 -0.51,0.54 -0.51,1.635 V 53 h -1.215 z"
         id="path5882" />
      <path
         d="m 36.346665,43.325 h 1.35 v 1.335 h -1.35 z m 0.06,9.675 v -7.245 h 1.23 V 53 Z"
         id="path5884" />
      <path
         d="m 39.766658,51.065 v -4.23 h -0.99 v -1.08 h 0.99 v -2.22 h 1.215 v 2.22 h 1.68 v 1.08 h -1.68 v 4.125 q 0,0.48 0.21,0.72 0.225,0.225 0.675,0.225 h 0.795 V 53 h -0.975 q -1.005,0 -1.47,-0.465 -0.45,-0.465 -0.45,-1.47 z"
         id="path5886" />
      <path
         d="m 45.10666,55.7 h -1.215 v -9.945 h 1.2 v 1.17 q 0.48,-0.63 1.185,-0.975 0.705,-0.36 1.5,-0.36 1.53,0 2.55,1.065 1.02,1.05 1.02,2.7 0,1.665 -1.065,2.745 -1.05,1.065 -2.595,1.065 -0.735,0 -1.425,-0.3 -0.675,-0.315 -1.155,-0.885 z m 2.535,-9.03 q -1.095,0 -1.845,0.795 -0.735,0.78 -0.735,1.95 0,1.155 0.72,1.92 0.735,0.765 1.815,0.765 1.11,0 1.8,-0.735 0.705,-0.75 0.705,-1.98 0,-1.215 -0.69,-1.965 -0.675,-0.75 -1.77,-0.75 z"
         id="path5888" />
      <path
         d="m 52.681649,43.325 h 1.35 v 1.335 h -1.35 z m 0.06,9.675 v -7.245 h 1.23 V 53 Z"
         id="path5890" />
      <path
         d="m 62.911638,49.385 q 0,1.635 -1.095,2.745 -1.095,1.095 -2.7,1.095 -1.605,0 -2.685,-1.095 -1.065,-1.095 -1.065,-2.73 0,-1.635 1.095,-2.73 1.095,-1.11 2.7,-1.11 1.605,0 2.67,1.095 1.08,1.095 1.08,2.73 z m -6.3,0.015 q 0,1.17 0.72,1.965 0.735,0.795 1.815,0.795 1.065,0 1.785,-0.795 0.735,-0.795 0.735,-1.98 0,-1.155 -0.735,-1.95 -0.735,-0.81 -1.8,-0.81 -1.065,0 -1.8,0.795 -0.72,0.795 -0.72,1.98 z"
         id="path5892" />
      <path
         d="m 64.171651,45.755 h 1.2 v 1.125 q 0.435,-0.63 1.095,-0.96 0.675,-0.345 1.5,-0.345 1.44,0 2.25,0.93 0.81,0.93 0.81,2.55 V 53 h -1.215 v -3.87 q 0,-1.14 -0.57,-1.8 -0.555,-0.66 -1.56,-0.66 -1.035,0 -1.665,0.705 -0.63,0.705 -0.63,1.83 V 53 h -1.215 z"
         id="path5894" />
    </g>
    <path
       id="rect5734"
       style="fill:#e9e9e9;stroke:#000000;stroke-width:1.33333;stroke-miterlimit:8"
       d="m 310.5,37.500099 h 152 V 118.5001 h -152 z" />
    <g
       aria-label="Operation2FW-specificdescription"
       transform="translate(349.821 55)"
       id="text5742"
       style="font-size:15px;font-family:'IntelOne Display Regular', 'IntelOne Display Regular_MSFontService', sans-serif">
      <path
         d="m 0.555,-5.235 q 0,-2.325 1.545,-3.915 1.545,-1.59 3.81,-1.59 2.28,0 3.795,1.575 1.53,1.56 1.53,3.9 0,2.34 -1.545,3.93 -1.53,1.575 -3.795,1.575 -2.28,0 -3.81,-1.56 -1.53,-1.575 -1.53,-3.915 z m 1.32,-0.03 q 0,1.845 1.155,3.105 1.17,1.245 2.88,1.245 1.71,0 2.85,-1.23 1.155,-1.245 1.155,-3.09 0,-1.845 -1.155,-3.09 -1.155,-1.26 -2.865,-1.26 -1.725,0 -2.88,1.245 -1.14,1.23 -1.14,3.075 z"
         id="path5898" />
      <path
         d="m 13.799989,2.7 h -1.215 v -9.945 h 1.2 v 1.17 q 0.48,-0.63 1.185,-0.975 0.705,-0.36 1.5,-0.36 1.53,0 2.55,1.065 1.02,1.05 1.02,2.7 0,1.665 -1.065,2.745 -1.05,1.065 -2.595,1.065 -0.735,0 -1.425,-0.3 -0.675,-0.315 -1.155,-0.885 z m 2.535,-9.03 q -1.095,0 -1.845,0.795 -0.735,0.78 -0.735,1.95 0,1.155 0.72,1.92 0.735,0.765 1.815,0.765 1.11,0 1.8,-0.735 0.705,-0.75 0.705,-1.98 0,-1.215 -0.69,-1.965 -0.675,-0.75 -1.77,-0.75 z"
         id="path5900" />
      <path
         d="m 24.79498,-0.81 q 0.72,0 1.32,-0.3 0.615,-0.315 1.125,-0.945 l 0.735,0.675 q -0.615,0.81 -1.44,1.215 -0.825,0.39 -1.845,0.39 -1.635,0 -2.685,-1.065 -1.035,-1.08 -1.035,-2.76 0,-1.635 1.065,-2.73 1.065,-1.095 2.625,-1.095 1.59,0 2.58,1.035 0.99,1.035 0.99,2.7 0,0.12 -0.015,0.285 -0.015,0.15 -0.03,0.225 h -5.955 q 0.12,1.065 0.825,1.725 0.72,0.645 1.74,0.645 z m -0.12,-5.58 q -0.945,0 -1.62,0.615 -0.675,0.615 -0.825,1.65 h 4.77 q -0.135,-1.05 -0.765,-1.65 -0.63,-0.615 -1.56,-0.615 z"
         id="path5902" />
      <path
         d="m 29.459989,-7.245 h 1.2 v 0.915 q 0.33,-0.48 0.855,-0.72 0.525,-0.24 1.245,-0.24 h 0.66 v 1.155 h -0.675 q -1.035,0 -1.56,0.54 -0.51,0.54 -0.51,1.635 V 0 h -1.215 z"
         id="path5904" />
      <path
         d="m 40.33498,0 h -1.185 v -1.185 q -0.435,0.63 -1.185,0.99 -0.735,0.345 -1.59,0.345 -1.2,0 -1.95,-0.6 -0.75,-0.615 -0.75,-1.605 0,-1.095 0.84,-1.65 0.84,-0.57 2.49,-0.57 h 2.13 q -0.015,-1.02 -0.54,-1.575 -0.51,-0.555 -1.47,-0.555 -0.57,0 -1.125,0.24 -0.555,0.24 -1.095,0.735 l -0.645,-0.81 q 0.63,-0.6 1.38,-0.9 0.75,-0.315 1.605,-0.315 1.455,0 2.265,0.87 0.825,0.855 0.825,2.37 z m -1.2,-3.33 h -2.115 q -1.095,0 -1.62,0.3 -0.525,0.3 -0.525,0.945 0,0.54 0.45,0.9 0.465,0.36 1.185,0.36 1.08,0 1.815,-0.69 0.75,-0.705 0.81,-1.815 z"
         id="path5906" />
      <path
         d="m 42.164985,-1.935 v -4.23 h -0.99 v -1.08 h 0.99 v -2.22 h 1.215 v 2.22 h 1.68 v 1.08 h -1.68 v 4.125 q 0,0.48 0.21,0.72 0.225,0.225 0.675,0.225 h 0.795 V 0 h -0.975 q -1.005,0 -1.47,-0.465 -0.45,-0.465 -0.45,-1.47 z"
         id="path5908" />
      <path
         d="m 46.364987,-9.675 h 1.35 v 1.335 h -1.35 z m 0.06,9.675 v -7.245 h 1.23 V 0 Z"
         id="path5910" />
      <path
         d="m 56.594976,-3.615 q 0,1.635 -1.095,2.745 -1.095,1.095 -2.7,1.095 -1.605,0 -2.685,-1.095 -1.065,-1.095 -1.065,-2.73 0,-1.635 1.095,-2.73 1.095,-1.11 2.7,-1.11 1.605,0 2.67,1.095 1.08,1.095 1.08,2.73 z m -6.3,0.015 q 0,1.17 0.72,1.965 0.735,0.795 1.815,0.795 1.065,0 1.785,-0.795 0.735,-0.795 0.735,-1.98 0,-1.155 -0.735,-1.95 -0.735,-0.81 -1.8,-0.81 -1.065,0 -1.8,0.795 -0.72,0.795 -0.72,1.98 z"
         id="path5912" />
      <path
         d="m 57.854982,-7.245 h 1.2 v 1.125 q 0.435,-0.63 1.095,-0.96 0.675,-0.345 1.5,-0.345 1.44,0 2.25,0.93 0.81,0.93 0.81,2.55 V 0 h -1.215 v -3.87 q 0,-1.14 -0.57,-1.8 -0.555,-0.66 -1.56,-0.66 -1.035,0 -1.665,0.705 -0.63,0.705 -0.63,1.83 V 0 h -1.215 z"
         id="path5914" />
      <path
         d="m 73.46997,0 h -7.485 v -1.05 l 3.63,-3.33 q 1.29,-1.17 1.755,-1.86 0.465,-0.69 0.465,-1.47 0,-0.825 -0.615,-1.35 -0.6,-0.54 -1.5,-0.54 -1.11,0 -1.755,0.69 -0.63,0.675 -0.675,1.905 h -1.23 q 0.03,-1.71 1.02,-2.715 1.005,-1.02 2.67,-1.02 1.47,0 2.415,0.855 0.96,0.84 0.96,2.145 0,1.05 -0.585,1.95 -0.57,0.885 -2.175,2.295 l -2.655,2.37 h 5.76 z"
         id="path5916" />
      <path
         d="M -0.94498005,35 V 24.5 H 6.58502 v 1.14 H 0.34501995 v 3.57 H 6.16502 v 1.14 H 0.34501995 V 35 Z"
         id="path5918" />
      <path
         d="m 21.045026,24.5 -2.4,10.5 h -1.35 l -2.985,-8.655 -2.955,8.655 h -1.35 L 7.6200257,24.5 h 1.32 l 1.8600003,8.61 2.91,-8.61 h 1.245 l 2.91,8.625 1.845,-8.625 z"
         id="path5920" />
      <path
         d="m 21.99002,31.265 v -1.17 h 3.915 v 1.17 z"
         id="path5922" />
      <path
         d="m 32.3767,32.885 q 0,1.02 -0.87,1.665 -0.87,0.645 -2.265,0.645 -0.915,0 -1.725,-0.285 -0.795,-0.3 -1.44,-0.885 l 0.63,-0.93 q 0.69,0.57 1.29,0.825 0.6,0.255 1.275,0.255 0.87,0 1.395,-0.33 0.54,-0.345 0.54,-0.885 0,-0.555 -0.45,-0.795 -0.45,-0.255 -1.485,-0.27 -1.515,-0.06 -2.22,-0.555 -0.69,-0.495 -0.69,-1.545 0,-0.96 0.795,-1.59 0.81,-0.645 2.07,-0.645 0.855,0 1.605,0.27 0.75,0.27 1.365,0.795 l -0.585,0.915 q -0.615,-0.495 -1.185,-0.72 -0.57,-0.225 -1.215,-0.225 -0.735,0 -1.215,0.33 -0.465,0.33 -0.465,0.81 0,0.525 0.42,0.765 0.42,0.24 1.335,0.285 1.635,0.045 2.355,0.54 0.735,0.495 0.735,1.56 z"
         id="path5924" />
      <path
         d="m 34.82171,37.7 h -1.215 v -9.945 h 1.2 v 1.17 q 0.48,-0.63 1.185,-0.975 0.705,-0.36 1.5,-0.36 1.53,0 2.55,1.065 1.02,1.05 1.02,2.7 0,1.665 -1.065,2.745 -1.05,1.065 -2.595,1.065 -0.735,0 -1.425,-0.3 -0.675,-0.315 -1.155,-0.885 z m 2.535,-9.03 q -1.095,0 -1.845,0.795 -0.735,0.78 -0.735,1.95 0,1.155 0.72,1.92 0.735,0.765 1.815,0.765 1.11,0 1.8,-0.735 0.705,-0.75 0.705,-1.98 0,-1.215 -0.69,-1.965 -0.675,-0.75 -1.77,-0.75 z"
         id="path5926" />
      <path
         d="m 45.816701,34.19 q 0.72,0 1.32,-0.3 0.615,-0.315 1.125,-0.945 l 0.735,0.675 q -0.615,0.81 -1.44,1.215 -0.825,0.39 -1.845,0.39 -1.635,0 -2.685,-1.065 -1.035,-1.08 -1.035,-2.76 0,-1.635 1.065,-2.73 1.065,-1.095 2.625,-1.095 1.59,0 2.58,1.035 0.99,1.035 0.99,2.7 0,0.12 -0.015,0.285 -0.015,0.15 -0.03,0.225 h -5.955 q 0.12,1.065 0.825,1.725 0.72,0.645 1.74,0.645 z m -0.12,-5.58 q -0.945,0 -1.62,0.615 -0.675,0.615 -0.825,1.65 h 4.77 q -0.135,-1.05 -0.765,-1.65 -0.63,-0.615 -1.56,-0.615 z"
         id="path5928" />
      <path
         d="m 53.90171,35.225 q -1.665,0 -2.715,-1.05 -1.035,-1.065 -1.035,-2.775 0,-1.62 1.095,-2.73 1.095,-1.11 2.685,-1.11 1.155,0 1.965,0.54 0.825,0.525 1.245,1.53 l -1.035,0.495 q -0.345,-0.75 -0.9,-1.125 -0.54,-0.375 -1.29,-0.375 -1.065,0 -1.8,0.81 -0.72,0.795 -0.72,1.965 0,1.185 0.72,1.98 0.735,0.78 1.83,0.78 0.705,0 1.305,-0.375 0.615,-0.39 0.99,-1.08 l 0.945,0.51 q -0.435,0.93 -1.305,1.47 -0.87,0.54 -1.98,0.54 z"
         id="path5930" />
      <path
         d="m 58.476709,25.325 h 1.35 v 1.335 h -1.35 z m 0.06,9.675 v -7.245 h 1.23 V 35 Z"
         id="path5932" />
      <path
         d="m 61.971697,28.835 h -0.99 v -1.08 h 0.99 V 26.39 q 0,-0.915 0.48,-1.395 0.495,-0.495 1.41,-0.495 h 0.99 v 1.02 h -0.81 q -0.42,0 -0.63,0.225 -0.21,0.225 -0.21,0.675 v 1.335 h 1.65 v 1.08 h -1.65 V 35 h -1.23 z m 3.915,-3.51 h 1.35 v 1.335 h -1.35 z m 0.06,9.675 v -7.245 h 1.23 V 35 Z"
         id="path5934" />
      <path
         d="m 72.321693,35.225 q -1.665,0 -2.715,-1.05 -1.035,-1.065 -1.035,-2.775 0,-1.62 1.095,-2.73 1.095,-1.11 2.685,-1.11 1.155,0 1.965,0.54 0.825,0.525 1.245,1.53 l -1.035,0.495 q -0.345,-0.75 -0.9,-1.125 -0.54,-0.375 -1.29,-0.375 -1.065,0 -1.8,0.81 -0.72,0.795 -0.72,1.965 0,1.185 0.72,1.98 0.735,0.78 1.83,0.78 0.705,0 1.305,-0.375 0.615,-0.39 0.99,-1.08 l 0.945,0.51 q -0.435,0.93 -1.305,1.47 -0.87,0.54 -1.98,0.54 z"
         id="path5936" />
      <path
         d="m 7.371687,42.5 h 1.23 V 53 h -1.215 v -1.17 q -0.495,0.63 -1.2,0.975 -0.69,0.345 -1.485,0.345 -1.515,0 -2.55,-1.05 -1.02,-1.065 -1.02,-2.7 0,-1.65 1.05,-2.73 1.065,-1.095 2.61,-1.095 0.75,0 1.41,0.315 0.675,0.3 1.17,0.87 z m -2.535,9.585 q 1.095,0 1.83,-0.78 0.75,-0.795 0.75,-1.95 0,-1.17 -0.72,-1.935 -0.72,-0.765 -1.8,-0.765 -1.11,0 -1.815,0.75 -0.705,0.75 -0.705,1.965 0,1.215 0.69,1.965 0.69,0.75 1.77,0.75 z"
         id="path5938" />
      <path
         d="m 13.671678,52.19 q 0.72,0 1.32,-0.3 0.615,-0.315 1.125,-0.945 l 0.735,0.675 q -0.615,0.81 -1.44,1.215 -0.825,0.39 -1.845,0.39 -1.635,0 -2.685,-1.065 -1.0350004,-1.08 -1.0350004,-2.76 0,-1.635 1.0650004,-2.73 1.065,-1.095 2.625,-1.095 1.59,0 2.58,1.035 0.99,1.035 0.99,2.7 0,0.12 -0.015,0.285 -0.015,0.15 -0.03,0.225 h -5.955 q 0.12,1.065 0.825,1.725 0.72,0.645 1.74,0.645 z m -0.12,-5.58 q -0.945,0 -1.62,0.615 -0.675,0.615 -0.825,1.65 h 4.77 q -0.135,-1.05 -0.765,-1.65 -0.63,-0.615 -1.56,-0.615 z"
         id="path5940" />
      <path
         d="m 24.171687,50.885 q 0,1.02 -0.87,1.665 -0.87,0.645 -2.265,0.645 -0.915,0 -1.725,-0.285 -0.795,-0.3 -1.44,-0.885 l 0.63,-0.93 q 0.69,0.57 1.29,0.825 0.6,0.255 1.275,0.255 0.87,0 1.395,-0.33 0.54,-0.345 0.54,-0.885 0,-0.555 -0.45,-0.795 -0.45,-0.255 -1.485,-0.27 -1.515,-0.06 -2.22,-0.555 -0.69,-0.495 -0.69,-1.545 0,-0.96 0.795,-1.59 0.81,-0.645 2.07,-0.645 0.855,0 1.605,0.27 0.75,0.27 1.365,0.795 l -0.585,0.915 q -0.615,-0.495 -1.185,-0.72 -0.57,-0.225 -1.215,-0.225 -0.735,0 -1.215,0.33 -0.465,0.33 -0.465,0.81 0,0.525 0.42,0.765 0.42,0.24 1.335,0.285 1.635,0.045 2.355,0.54 0.735,0.495 0.735,1.56 z"
         id="path5942" />
      <path
         d="m 28.821697,53.225 q -1.665,0 -2.715,-1.05 -1.035,-1.065 -1.035,-2.775 0,-1.62 1.095,-2.73 1.095,-1.11 2.685,-1.11 1.155,0 1.965,0.54 0.825,0.525 1.245,1.53 l -1.035,0.495 q -0.345,-0.75 -0.9,-1.125 -0.54,-0.375 -1.29,-0.375 -1.065,0 -1.8,0.81 -0.72,0.795 -0.72,1.965 0,1.185 0.72,1.98 0.735,0.78 1.83,0.78 0.705,0 1.305,-0.375 0.615,-0.39 0.99,-1.08 l 0.945,0.51 q -0.435,0.93 -1.305,1.47 -0.87,0.54 -1.98,0.54 z"
         id="path5944" />
      <path
         d="m 33.321695,45.755 h 1.2 v 0.915 q 0.33,-0.48 0.855,-0.72 0.525,-0.24 1.245,-0.24 h 0.66 v 1.155 h -0.675 q -1.035,0 -1.56,0.54 -0.51,0.54 -0.51,1.635 V 53 h -1.215 z"
         id="path5946" />
      <path
         d="m 38.346692,43.325 h 1.35 v 1.335 h -1.35 z m 0.06,9.675 v -7.245 h 1.23 V 53 Z"
         id="path5948" />
      <path
         d="m 42.576685,55.7 h -1.215 v -9.945 h 1.2 v 1.17 q 0.48,-0.63 1.185,-0.975 0.705,-0.36 1.5,-0.36 1.53,0 2.55,1.065 1.02,1.05 1.02,2.7 0,1.665 -1.065,2.745 -1.05,1.065 -2.595,1.065 -0.735,0 -1.425,-0.3 -0.675,-0.315 -1.155,-0.885 z m 2.535,-9.03 q -1.095,0 -1.845,0.795 -0.735,0.78 -0.735,1.95 0,1.155 0.72,1.92 0.735,0.765 1.815,0.765 1.11,0 1.8,-0.735 0.705,-0.75 0.705,-1.98 0,-1.215 -0.69,-1.965 -0.675,-0.75 -1.77,-0.75 z"
         id="path5950" />
      <path
         d="m 50.406688,51.065 v -4.23 h -0.99 v -1.08 h 0.99 v -2.22 h 1.215 v 2.22 h 1.68 v 1.08 h -1.68 v 4.125 q 0,0.48 0.21,0.72 0.225,0.225 0.675,0.225 h 0.795 V 53 h -0.975 q -1.005,0 -1.47,-0.465 -0.45,-0.465 -0.45,-1.47 z"
         id="path5952" />
      <path
         d="m 54.606687,43.325 h 1.35 v 1.335 h -1.35 z m 0.06,9.675 v -7.245 h 1.23 V 53 Z"
         id="path5954" />
      <path
         d="m 64.836679,49.385 q 0,1.635 -1.095,2.745 -1.095,1.095 -2.7,1.095 -1.605,0 -2.685,-1.095 -1.065,-1.095 -1.065,-2.73 0,-1.635 1.095,-2.73 1.095,-1.11 2.7,-1.11 1.605,0 2.67,1.095 1.08,1.095 1.08,2.73 z m -6.3,0.015 q 0,1.17 0.72,1.965 0.735,0.795 1.815,0.795 1.065,0 1.785,-0.795 0.735,-0.795 0.735,-1.98 0,-1.155 -0.735,-1.95 -0.735,-0.81 -1.8,-0.81 -1.065,0 -1.8,0.795 -0.72,0.795 -0.72,1.98 z"
         id="path5956" />
      <path
         d="m 66.096689,45.755 h 1.2 v 1.125 q 0.435,-0.63 1.095,-0.96 0.675,-0.345 1.5,-0.345 1.44,0 2.25,0.93 0.81,0.93 0.81,2.55 V 53 h -1.215 v -3.87 q 0,-1.14 -0.57,-1.8 -0.555,-0.66 -1.56,-0.66 -1.035,0 -1.665,0.705 -0.63,0.705 -0.63,1.83 V 53 h -1.215 z"
         id="path5958" />
    </g>
    <path
       id="rect5744"
       style="fill:#e9e9e9;stroke:#000000;stroke-width:1.33333;stroke-miterlimit:8"
       d="m 828.5,37.500099 h 153 V 118.5001 h -153 z" />
    <g
       aria-label="Operation3FW-specificdescription"
       transform="translate(868.161 55)"
       id="text5752"
       style="font-size:15px;font-family:'IntelOne Display Regular', 'IntelOne Display Regular_MSFontService', sans-serif">
      <path
         d="m 0.555,-5.235 q 0,-2.325 1.545,-3.915 1.545,-1.59 3.81,-1.59 2.28,0 3.795,1.575 1.53,1.56 1.53,3.9 0,2.34 -1.545,3.93 -1.53,1.575 -3.795,1.575 -2.28,0 -3.81,-1.56 -1.53,-1.575 -1.53,-3.915 z m 1.32,-0.03 q 0,1.845 1.155,3.105 1.17,1.245 2.88,1.245 1.71,0 2.85,-1.23 1.155,-1.245 1.155,-3.09 0,-1.845 -1.155,-3.09 -1.155,-1.26 -2.865,-1.26 -1.725,0 -2.88,1.245 -1.14,1.23 -1.14,3.075 z"
         id="path5962" />
      <path
         d="m 13.799989,2.7 h -1.215 v -9.945 h 1.2 v 1.17 q 0.48,-0.63 1.185,-0.975 0.705,-0.36 1.5,-0.36 1.53,0 2.55,1.065 1.02,1.05 1.02,2.7 0,1.665 -1.065,2.745 -1.05,1.065 -2.595,1.065 -0.735,0 -1.425,-0.3 -0.675,-0.315 -1.155,-0.885 z m 2.535,-9.03 q -1.095,0 -1.845,0.795 -0.735,0.78 -0.735,1.95 0,1.155 0.72,1.92 0.735,0.765 1.815,0.765 1.11,0 1.8,-0.735 0.705,-0.75 0.705,-1.98 0,-1.215 -0.69,-1.965 -0.675,-0.75 -1.77,-0.75 z"
         id="path5964" />
      <path
         d="m 24.79498,-0.81 q 0.72,0 1.32,-0.3 0.615,-0.315 1.125,-0.945 l 0.735,0.675 q -0.615,0.81 -1.44,1.215 -0.825,0.39 -1.845,0.39 -1.635,0 -2.685,-1.065 -1.035,-1.08 -1.035,-2.76 0,-1.635 1.065,-2.73 1.065,-1.095 2.625,-1.095 1.59,0 2.58,1.035 0.99,1.035 0.99,2.7 0,0.12 -0.015,0.285 -0.015,0.15 -0.03,0.225 h -5.955 q 0.12,1.065 0.825,1.725 0.72,0.645 1.74,0.645 z m -0.12,-5.58 q -0.945,0 -1.62,0.615 -0.675,0.615 -0.825,1.65 h 4.77 q -0.135,-1.05 -0.765,-1.65 -0.63,-0.615 -1.56,-0.615 z"
         id="path5966" />
      <path
         d="m 29.459989,-7.245 h 1.2 v 0.915 q 0.33,-0.48 0.855,-0.72 0.525,-0.24 1.245,-0.24 h 0.66 v 1.155 h -0.675 q -1.035,0 -1.56,0.54 -0.51,0.54 -0.51,1.635 V 0 h -1.215 z"
         id="path5968" />
      <path
         d="m 40.33498,0 h -1.185 v -1.185 q -0.435,0.63 -1.185,0.99 -0.735,0.345 -1.59,0.345 -1.2,0 -1.95,-0.6 -0.75,-0.615 -0.75,-1.605 0,-1.095 0.84,-1.65 0.84,-0.57 2.49,-0.57 h 2.13 q -0.015,-1.02 -0.54,-1.575 -0.51,-0.555 -1.47,-0.555 -0.57,0 -1.125,0.24 -0.555,0.24 -1.095,0.735 l -0.645,-0.81 q 0.63,-0.6 1.38,-0.9 0.75,-0.315 1.605,-0.315 1.455,0 2.265,0.87 0.825,0.855 0.825,2.37 z m -1.2,-3.33 h -2.115 q -1.095,0 -1.62,0.3 -0.525,0.3 -0.525,0.945 0,0.54 0.45,0.9 0.465,0.36 1.185,0.36 1.08,0 1.815,-0.69 0.75,-0.705 0.81,-1.815 z"
         id="path5970" />
      <path
         d="m 42.164985,-1.935 v -4.23 h -0.99 v -1.08 h 0.99 v -2.22 h 1.215 v 2.22 h 1.68 v 1.08 h -1.68 v 4.125 q 0,0.48 0.21,0.72 0.225,0.225 0.675,0.225 h 0.795 V 0 h -0.975 q -1.005,0 -1.47,-0.465 -0.45,-0.465 -0.45,-1.47 z"
         id="path5972" />
      <path
         d="m 46.364987,-9.675 h 1.35 v 1.335 h -1.35 z m 0.06,9.675 v -7.245 h 1.23 V 0 Z"
         id="path5974" />
      <path
         d="m 56.594976,-3.615 q 0,1.635 -1.095,2.745 -1.095,1.095 -2.7,1.095 -1.605,0 -2.685,-1.095 -1.065,-1.095 -1.065,-2.73 0,-1.635 1.095,-2.73 1.095,-1.11 2.7,-1.11 1.605,0 2.67,1.095 1.08,1.095 1.08,2.73 z m -6.3,0.015 q 0,1.17 0.72,1.965 0.735,0.795 1.815,0.795 1.065,0 1.785,-0.795 0.735,-0.795 0.735,-1.98 0,-1.155 -0.735,-1.95 -0.735,-0.81 -1.8,-0.81 -1.065,0 -1.8,0.795 -0.72,0.795 -0.72,1.98 z"
         id="path5976" />
      <path
         d="m 57.854982,-7.245 h 1.2 v 1.125 q 0.435,-0.63 1.095,-0.96 0.675,-0.345 1.5,-0.345 1.44,0 2.25,0.93 0.81,0.93 0.81,2.55 V 0 h -1.215 v -3.87 q 0,-1.14 -0.57,-1.8 -0.555,-0.66 -1.56,-0.66 -1.035,0 -1.665,0.705 -0.63,0.705 -0.63,1.83 V 0 h -1.215 z"
         id="path5978" />
      <path
         d="m 69.77997,-0.9 q 1.065,0 1.77,-0.585 0.72,-0.6 0.72,-1.485 0,-0.93 -0.735,-1.47 -0.72,-0.54 -2.01,-0.54 h -0.66 v -1.065 h 0.63 q 1.185,0 1.875,-0.51 0.69,-0.525 0.69,-1.335 0,-0.75 -0.63,-1.23 -0.63,-0.48 -1.65,-0.48 -1.08,0 -1.725,0.585 -0.63,0.57 -0.705,1.575 h -1.23 q 0.045,-1.41 1.065,-2.355 1.035,-0.945 2.655,-0.945 1.545,0 2.52,0.795 0.99,0.78 0.99,1.95 0,0.87 -0.51,1.515 -0.495,0.645 -1.44,0.975 1.08,0.3 1.62,0.945 0.54,0.645 0.54,1.65 0,1.335 -1.08,2.25 -1.08,0.9 -2.73,0.9 -1.755,0 -2.79,-0.945 -1.02,-0.96 -1.035,-2.625 h 1.215 q 0.06,1.17 0.735,1.8 0.69,0.63 1.905,0.63 z"
         id="path5980" />
      <path
         d="M -0.85836997,35 V 24.5 H 6.67163 v 1.14 H 0.43163003 v 3.57 H 6.25163 v 1.14 H 0.43163003 V 35 Z"
         id="path5982" />
      <path
         d="m 21.131636,24.5 -2.4,10.5 h -1.35 l -2.985,-8.655 -2.955,8.655 h -1.35 L 7.7066358,24.5 h 1.32 l 1.8600002,8.61 2.91,-8.61 h 1.245 l 2.91,8.625 1.845,-8.625 z"
         id="path5984" />
      <path
         d="m 22.07663,31.265 v -1.17 h 3.915 v 1.17 z"
         id="path5986" />
      <path
         d="m 32.4633,32.885 q 0,1.02 -0.87,1.665 -0.87,0.645 -2.265,0.645 -0.915,0 -1.725,-0.285 -0.795,-0.3 -1.44,-0.885 l 0.63,-0.93 q 0.69,0.57 1.29,0.825 0.6,0.255 1.275,0.255 0.87,0 1.395,-0.33 0.54,-0.345 0.54,-0.885 0,-0.555 -0.45,-0.795 -0.45,-0.255 -1.485,-0.27 -1.515,-0.06 -2.22,-0.555 -0.69,-0.495 -0.69,-1.545 0,-0.96 0.795,-1.59 0.81,-0.645 2.07,-0.645 0.855,0 1.605,0.27 0.75,0.27 1.365,0.795 l -0.585,0.915 q -0.615,-0.495 -1.185,-0.72 -0.57,-0.225 -1.215,-0.225 -0.735,0 -1.215,0.33 -0.465,0.33 -0.465,0.81 0,0.525 0.42,0.765 0.42,0.24 1.335,0.285 1.635,0.045 2.355,0.54 0.735,0.495 0.735,1.56 z"
         id="path5988" />
      <path
         d="m 34.90831,37.7 h -1.215 v -9.945 h 1.2 v 1.17 q 0.48,-0.63 1.185,-0.975 0.705,-0.36 1.5,-0.36 1.53,0 2.55,1.065 1.02,1.05 1.02,2.7 0,1.665 -1.065,2.745 -1.05,1.065 -2.595,1.065 -0.735,0 -1.425,-0.3 -0.675,-0.315 -1.155,-0.885 z m 2.535,-9.03 q -1.095,0 -1.845,0.795 -0.735,0.78 -0.735,1.95 0,1.155 0.72,1.92 0.735,0.765 1.815,0.765 1.11,0 1.8,-0.735 0.705,-0.75 0.705,-1.98 0,-1.215 -0.69,-1.965 -0.675,-0.75 -1.77,-0.75 z"
         id="path5990" />
      <path
         d="m 45.9033,34.19 q 0.72,0 1.32,-0.3 0.615,-0.315 1.125,-0.945 l 0.735,0.675 q -0.615,0.81 -1.44,1.215 -0.825,0.39 -1.845,0.39 -1.635,0 -2.685,-1.065 -1.035,-1.08 -1.035,-2.76 0,-1.635 1.065,-2.73 1.065,-1.095 2.625,-1.095 1.59,0 2.58,1.035 0.99,1.035 0.99,2.7 0,0.12 -0.015,0.285 -0.015,0.15 -0.03,0.225 h -5.955 q 0.12,1.065 0.825,1.725 0.72,0.645 1.74,0.645 z m -0.12,-5.58 q -0.945,0 -1.62,0.615 -0.675,0.615 -0.825,1.65 h 4.77 q -0.135,-1.05 -0.765,-1.65 -0.63,-0.615 -1.56,-0.615 z"
         id="path5992" />
      <path
         d="m 53.98831,35.225 q -1.665,0 -2.715,-1.05 -1.035,-1.065 -1.035,-2.775 0,-1.62 1.095,-2.73 1.095,-1.11 2.685,-1.11 1.155,0 1.965,0.54 0.825,0.525 1.245,1.53 l -1.035,0.495 q -0.345,-0.75 -0.9,-1.125 -0.54,-0.375 -1.29,-0.375 -1.065,0 -1.8,0.81 -0.72,0.795 -0.72,1.965 0,1.185 0.72,1.98 0.735,0.78 1.83,0.78 0.705,0 1.305,-0.375 0.615,-0.39 0.99,-1.08 l 0.945,0.51 q -0.435,0.93 -1.305,1.47 -0.87,0.54 -1.98,0.54 z"
         id="path5994" />
      <path
         d="m 58.563308,25.325 h 1.35 v 1.335 h -1.35 z m 0.06,9.675 v -7.245 h 1.23 V 35 Z"
         id="path5996" />
      <path
         d="m 62.058297,28.835 h -0.99 v -1.08 h 0.99 V 26.39 q 0,-0.915 0.48,-1.395 0.495,-0.495 1.41,-0.495 h 0.99 v 1.02 h -0.81 q -0.42,0 -0.63,0.225 -0.21,0.225 -0.21,0.675 v 1.335 h 1.65 v 1.08 h -1.65 V 35 h -1.23 z m 3.915,-3.51 h 1.35 v 1.335 h -1.35 z m 0.06,9.675 v -7.245 h 1.23 V 35 Z"
         id="path5998" />
      <path
         d="m 72.408293,35.225 q -1.665,0 -2.715,-1.05 -1.035,-1.065 -1.035,-2.775 0,-1.62 1.095,-2.73 1.095,-1.11 2.685,-1.11 1.155,0 1.965,0.54 0.825,0.525 1.245,1.53 l -1.035,0.495 q -0.345,-0.75 -0.9,-1.125 -0.54,-0.375 -1.29,-0.375 -1.065,0 -1.8,0.81 -0.72,0.795 -0.72,1.965 0,1.185 0.72,1.98 0.735,0.78 1.83,0.78 0.705,0 1.305,-0.375 0.615,-0.39 0.99,-1.08 l 0.945,0.51 q -0.435,0.93 -1.305,1.47 -0.87,0.54 -1.98,0.54 z"
         id="path6000" />
      <path
         d="m 7.458296,42.5 h 1.23 V 53 h -1.215 v -1.17 q -0.495,0.63 -1.2,0.975 -0.69,0.345 -1.485,0.345 -1.515,0 -2.55,-1.05 -1.02,-1.065 -1.02,-2.7 0,-1.65 1.05,-2.73 1.065,-1.095 2.61,-1.095 0.75,0 1.41,0.315 0.675,0.3 1.17,0.87 z m -2.535,9.585 q 1.095,0 1.83,-0.78 0.75,-0.795 0.75,-1.95 0,-1.17 -0.72,-1.935 -0.72,-0.765 -1.8,-0.765 -1.11,0 -1.815,0.75 -0.705,0.75 -0.705,1.965 0,1.215 0.69,1.965 0.69,0.75 1.77,0.75 z"
         id="path6002" />
      <path
         d="m 13.758287,52.19 q 0.72,0 1.32,-0.3 0.615,-0.315 1.125,-0.945 l 0.735,0.675 q -0.615,0.81 -1.44,1.215 -0.825,0.39 -1.845,0.39 -1.635,0 -2.685,-1.065 -1.0350004,-1.08 -1.0350004,-2.76 0,-1.635 1.0650004,-2.73 1.065,-1.095 2.625,-1.095 1.59,0 2.58,1.035 0.99,1.035 0.99,2.7 0,0.12 -0.015,0.285 -0.015,0.15 -0.03,0.225 h -5.955 q 0.12,1.065 0.825,1.725 0.72,0.645 1.74,0.645 z m -0.12,-5.58 q -0.945,0 -1.62,0.615 -0.675,0.615 -0.825,1.65 h 4.77 q -0.135,-1.05 -0.765,-1.65 -0.63,-0.615 -1.56,-0.615 z"
         id="path6004" />
      <path
         d="m 24.258296,50.885 q 0,1.02 -0.87,1.665 -0.87,0.645 -2.265,0.645 -0.915,0 -1.725,-0.285 -0.795,-0.3 -1.44,-0.885 l 0.63,-0.93 q 0.69,0.57 1.29,0.825 0.6,0.255 1.275,0.255 0.87,0 1.395,-0.33 0.54,-0.345 0.54,-0.885 0,-0.555 -0.45,-0.795 -0.45,-0.255 -1.485,-0.27 -1.515,-0.06 -2.22,-0.555 -0.69,-0.495 -0.69,-1.545 0,-0.96 0.795,-1.59 0.81,-0.645 2.07,-0.645 0.855,0 1.605,0.27 0.75,0.27 1.365,0.795 l -0.585,0.915 q -0.615,-0.495 -1.185,-0.72 -0.57,-0.225 -1.215,-0.225 -0.735,0 -1.215,0.33 -0.465,0.33 -0.465,0.81 0,0.525 0.42,0.765 0.42,0.24 1.335,0.285 1.635,0.045 2.355,0.54 0.735,0.495 0.735,1.56 z"
         id="path6006" />
      <path
         d="m 28.908306,53.225 q -1.665,0 -2.715,-1.05 -1.035,-1.065 -1.035,-2.775 0,-1.62 1.095,-2.73 1.095,-1.11 2.685,-1.11 1.155,0 1.965,0.54 0.825,0.525 1.245,1.53 l -1.035,0.495 q -0.345,-0.75 -0.9,-1.125 -0.54,-0.375 -1.29,-0.375 -1.065,0 -1.8,0.81 -0.72,0.795 -0.72,1.965 0,1.185 0.72,1.98 0.735,0.78 1.83,0.78 0.705,0 1.305,-0.375 0.615,-0.39 0.99,-1.08 l 0.945,0.51 q -0.435,0.93 -1.305,1.47 -0.87,0.54 -1.98,0.54 z"
         id="path6008" />
      <path
         d="m 33.408304,45.755 h 1.2 v 0.915 q 0.33,-0.48 0.855,-0.72 0.525,-0.24 1.245,-0.24 h 0.66 v 1.155 h -0.675 q -1.035,0 -1.56,0.54 -0.51,0.54 -0.51,1.635 V 53 h -1.215 z"
         id="path6010" />
      <path
         d="m 38.433301,43.325 h 1.35 v 1.335 h -1.35 z m 0.06,9.675 v -7.245 h 1.23 V 53 Z"
         id="path6012" />
      <path
         d="m 42.663294,55.7 h -1.215 v -9.945 h 1.2 v 1.17 q 0.48,-0.63 1.185,-0.975 0.705,-0.36 1.5,-0.36 1.53,0 2.55,1.065 1.02,1.05 1.02,2.7 0,1.665 -1.065,2.745 -1.05,1.065 -2.595,1.065 -0.735,0 -1.425,-0.3 -0.675,-0.315 -1.155,-0.885 z m 2.535,-9.03 q -1.095,0 -1.845,0.795 -0.735,0.78 -0.735,1.95 0,1.155 0.72,1.92 0.735,0.765 1.815,0.765 1.11,0 1.8,-0.735 0.705,-0.75 0.705,-1.98 0,-1.215 -0.69,-1.965 -0.675,-0.75 -1.77,-0.75 z"
         id="path6014" />
      <path
         d="m 50.493297,51.065 v -4.23 h -0.99 v -1.08 h 0.99 v -2.22 h 1.215 v 2.22 h 1.68 v 1.08 h -1.68 v 4.125 q 0,0.48 0.21,0.72 0.225,0.225 0.675,0.225 h 0.795 V 53 h -0.975 q -1.005,0 -1.47,-0.465 -0.45,-0.465 -0.45,-1.47 z"
         id="path6016" />
      <path
         d="m 54.693296,43.325 h 1.35 v 1.335 h -1.35 z m 0.06,9.675 v -7.245 h 1.23 V 53 Z"
         id="path6018" />
      <path
         d="m 64.923288,49.385 q 0,1.635 -1.095,2.745 -1.095,1.095 -2.7,1.095 -1.605,0 -2.685,-1.095 -1.065,-1.095 -1.065,-2.73 0,-1.635 1.095,-2.73 1.095,-1.11 2.7,-1.11 1.605,0 2.67,1.095 1.08,1.095 1.08,2.73 z m -6.3,0.015 q 0,1.17 0.72,1.965 0.735,0.795 1.815,0.795 1.065,0 1.785,-0.795 0.735,-0.795 0.735,-1.98 0,-1.155 -0.735,-1.95 -0.735,-0.81 -1.8,-0.81 -1.065,0 -1.8,0.795 -0.72,0.795 -0.72,1.98 z"
         id="path6020" />
      <path
         d="m 66.183298,45.755 h 1.2 v 1.125 q 0.435,-0.63 1.095,-0.96 0.675,-0.345 1.5,-0.345 1.44,0 2.25,0.93 0.81,0.93 0.81,2.55 V 53 h -1.215 v -3.87 q 0,-1.14 -0.57,-1.8 -0.555,-0.66 -1.56,-0.66 -1.035,0 -1.665,0.705 -0.63,0.705 -0.63,1.83 V 53 h -1.215 z"
         id="path6022" />
    </g>
    <path
       id="rect5754"
       style="fill:#e9e9e9;stroke:#000000;stroke-width:1.33333;stroke-miterlimit:8"
       d="m 575.5,77.500099 h 153 V 159.5001 h -153 z" />
    <g
       aria-label="Operation5FW-specificdescription"
       transform="translate(615.082 96)"
       id="text5762"
       style="font-size:15px;font-family:'IntelOne Display Regular', 'IntelOne Display Regular_MSFontService', sans-serif">
      <path
         d="m 0.555,-5.235 q 0,-2.325 1.545,-3.915 1.545,-1.59 3.81,-1.59 2.28,0 3.795,1.575 1.53,1.56 1.53,3.9 0,2.34 -1.545,3.93 -1.53,1.575 -3.795,1.575 -2.28,0 -3.81,-1.56 -1.53,-1.575 -1.53,-3.915 z m 1.32,-0.03 q 0,1.845 1.155,3.105 1.17,1.245 2.88,1.245 1.71,0 2.85,-1.23 1.155,-1.245 1.155,-3.09 0,-1.845 -1.155,-3.09 -1.155,-1.26 -2.865,-1.26 -1.725,0 -2.88,1.245 -1.14,1.23 -1.14,3.075 z"
         id="path6026" />
      <path
         d="m 13.799989,2.7 h -1.215 v -9.945 h 1.2 v 1.17 q 0.48,-0.63 1.185,-0.975 0.705,-0.36 1.5,-0.36 1.53,0 2.55,1.065 1.02,1.05 1.02,2.7 0,1.665 -1.065,2.745 -1.05,1.065 -2.595,1.065 -0.735,0 -1.425,-0.3 -0.675,-0.315 -1.155,-0.885 z m 2.535,-9.03 q -1.095,0 -1.845,0.795 -0.735,0.78 -0.735,1.95 0,1.155 0.72,1.92 0.735,0.765 1.815,0.765 1.11,0 1.8,-0.735 0.705,-0.75 0.705,-1.98 0,-1.215 -0.69,-1.965 -0.675,-0.75 -1.77,-0.75 z"
         id="path6028" />
      <path
         d="m 24.79498,-0.81 q 0.72,0 1.32,-0.3 0.615,-0.315 1.125,-0.945 l 0.735,0.675 q -0.615,0.81 -1.44,1.215 -0.825,0.39 -1.845,0.39 -1.635,0 -2.685,-1.065 -1.035,-1.08 -1.035,-2.76 0,-1.635 1.065,-2.73 1.065,-1.095 2.625,-1.095 1.59,0 2.58,1.035 0.99,1.035 0.99,2.7 0,0.12 -0.015,0.285 -0.015,0.15 -0.03,0.225 h -5.955 q 0.12,1.065 0.825,1.725 0.72,0.645 1.74,0.645 z m -0.12,-5.58 q -0.945,0 -1.62,0.615 -0.675,0.615 -0.825,1.65 h 4.77 q -0.135,-1.05 -0.765,-1.65 -0.63,-0.615 -1.56,-0.615 z"
         id="path6030" />
      <path
         d="m 29.459989,-7.245 h 1.2 v 0.915 q 0.33,-0.48 0.855,-0.72 0.525,-0.24 1.245,-0.24 h 0.66 v 1.155 h -0.675 q -1.035,0 -1.56,0.54 -0.51,0.54 -0.51,1.635 V 0 h -1.215 z"
         id="path6032" />
      <path
         d="m 40.33498,0 h -1.185 v -1.185 q -0.435,0.63 -1.185,0.99 -0.735,0.345 -1.59,0.345 -1.2,0 -1.95,-0.6 -0.75,-0.615 -0.75,-1.605 0,-1.095 0.84,-1.65 0.84,-0.57 2.49,-0.57 h 2.13 q -0.015,-1.02 -0.54,-1.575 -0.51,-0.555 -1.47,-0.555 -0.57,0 -1.125,0.24 -0.555,0.24 -1.095,0.735 l -0.645,-0.81 q 0.63,-0.6 1.38,-0.9 0.75,-0.315 1.605,-0.315 1.455,0 2.265,0.87 0.825,0.855 0.825,2.37 z m -1.2,-3.33 h -2.115 q -1.095,0 -1.62,0.3 -0.525,0.3 -0.525,0.945 0,0.54 0.45,0.9 0.465,0.36 1.185,0.36 1.08,0 1.815,-0.69 0.75,-0.705 0.81,-1.815 z"
         id="path6034" />
      <path
         d="m 42.164985,-1.935 v -4.23 h -0.99 v -1.08 h 0.99 v -2.22 h 1.215 v 2.22 h 1.68 v 1.08 h -1.68 v 4.125 q 0,0.48 0.21,0.72 0.225,0.225 0.675,0.225 h 0.795 V 0 h -0.975 q -1.005,0 -1.47,-0.465 -0.45,-0.465 -0.45,-1.47 z"
         id="path6036" />
      <path
         d="m 46.364987,-9.675 h 1.35 v 1.335 h -1.35 z m 0.06,9.675 v -7.245 h 1.23 V 0 Z"
         id="path6038" />
      <path
         d="m 56.594976,-3.615 q 0,1.635 -1.095,2.745 -1.095,1.095 -2.7,1.095 -1.605,0 -2.685,-1.095 -1.065,-1.095 -1.065,-2.73 0,-1.635 1.095,-2.73 1.095,-1.11 2.7,-1.11 1.605,0 2.67,1.095 1.08,1.095 1.08,2.73 z m -6.3,0.015 q 0,1.17 0.72,1.965 0.735,0.795 1.815,0.795 1.065,0 1.785,-0.795 0.735,-0.795 0.735,-1.98 0,-1.155 -0.735,-1.95 -0.735,-0.81 -1.8,-0.81 -1.065,0 -1.8,0.795 -0.72,0.795 -0.72,1.98 z"
         id="path6040" />
      <path
         d="m 57.854982,-7.245 h 1.2 v 1.125 q 0.435,-0.63 1.095,-0.96 0.675,-0.345 1.5,-0.345 1.44,0 2.25,0.93 0.81,0.93 0.81,2.55 V 0 h -1.215 v -3.87 q 0,-1.14 -0.57,-1.8 -0.555,-0.66 -1.56,-0.66 -1.035,0 -1.665,0.705 -0.63,0.705 -0.63,1.83 V 0 h -1.215 z"
         id="path6042" />
      <path
         d="m 73.66497,-3.405 q 0,1.575 -1.125,2.61 -1.11,1.035 -2.88,1.035 -1.35,0 -2.355,-0.66 -1.005,-0.675 -1.41,-1.83 l 1.02,-0.525 q 0.39,0.915 1.11,1.41 0.72,0.48 1.68,0.48 1.17,0 1.92,-0.705 0.75,-0.705 0.75,-1.785 0,-1.035 -0.72,-1.665 -0.72,-0.645 -1.83,-0.645 -0.735,0 -1.41,0.3 -0.675,0.3 -1.23,0.885 l -0.9,-0.135 -0.045,-0.075 0.42,-5.79 h 6.315 v 1.17 h -5.22 l -0.285,3.375 q 0.57,-0.42 1.23,-0.63 0.675,-0.225 1.365,-0.225 1.56,0 2.58,0.945 1.02,0.93 1.02,2.46 z"
         id="path6044" />
      <path
         d="M -0.85831001,35 V 24.5 H 6.67169 v 1.14 H 0.43168999 v 3.57 H 6.25169 v 1.14 H 0.43168999 V 35 Z"
         id="path6046" />
      <path
         d="m 21.131696,24.5 -2.4,10.5 h -1.35 l -2.985,-8.655 -2.955,8.655 h -1.35 L 7.7066957,24.5 h 1.32 l 1.8600003,8.61 2.91,-8.61 h 1.245 l 2.91,8.625 1.845,-8.625 z"
         id="path6048" />
      <path
         d="m 22.07669,31.265 v -1.17 h 3.915 v 1.17 z"
         id="path6050" />
      <path
         d="m 32.463401,32.885 q 0,1.02 -0.87,1.665 -0.87,0.645 -2.265,0.645 -0.915,0 -1.725,-0.285 -0.795,-0.3 -1.44,-0.885 l 0.63,-0.93 q 0.69,0.57 1.29,0.825 0.6,0.255 1.275,0.255 0.87,0 1.395,-0.33 0.54,-0.345 0.54,-0.885 0,-0.555 -0.45,-0.795 -0.45,-0.255 -1.485,-0.27 -1.515,-0.06 -2.22,-0.555 -0.69,-0.495 -0.69,-1.545 0,-0.96 0.795,-1.59 0.81,-0.645 2.07,-0.645 0.855,0 1.605,0.27 0.75,0.27 1.365,0.795 l -0.585,0.915 q -0.615,-0.495 -1.185,-0.72 -0.57,-0.225 -1.215,-0.225 -0.735,0 -1.215,0.33 -0.465,0.33 -0.465,0.81 0,0.525 0.42,0.765 0.42,0.24 1.335,0.285 1.635,0.045 2.355,0.54 0.735,0.495 0.735,1.56 z"
         id="path6052" />
      <path
         d="m 34.908411,37.7 h -1.215 v -9.945 h 1.2 v 1.17 q 0.48,-0.63 1.185,-0.975 0.705,-0.36 1.5,-0.36 1.53,0 2.55,1.065 1.02,1.05 1.02,2.7 0,1.665 -1.065,2.745 -1.05,1.065 -2.595,1.065 -0.735,0 -1.425,-0.3 -0.675,-0.315 -1.155,-0.885 z m 2.535,-9.03 q -1.095,0 -1.845,0.795 -0.735,0.78 -0.735,1.95 0,1.155 0.72,1.92 0.735,0.765 1.815,0.765 1.11,0 1.8,-0.735 0.705,-0.75 0.705,-1.98 0,-1.215 -0.69,-1.965 -0.675,-0.75 -1.77,-0.75 z"
         id="path6054" />
      <path
         d="m 45.903401,34.19 q 0.72,0 1.32,-0.3 0.615,-0.315 1.125,-0.945 l 0.735,0.675 q -0.615,0.81 -1.44,1.215 -0.825,0.39 -1.845,0.39 -1.635,0 -2.685,-1.065 -1.035,-1.08 -1.035,-2.76 0,-1.635 1.065,-2.73 1.065,-1.095 2.625,-1.095 1.59,0 2.58,1.035 0.99,1.035 0.99,2.7 0,0.12 -0.015,0.285 -0.015,0.15 -0.03,0.225 h -5.955 q 0.12,1.065 0.825,1.725 0.72,0.645 1.74,0.645 z m -0.12,-5.58 q -0.945,0 -1.62,0.615 -0.675,0.615 -0.825,1.65 h 4.77 q -0.135,-1.05 -0.765,-1.65 -0.63,-0.615 -1.56,-0.615 z"
         id="path6056" />
      <path
         d="m 53.988411,35.225 q -1.665,0 -2.715,-1.05 -1.035,-1.065 -1.035,-2.775 0,-1.62 1.095,-2.73 1.095,-1.11 2.685,-1.11 1.155,0 1.965,0.54 0.825,0.525 1.245,1.53 l -1.035,0.495 q -0.345,-0.75 -0.9,-1.125 -0.54,-0.375 -1.29,-0.375 -1.065,0 -1.8,0.81 -0.72,0.795 -0.72,1.965 0,1.185 0.72,1.98 0.735,0.78 1.83,0.78 0.705,0 1.305,-0.375 0.615,-0.39 0.99,-1.08 l 0.945,0.51 q -0.435,0.93 -1.305,1.47 -0.87,0.54 -1.98,0.54 z"
         id="path6058" />
      <path
         d="m 58.563409,25.325 h 1.35 v 1.335 h -1.35 z m 0.06,9.675 v -7.245 h 1.23 V 35 Z"
         id="path6060" />
      <path
         d="m 62.058398,28.835 h -0.99 v -1.08 h 0.99 V 26.39 q 0,-0.915 0.48,-1.395 0.495,-0.495 1.41,-0.495 h 0.99 v 1.02 h -0.81 q -0.42,0 -0.63,0.225 -0.21,0.225 -0.21,0.675 v 1.335 h 1.65 v 1.08 h -1.65 V 35 h -1.23 z m 3.915,-3.51 h 1.35 v 1.335 h -1.35 z m 0.06,9.675 v -7.245 h 1.23 V 35 Z"
         id="path6062" />
      <path
         d="m 72.408394,35.225 q -1.665,0 -2.715,-1.05 -1.035,-1.065 -1.035,-2.775 0,-1.62 1.095,-2.73 1.095,-1.11 2.685,-1.11 1.155,0 1.965,0.54 0.825,0.525 1.245,1.53 l -1.035,0.495 q -0.345,-0.75 -0.9,-1.125 -0.54,-0.375 -1.29,-0.375 -1.065,0 -1.8,0.81 -0.72,0.795 -0.72,1.965 0,1.185 0.72,1.98 0.735,0.78 1.83,0.78 0.705,0 1.305,-0.375 0.615,-0.39 0.99,-1.08 l 0.945,0.51 q -0.435,0.93 -1.305,1.47 -0.87,0.54 -1.98,0.54 z"
         id="path6064" />
      <path
         d="m 7.458357,42.5 h 1.23 V 53 h -1.215 v -1.17 q -0.495,0.63 -1.2,0.975 -0.69,0.345 -1.485,0.345 -1.515,0 -2.55,-1.05 -1.02,-1.065 -1.02,-2.7 0,-1.65 1.05,-2.73 1.065,-1.095 2.61,-1.095 0.75,0 1.41,0.315 0.675,0.3 1.17,0.87 z m -2.535,9.585 q 1.095,0 1.83,-0.78 0.75,-0.795 0.75,-1.95 0,-1.17 -0.72,-1.935 -0.72,-0.765 -1.8,-0.765 -1.11,0 -1.815,0.75 -0.705,0.75 -0.705,1.965 0,1.215 0.69,1.965 0.69,0.75 1.77,0.75 z"
         id="path6066" />
      <path
         d="m 13.758348,52.19 q 0.72,0 1.32,-0.3 0.615,-0.315 1.125,-0.945 l 0.735,0.675 q -0.615,0.81 -1.44,1.215 -0.825,0.39 -1.845,0.39 -1.635,0 -2.685,-1.065 -1.0350004,-1.08 -1.0350004,-2.76 0,-1.635 1.0650004,-2.73 1.065,-1.095 2.625,-1.095 1.59,0 2.58,1.035 0.99,1.035 0.99,2.7 0,0.12 -0.015,0.285 -0.015,0.15 -0.03,0.225 h -5.955 q 0.12,1.065 0.825,1.725 0.72,0.645 1.74,0.645 z m -0.12,-5.58 q -0.945,0 -1.62,0.615 -0.675,0.615 -0.825,1.65 h 4.77 q -0.135,-1.05 -0.765,-1.65 -0.63,-0.615 -1.56,-0.615 z"
         id="path6068" />
      <path
         d="m 24.258357,50.885 q 0,1.02 -0.87,1.665 -0.87,0.645 -2.265,0.645 -0.915,0 -1.725,-0.285 -0.795,-0.3 -1.44,-0.885 l 0.63,-0.93 q 0.69,0.57 1.29,0.825 0.6,0.255 1.275,0.255 0.87,0 1.395,-0.33 0.54,-0.345 0.54,-0.885 0,-0.555 -0.45,-0.795 -0.45,-0.255 -1.485,-0.27 -1.515,-0.06 -2.22,-0.555 -0.69,-0.495 -0.69,-1.545 0,-0.96 0.795,-1.59 0.81,-0.645 2.07,-0.645 0.855,0 1.605,0.27 0.75,0.27 1.365,0.795 l -0.585,0.915 q -0.615,-0.495 -1.185,-0.72 -0.57,-0.225 -1.215,-0.225 -0.735,0 -1.215,0.33 -0.465,0.33 -0.465,0.81 0,0.525 0.42,0.765 0.42,0.24 1.335,0.285 1.635,0.045 2.355,0.54 0.735,0.495 0.735,1.56 z"
         id="path6070" />
      <path
         d="m 28.908367,53.225 q -1.665,0 -2.715,-1.05 -1.035,-1.065 -1.035,-2.775 0,-1.62 1.095,-2.73 1.095,-1.11 2.685,-1.11 1.155,0 1.965,0.54 0.825,0.525 1.245,1.53 l -1.035,0.495 q -0.345,-0.75 -0.9,-1.125 -0.54,-0.375 -1.29,-0.375 -1.065,0 -1.8,0.81 -0.72,0.795 -0.72,1.965 0,1.185 0.72,1.98 0.735,0.78 1.83,0.78 0.705,0 1.305,-0.375 0.615,-0.39 0.99,-1.08 l 0.945,0.51 q -0.435,0.93 -1.305,1.47 -0.87,0.54 -1.98,0.54 z"
         id="path6072" />
      <path
         d="m 33.408365,45.755 h 1.2 v 0.915 q 0.33,-0.48 0.855,-0.72 0.525,-0.24 1.245,-0.24 h 0.66 v 1.155 h -0.675 q -1.035,0 -1.56,0.54 -0.51,0.54 -0.51,1.635 V 53 h -1.215 z"
         id="path6074" />
      <path
         d="m 38.433362,43.325 h 1.35 v 1.335 h -1.35 z m 0.06,9.675 v -7.245 h 1.23 V 53 Z"
         id="path6076" />
      <path
         d="m 42.663355,55.7 h -1.215 v -9.945 h 1.2 v 1.17 q 0.48,-0.63 1.185,-0.975 0.705,-0.36 1.5,-0.36 1.53,0 2.55,1.065 1.02,1.05 1.02,2.7 0,1.665 -1.065,2.745 -1.05,1.065 -2.595,1.065 -0.735,0 -1.425,-0.3 -0.675,-0.315 -1.155,-0.885 z m 2.535,-9.03 q -1.095,0 -1.845,0.795 -0.735,0.78 -0.735,1.95 0,1.155 0.72,1.92 0.735,0.765 1.815,0.765 1.11,0 1.8,-0.735 0.705,-0.75 0.705,-1.98 0,-1.215 -0.69,-1.965 -0.675,-0.75 -1.77,-0.75 z"
         id="path6078" />
      <path
         d="m 50.493358,51.065 v -4.23 h -0.99 v -1.08 h 0.99 v -2.22 h 1.215 v 2.22 h 1.68 v 1.08 h -1.68 v 4.125 q 0,0.48 0.21,0.72 0.225,0.225 0.675,0.225 h 0.795 V 53 h -0.975 q -1.005,0 -1.47,-0.465 -0.45,-0.465 -0.45,-1.47 z"
         id="path6080" />
      <path
         d="m 54.693357,43.325 h 1.35 v 1.335 h -1.35 z m 0.06,9.675 v -7.245 h 1.23 V 53 Z"
         id="path6082" />
      <path
         d="m 64.923349,49.385 q 0,1.635 -1.095,2.745 -1.095,1.095 -2.7,1.095 -1.605,0 -2.685,-1.095 -1.065,-1.095 -1.065,-2.73 0,-1.635 1.095,-2.73 1.095,-1.11 2.7,-1.11 1.605,0 2.67,1.095 1.08,1.095 1.08,2.73 z m -6.3,0.015 q 0,1.17 0.72,1.965 0.735,0.795 1.815,0.795 1.065,0 1.785,-0.795 0.735,-0.795 0.735,-1.98 0,-1.155 -0.735,-1.95 -0.735,-0.81 -1.8,-0.81 -1.065,0 -1.8,0.795 -0.72,0.795 -0.72,1.98 z"
         id="path6084" />
      <path
         d="m 66.183359,45.755 h 1.2 v 1.125 q 0.435,-0.63 1.095,-0.96 0.675,-0.345 1.5,-0.345 1.44,0 2.25,0.93 0.81,0.93 0.81,2.55 V 53 h -1.215 v -3.87 q 0,-1.14 -0.57,-1.8 -0.555,-0.66 -1.56,-0.66 -1.035,0 -1.665,0.705 -0.63,0.705 -0.63,1.83 V 53 h -1.215 z"
         id="path6086" />
    </g>
    <path
       id="rect5764"
       style="fill:#e9e9e9;stroke:#000000;stroke-width:1.33333;stroke-miterlimit:8"
       d="m 575.5,219.5 h 153 v 81 h -153 z" />
    <g
       aria-label="Operation4FW-specificdescription"
       transform="translate(614.836 238)"
       id="text5772"
       style="font-size:15px;font-family:'IntelOne Display Regular', 'IntelOne Display Regular_MSFontService', sans-serif">
      <path
         d="m 0.555,-5.235 q 0,-2.325 1.545,-3.915 1.545,-1.59 3.81,-1.59 2.28,0 3.795,1.575 1.53,1.56 1.53,3.9 0,2.34 -1.545,3.93 -1.53,1.575 -3.795,1.575 -2.28,0 -3.81,-1.56 -1.53,-1.575 -1.53,-3.915 z m 1.32,-0.03 q 0,1.845 1.155,3.105 1.17,1.245 2.88,1.245 1.71,0 2.85,-1.23 1.155,-1.245 1.155,-3.09 0,-1.845 -1.155,-3.09 -1.155,-1.26 -2.865,-1.26 -1.725,0 -2.88,1.245 -1.14,1.23 -1.14,3.075 z"
         id="path6090" />
      <path
         d="m 13.799989,2.7 h -1.215 v -9.945 h 1.2 v 1.17 q 0.48,-0.63 1.185,-0.975 0.705,-0.36 1.5,-0.36 1.53,0 2.55,1.065 1.02,1.05 1.02,2.7 0,1.665 -1.065,2.745 -1.05,1.065 -2.595,1.065 -0.735,0 -1.425,-0.3 -0.675,-0.315 -1.155,-0.885 z m 2.535,-9.03 q -1.095,0 -1.845,0.795 -0.735,0.78 -0.735,1.95 0,1.155 0.72,1.92 0.735,0.765 1.815,0.765 1.11,0 1.8,-0.735 0.705,-0.75 0.705,-1.98 0,-1.215 -0.69,-1.965 -0.675,-0.75 -1.77,-0.75 z"
         id="path6092" />
      <path
         d="m 24.79498,-0.81 q 0.72,0 1.32,-0.3 0.615,-0.315 1.125,-0.945 l 0.735,0.675 q -0.615,0.81 -1.44,1.215 -0.825,0.39 -1.845,0.39 -1.635,0 -2.685,-1.065 -1.035,-1.08 -1.035,-2.76 0,-1.635 1.065,-2.73 1.065,-1.095 2.625,-1.095 1.59,0 2.58,1.035 0.99,1.035 0.99,2.7 0,0.12 -0.015,0.285 -0.015,0.15 -0.03,0.225 h -5.955 q 0.12,1.065 0.825,1.725 0.72,0.645 1.74,0.645 z m -0.12,-5.58 q -0.945,0 -1.62,0.615 -0.675,0.615 -0.825,1.65 h 4.77 q -0.135,-1.05 -0.765,-1.65 -0.63,-0.615 -1.56,-0.615 z"
         id="path6094" />
      <path
         d="m 29.459989,-7.245 h 1.2 v 0.915 q 0.33,-0.48 0.855,-0.72 0.525,-0.24 1.245,-0.24 h 0.66 v 1.155 h -0.675 q -1.035,0 -1.56,0.54 -0.51,0.54 -0.51,1.635 V 0 h -1.215 z"
         id="path6096" />
      <path
         d="m 40.33498,0 h -1.185 v -1.185 q -0.435,0.63 -1.185,0.99 -0.735,0.345 -1.59,0.345 -1.2,0 -1.95,-0.6 -0.75,-0.615 -0.75,-1.605 0,-1.095 0.84,-1.65 0.84,-0.57 2.49,-0.57 h 2.13 q -0.015,-1.02 -0.54,-1.575 -0.51,-0.555 -1.47,-0.555 -0.57,0 -1.125,0.24 -0.555,0.24 -1.095,0.735 l -0.645,-0.81 q 0.63,-0.6 1.38,-0.9 0.75,-0.315 1.605,-0.315 1.455,0 2.265,0.87 0.825,0.855 0.825,2.37 z m -1.2,-3.33 h -2.115 q -1.095,0 -1.62,0.3 -0.525,0.3 -0.525,0.945 0,0.54 0.45,0.9 0.465,0.36 1.185,0.36 1.08,0 1.815,-0.69 0.75,-0.705 0.81,-1.815 z"
         id="path6098" />
      <path
         d="m 42.164985,-1.935 v -4.23 h -0.99 v -1.08 h 0.99 v -2.22 h 1.215 v 2.22 h 1.68 v 1.08 h -1.68 v 4.125 q 0,0.48 0.21,0.72 0.225,0.225 0.675,0.225 h 0.795 V 0 h -0.975 q -1.005,0 -1.47,-0.465 -0.45,-0.465 -0.45,-1.47 z"
         id="path6100" />
      <path
         d="m 46.364987,-9.675 h 1.35 v 1.335 h -1.35 z m 0.06,9.675 v -7.245 h 1.23 V 0 Z"
         id="path6102" />
      <path
         d="m 56.594976,-3.615 q 0,1.635 -1.095,2.745 -1.095,1.095 -2.7,1.095 -1.605,0 -2.685,-1.095 -1.065,-1.095 -1.065,-2.73 0,-1.635 1.095,-2.73 1.095,-1.11 2.7,-1.11 1.605,0 2.67,1.095 1.08,1.095 1.08,2.73 z m -6.3,0.015 q 0,1.17 0.72,1.965 0.735,0.795 1.815,0.795 1.065,0 1.785,-0.795 0.735,-0.795 0.735,-1.98 0,-1.155 -0.735,-1.95 -0.735,-0.81 -1.8,-0.81 -1.065,0 -1.8,0.795 -0.72,0.795 -0.72,1.98 z"
         id="path6104" />
      <path
         d="m 57.854982,-7.245 h 1.2 v 1.125 q 0.435,-0.63 1.095,-0.96 0.675,-0.345 1.5,-0.345 1.44,0 2.25,0.93 0.81,0.93 0.81,2.55 V 0 h -1.215 v -3.87 q 0,-1.14 -0.57,-1.8 -0.555,-0.66 -1.56,-0.66 -1.035,0 -1.665,0.705 -0.63,0.705 -0.63,1.83 V 0 h -1.215 z"
         id="path6106" />
      <path
         d="m 71.30997,-2.475 h -5.7 v -0.96 l 5.19,-7.065 h 1.77 v 6.96 h 1.77 v 1.065 h -1.77 V 0 h -1.26 z m 0.045,-7.005 -4.365,5.94 h 4.365 z"
         id="path6108" />
      <path
         d="M -0.61167004,35 V 24.5 H 6.91833 v 1.14 H 0.67832996 v 3.57 H 6.49833 v 1.14 H 0.67832996 V 35 Z"
         id="path6110" />
      <path
         d="m 21.378336,24.5 -2.4,10.5 h -1.35 l -2.985,-8.655 -2.955,8.655 h -1.35 L 7.9533357,24.5 h 1.32 l 1.8600003,8.61 2.91,-8.61 h 1.245 l 2.91,8.625 1.845,-8.625 z"
         id="path6112" />
      <path
         d="m 22.32333,31.265 v -1.17 h 3.915 v 1.17 z"
         id="path6114" />
      <path
         d="m 32.71,32.885 q 0,1.02 -0.87,1.665 -0.87,0.645 -2.265,0.645 -0.915,0 -1.725,-0.285 -0.795,-0.3 -1.44,-0.885 l 0.63,-0.93 q 0.69,0.57 1.29,0.825 0.6,0.255 1.275,0.255 0.87,0 1.395,-0.33 0.54,-0.345 0.54,-0.885 0,-0.555 -0.45,-0.795 -0.45,-0.255 -1.485,-0.27 -1.515,-0.06 -2.22,-0.555 -0.69,-0.495 -0.69,-1.545 0,-0.96 0.795,-1.59 0.81,-0.645 2.07,-0.645 0.855,0 1.605,0.27 0.75,0.27 1.365,0.795 l -0.585,0.915 q -0.615,-0.495 -1.185,-0.72 -0.57,-0.225 -1.215,-0.225 -0.735,0 -1.215,0.33 -0.465,0.33 -0.465,0.81 0,0.525 0.42,0.765 0.42,0.24 1.335,0.285 1.635,0.045 2.355,0.54 0.735,0.495 0.735,1.56 z"
         id="path6116" />
      <path
         d="m 35.15501,37.7 h -1.215 v -9.945 h 1.2 v 1.17 q 0.48,-0.63 1.185,-0.975 0.705,-0.36 1.5,-0.36 1.53,0 2.55,1.065 1.02,1.05 1.02,2.7 0,1.665 -1.065,2.745 -1.05,1.065 -2.595,1.065 -0.735,0 -1.425,-0.3 -0.675,-0.315 -1.155,-0.885 z m 2.535,-9.03 q -1.095,0 -1.845,0.795 -0.735,0.78 -0.735,1.95 0,1.155 0.72,1.92 0.735,0.765 1.815,0.765 1.11,0 1.8,-0.735 0.705,-0.75 0.705,-1.98 0,-1.215 -0.69,-1.965 -0.675,-0.75 -1.77,-0.75 z"
         id="path6118" />
      <path
         d="m 46.150001,34.19 q 0.72,0 1.32,-0.3 0.615,-0.315 1.125,-0.945 l 0.735,0.675 q -0.615,0.81 -1.44,1.215 -0.825,0.39 -1.845,0.39 -1.635,0 -2.685,-1.065 -1.035,-1.08 -1.035,-2.76 0,-1.635 1.065,-2.73 1.065,-1.095 2.625,-1.095 1.59,0 2.58,1.035 0.99,1.035 0.99,2.7 0,0.12 -0.015,0.285 -0.015,0.15 -0.03,0.225 h -5.955 q 0.12,1.065 0.825,1.725 0.72,0.645 1.74,0.645 z m -0.12,-5.58 q -0.945,0 -1.62,0.615 -0.675,0.615 -0.825,1.65 h 4.77 q -0.135,-1.05 -0.765,-1.65 -0.63,-0.615 -1.56,-0.615 z"
         id="path6120" />
      <path
         d="m 54.23501,35.225 q -1.665,0 -2.715,-1.05 -1.035,-1.065 -1.035,-2.775 0,-1.62 1.095,-2.73 1.095,-1.11 2.685,-1.11 1.155,0 1.965,0.54 0.825,0.525 1.245,1.53 l -1.035,0.495 q -0.345,-0.75 -0.9,-1.125 -0.54,-0.375 -1.29,-0.375 -1.065,0 -1.8,0.81 -0.72,0.795 -0.72,1.965 0,1.185 0.72,1.98 0.735,0.78 1.83,0.78 0.705,0 1.305,-0.375 0.615,-0.39 0.99,-1.08 l 0.945,0.51 q -0.435,0.93 -1.305,1.47 -0.87,0.54 -1.98,0.54 z"
         id="path6122" />
      <path
         d="m 58.810008,25.325 h 1.35 v 1.335 h -1.35 z m 0.06,9.675 v -7.245 h 1.23 V 35 Z"
         id="path6124" />
      <path
         d="m 62.304997,28.835 h -0.99 v -1.08 h 0.99 V 26.39 q 0,-0.915 0.48,-1.395 0.495,-0.495 1.41,-0.495 h 0.99 v 1.02 h -0.81 q -0.42,0 -0.63,0.225 -0.21,0.225 -0.21,0.675 v 1.335 h 1.65 v 1.08 h -1.65 V 35 h -1.23 z m 3.915,-3.51 h 1.35 v 1.335 h -1.35 z m 0.06,9.675 v -7.245 h 1.23 V 35 Z"
         id="path6126" />
      <path
         d="m 72.654993,35.225 q -1.665,0 -2.715,-1.05 -1.035,-1.065 -1.035,-2.775 0,-1.62 1.095,-2.73 1.095,-1.11 2.685,-1.11 1.155,0 1.965,0.54 0.825,0.525 1.245,1.53 l -1.035,0.495 q -0.345,-0.75 -0.9,-1.125 -0.54,-0.375 -1.29,-0.375 -1.065,0 -1.8,0.81 -0.72,0.795 -0.72,1.965 0,1.185 0.72,1.98 0.735,0.78 1.83,0.78 0.705,0 1.305,-0.375 0.615,-0.39 0.99,-1.08 l 0.945,0.51 q -0.435,0.93 -1.305,1.47 -0.87,0.54 -1.98,0.54 z"
         id="path6128" />
      <path
         d="m 7.705,42.5 h 1.23 V 53 H 7.72 v -1.17 q -0.495,0.63 -1.2,0.975 -0.69,0.345 -1.485,0.345 -1.515,0 -2.55,-1.05 -1.02,-1.065 -1.02,-2.7 0,-1.65 1.05,-2.73 1.065,-1.095 2.61,-1.095 0.75,0 1.41,0.315 0.675,0.3 1.17,0.87 z M 5.17,52.085 q 1.095,0 1.83,-0.78 0.75,-0.795 0.75,-1.95 0,-1.17 -0.72,-1.935 -0.72,-0.765 -1.8,-0.765 -1.11,0 -1.815,0.75 -0.705,0.75 -0.705,1.965 0,1.215 0.69,1.965 0.69,0.75 1.77,0.75 z"
         id="path6130" />
      <path
         d="m 14.004991,52.19 q 0.72,0 1.32,-0.3 0.615,-0.315 1.125,-0.945 l 0.735,0.675 q -0.615,0.81 -1.44,1.215 -0.825,0.39 -1.845,0.39 -1.635,0 -2.685,-1.065 -1.035,-1.08 -1.035,-2.76 0,-1.635 1.065,-2.73 1.065,-1.095 2.625,-1.095 1.59,0 2.58,1.035 0.99,1.035 0.99,2.7 0,0.12 -0.015,0.285 -0.015,0.15 -0.03,0.225 h -5.955 q 0.12,1.065 0.825,1.725 0.72,0.645 1.74,0.645 z m -0.12,-5.58 q -0.945,0 -1.62,0.615 -0.675,0.615 -0.825,1.65 h 4.77 q -0.135,-1.05 -0.765,-1.65 -0.63,-0.615 -1.56,-0.615 z"
         id="path6132" />
      <path
         d="m 24.505,50.885 q 0,1.02 -0.87,1.665 -0.87,0.645 -2.265,0.645 -0.915,0 -1.725,-0.285 -0.795,-0.3 -1.44,-0.885 l 0.63,-0.93 q 0.69,0.57 1.29,0.825 0.6,0.255 1.275,0.255 0.87,0 1.395,-0.33 0.54,-0.345 0.54,-0.885 0,-0.555 -0.45,-0.795 -0.45,-0.255 -1.485,-0.27 -1.515,-0.06 -2.22,-0.555 -0.69,-0.495 -0.69,-1.545 0,-0.96 0.795,-1.59 0.81,-0.645 2.07,-0.645 0.855,0 1.605,0.27 0.75,0.27 1.365,0.795 L 23.74,47.54 q -0.615,-0.495 -1.185,-0.72 -0.57,-0.225 -1.215,-0.225 -0.735,0 -1.215,0.33 -0.465,0.33 -0.465,0.81 0,0.525 0.42,0.765 0.42,0.24 1.335,0.285 1.635,0.045 2.355,0.54 0.735,0.495 0.735,1.56 z"
         id="path6134" />
      <path
         d="m 29.15501,53.225 q -1.665,0 -2.715,-1.05 -1.035,-1.065 -1.035,-2.775 0,-1.62 1.095,-2.73 1.095,-1.11 2.685,-1.11 1.155,0 1.965,0.54 0.825,0.525 1.245,1.53 l -1.035,0.495 q -0.345,-0.75 -0.9,-1.125 -0.54,-0.375 -1.29,-0.375 -1.065,0 -1.8,0.81 -0.72,0.795 -0.72,1.965 0,1.185 0.72,1.98 0.735,0.78 1.83,0.78 0.705,0 1.305,-0.375 0.615,-0.39 0.99,-1.08 l 0.945,0.51 q -0.435,0.93 -1.305,1.47 -0.87,0.54 -1.98,0.54 z"
         id="path6136" />
      <path
         d="m 33.655008,45.755 h 1.2 v 0.915 q 0.33,-0.48 0.855,-0.72 0.525,-0.24 1.245,-0.24 h 0.66 v 1.155 h -0.675 q -1.035,0 -1.56,0.54 -0.51,0.54 -0.51,1.635 V 53 h -1.215 z"
         id="path6138" />
      <path
         d="m 38.680005,43.325 h 1.35 v 1.335 h -1.35 z m 0.06,9.675 v -7.245 h 1.23 V 53 Z"
         id="path6140" />
      <path
         d="m 42.909998,55.7 h -1.215 v -9.945 h 1.2 v 1.17 q 0.48,-0.63 1.185,-0.975 0.705,-0.36 1.5,-0.36 1.53,0 2.55,1.065 1.02,1.05 1.02,2.7 0,1.665 -1.065,2.745 -1.05,1.065 -2.595,1.065 -0.735,0 -1.425,-0.3 -0.675,-0.315 -1.155,-0.885 z m 2.535,-9.03 q -1.095,0 -1.845,0.795 -0.735,0.78 -0.735,1.95 0,1.155 0.72,1.92 0.735,0.765 1.815,0.765 1.11,0 1.8,-0.735 0.705,-0.75 0.705,-1.98 0,-1.215 -0.69,-1.965 -0.675,-0.75 -1.77,-0.75 z"
         id="path6142" />
      <path
         d="m 50.740001,51.065 v -4.23 h -0.99 v -1.08 h 0.99 v -2.22 h 1.215 v 2.22 h 1.68 v 1.08 h -1.68 v 4.125 q 0,0.48 0.21,0.72 0.225,0.225 0.675,0.225 h 0.795 V 53 h -0.975 q -1.005,0 -1.47,-0.465 -0.45,-0.465 -0.45,-1.47 z"
         id="path6144" />
      <path
         d="m 54.94,43.325 h 1.35 V 44.66 H 54.94 Z M 55,53 v -7.245 h 1.23 V 53 Z"
         id="path6146" />
      <path
         d="m 65.169992,49.385 q 0,1.635 -1.095,2.745 -1.095,1.095 -2.7,1.095 -1.605,0 -2.685,-1.095 -1.065,-1.095 -1.065,-2.73 0,-1.635 1.095,-2.73 1.095,-1.11 2.7,-1.11 1.605,0 2.67,1.095 1.08,1.095 1.08,2.73 z m -6.3,0.015 q 0,1.17 0.72,1.965 0.735,0.795 1.815,0.795 1.065,0 1.785,-0.795 0.735,-0.795 0.735,-1.98 0,-1.155 -0.735,-1.95 -0.735,-0.81 -1.8,-0.81 -1.065,0 -1.8,0.795 -0.72,0.795 -0.72,1.98 z"
         id="path6148" />
      <path
         d="m 66.430002,45.755 h 1.2 v 1.125 q 0.435,-0.63 1.095,-0.96 0.675,-0.345 1.5,-0.345 1.44,0 2.25,0.93 0.81,0.93 0.81,2.55 V 53 h -1.215 v -3.87 q 0,-1.14 -0.57,-1.8 -0.555,-0.66 -1.56,-0.66 -1.035,0 -1.665,0.705 -0.63,0.705 -0.63,1.83 V 53 h -1.215 z"
         id="path6150" />
    </g>
    <path
       d="M209.5 76.8334 303.283 76.8336 303.283 78.1669 209.5 78.1667ZM301.95 73.5002 309.95 77.5003 301.95 81.5002Z"
       id="path5774" />
    <path
       d="M462.5 36.8334 821.632 36.8335 821.632 38.1668 462.5 38.1667ZM820.298 33.5002 828.298 37.5002 820.298 41.5002Z"
       id="path5776" />
    <path
       d="M462.5 76.8334 519.526 76.8334 519.526 118.219 518.86 117.552 568.552 117.552 568.552 118.886 518.193 118.886 518.193 77.5001 518.86 78.1667 462.5 78.1667ZM567.219 114.219 575.219 118.219 567.219 122.219Z"
       id="path5778" />
    <path
       d="M462.5 109.833 493.46 109.833 493.46 259.356 492.793 258.69 568.552 258.69 568.552 260.023 492.127 260.023 492.127 110.5 492.793 111.167 462.5 111.167ZM567.219 255.356 575.219 259.356 567.219 263.356Z"
       id="path5780" />
    <path
       d="M0-0.666667 50.8916-0.666667 50.8916 182.292 50.2249 181.626 93.783 181.626 93.783 182.959 49.5583 182.959 49.5583 0 50.2249 0.666667 0 0.666667ZM92.4497 178.292 100.45 182.292 92.4497 186.292Z"
       transform="matrix(1 0 0 -1 728.5 259.792)"
       id="path5782" />
    <g
       aria-label="in:0out: 0out: 0out: 0out: 1in:0in:0in:0in:1"
       transform="translate(271.908 69)"
       id="text5824"
       style="font-size:13px;font-family:'IntelOne Display Regular', 'IntelOne Display Regular_MSFontService', sans-serif">
      <path
         d="m 0.754,-8.385 h 1.17 v 1.157 H 0.754 Z M 0.806,0 V -6.279 H 1.872 V 0 Z"
         id="path6153" />
      <path
         d="m 3.3669919,-6.279 h 1.04 v 0.975 q 0.377,-0.546 0.949,-0.832 0.585,-0.299 1.3,-0.299 1.248,0 1.95,0.806 0.702,0.806 0.702,2.21 V 0 h -1.053 v -3.354 q 0,-0.988 -0.494,-1.56 -0.481,-0.572 -1.352,-0.572 -0.897,0 -1.443,0.611 -0.546,0.611 -0.546,1.586 V 0 h -1.053 z"
         id="path6155" />
      <path
         d="m 10.9207,-6.279 h 1.3 v 1.3 h -1.3 z m 0,4.966 h 1.3 V 0 h -1.3 z"
         id="path6157" />
      <path
         d="m 15.981,-4.329 v -0.416 q 0,-2.093 1.001,-3.328 1.001,-1.235 2.678,-1.235 1.677,0 2.652,1.222 0.988,1.222 0.988,3.315 v 0.416 q 0,2.093 -1.001,3.328 -0.988,1.235 -2.665,1.235 -1.677,0 -2.665,-1.222 -0.988,-1.222 -0.988,-3.315 z m 3.653,-3.991 q -1.196,0 -1.872,0.936 -0.663,0.936 -0.663,2.613 v 0.416 q 0,1.69 0.676,2.639 0.676,0.936 1.872,0.936 1.196,0 1.859,-0.936 0.676,-0.936 0.676,-2.613 v -0.416 q 0,-1.69 -0.676,-2.626 Q 20.83,-8.32 19.634,-8.32 Z"
         id="path6159" />
      <path
         d="m -51.323301,-3.133 q 0,1.417 -0.949,2.379 -0.949,0.949 -2.34,0.949 -1.391,0 -2.327,-0.949 -0.923,-0.949 -0.923,-2.366 0,-1.417 0.949,-2.366 0.949,-0.962 2.34,-0.962 1.391,0 2.314,0.949 0.936,0.949 0.936,2.366 z m -5.46,0.013 q 0,1.014 0.624,1.703 0.637,0.689 1.573,0.689 0.923,0 1.547,-0.689 0.637,-0.689 0.637,-1.716 0,-1.001 -0.637,-1.69 -0.637,-0.702 -1.56,-0.702 -0.923,0 -1.56,0.689 -0.624,0.689 -0.624,1.716 z"
         id="path6161" />
      <path
         d="m -44.355294,0 h -1.053 v -0.962 q -0.377,0.546 -0.949,0.832 -0.572,0.273 -1.3,0.273 -1.235,0 -1.95,-0.806 -0.702,-0.806 -0.702,-2.197 v -3.419 h 1.066 v 3.354 q 0,0.988 0.481,1.56 0.494,0.572 1.365,0.572 0.884,0 1.43,-0.611 0.546,-0.611 0.546,-1.586 v -3.289 h 1.066 z"
         id="path6163" />
      <path
         d="m -42.639304,-1.677 v -3.666 h -0.858 v -0.936 h 0.858 v -1.924 h 1.053 v 1.924 h 1.456 v 0.936 h -1.456 v 3.575 q 0,0.416 0.182,0.624 0.195,0.195 0.585,0.195 h 0.689 V 0 h -0.845 q -0.871,0 -1.274,-0.403 -0.39,-0.403 -0.39,-1.274 z"
         id="path6165" />
      <path
         d="m -38.869301,-6.279 h 1.3 v 1.3 h -1.3 z m 0,4.966 h 1.3 V 0 h -1.3 z"
         id="path6167" />
      <path
         d="m -33.450999,-4.329 v -0.416 q 0,-2.093 1.001,-3.328 1.001,-1.235 2.678,-1.235 1.677,0 2.652,1.222 0.988,1.222 0.988,3.315 v 0.416 q 0,2.093 -1.001,3.328 -0.988,1.235 -2.665,1.235 -1.677,0 -2.665,-1.222 -0.988,-1.222 -0.988,-3.315 z m 3.653,-3.991 q -1.196,0 -1.872,0.936 -0.663,0.936 -0.663,2.613 v 0.416 q 0,1.69 0.676,2.639 0.676,0.936 1.872,0.936 1.196,0 1.859,-0.936 0.676,-0.936 0.676,-2.613 v -0.416 q 0,-1.69 -0.676,-2.626 -0.676,-0.949 -1.872,-0.949 z"
         id="path6169" />
      <path
         d="m 207.1,-42.133 q 0,1.417 -0.949,2.379 -0.949,0.949 -2.34,0.949 -1.391,0 -2.327,-0.949 -0.923,-0.949 -0.923,-2.366 0,-1.417 0.949,-2.366 0.949,-0.962 2.34,-0.962 1.391,0 2.314,0.949 0.936,0.949 0.936,2.366 z m -5.46,0.013 q 0,1.014 0.624,1.703 0.637,0.689 1.573,0.689 0.923,0 1.547,-0.689 0.637,-0.689 0.637,-1.716 0,-1.001 -0.637,-1.69 -0.637,-0.702 -1.56,-0.702 -0.923,0 -1.56,0.689 -0.624,0.689 -0.624,1.716 z"
         id="path6171" />
      <path
         d="m 214.06801,-39 h -1.053 v -0.962 q -0.377,0.546 -0.949,0.832 -0.572,0.273 -1.3,0.273 -1.235,0 -1.95,-0.806 -0.702,-0.806 -0.702,-2.197 v -3.419 h 1.066 v 3.354 q 0,0.988 0.481,1.56 0.494,0.572 1.365,0.572 0.884,0 1.43,-0.611 0.546,-0.611 0.546,-1.586 v -3.289 h 1.066 z"
         id="path6173" />
      <path
         d="m 215.784,-40.677 v -3.666 h -0.858 v -0.936 h 0.858 v -1.924 h 1.053 v 1.924 h 1.456 v 0.936 h -1.456 v 3.575 q 0,0.416 0.182,0.624 0.195,0.195 0.585,0.195 h 0.689 V -39 h -0.845 q -0.871,0 -1.274,-0.403 -0.39,-0.403 -0.39,-1.274 z"
         id="path6175" />
      <path
         d="m 219.554,-45.279 h 1.3 v 1.3 h -1.3 z m 0,4.966 h 1.3 V -39 h -1.3 z"
         id="path6177" />
      <path
         d="m 224.972,-43.329 v -0.416 q 0,-2.093 1.001,-3.328 1.001,-1.235 2.678,-1.235 1.677,0 2.652,1.222 0.988,1.222 0.988,3.315 v 0.416 q 0,2.093 -1.001,3.328 -0.988,1.235 -2.665,1.235 -1.677,0 -2.665,-1.222 -0.988,-1.222 -0.988,-3.315 z m 3.653,-3.991 q -1.196,0 -1.872,0.936 -0.663,0.936 -0.663,2.613 v 0.416 q 0,1.69 0.676,2.639 0.676,0.936 1.872,0.936 1.196,0 1.859,-0.936 0.676,-0.936 0.676,-2.613 v -0.416 q 0,-1.69 -0.676,-2.626 -0.676,-0.949 -1.872,-0.949 z"
         id="path6179" />
      <path
         d="m 207.1,-3.133 q 0,1.417 -0.949,2.379 -0.949,0.949 -2.34,0.949 -1.391,0 -2.327,-0.949 -0.923,-0.949 -0.923,-2.366 0,-1.417 0.949,-2.366 0.949,-0.962 2.34,-0.962 1.391,0 2.314,0.949 0.936,0.949 0.936,2.366 z m -5.46,0.013 q 0,1.014 0.624,1.703 0.637,0.689 1.573,0.689 0.923,0 1.547,-0.689 0.637,-0.689 0.637,-1.716 0,-1.001 -0.637,-1.69 -0.637,-0.702 -1.56,-0.702 -0.923,0 -1.56,0.689 -0.624,0.689 -0.624,1.716 z"
         id="path6181" />
      <path
         d="m 214.06801,0 h -1.053 v -0.962 q -0.377,0.546 -0.949,0.832 -0.572,0.273 -1.3,0.273 -1.235,0 -1.95,-0.806 -0.702,-0.806 -0.702,-2.197 v -3.419 h 1.066 v 3.354 q 0,0.988 0.481,1.56 0.494,0.572 1.365,0.572 0.884,0 1.43,-0.611 0.546,-0.611 0.546,-1.586 v -3.289 h 1.066 z"
         id="path6183" />
      <path
         d="m 215.784,-1.677 v -3.666 h -0.858 v -0.936 h 0.858 v -1.924 h 1.053 v 1.924 h 1.456 v 0.936 h -1.456 v 3.575 q 0,0.416 0.182,0.624 0.195,0.195 0.585,0.195 h 0.689 V 0 h -0.845 q -0.871,0 -1.274,-0.403 -0.39,-0.403 -0.39,-1.274 z"
         id="path6185" />
      <path
         d="m 219.554,-6.279 h 1.3 v 1.3 h -1.3 z m 0,4.966 h 1.3 V 0 h -1.3 z"
         id="path6187" />
      <path
         d="m 224.972,-4.329 v -0.416 q 0,-2.093 1.001,-3.328 1.001,-1.235 2.678,-1.235 1.677,0 2.652,1.222 0.988,1.222 0.988,3.315 v 0.416 q 0,2.093 -1.001,3.328 -0.988,1.235 -2.665,1.235 -1.677,0 -2.665,-1.222 -0.988,-1.222 -0.988,-3.315 z m 3.653,-3.991 q -1.196,0 -1.872,0.936 -0.663,0.936 -0.663,2.613 v 0.416 q 0,1.69 0.676,2.639 0.676,0.936 1.872,0.936 1.196,0 1.859,-0.936 0.676,-0.936 0.676,-2.613 v -0.416 q 0,-1.69 -0.676,-2.626 -0.676,-0.949 -1.872,-0.949 z"
         id="path6189" />
      <path
         d="m 207.1,31.867 q 0,1.417 -0.949,2.379 -0.949,0.949 -2.34,0.949 -1.391,0 -2.327,-0.949 -0.923,-0.949 -0.923,-2.366 0,-1.417 0.949,-2.366 0.949,-0.962 2.34,-0.962 1.391,0 2.314,0.949 0.936,0.949 0.936,2.366 z m -5.46,0.013 q 0,1.014 0.624,1.703 0.637,0.689 1.573,0.689 0.923,0 1.547,-0.689 0.637,-0.689 0.637,-1.716 0,-1.001 -0.637,-1.69 -0.637,-0.702 -1.56,-0.702 -0.923,0 -1.56,0.689 -0.624,0.689 -0.624,1.716 z"
         id="path6191" />
      <path
         d="m 214.06801,35 h -1.053 v -0.962 q -0.377,0.546 -0.949,0.832 -0.572,0.273 -1.3,0.273 -1.235,0 -1.95,-0.806 -0.702,-0.806 -0.702,-2.197 v -3.419 h 1.066 v 3.354 q 0,0.988 0.481,1.56 0.494,0.572 1.365,0.572 0.884,0 1.43,-0.611 0.546,-0.611 0.546,-1.586 v -3.289 h 1.066 z"
         id="path6193" />
      <path
         d="m 215.784,33.323 v -3.666 h -0.858 v -0.936 h 0.858 v -1.924 h 1.053 v 1.924 h 1.456 v 0.936 h -1.456 v 3.575 q 0,0.416 0.182,0.624 0.195,0.195 0.585,0.195 h 0.689 V 35 h -0.845 q -0.871,0 -1.274,-0.403 -0.39,-0.403 -0.39,-1.274 z"
         id="path6195" />
      <path
         d="m 219.554,28.721 h 1.3 v 1.3 h -1.3 z m 0,4.966 h 1.3 V 35 h -1.3 z"
         id="path6197" />
      <path
         d="m 225.76799,26.888 h -1.404 V 25.9 h 2.496 V 35 h -1.092 z"
         id="path6199" />
      <path
         d="m 263.431,32.615 h 1.17 v 1.157 h -1.17 z M 263.483,41 v -6.279 h 1.066 V 41 Z"
         id="path6201" />
      <path
         d="m 266.04399,34.721 h 1.04 v 0.975 q 0.377,-0.546 0.949,-0.832 0.585,-0.299 1.3,-0.299 1.248,0 1.95,0.806 0.702,0.806 0.702,2.21 V 41 h -1.053 v -3.354 q 0,-0.988 -0.494,-1.56 -0.481,-0.572 -1.352,-0.572 -0.897,0 -1.443,0.611 -0.546,0.611 -0.546,1.586 V 41 h -1.053 z"
         id="path6203" />
      <path
         d="m 273.59799,34.721 h 1.3 v 1.3 h -1.3 z m 0,4.966 h 1.3 V 41 h -1.3 z"
         id="path6205" />
      <path
         d="m 278.658,36.671 v -0.416 q 0,-2.093 1.001,-3.328 1.001,-1.235 2.678,-1.235 1.677,0 2.652,1.222 0.988,1.222 0.988,3.315 v 0.416 q 0,2.093 -1.001,3.328 -0.988,1.235 -2.665,1.235 -1.677,0 -2.665,-1.222 -0.988,-1.222 -0.988,-3.315 z m 3.653,-3.991 q -1.196,0 -1.872,0.936 -0.663,0.936 -0.663,2.613 v 0.416 q 0,1.69 0.676,2.639 0.676,0.936 1.872,0.936 1.196,0 1.859,-0.936 0.676,-0.936 0.676,-2.613 v -0.416 q 0,-1.69 -0.676,-2.626 -0.676,-0.949 -1.872,-0.949 z"
         id="path6207" />
      <path
         d="m 269.78699,173.615 h 1.17 v 1.157 h -1.17 z m 0.052,8.385 v -6.279 h 1.066 V 182 Z"
         id="path6209" />
      <path
         d="m 272.39998,175.721 h 1.04 v 0.975 q 0.377,-0.546 0.949,-0.832 0.585,-0.299 1.3,-0.299 1.248,0 1.95,0.806 0.702,0.806 0.702,2.21 V 182 h -1.053 v -3.354 q 0,-0.988 -0.494,-1.56 -0.481,-0.572 -1.352,-0.572 -0.897,0 -1.443,0.611 -0.546,0.611 -0.546,1.586 V 182 h -1.053 z"
         id="path6211" />
      <path
         d="m 279.95401,175.721 h 1.3 v 1.3 h -1.3 z m 0,4.966 h 1.3 V 182 h -1.3 z"
         id="path6213" />
      <path
         d="m 285.01399,177.671 v -0.416 q 0,-2.093 1.001,-3.328 1.001,-1.235 2.678,-1.235 1.677,0 2.652,1.222 0.988,1.222 0.988,3.315 v 0.416 q 0,2.093 -1.001,3.328 -0.988,1.235 -2.665,1.235 -1.677,0 -2.665,-1.222 -0.988,-1.222 -0.988,-3.315 z m 3.653,-3.991 q -1.196,0 -1.872,0.936 -0.663,0.936 -0.663,2.613 v 0.416 q 0,1.69 0.676,2.639 0.676,0.936 1.872,0.936 1.196,0 1.859,-0.936 0.676,-0.936 0.676,-2.613 v -0.416 q 0,-1.69 -0.676,-2.626 -0.676,-0.949 -1.872,-0.949 z"
         id="path6215" />
      <path
         d="m 516.48502,-8.385 h 1.17 v 1.157 h -1.17 z m 0.052,8.385 v -6.279 h 1.066 V 0 Z"
         id="path6217" />
      <path
         d="m 519.09801,-6.279 h 1.04 v 0.975 q 0.377,-0.546 0.949,-0.832 0.585,-0.299 1.3,-0.299 1.248,0 1.95,0.806 0.702,0.806 0.702,2.21 V 0 h -1.053 v -3.354 q 0,-0.988 -0.494,-1.56 -0.481,-0.572 -1.352,-0.572 -0.897,0 -1.443,0.611 -0.546,0.611 -0.546,1.586 V 0 h -1.053 z"
         id="path6219" />
      <path
         d="m 526.65097,-6.279 h 1.3 v 1.3 h -1.3 z m 0,4.966 h 1.3 V 0 h -1.3 z"
         id="path6221" />
      <path
         d="m 531.71202,-4.329 v -0.416 q 0,-2.093 1.001,-3.328 1.001,-1.235 2.678,-1.235 1.677,0 2.652,1.222 0.988,1.222 0.988,3.315 v 0.416 q 0,2.093 -1.001,3.328 -0.988,1.235 -2.665,1.235 -1.677,0 -2.665,-1.222 -0.988,-1.222 -0.988,-3.315 z m 3.653,-3.991 q -1.196,0 -1.872,0.936 -0.663,0.936 -0.663,2.613 v 0.416 q 0,1.69 0.676,2.639 0.676,0.936 1.872,0.936 1.196,0 1.859,-0.936 0.676,-0.936 0.676,-2.613 v -0.416 q 0,-1.69 -0.676,-2.626 -0.676,-0.949 -1.872,-0.949 z"
         id="path6223" />
      <path
         d="m 515.69498,-48.385 h 1.17 v 1.157 h -1.17 z m 0.052,8.385 v -6.279 h 1.066 V -40 Z"
         id="path6225" />
      <path
         d="m 518.30797,-46.279 h 1.04 v 0.975 q 0.377,-0.546 0.949,-0.832 0.585,-0.299 1.3,-0.299 1.248,0 1.95,0.806 0.702,0.806 0.702,2.21 V -40 h -1.053 v -3.354 q 0,-0.988 -0.494,-1.56 -0.481,-0.572 -1.352,-0.572 -0.897,0 -1.443,0.611 -0.546,0.611 -0.546,1.586 V -40 h -1.053 z"
         id="path6227" />
      <path
         d="m 525.61396,-46.279 h 1.3 v 1.3 h -1.3 z m 0,4.966 h 1.3 V -40 h -1.3 z"
         id="path6229" />
      <path
         d="m 532.19598,-48.112 h -1.404 V -49.1 h 2.496 v 9.1 h -1.092 z"
         id="path6231" />
    </g>
  </g>
</svg>
