<svg width="992" height="528" viewBox="0 0 992 528" fill="none" xmlns="http://www.w3.org/2000/svg">
<g clip-path="url(#clip0_507_775)">
<mask id="mask0_507_775" style="mask-type:luminance" maskUnits="userSpaceOnUse" x="0" y="0" width="992" height="528">
<path d="M992 0H0V528H992V0Z" fill="white"/>
</mask>
<g mask="url(#mask0_507_775)">
<path d="M0 0H992V528H0V0Z" fill="white"/>
<path d="M30.5 103.5H894.5V483.5H30.5V103.5Z" stroke="black" stroke-width="1.33333" stroke-miterlimit="8" stroke-dasharray="5.33 4"/>
<path d="M78.2306 248.2H80.9666V265H78.9026V250.84L73.4066 260.44H71.7266L66.2066 250.864V265H64.1426V248.2H66.8786L72.5666 258.016L78.2306 248.2Z" fill="white"/>
<path d="M95.3425 259.216C95.3425 260.96 94.7585 262.424 93.5905 263.608C92.4225 264.776 90.9825 265.36 89.2705 265.36C87.5585 265.36 86.1265 264.776 84.9745 263.608C83.8385 262.44 83.2705 260.984 83.2705 259.24C83.2705 257.496 83.8545 256.04 85.0225 254.872C86.1905 253.688 87.6305 253.096 89.3425 253.096C91.0545 253.096 92.4785 253.68 93.6145 254.848C94.7665 256.016 95.3425 257.472 95.3425 259.216ZM85.2625 259.24C85.2625 260.488 85.6465 261.536 86.4145 262.384C87.1985 263.232 88.1665 263.656 89.3185 263.656C90.4545 263.656 91.4065 263.232 92.1745 262.384C92.9585 261.536 93.3505 260.48 93.3505 259.216C93.3505 257.984 92.9585 256.944 92.1745 256.096C91.3905 255.232 90.4305 254.8 89.2945 254.8C88.1585 254.8 87.1985 255.224 86.4145 256.072C85.6465 256.92 85.2625 257.976 85.2625 259.24Z" fill="white"/>
<path d="M106.815 248.2H108.783V265H106.839V263.128C106.311 263.8 105.671 264.32 104.919 264.688C104.183 265.056 103.391 265.24 102.543 265.24C100.927 265.24 99.5666 264.68 98.4626 263.56C97.3746 262.424 96.8306 260.984 96.8306 259.24C96.8306 257.48 97.3906 256.024 98.5106 254.872C99.6466 253.704 101.039 253.12 102.687 253.12C103.487 253.12 104.239 253.288 104.943 253.624C105.663 253.944 106.287 254.408 106.815 255.016V248.2ZM102.759 263.536C103.927 263.536 104.903 263.12 105.687 262.288C106.487 261.44 106.887 260.4 106.887 259.168C106.887 257.92 106.503 256.888 105.735 256.072C104.967 255.256 104.007 254.848 102.855 254.848C101.671 254.848 100.703 255.248 99.9506 256.048C99.1986 256.848 98.8226 257.896 98.8226 259.192C98.8226 260.488 99.1906 261.536 99.9266 262.336C100.663 263.136 101.607 263.536 102.759 263.536Z" fill="white"/>
<path d="M116.894 263.704C117.662 263.704 118.366 263.544 119.006 263.224C119.662 262.888 120.262 262.384 120.806 261.712L121.982 262.792C121.326 263.656 120.558 264.304 119.678 264.736C118.798 265.152 117.814 265.36 116.726 265.36C114.982 265.36 113.55 264.792 112.43 263.656C111.326 262.504 110.774 261.032 110.774 259.24C110.774 257.496 111.342 256.04 112.478 254.872C113.614 253.704 115.014 253.12 116.678 253.12C118.374 253.12 119.75 253.672 120.806 254.776C121.862 255.88 122.39 257.32 122.39 259.096C122.39 259.224 122.382 259.376 122.366 259.552C122.35 259.712 122.334 259.832 122.318 259.912H112.79C112.918 261.048 113.358 261.968 114.11 262.672C114.878 263.36 115.806 263.704 116.894 263.704ZM116.702 254.776C115.694 254.776 114.83 255.104 114.11 255.76C113.39 256.416 112.95 257.296 112.79 258.4H120.422C120.278 257.28 119.87 256.4 119.198 255.76C118.526 255.104 117.694 254.776 116.702 254.776Z" fill="white"/>
<path d="M124.575 248.2H126.543V265H124.575V248.2Z" fill="white"/>
<path d="M133.358 256.624C133.358 254.144 134.182 252.056 135.83 250.36C137.478 248.664 139.51 247.816 141.926 247.816C144.358 247.816 146.382 248.656 147.998 250.336C149.63 252 150.446 254.08 150.446 256.576C150.446 259.072 149.622 261.168 147.974 262.864C146.342 264.544 144.318 265.384 141.902 265.384C139.47 265.384 137.438 264.552 135.806 262.888C134.174 261.208 133.358 259.12 133.358 256.624ZM135.47 256.576C135.47 258.544 136.086 260.2 137.318 261.544C138.566 262.872 140.102 263.536 141.926 263.536C143.75 263.536 145.27 262.88 146.486 261.568C147.718 260.24 148.334 258.592 148.334 256.624C148.334 254.656 147.718 253.008 146.486 251.68C145.254 250.336 143.726 249.664 141.902 249.664C140.062 249.664 138.526 250.328 137.294 251.656C136.078 252.968 135.47 254.608 135.47 256.576Z" fill="white"/>
<path d="M154.55 269.32H152.606V253.408H154.526V255.28C155.038 254.608 155.67 254.088 156.422 253.72C157.174 253.336 157.974 253.144 158.822 253.144C160.454 253.144 161.814 253.712 162.902 254.848C163.99 255.968 164.534 257.408 164.534 259.168C164.534 260.944 163.966 262.408 162.83 263.56C161.71 264.696 160.326 265.264 158.678 265.264C157.894 265.264 157.134 265.104 156.398 264.784C155.678 264.448 155.062 263.976 154.55 263.368V269.32ZM158.606 254.872C157.438 254.872 156.454 255.296 155.654 256.144C154.87 256.976 154.478 258.016 154.478 259.264C154.478 260.496 154.862 261.52 155.63 262.336C156.414 263.152 157.382 263.56 158.534 263.56C159.718 263.56 160.678 263.168 161.414 262.384C162.166 261.584 162.542 260.528 162.542 259.216C162.542 257.92 162.174 256.872 161.438 256.072C160.718 255.272 159.774 254.872 158.606 254.872Z" fill="white"/>
<path d="M167.079 261.904V255.136H165.495V253.408H167.079V249.856H169.023V253.408H171.711V255.136H169.023V261.736C169.023 262.248 169.135 262.632 169.359 262.888C169.599 263.128 169.959 263.248 170.439 263.248H171.711V265H170.151C169.079 265 168.295 264.752 167.799 264.256C167.319 263.76 167.079 262.976 167.079 261.904Z" fill="white"/>
<path d="M173.798 249.52H175.958V251.656H173.798V249.52ZM173.894 265V253.408H175.862V265H173.894Z" fill="white"/>
<path d="M178.623 253.408H180.543V254.8C180.975 254.24 181.463 253.824 182.007 253.552C182.567 253.264 183.191 253.12 183.879 253.12C184.679 253.12 185.391 253.288 186.015 253.624C186.639 253.96 187.135 254.448 187.503 255.088C187.935 254.448 188.479 253.96 189.135 253.624C189.807 253.288 190.559 253.12 191.391 253.12C192.751 253.12 193.831 253.56 194.631 254.44C195.447 255.32 195.855 256.464 195.855 257.872V265H193.887V257.992C193.887 257.016 193.639 256.256 193.143 255.712C192.663 255.152 191.983 254.872 191.103 254.872C190.239 254.872 189.535 255.176 188.991 255.784C188.463 256.376 188.199 257.152 188.199 258.112V265H186.255V257.992C186.255 257.016 186.007 256.256 185.511 255.712C185.031 255.152 184.351 254.872 183.471 254.872C182.607 254.872 181.903 255.176 181.359 255.784C180.831 256.376 180.567 257.152 180.567 258.112V265H178.623V253.408Z" fill="white"/>
<path d="M198.375 249.52H200.535V251.656H198.375V249.52ZM198.471 265V253.408H200.439V265H198.471Z" fill="white"/>
<path d="M212.607 265H202.455V263.464L209.847 255.04H202.743V253.408H212.295V254.944L204.975 263.368H212.607V265Z" fill="white"/>
<path d="M219.567 263.704C220.335 263.704 221.039 263.544 221.679 263.224C222.335 262.888 222.935 262.384 223.479 261.712L224.655 262.792C223.999 263.656 223.231 264.304 222.351 264.736C221.471 265.152 220.487 265.36 219.399 265.36C217.655 265.36 216.223 264.792 215.103 263.656C213.999 262.504 213.447 261.032 213.447 259.24C213.447 257.496 214.015 256.04 215.151 254.872C216.287 253.704 217.687 253.12 219.351 253.12C221.047 253.12 222.423 253.672 223.479 254.776C224.535 255.88 225.063 257.32 225.063 259.096C225.063 259.224 225.055 259.376 225.039 259.552C225.023 259.712 225.007 259.832 224.991 259.912H215.463C215.591 261.048 216.031 261.968 216.783 262.672C217.551 263.36 218.479 263.704 219.567 263.704ZM219.375 254.776C218.367 254.776 217.503 255.104 216.783 255.76C216.063 256.416 215.623 257.296 215.463 258.4H223.095C222.951 257.28 222.543 256.4 221.871 255.76C221.199 255.104 220.367 254.776 219.375 254.776Z" fill="white"/>
<path d="M227.031 253.408H228.951V254.872C229.303 254.36 229.759 253.976 230.319 253.72C230.879 253.464 231.543 253.336 232.311 253.336H233.367V255.184H232.287C231.183 255.184 230.351 255.472 229.791 256.048C229.247 256.624 228.975 257.496 228.975 258.664V265H227.031V253.408Z" fill="white"/>
<path d="M515.266 248.2H518.002V265H515.938V250.84L510.442 260.44H508.762L503.242 250.864V265H501.178V248.2H503.914L509.602 258.016L515.266 248.2Z" fill="white"/>
<path d="M532.378 259.216C532.378 260.96 531.794 262.424 530.626 263.608C529.458 264.776 528.018 265.36 526.306 265.36C524.594 265.36 523.162 264.776 522.01 263.608C520.874 262.44 520.306 260.984 520.306 259.24C520.306 257.496 520.89 256.04 522.058 254.872C523.226 253.688 524.666 253.096 526.378 253.096C528.09 253.096 529.514 253.68 530.65 254.848C531.802 256.016 532.378 257.472 532.378 259.216ZM522.298 259.24C522.298 260.488 522.682 261.536 523.45 262.384C524.234 263.232 525.202 263.656 526.354 263.656C527.49 263.656 528.442 263.232 529.21 262.384C529.994 261.536 530.386 260.48 530.386 259.216C530.386 257.984 529.994 256.944 529.21 256.096C528.426 255.232 527.466 254.8 526.33 254.8C525.194 254.8 524.234 255.224 523.45 256.072C522.682 256.92 522.298 257.976 522.298 259.24Z" fill="white"/>
<path d="M543.85 248.2H545.818V265H543.874V263.128C543.346 263.8 542.706 264.32 541.954 264.688C541.218 265.056 540.426 265.24 539.578 265.24C537.962 265.24 536.602 264.68 535.498 263.56C534.41 262.424 533.866 260.984 533.866 259.24C533.866 257.48 534.426 256.024 535.546 254.872C536.682 253.704 538.074 253.12 539.722 253.12C540.522 253.12 541.274 253.288 541.978 253.624C542.698 253.944 543.322 254.408 543.85 255.016V248.2ZM539.794 263.536C540.962 263.536 541.938 263.12 542.722 262.288C543.522 261.44 543.922 260.4 543.922 259.168C543.922 257.92 543.538 256.888 542.77 256.072C542.002 255.256 541.042 254.848 539.89 254.848C538.706 254.848 537.738 255.248 536.986 256.048C536.234 256.848 535.858 257.896 535.858 259.192C535.858 260.488 536.226 261.536 536.962 262.336C537.698 263.136 538.642 263.536 539.794 263.536Z" fill="white"/>
<path d="M553.93 263.704C554.698 263.704 555.402 263.544 556.042 263.224C556.698 262.888 557.298 262.384 557.842 261.712L559.018 262.792C558.362 263.656 557.594 264.304 556.714 264.736C555.834 265.152 554.85 265.36 553.762 265.36C552.018 265.36 550.586 264.792 549.466 263.656C548.362 262.504 547.81 261.032 547.81 259.24C547.81 257.496 548.378 256.04 549.514 254.872C550.65 253.704 552.05 253.12 553.714 253.12C555.41 253.12 556.786 253.672 557.842 254.776C558.898 255.88 559.426 257.32 559.426 259.096C559.426 259.224 559.418 259.376 559.402 259.552C559.386 259.712 559.37 259.832 559.354 259.912H549.826C549.954 261.048 550.394 261.968 551.146 262.672C551.914 263.36 552.842 263.704 553.93 263.704ZM553.738 254.776C552.73 254.776 551.866 255.104 551.146 255.76C550.426 256.416 549.986 257.296 549.826 258.4H557.458C557.314 257.28 556.906 256.4 556.234 255.76C555.562 255.104 554.73 254.776 553.738 254.776Z" fill="white"/>
<path d="M561.61 248.2H563.578V265H561.61V248.2Z" fill="white"/>
<path d="M570.394 256.624C570.394 254.144 571.218 252.056 572.866 250.36C574.514 248.664 576.546 247.816 578.962 247.816C581.394 247.816 583.418 248.656 585.034 250.336C586.666 252 587.482 254.08 587.482 256.576C587.482 259.072 586.658 261.168 585.01 262.864C583.378 264.544 581.354 265.384 578.938 265.384C576.506 265.384 574.474 264.552 572.842 262.888C571.21 261.208 570.394 259.12 570.394 256.624ZM572.506 256.576C572.506 258.544 573.122 260.2 574.354 261.544C575.602 262.872 577.138 263.536 578.962 263.536C580.786 263.536 582.306 262.88 583.522 261.568C584.754 260.24 585.37 258.592 585.37 256.624C585.37 254.656 584.754 253.008 583.522 251.68C582.29 250.336 580.762 249.664 578.938 249.664C577.098 249.664 575.562 250.328 574.33 251.656C573.114 252.968 572.506 254.608 572.506 256.576Z" fill="white"/>
<path d="M591.586 269.32H589.642V253.408H591.562V255.28C592.074 254.608 592.706 254.088 593.458 253.72C594.21 253.336 595.01 253.144 595.858 253.144C597.49 253.144 598.85 253.712 599.938 254.848C601.026 255.968 601.57 257.408 601.57 259.168C601.57 260.944 601.002 262.408 599.866 263.56C598.746 264.696 597.362 265.264 595.714 265.264C594.93 265.264 594.17 265.104 593.434 264.784C592.714 264.448 592.098 263.976 591.586 263.368V269.32ZM595.642 254.872C594.474 254.872 593.49 255.296 592.69 256.144C591.906 256.976 591.514 258.016 591.514 259.264C591.514 260.496 591.898 261.52 592.666 262.336C593.45 263.152 594.418 263.56 595.57 263.56C596.754 263.56 597.714 263.168 598.45 262.384C599.202 261.584 599.578 260.528 599.578 259.216C599.578 257.92 599.21 256.872 598.474 256.072C597.754 255.272 596.81 254.872 595.642 254.872Z" fill="white"/>
<path d="M604.114 261.904V255.136H602.53V253.408H604.114V249.856H606.058V253.408H608.746V255.136H606.058V261.736C606.058 262.248 606.17 262.632 606.394 262.888C606.634 263.128 606.994 263.248 607.474 263.248H608.746V265H607.186C606.114 265 605.33 264.752 604.834 264.256C604.354 263.76 604.114 262.976 604.114 261.904Z" fill="white"/>
<path d="M610.833 249.52H612.993V251.656H610.833V249.52ZM610.929 265V253.408H612.897V265H610.929Z" fill="white"/>
<path d="M615.658 253.408H617.578V254.8C618.01 254.24 618.498 253.824 619.042 253.552C619.602 253.264 620.226 253.12 620.914 253.12C621.714 253.12 622.426 253.288 623.05 253.624C623.674 253.96 624.17 254.448 624.538 255.088C624.97 254.448 625.514 253.96 626.17 253.624C626.842 253.288 627.594 253.12 628.426 253.12C629.786 253.12 630.866 253.56 631.666 254.44C632.482 255.32 632.89 256.464 632.89 257.872V265H630.922V257.992C630.922 257.016 630.674 256.256 630.178 255.712C629.698 255.152 629.018 254.872 628.138 254.872C627.274 254.872 626.57 255.176 626.026 255.784C625.498 256.376 625.234 257.152 625.234 258.112V265H623.29V257.992C623.29 257.016 623.042 256.256 622.546 255.712C622.066 255.152 621.386 254.872 620.506 254.872C619.642 254.872 618.938 255.176 618.394 255.784C617.866 256.376 617.602 257.152 617.602 258.112V265H615.658V253.408Z" fill="white"/>
<path d="M635.41 249.52H637.57V251.656H635.41V249.52ZM635.506 265V253.408H637.474V265H635.506Z" fill="white"/>
<path d="M649.642 265H639.49V263.464L646.882 255.04H639.778V253.408H649.33V254.944L642.01 263.368H649.642V265Z" fill="white"/>
<path d="M656.602 263.704C657.37 263.704 658.074 263.544 658.714 263.224C659.37 262.888 659.97 262.384 660.514 261.712L661.69 262.792C661.034 263.656 660.266 264.304 659.386 264.736C658.506 265.152 657.522 265.36 656.434 265.36C654.69 265.36 653.258 264.792 652.138 263.656C651.034 262.504 650.482 261.032 650.482 259.24C650.482 257.496 651.05 256.04 652.186 254.872C653.322 253.704 654.722 253.12 656.386 253.12C658.082 253.12 659.458 253.672 660.514 254.776C661.57 255.88 662.098 257.32 662.098 259.096C662.098 259.224 662.09 259.376 662.074 259.552C662.058 259.712 662.042 259.832 662.026 259.912H652.498C652.626 261.048 653.066 261.968 653.818 262.672C654.586 263.36 655.514 263.704 656.602 263.704ZM656.41 254.776C655.402 254.776 654.538 255.104 653.818 255.76C653.098 256.416 652.658 257.296 652.498 258.4H660.13C659.986 257.28 659.578 256.4 658.906 255.76C658.234 255.104 657.402 254.776 656.41 254.776Z" fill="white"/>
<path d="M664.066 253.408H665.986V254.872C666.338 254.36 666.794 253.976 667.354 253.72C667.914 253.464 668.578 253.336 669.346 253.336H670.402V255.184H669.322C668.218 255.184 667.386 255.472 666.826 256.048C666.282 256.624 666.01 257.496 666.01 258.664V265H664.066V253.408Z" fill="white"/>
<path d="M562.427 407V390.2H568.739C571.363 390.2 573.475 390.976 575.075 392.528C576.691 394.08 577.499 396.096 577.499 398.576C577.499 401.04 576.683 403.064 575.051 404.648C573.419 406.216 571.299 407 568.691 407H562.427ZM575.411 398.624C575.411 396.704 574.787 395.136 573.539 393.92C572.307 392.688 570.699 392.072 568.715 392.072H564.491V405.128H568.715C570.699 405.128 572.307 404.52 573.539 403.304C574.787 402.088 575.411 400.528 575.411 398.624Z" fill="white"/>
<path d="M592.571 403.904V397.136H590.987V395.408H592.571V391.856H594.515V395.408H597.203V397.136H594.515V403.736C594.515 404.248 594.627 404.632 594.851 404.888C595.091 405.128 595.451 405.248 595.931 405.248H597.203V407H595.643C594.571 407 593.787 406.752 593.291 406.256C592.811 405.76 592.571 404.976 592.571 403.904Z" fill="white"/>
<path d="M609.251 407H607.355V405.104C606.891 405.776 606.259 406.304 605.459 406.688C604.675 407.056 603.827 407.24 602.915 407.24C601.635 407.24 600.595 406.92 599.795 406.28C598.995 405.624 598.595 404.768 598.595 403.712C598.595 402.544 599.043 401.664 599.939 401.072C600.835 400.464 602.163 400.16 603.923 400.16H607.331C607.315 399.072 607.027 398.232 606.467 397.64C605.923 397.048 605.139 396.752 604.115 396.752C603.507 396.752 602.907 396.88 602.315 397.136C601.723 397.392 601.139 397.784 600.563 398.312L599.531 397.016C600.203 396.376 600.939 395.896 601.739 395.576C602.539 395.24 603.395 395.072 604.307 395.072C605.859 395.072 607.067 395.536 607.931 396.464C608.811 397.376 609.251 398.64 609.251 400.256V407ZM607.331 401.672H603.947C602.779 401.672 601.915 401.832 601.355 402.152C600.795 402.472 600.515 402.976 600.515 403.664C600.515 404.24 600.755 404.72 601.235 405.104C601.731 405.488 602.363 405.68 603.131 405.68C604.283 405.68 605.251 405.312 606.035 404.576C606.835 403.824 607.267 402.856 607.331 401.672Z" fill="white"/>
<path fill-rule="evenodd" clip-rule="evenodd" d="M623.5 441C623.5 439.619 625.963 438.5 629 438.5C632.038 438.5 634.5 439.619 634.5 441C634.5 442.381 632.038 443.5 629 443.5C625.963 443.5 623.5 442.381 623.5 441Z" fill="white" stroke="white" stroke-width="1.33333" stroke-miterlimit="8"/>
<path fill-rule="evenodd" clip-rule="evenodd" d="M623.5 405C623.5 403.619 625.963 402.5 629 402.5C632.038 402.5 634.5 403.619 634.5 405C634.5 406.381 632.038 407.5 629 407.5C625.963 407.5 623.5 406.381 623.5 405Z" fill="white" stroke="white" stroke-width="1.33333" stroke-miterlimit="8"/>
<path fill-rule="evenodd" clip-rule="evenodd" d="M623.5 371C623.5 369.619 625.963 368.5 629 368.5C632.038 368.5 634.5 369.619 634.5 371C634.5 372.381 632.038 373.5 629 373.5C625.963 373.5 623.5 372.381 623.5 371Z" fill="white" stroke="white" stroke-width="1.33333" stroke-miterlimit="8"/>
</g>
<path d="M217 228H113C93.1177 228 77 244.118 77 264C77 283.882 93.1177 300 113 300H217C236.882 300 253 283.882 253 264C253 244.118 236.882 228 217 228Z" fill="#00285A"/>
<path d="M105.613 262.448V270H103.405V258.96H105.981L108.973 264.976L111.981 258.96H114.461V270H112.253V262.432L109.853 267.216H108.013L105.613 262.448ZM124.726 265.952C124.726 266.624 124.625 267.227 124.422 267.76C124.23 268.283 123.953 268.725 123.59 269.088C123.228 269.451 122.79 269.728 122.278 269.92C121.766 270.112 121.196 270.208 120.566 270.208C119.937 270.208 119.366 270.112 118.854 269.92C118.342 269.728 117.905 269.451 117.542 269.088C117.18 268.725 116.897 268.283 116.694 267.76C116.502 267.227 116.406 266.624 116.406 265.952C116.406 265.28 116.502 264.683 116.694 264.16C116.897 263.637 117.18 263.195 117.542 262.832C117.905 262.469 118.342 262.192 118.854 262C119.366 261.808 119.937 261.712 120.566 261.712C121.196 261.712 121.766 261.808 122.278 262C122.79 262.192 123.228 262.469 123.59 262.832C123.953 263.195 124.23 263.637 124.422 264.16C124.625 264.683 124.726 265.28 124.726 265.952ZM122.406 265.952C122.406 265.131 122.246 264.512 121.926 264.096C121.617 263.68 121.164 263.472 120.566 263.472C119.969 263.472 119.51 263.68 119.19 264.096C118.881 264.512 118.726 265.131 118.726 265.952C118.726 266.784 118.881 267.408 119.19 267.824C119.51 268.24 119.969 268.448 120.566 268.448C121.164 268.448 121.617 268.24 121.926 267.824C122.246 267.408 122.406 266.784 122.406 265.952ZM134.207 270H132.895C132.351 270 132.079 269.76 132.079 269.28V268.752C131.865 269.2 131.535 269.557 131.087 269.824C130.649 270.08 130.121 270.208 129.503 270.208C128.969 270.208 128.489 270.107 128.063 269.904C127.636 269.701 127.273 269.419 126.975 269.056C126.687 268.683 126.463 268.235 126.303 267.712C126.143 267.189 126.063 266.603 126.063 265.952C126.063 265.28 126.148 264.683 126.319 264.16C126.489 263.627 126.729 263.184 127.039 262.832C127.348 262.469 127.716 262.192 128.143 262C128.58 261.808 129.065 261.712 129.599 261.712C130.111 261.712 130.569 261.813 130.975 262.016C131.38 262.219 131.7 262.507 131.935 262.88V258.528H134.207V270ZM131.999 265.968C131.999 265.189 131.844 264.581 131.535 264.144C131.236 263.696 130.793 263.472 130.207 263.472C129.631 263.472 129.183 263.691 128.863 264.128C128.543 264.565 128.383 265.179 128.383 265.968C128.383 266.768 128.532 267.381 128.831 267.808C129.129 268.235 129.572 268.448 130.159 268.448C130.735 268.448 131.183 268.229 131.503 267.792C131.833 267.344 131.999 266.736 131.999 265.968ZM138.208 266.448C138.293 267.152 138.528 267.664 138.912 267.984C139.307 268.293 139.851 268.448 140.544 268.448C140.917 268.448 141.275 268.4 141.616 268.304C141.957 268.208 142.261 268.069 142.528 267.888L143.296 269.232C142.539 269.883 141.541 270.208 140.304 270.208C139.568 270.208 138.928 270.101 138.384 269.888C137.851 269.664 137.403 269.36 137.04 268.976C136.688 268.592 136.427 268.139 136.256 267.616C136.085 267.093 136 266.533 136 265.936C136 265.243 136.107 264.635 136.32 264.112C136.533 263.579 136.821 263.136 137.184 262.784C137.557 262.432 137.989 262.165 138.48 261.984C138.981 261.803 139.509 261.712 140.064 261.712C140.629 261.712 141.131 261.803 141.568 261.984C142.005 262.155 142.368 262.4 142.656 262.72C142.955 263.04 143.179 263.424 143.328 263.872C143.488 264.309 143.568 264.8 143.568 265.344C143.568 265.525 143.557 265.717 143.536 265.92C143.525 266.112 143.499 266.288 143.456 266.448H138.208ZM140.064 263.376C139.552 263.376 139.136 263.531 138.816 263.84C138.496 264.149 138.309 264.576 138.256 265.12H141.52V264.912C141.52 264.421 141.387 264.043 141.12 263.776C140.864 263.509 140.512 263.376 140.064 263.376ZM147.563 258.528V267.248C147.563 267.675 147.627 267.957 147.755 268.096C147.894 268.224 148.166 268.288 148.571 268.288H148.715V270C148.48 270.053 148.139 270.08 147.691 270.08C146.827 270.08 146.208 269.867 145.835 269.44C145.472 269.013 145.291 268.373 145.291 267.52V258.528H147.563ZM159.348 268.32C160.319 268.32 161.055 268 161.556 267.36C162.068 266.72 162.324 265.76 162.324 264.48C162.324 263.211 162.068 262.256 161.556 261.616C161.055 260.965 160.319 260.64 159.348 260.64C158.377 260.64 157.636 260.965 157.124 261.616C156.623 262.256 156.372 263.211 156.372 264.48C156.372 265.76 156.623 266.72 157.124 267.36C157.636 268 158.377 268.32 159.348 268.32ZM159.348 270.24C158.516 270.24 157.764 270.112 157.092 269.856C156.42 269.589 155.849 269.211 155.38 268.72C154.921 268.219 154.564 267.611 154.308 266.896C154.063 266.181 153.94 265.376 153.94 264.48C153.94 263.584 154.063 262.784 154.308 262.08C154.564 261.365 154.921 260.763 155.38 260.272C155.849 259.771 156.42 259.387 157.092 259.12C157.764 258.853 158.516 258.72 159.348 258.72C160.18 258.72 160.932 258.853 161.604 259.12C162.276 259.387 162.841 259.771 163.3 260.272C163.769 260.763 164.127 261.365 164.372 262.08C164.628 262.784 164.756 263.584 164.756 264.48C164.756 265.376 164.628 266.181 164.372 266.896C164.127 267.611 163.769 268.219 163.3 268.72C162.841 269.211 162.276 269.589 161.604 269.856C160.932 270.112 160.18 270.24 159.348 270.24ZM168.779 263.296C169.025 262.752 169.403 262.352 169.915 262.096C170.427 261.84 170.971 261.712 171.547 261.712C172.518 261.712 173.302 262.059 173.899 262.752C174.497 263.435 174.795 264.443 174.795 265.776C174.795 266.427 174.715 267.024 174.555 267.568C174.406 268.112 174.182 268.581 173.883 268.976C173.595 269.36 173.238 269.664 172.811 269.888C172.385 270.101 171.905 270.208 171.371 270.208C170.923 270.208 170.47 270.123 170.011 269.952C169.563 269.771 169.201 269.461 168.923 269.024V273.36H166.651V261.92H167.963C168.507 261.92 168.779 262.16 168.779 262.64V263.296ZM168.859 266.064C168.859 266.811 169.009 267.397 169.307 267.824C169.617 268.24 170.07 268.448 170.667 268.448C170.987 268.448 171.259 268.384 171.483 268.256C171.718 268.128 171.905 267.952 172.043 267.728C172.193 267.493 172.299 267.221 172.363 266.912C172.438 266.603 172.475 266.272 172.475 265.92C172.475 265.131 172.331 264.528 172.043 264.112C171.755 263.685 171.323 263.472 170.747 263.472C170.139 263.472 169.67 263.707 169.339 264.176C169.019 264.635 168.859 265.264 168.859 266.064ZM180.957 268.256V269.952C180.786 269.995 180.599 270.027 180.397 270.048C180.194 270.069 179.954 270.08 179.677 270.08C178.717 270.08 178.013 269.861 177.565 269.424C177.117 268.976 176.893 268.251 176.893 267.248V263.648H175.693V261.92H176.893V259.984H179.165V261.92H180.957V263.648H179.165V267.04C179.165 267.52 179.271 267.845 179.485 268.016C179.698 268.176 180.082 268.256 180.637 268.256H180.957ZM184.705 270H182.433V261.92H184.705V270ZM182.417 258.608H184.721V260.672H182.417V258.608ZM194.164 270H191.892V264.928C191.892 263.989 191.513 263.52 190.756 263.52C190.276 263.52 189.897 263.691 189.62 264.032C189.353 264.363 189.22 264.848 189.22 265.488V270H186.948V261.92H188.244C188.788 261.92 189.06 262.155 189.06 262.624V263.184C189.273 262.704 189.599 262.341 190.036 262.096C190.484 261.84 190.996 261.712 191.572 261.712C192.148 261.712 192.628 261.84 193.012 262.096C193.407 262.341 193.695 262.704 193.876 263.184C194.111 262.715 194.452 262.352 194.9 262.096C195.348 261.84 195.876 261.712 196.484 261.712C197.327 261.712 197.972 261.973 198.42 262.496C198.879 263.008 199.108 263.749 199.108 264.72V270H196.836V264.928C196.836 263.989 196.457 263.52 195.7 263.52C195.22 263.52 194.841 263.691 194.564 264.032C194.297 264.363 194.164 264.848 194.164 265.488V270ZM203.595 270H201.323V261.92H203.595V270ZM201.307 258.608H203.611V260.672H201.307V258.608ZM207.823 268.272H212.303V270H205.167V268.464L209.567 263.648H205.311V261.92H212.255V263.472L207.823 268.272ZM215.63 266.448C215.715 267.152 215.95 267.664 216.334 267.984C216.729 268.293 217.273 268.448 217.966 268.448C218.339 268.448 218.697 268.4 219.038 268.304C219.379 268.208 219.683 268.069 219.95 267.888L220.718 269.232C219.961 269.883 218.963 270.208 217.726 270.208C216.99 270.208 216.35 270.101 215.806 269.888C215.273 269.664 214.825 269.36 214.462 268.976C214.11 268.592 213.849 268.139 213.678 267.616C213.507 267.093 213.422 266.533 213.422 265.936C213.422 265.243 213.529 264.635 213.742 264.112C213.955 263.579 214.243 263.136 214.606 262.784C214.979 262.432 215.411 262.165 215.902 261.984C216.403 261.803 216.931 261.712 217.486 261.712C218.051 261.712 218.553 261.803 218.99 261.984C219.427 262.155 219.79 262.4 220.078 262.72C220.377 263.04 220.601 263.424 220.75 263.872C220.91 264.309 220.99 264.8 220.99 265.344C220.99 265.525 220.979 265.717 220.958 265.92C220.947 266.112 220.921 266.288 220.878 266.448H215.63ZM217.486 263.376C216.974 263.376 216.558 263.531 216.238 263.84C215.918 264.149 215.731 264.576 215.678 265.12H218.942V264.912C218.942 264.421 218.809 264.043 218.542 263.776C218.286 263.509 217.934 263.376 217.486 263.376ZM222.745 261.92H224.041C224.585 261.92 224.857 262.155 224.857 262.624V263.616C225.028 263.072 225.31 262.64 225.705 262.32C226.11 261.989 226.612 261.824 227.209 261.824C227.454 261.824 227.668 261.851 227.849 261.904V263.76H227.385C226.574 263.76 225.977 263.968 225.593 264.384C225.209 264.8 225.017 265.493 225.017 266.464V270H222.745V261.92Z" fill="white"/>
<path d="M633 228H529C509.118 228 493 244.118 493 264C493 283.882 509.118 300 529 300H633C652.882 300 669 283.882 669 264C669 244.118 652.882 228 633 228Z" fill="#00285A"/>
<path d="M566.584 266.208V270H564.296V258.96H568.424C569.693 258.96 570.674 259.275 571.368 259.904C572.061 260.523 572.408 261.419 572.408 262.592C572.408 263.723 572.061 264.608 571.368 265.248C570.685 265.888 569.698 266.208 568.408 266.208H566.584ZM566.584 260.672V264.496H568.04C568.722 264.496 569.234 264.347 569.576 264.048C569.917 263.749 570.088 263.264 570.088 262.592C570.088 261.92 569.917 261.435 569.576 261.136C569.245 260.827 568.738 260.672 568.056 260.672H566.584ZM579.254 268.32C580.225 268.32 580.961 268 581.462 267.36C581.974 266.72 582.23 265.76 582.23 264.48C582.23 263.211 581.974 262.256 581.462 261.616C580.961 260.965 580.225 260.64 579.254 260.64C578.283 260.64 577.542 260.965 577.03 261.616C576.529 262.256 576.278 263.211 576.278 264.48C576.278 265.76 576.529 266.72 577.03 267.36C577.542 268 578.283 268.32 579.254 268.32ZM579.254 270.24C578.422 270.24 577.67 270.112 576.998 269.856C576.326 269.589 575.755 269.211 575.286 268.72C574.827 268.219 574.47 267.611 574.214 266.896C573.969 266.181 573.846 265.376 573.846 264.48C573.846 263.584 573.969 262.784 574.214 262.08C574.47 261.365 574.827 260.763 575.286 260.272C575.755 259.771 576.326 259.387 576.998 259.12C577.67 258.853 578.422 258.72 579.254 258.72C580.086 258.72 580.838 258.853 581.51 259.12C582.182 259.387 582.747 259.771 583.206 260.272C583.675 260.763 584.033 261.365 584.278 262.08C584.534 262.784 584.662 263.584 584.662 264.48C584.662 265.376 584.534 266.181 584.278 266.896C584.033 267.611 583.675 268.219 583.206 268.72C582.747 269.211 582.182 269.589 581.51 269.856C580.838 270.112 580.086 270.24 579.254 270.24ZM591.175 260.784V270H588.839V260.784H585.223V258.96H594.791V260.784H591.175Z" fill="white"/>
<path d="M194 12H138C118.118 12 102 28.1178 102 48C102 67.8823 118.118 84 138 84H194C213.882 84 230 67.8823 230 48C230 28.1178 213.882 12 194 12Z" fill="#76CEFF"/>
<path d="M146.085 46.7661V54.3181H143.877V43.2781H146.453L149.445 49.2941L152.453 43.2781H154.933V54.3181H152.725V46.7501L150.325 51.5341H148.485L146.085 46.7661ZM165.198 50.2701C165.198 50.9421 165.097 51.5448 164.894 52.0781C164.702 52.6008 164.425 53.0434 164.062 53.4061C163.699 53.7688 163.262 54.0461 162.75 54.2381C162.238 54.4301 161.667 54.5261 161.038 54.5261C160.409 54.5261 159.838 54.4301 159.326 54.2381C158.814 54.0461 158.377 53.7688 158.014 53.4061C157.651 53.0434 157.369 52.6008 157.166 52.0781C156.974 51.5448 156.878 50.9421 156.878 50.2701C156.878 49.5981 156.974 49.0008 157.166 48.4781C157.369 47.9554 157.651 47.5128 158.014 47.1501C158.377 46.7874 158.814 46.5101 159.326 46.3181C159.838 46.1261 160.409 46.0301 161.038 46.0301C161.667 46.0301 162.238 46.1261 162.75 46.3181C163.262 46.5101 163.699 46.7874 164.062 47.1501C164.425 47.5128 164.702 47.9554 164.894 48.4781C165.097 49.0008 165.198 49.5981 165.198 50.2701ZM162.878 50.2701C162.878 49.4488 162.718 48.8301 162.398 48.4141C162.089 47.9981 161.635 47.7901 161.038 47.7901C160.441 47.7901 159.982 47.9981 159.662 48.4141C159.353 48.8301 159.198 49.4488 159.198 50.2701C159.198 51.1021 159.353 51.7261 159.662 52.1421C159.982 52.5581 160.441 52.7661 161.038 52.7661C161.635 52.7661 162.089 52.5581 162.398 52.1421C162.718 51.7261 162.878 51.1021 162.878 50.2701ZM174.678 54.3181H173.366C172.822 54.3181 172.55 54.0781 172.55 53.5981V53.0701C172.337 53.5181 172.006 53.8754 171.558 54.1421C171.121 54.3981 170.593 54.5261 169.974 54.5261C169.441 54.5261 168.961 54.4248 168.534 54.2221C168.108 54.0194 167.745 53.7368 167.446 53.3741C167.158 53.0008 166.934 52.5528 166.774 52.0301C166.614 51.5074 166.534 50.9208 166.534 50.2701C166.534 49.5981 166.62 49.0008 166.79 48.4781C166.961 47.9448 167.201 47.5021 167.51 47.1501C167.82 46.7874 168.188 46.5101 168.614 46.3181C169.052 46.1261 169.537 46.0301 170.07 46.0301C170.582 46.0301 171.041 46.1314 171.446 46.3341C171.852 46.5368 172.172 46.8248 172.406 47.1981V42.8461H174.678V54.3181ZM172.47 50.2861C172.47 49.5074 172.316 48.8994 172.006 48.4621C171.708 48.0141 171.265 47.7901 170.678 47.7901C170.102 47.7901 169.654 48.0088 169.334 48.4461C169.014 48.8834 168.854 49.4968 168.854 50.2861C168.854 51.0861 169.004 51.6994 169.302 52.1261C169.601 52.5528 170.044 52.7661 170.63 52.7661C171.206 52.7661 171.654 52.5474 171.974 52.1101C172.305 51.6621 172.47 51.0541 172.47 50.2861ZM178.68 50.7661C178.765 51.4701 179 51.9821 179.384 52.3021C179.778 52.6114 180.322 52.7661 181.016 52.7661C181.389 52.7661 181.746 52.7181 182.088 52.6221C182.429 52.5261 182.733 52.3874 183 52.2061L183.768 53.5501C183.01 54.2008 182.013 54.5261 180.776 54.5261C180.04 54.5261 179.4 54.4194 178.856 54.2061C178.322 53.9821 177.874 53.6781 177.512 53.2941C177.16 52.9101 176.898 52.4568 176.728 51.9341C176.557 51.4114 176.472 50.8514 176.472 50.2541C176.472 49.5608 176.578 48.9528 176.792 48.4301C177.005 47.8968 177.293 47.4541 177.656 47.1021C178.029 46.7501 178.461 46.4834 178.952 46.3021C179.453 46.1208 179.981 46.0301 180.536 46.0301C181.101 46.0301 181.602 46.1208 182.04 46.3021C182.477 46.4728 182.84 46.7181 183.128 47.0381C183.426 47.3581 183.65 47.7421 183.8 48.1901C183.96 48.6274 184.04 49.1181 184.04 49.6621C184.04 49.8434 184.029 50.0354 184.008 50.2381C183.997 50.4301 183.97 50.6061 183.928 50.7661H178.68ZM180.536 47.6941C180.024 47.6941 179.608 47.8488 179.288 48.1581C178.968 48.4674 178.781 48.8941 178.728 49.4381H181.992V49.2301C181.992 48.7394 181.858 48.3608 181.592 48.0941C181.336 47.8274 180.984 47.6941 180.536 47.6941ZM188.035 42.8461V51.5661C188.035 51.9928 188.099 52.2754 188.227 52.4141C188.365 52.5421 188.637 52.6061 189.043 52.6061H189.187V54.3181C188.952 54.3714 188.611 54.3981 188.163 54.3981C187.299 54.3981 186.68 54.1848 186.307 53.7581C185.944 53.3314 185.763 52.6914 185.763 51.8381V42.8461H188.035Z" fill="#00285A"/>
<path d="M166 227L171.773 217L160.226 217L166 227ZM165 84L165 218L167 218L167 84L165 84Z" fill="#C9CACE"/>
<path d="M309 266L299 260.226V271.774L309 266ZM253 267H300V265H253V267Z" fill="#C9CACE"/>
<path d="M493 266L483 260.226V271.774L493 266ZM437 267H484V265H437V267Z" fill="#C9CACE"/>
<path d="M579 300L573.226 310L584.774 310L579 300ZM580 356L580 309L578 309L578 356L580 356Z" fill="#C9CACE"/>
<path d="M401 228H345C325.118 228 309 244.118 309 264C309 283.882 325.118 300 345 300H401C420.882 300 437 283.882 437 264C437 244.118 420.882 228 401 228Z" fill="#76CEFF"/>
<path d="M338.489 256.32C339.459 256.32 340.195 256 340.697 255.36C341.209 254.72 341.465 253.76 341.465 252.48C341.465 251.211 341.209 250.256 340.697 249.616C340.195 248.965 339.459 248.64 338.489 248.64C337.518 248.64 336.777 248.965 336.265 249.616C335.763 250.256 335.513 251.211 335.513 252.48C335.513 253.76 335.763 254.72 336.265 255.36C336.777 256 337.518 256.32 338.489 256.32ZM338.489 258.24C337.657 258.24 336.905 258.112 336.233 257.856C335.561 257.589 334.99 257.211 334.521 256.72C334.062 256.219 333.705 255.611 333.449 254.896C333.203 254.181 333.081 253.376 333.081 252.48C333.081 251.584 333.203 250.784 333.449 250.08C333.705 249.365 334.062 248.763 334.521 248.272C334.99 247.771 335.561 247.387 336.233 247.12C336.905 246.853 337.657 246.72 338.489 246.72C339.321 246.72 340.073 246.853 340.745 247.12C341.417 247.387 341.982 247.771 342.441 248.272C342.91 248.763 343.267 249.365 343.513 250.08C343.769 250.784 343.897 251.584 343.897 252.48C343.897 253.376 343.769 254.181 343.513 254.896C343.267 255.611 342.91 256.219 342.441 256.72C341.982 257.211 341.417 257.589 340.745 257.856C340.073 258.112 339.321 258.24 338.489 258.24ZM347.92 251.296C348.165 250.752 348.544 250.352 349.056 250.096C349.568 249.84 350.112 249.712 350.688 249.712C351.659 249.712 352.443 250.059 353.04 250.752C353.637 251.435 353.936 252.443 353.936 253.776C353.936 254.427 353.856 255.024 353.696 255.568C353.547 256.112 353.323 256.581 353.024 256.976C352.736 257.36 352.379 257.664 351.952 257.888C351.525 258.101 351.045 258.208 350.512 258.208C350.064 258.208 349.611 258.123 349.152 257.952C348.704 257.771 348.341 257.461 348.064 257.024V261.36H345.792V249.92H347.104C347.648 249.92 347.92 250.16 347.92 250.64V251.296ZM348 254.064C348 254.811 348.149 255.397 348.448 255.824C348.757 256.24 349.211 256.448 349.808 256.448C350.128 256.448 350.4 256.384 350.624 256.256C350.859 256.128 351.045 255.952 351.184 255.728C351.333 255.493 351.44 255.221 351.504 254.912C351.579 254.603 351.616 254.272 351.616 253.92C351.616 253.131 351.472 252.528 351.184 252.112C350.896 251.685 350.464 251.472 349.888 251.472C349.28 251.472 348.811 251.707 348.48 252.176C348.16 252.635 348 253.264 348 254.064ZM357.489 254.448C357.575 255.152 357.809 255.664 358.193 255.984C358.588 256.293 359.132 256.448 359.825 256.448C360.199 256.448 360.556 256.4 360.897 256.304C361.239 256.208 361.543 256.069 361.809 255.888L362.577 257.232C361.82 257.883 360.823 258.208 359.585 258.208C358.849 258.208 358.209 258.101 357.665 257.888C357.132 257.664 356.684 257.36 356.321 256.976C355.969 256.592 355.708 256.139 355.537 255.616C355.367 255.093 355.281 254.533 355.281 253.936C355.281 253.243 355.388 252.635 355.601 252.112C355.815 251.579 356.103 251.136 356.465 250.784C356.839 250.432 357.271 250.165 357.761 249.984C358.263 249.803 358.791 249.712 359.345 249.712C359.911 249.712 360.412 249.803 360.849 249.984C361.287 250.155 361.649 250.4 361.937 250.72C362.236 251.04 362.46 251.424 362.609 251.872C362.769 252.309 362.849 252.8 362.849 253.344C362.849 253.525 362.839 253.717 362.817 253.92C362.807 254.112 362.78 254.288 362.737 254.448H357.489ZM359.345 251.376C358.833 251.376 358.417 251.531 358.097 251.84C357.777 252.149 357.591 252.576 357.537 253.12H360.801V252.912C360.801 252.421 360.668 252.043 360.401 251.776C360.145 251.509 359.793 251.376 359.345 251.376ZM364.604 249.92H365.9C366.444 249.92 366.716 250.155 366.716 250.624V251.216C366.93 250.757 367.266 250.395 367.724 250.128C368.183 249.851 368.732 249.712 369.372 249.712C370.236 249.712 370.903 249.963 371.372 250.464C371.852 250.965 372.092 251.717 372.092 252.72V258H369.82V252.88C369.82 251.941 369.404 251.472 368.572 251.472C368.05 251.472 367.634 251.659 367.324 252.032C367.026 252.405 366.876 252.923 366.876 253.584V258H364.604V249.92ZM375.876 246.96L378.548 255.696L381.172 246.96H383.748L379.732 258H377.268L373.252 246.96H375.876ZM387.429 258H385.093V246.96H387.429V258ZM392.559 246.96L396.847 254.88V246.96H399.055V258H396.479L392.191 250.224V258H389.983V246.96H392.559ZM406.504 256.32C407.475 256.32 408.211 256 408.712 255.36C409.224 254.72 409.48 253.76 409.48 252.48C409.48 251.211 409.224 250.256 408.712 249.616C408.211 248.965 407.475 248.64 406.504 248.64C405.533 248.64 404.792 248.965 404.28 249.616C403.779 250.256 403.528 251.211 403.528 252.48C403.528 253.76 403.779 254.72 404.28 255.36C404.792 256 405.533 256.32 406.504 256.32ZM406.504 258.24C405.672 258.24 404.92 258.112 404.248 257.856C403.576 257.589 403.005 257.211 402.536 256.72C402.077 256.219 401.72 255.611 401.464 254.896C401.219 254.181 401.096 253.376 401.096 252.48C401.096 251.584 401.219 250.784 401.464 250.08C401.72 249.365 402.077 248.763 402.536 248.272C403.005 247.771 403.576 247.387 404.248 247.12C404.92 246.853 405.672 246.72 406.504 246.72C407.336 246.72 408.088 246.853 408.76 247.12C409.432 247.387 409.997 247.771 410.456 248.272C410.925 248.763 411.283 249.365 411.528 250.08C411.784 250.784 411.912 251.584 411.912 252.48C411.912 253.376 411.784 254.181 411.528 254.896C411.283 255.611 410.925 256.219 410.456 256.72C409.997 257.211 409.432 257.589 408.76 257.856C408.088 258.112 407.336 258.24 406.504 258.24ZM342.671 282H340.335V270.96H342.671V282ZM353.273 274.192C353.273 274.949 353.06 275.611 352.633 276.176C352.207 276.731 351.631 277.093 350.905 277.264L354.041 282H351.353L349.017 278.16C348.9 277.968 348.788 277.84 348.681 277.776C348.575 277.712 348.409 277.68 348.185 277.68H347.497V282H345.225V270.96H349.465C350.052 270.96 350.58 271.035 351.049 271.184C351.519 271.333 351.919 271.547 352.249 271.824C352.58 272.101 352.831 272.443 353.001 272.848C353.183 273.243 353.273 273.691 353.273 274.192ZM350.953 274.368C350.953 273.824 350.809 273.424 350.521 273.168C350.233 272.912 349.769 272.784 349.129 272.784H347.497V276.016H349.081C349.689 276.016 350.153 275.877 350.473 275.6C350.793 275.323 350.953 274.912 350.953 274.368ZM366.375 282H364.103V276.928C364.103 275.989 363.724 275.52 362.967 275.52C362.487 275.52 362.108 275.691 361.831 276.032C361.564 276.363 361.431 276.848 361.431 277.488V282H359.159V273.92H360.455C360.999 273.92 361.271 274.155 361.271 274.624V275.184C361.484 274.704 361.81 274.341 362.247 274.096C362.695 273.84 363.207 273.712 363.783 273.712C364.359 273.712 364.839 273.84 365.223 274.096C365.618 274.341 365.906 274.704 366.087 275.184C366.322 274.715 366.663 274.352 367.111 274.096C367.559 273.84 368.087 273.712 368.695 273.712C369.538 273.712 370.183 273.973 370.631 274.496C371.09 275.008 371.319 275.749 371.319 276.72V282H369.047V276.928C369.047 275.989 368.668 275.52 367.911 275.52C367.431 275.52 367.052 275.691 366.775 276.032C366.508 276.363 366.375 276.848 366.375 277.488V282ZM381.406 277.952C381.406 278.624 381.305 279.227 381.102 279.76C380.91 280.283 380.633 280.725 380.27 281.088C379.907 281.451 379.47 281.728 378.958 281.92C378.446 282.112 377.875 282.208 377.246 282.208C376.617 282.208 376.046 282.112 375.534 281.92C375.022 281.728 374.585 281.451 374.222 281.088C373.859 280.725 373.577 280.283 373.374 279.76C373.182 279.227 373.086 278.624 373.086 277.952C373.086 277.28 373.182 276.683 373.374 276.16C373.577 275.637 373.859 275.195 374.222 274.832C374.585 274.469 375.022 274.192 375.534 274C376.046 273.808 376.617 273.712 377.246 273.712C377.875 273.712 378.446 273.808 378.958 274C379.47 274.192 379.907 274.469 380.27 274.832C380.633 275.195 380.91 275.637 381.102 276.16C381.305 276.683 381.406 277.28 381.406 277.952ZM379.086 277.952C379.086 277.131 378.926 276.512 378.606 276.096C378.297 275.68 377.843 275.472 377.246 275.472C376.649 275.472 376.19 275.68 375.87 276.096C375.561 276.512 375.406 277.131 375.406 277.952C375.406 278.784 375.561 279.408 375.87 279.824C376.19 280.24 376.649 280.448 377.246 280.448C377.843 280.448 378.297 280.24 378.606 279.824C378.926 279.408 379.086 278.784 379.086 277.952ZM390.886 282H389.574C389.03 282 388.758 281.76 388.758 281.28V280.752C388.545 281.2 388.214 281.557 387.766 281.824C387.329 282.08 386.801 282.208 386.182 282.208C385.649 282.208 385.169 282.107 384.742 281.904C384.316 281.701 383.953 281.419 383.654 281.056C383.366 280.683 383.142 280.235 382.982 279.712C382.822 279.189 382.742 278.603 382.742 277.952C382.742 277.28 382.828 276.683 382.998 276.16C383.169 275.627 383.409 275.184 383.718 274.832C384.028 274.469 384.396 274.192 384.822 274C385.26 273.808 385.745 273.712 386.278 273.712C386.79 273.712 387.249 273.813 387.654 274.016C388.06 274.219 388.38 274.507 388.614 274.88V270.528H390.886V282ZM388.678 277.968C388.678 277.189 388.524 276.581 388.214 276.144C387.916 275.696 387.473 275.472 386.886 275.472C386.31 275.472 385.862 275.691 385.542 276.128C385.222 276.565 385.062 277.179 385.062 277.968C385.062 278.768 385.212 279.381 385.51 279.808C385.809 280.235 386.252 280.448 386.838 280.448C387.414 280.448 387.862 280.229 388.182 279.792C388.513 279.344 388.678 278.736 388.678 277.968ZM394.888 278.448C394.973 279.152 395.208 279.664 395.592 279.984C395.986 280.293 396.53 280.448 397.224 280.448C397.597 280.448 397.954 280.4 398.296 280.304C398.637 280.208 398.941 280.069 399.208 279.888L399.976 281.232C399.218 281.883 398.221 282.208 396.984 282.208C396.248 282.208 395.608 282.101 395.064 281.888C394.53 281.664 394.082 281.36 393.72 280.976C393.368 280.592 393.106 280.139 392.936 279.616C392.765 279.093 392.68 278.533 392.68 277.936C392.68 277.243 392.786 276.635 393 276.112C393.213 275.579 393.501 275.136 393.864 274.784C394.237 274.432 394.669 274.165 395.16 273.984C395.661 273.803 396.189 273.712 396.744 273.712C397.309 273.712 397.81 273.803 398.248 273.984C398.685 274.155 399.048 274.4 399.336 274.72C399.634 275.04 399.858 275.424 400.008 275.872C400.168 276.309 400.248 276.8 400.248 277.344C400.248 277.525 400.237 277.717 400.216 277.92C400.205 278.112 400.178 278.288 400.136 278.448H394.888ZM396.744 275.376C396.232 275.376 395.816 275.531 395.496 275.84C395.176 276.149 394.989 276.576 394.936 277.12H398.2V276.912C398.2 276.421 398.066 276.043 397.8 275.776C397.544 275.509 397.192 275.376 396.744 275.376ZM404.243 270.528V279.248C404.243 279.675 404.307 279.957 404.435 280.096C404.573 280.224 404.845 280.288 405.251 280.288H405.395V282C405.16 282.053 404.819 282.08 404.371 282.08C403.507 282.08 402.888 281.867 402.515 281.44C402.152 281.013 401.971 280.373 401.971 279.52V270.528H404.243Z" fill="#00285A"/>
<path d="M725 266L715 260.226V271.774L725 266ZM669 267H716V265H669V267Z" fill="#C9CACE"/>
<path d="M817 228H761C741.118 228 725 244.118 725 264C725 283.882 741.118 300 761 300H817C836.882 300 853 283.882 853 264C853 244.118 836.882 228 817 228Z" fill="#76CEFF"/>
<path d="M755.481 256.32C756.451 256.32 757.187 256 757.689 255.36C758.201 254.72 758.457 253.76 758.457 252.48C758.457 251.211 758.201 250.256 757.689 249.616C757.187 248.965 756.451 248.64 755.481 248.64C754.51 248.64 753.769 248.965 753.257 249.616C752.755 250.256 752.505 251.211 752.505 252.48C752.505 253.76 752.755 254.72 753.257 255.36C753.769 256 754.51 256.32 755.481 256.32ZM755.481 258.24C754.649 258.24 753.897 258.112 753.225 257.856C752.553 257.589 751.982 257.211 751.513 256.72C751.054 256.219 750.697 255.611 750.441 254.896C750.195 254.181 750.073 253.376 750.073 252.48C750.073 251.584 750.195 250.784 750.441 250.08C750.697 249.365 751.054 248.763 751.513 248.272C751.982 247.771 752.553 247.387 753.225 247.12C753.897 246.853 754.649 246.72 755.481 246.72C756.313 246.72 757.065 246.853 757.737 247.12C758.409 247.387 758.974 247.771 759.433 248.272C759.902 248.763 760.259 249.365 760.505 250.08C760.761 250.784 760.889 251.584 760.889 252.48C760.889 253.376 760.761 254.181 760.505 254.896C760.259 255.611 759.902 256.219 759.433 256.72C758.974 257.211 758.409 257.589 757.737 257.856C757.065 258.112 756.313 258.24 755.481 258.24ZM764.912 251.296C765.157 250.752 765.536 250.352 766.048 250.096C766.56 249.84 767.104 249.712 767.68 249.712C768.651 249.712 769.435 250.059 770.032 250.752C770.629 251.435 770.928 252.443 770.928 253.776C770.928 254.427 770.848 255.024 770.688 255.568C770.539 256.112 770.315 256.581 770.016 256.976C769.728 257.36 769.371 257.664 768.944 257.888C768.517 258.101 768.037 258.208 767.504 258.208C767.056 258.208 766.603 258.123 766.144 257.952C765.696 257.771 765.333 257.461 765.056 257.024V261.36H762.784V249.92H764.096C764.64 249.92 764.912 250.16 764.912 250.64V251.296ZM764.992 254.064C764.992 254.811 765.141 255.397 765.44 255.824C765.749 256.24 766.203 256.448 766.8 256.448C767.12 256.448 767.392 256.384 767.616 256.256C767.851 256.128 768.037 255.952 768.176 255.728C768.325 255.493 768.432 255.221 768.496 254.912C768.571 254.603 768.608 254.272 768.608 253.92C768.608 253.131 768.464 252.528 768.176 252.112C767.888 251.685 767.456 251.472 766.88 251.472C766.272 251.472 765.803 251.707 765.472 252.176C765.152 252.635 764.992 253.264 764.992 254.064ZM777.09 256.256V257.952C776.919 257.995 776.732 258.027 776.53 258.048C776.327 258.069 776.087 258.08 775.81 258.08C774.85 258.08 774.146 257.861 773.698 257.424C773.25 256.976 773.026 256.251 773.026 255.248V251.648H771.826V249.92H773.026V247.984H775.298V249.92H777.09V251.648H775.298V255.04C775.298 255.52 775.404 255.845 775.618 256.016C775.831 256.176 776.215 256.256 776.77 256.256H777.09ZM780.837 258H778.565V249.92H780.837V258ZM778.549 246.608H780.853V248.672H778.549V246.608ZM790.297 258H788.025V252.928C788.025 251.989 787.646 251.52 786.889 251.52C786.409 251.52 786.03 251.691 785.753 252.032C785.486 252.363 785.353 252.848 785.353 253.488V258H783.081V249.92H784.377C784.921 249.92 785.193 250.155 785.193 250.624V251.184C785.406 250.704 785.732 250.341 786.169 250.096C786.617 249.84 787.129 249.712 787.705 249.712C788.281 249.712 788.761 249.84 789.145 250.096C789.54 250.341 789.828 250.704 790.009 251.184C790.244 250.715 790.585 250.352 791.033 250.096C791.481 249.84 792.009 249.712 792.617 249.712C793.46 249.712 794.105 249.973 794.553 250.496C795.012 251.008 795.241 251.749 795.241 252.72V258H792.969V252.928C792.969 251.989 792.59 251.52 791.833 251.52C791.353 251.52 790.974 251.691 790.697 252.032C790.43 252.363 790.297 252.848 790.297 253.488V258ZM799.728 258H797.456V249.92H799.728V258ZM797.44 246.608H799.744V248.672H797.44V246.608ZM803.956 256.272H808.436V258H801.3V256.464L805.7 251.648H801.444V249.92H808.388V251.472L803.956 256.272ZM811.763 254.448C811.848 255.152 812.083 255.664 812.467 255.984C812.861 256.293 813.405 256.448 814.099 256.448C814.472 256.448 814.829 256.4 815.171 256.304C815.512 256.208 815.816 256.069 816.083 255.888L816.851 257.232C816.093 257.883 815.096 258.208 813.859 258.208C813.123 258.208 812.483 258.101 811.939 257.888C811.405 257.664 810.957 257.36 810.595 256.976C810.243 256.592 809.981 256.139 809.811 255.616C809.64 255.093 809.555 254.533 809.555 253.936C809.555 253.243 809.661 252.635 809.875 252.112C810.088 251.579 810.376 251.136 810.739 250.784C811.112 250.432 811.544 250.165 812.035 249.984C812.536 249.803 813.064 249.712 813.619 249.712C814.184 249.712 814.685 249.803 815.123 249.984C815.56 250.155 815.923 250.4 816.211 250.72C816.509 251.04 816.733 251.424 816.883 251.872C817.043 252.309 817.123 252.8 817.123 253.344C817.123 253.525 817.112 253.717 817.091 253.92C817.08 254.112 817.053 254.288 817.011 254.448H811.763ZM813.619 251.376C813.107 251.376 812.691 251.531 812.371 251.84C812.051 252.149 811.864 252.576 811.811 253.12H815.075V252.912C815.075 252.421 814.941 252.043 814.675 251.776C814.419 251.509 814.067 251.376 813.619 251.376ZM826.574 258H825.262C824.718 258 824.446 257.76 824.446 257.28V256.752C824.232 257.2 823.902 257.557 823.454 257.824C823.016 258.08 822.488 258.208 821.87 258.208C821.336 258.208 820.856 258.107 820.43 257.904C820.003 257.701 819.64 257.419 819.342 257.056C819.054 256.683 818.83 256.235 818.67 255.712C818.51 255.189 818.43 254.603 818.43 253.952C818.43 253.28 818.515 252.683 818.686 252.16C818.856 251.627 819.096 251.184 819.406 250.832C819.715 250.469 820.083 250.192 820.51 250C820.947 249.808 821.432 249.712 821.966 249.712C822.478 249.712 822.936 249.813 823.342 250.016C823.747 250.219 824.067 250.507 824.302 250.88V246.528H826.574V258ZM824.366 253.968C824.366 253.189 824.211 252.581 823.902 252.144C823.603 251.696 823.16 251.472 822.574 251.472C821.998 251.472 821.55 251.691 821.23 252.128C820.91 252.565 820.75 253.179 820.75 253.968C820.75 254.768 820.899 255.381 821.198 255.808C821.496 256.235 821.939 256.448 822.526 256.448C823.102 256.448 823.55 256.229 823.87 255.792C824.2 255.344 824.366 254.736 824.366 253.968ZM758.671 282H756.335V270.96H758.671V282ZM769.273 274.192C769.273 274.949 769.06 275.611 768.633 276.176C768.207 276.731 767.631 277.093 766.905 277.264L770.041 282H767.353L765.017 278.16C764.9 277.968 764.788 277.84 764.681 277.776C764.575 277.712 764.409 277.68 764.185 277.68H763.497V282H761.225V270.96H765.465C766.052 270.96 766.58 271.035 767.049 271.184C767.519 271.333 767.919 271.547 768.249 271.824C768.58 272.101 768.831 272.443 769.001 272.848C769.183 273.243 769.273 273.691 769.273 274.192ZM766.953 274.368C766.953 273.824 766.809 273.424 766.521 273.168C766.233 272.912 765.769 272.784 765.129 272.784H763.497V276.016H765.081C765.689 276.016 766.153 275.877 766.473 275.6C766.793 275.323 766.953 274.912 766.953 274.368ZM782.375 282H780.103V276.928C780.103 275.989 779.724 275.52 778.967 275.52C778.487 275.52 778.108 275.691 777.831 276.032C777.564 276.363 777.431 276.848 777.431 277.488V282H775.159V273.92H776.455C776.999 273.92 777.271 274.155 777.271 274.624V275.184C777.484 274.704 777.81 274.341 778.247 274.096C778.695 273.84 779.207 273.712 779.783 273.712C780.359 273.712 780.839 273.84 781.223 274.096C781.618 274.341 781.906 274.704 782.087 275.184C782.322 274.715 782.663 274.352 783.111 274.096C783.559 273.84 784.087 273.712 784.695 273.712C785.538 273.712 786.183 273.973 786.631 274.496C787.09 275.008 787.319 275.749 787.319 276.72V282H785.047V276.928C785.047 275.989 784.668 275.52 783.911 275.52C783.431 275.52 783.052 275.691 782.775 276.032C782.508 276.363 782.375 276.848 782.375 277.488V282ZM797.406 277.952C797.406 278.624 797.305 279.227 797.102 279.76C796.91 280.283 796.633 280.725 796.27 281.088C795.907 281.451 795.47 281.728 794.958 281.92C794.446 282.112 793.875 282.208 793.246 282.208C792.617 282.208 792.046 282.112 791.534 281.92C791.022 281.728 790.585 281.451 790.222 281.088C789.859 280.725 789.577 280.283 789.374 279.76C789.182 279.227 789.086 278.624 789.086 277.952C789.086 277.28 789.182 276.683 789.374 276.16C789.577 275.637 789.859 275.195 790.222 274.832C790.585 274.469 791.022 274.192 791.534 274C792.046 273.808 792.617 273.712 793.246 273.712C793.875 273.712 794.446 273.808 794.958 274C795.47 274.192 795.907 274.469 796.27 274.832C796.633 275.195 796.91 275.637 797.102 276.16C797.305 276.683 797.406 277.28 797.406 277.952ZM795.086 277.952C795.086 277.131 794.926 276.512 794.606 276.096C794.297 275.68 793.843 275.472 793.246 275.472C792.649 275.472 792.19 275.68 791.87 276.096C791.561 276.512 791.406 277.131 791.406 277.952C791.406 278.784 791.561 279.408 791.87 279.824C792.19 280.24 792.649 280.448 793.246 280.448C793.843 280.448 794.297 280.24 794.606 279.824C794.926 279.408 795.086 278.784 795.086 277.952ZM806.886 282H805.574C805.03 282 804.758 281.76 804.758 281.28V280.752C804.545 281.2 804.214 281.557 803.766 281.824C803.329 282.08 802.801 282.208 802.182 282.208C801.649 282.208 801.169 282.107 800.742 281.904C800.316 281.701 799.953 281.419 799.654 281.056C799.366 280.683 799.142 280.235 798.982 279.712C798.822 279.189 798.742 278.603 798.742 277.952C798.742 277.28 798.828 276.683 798.998 276.16C799.169 275.627 799.409 275.184 799.718 274.832C800.028 274.469 800.396 274.192 800.822 274C801.26 273.808 801.745 273.712 802.278 273.712C802.79 273.712 803.249 273.813 803.654 274.016C804.06 274.219 804.38 274.507 804.614 274.88V270.528H806.886V282ZM804.678 277.968C804.678 277.189 804.524 276.581 804.214 276.144C803.916 275.696 803.473 275.472 802.886 275.472C802.31 275.472 801.862 275.691 801.542 276.128C801.222 276.565 801.062 277.179 801.062 277.968C801.062 278.768 801.212 279.381 801.51 279.808C801.809 280.235 802.252 280.448 802.838 280.448C803.414 280.448 803.862 280.229 804.182 279.792C804.513 279.344 804.678 278.736 804.678 277.968ZM810.888 278.448C810.973 279.152 811.208 279.664 811.592 279.984C811.986 280.293 812.53 280.448 813.224 280.448C813.597 280.448 813.954 280.4 814.296 280.304C814.637 280.208 814.941 280.069 815.208 279.888L815.976 281.232C815.218 281.883 814.221 282.208 812.984 282.208C812.248 282.208 811.608 282.101 811.064 281.888C810.53 281.664 810.082 281.36 809.72 280.976C809.368 280.592 809.106 280.139 808.936 279.616C808.765 279.093 808.68 278.533 808.68 277.936C808.68 277.243 808.786 276.635 809 276.112C809.213 275.579 809.501 275.136 809.864 274.784C810.237 274.432 810.669 274.165 811.16 273.984C811.661 273.803 812.189 273.712 812.744 273.712C813.309 273.712 813.81 273.803 814.248 273.984C814.685 274.155 815.048 274.4 815.336 274.72C815.634 275.04 815.858 275.424 816.008 275.872C816.168 276.309 816.248 276.8 816.248 277.344C816.248 277.525 816.237 277.717 816.216 277.92C816.205 278.112 816.178 278.288 816.136 278.448H810.888ZM812.744 275.376C812.232 275.376 811.816 275.531 811.496 275.84C811.176 276.149 810.989 276.576 810.936 277.12H814.2V276.912C814.2 276.421 814.066 276.043 813.8 275.776C813.544 275.509 813.192 275.376 812.744 275.376ZM820.243 270.528V279.248C820.243 279.675 820.307 279.957 820.435 280.096C820.573 280.224 820.845 280.288 821.251 280.288H821.395V282C821.16 282.053 820.819 282.08 820.371 282.08C819.507 282.08 818.888 281.867 818.515 281.44C818.152 281.013 817.971 280.373 817.971 279.52V270.528H820.243Z" fill="#00285A"/>
<path d="M625 423H533V450.429C533 452.953 553.595 455 579 455C604.405 455 625 452.953 625 450.429V423Z" fill="#00285A"/>
<path d="M579 429C604.405 429 625 426.761 625 424C625 421.239 604.405 419 579 419C553.595 419 533 421.239 533 424C533 426.761 553.595 429 579 429Z" fill="#0068B5"/>
<path d="M625 392H533V419.429C533 421.953 553.595 424 579 424C604.405 424 625 421.953 625 419.429V392Z" fill="#00285A"/>
<path d="M579 398C604.405 398 625 395.761 625 393C625 390.239 604.405 388 579 388C553.595 388 533 390.239 533 393C533 395.761 553.595 398 579 398Z" fill="#0068B5"/>
<path d="M625 361H533V388.429C533 390.953 553.595 393 579 393C604.405 393 625 390.953 625 388.429V361Z" fill="#00285A"/>
<path d="M579 366C604.405 366 625 363.761 625 361C625 358.239 604.405 356 579 356C553.595 356 533 358.239 533 361C533 363.761 553.595 366 579 366Z" fill="#0068B5"/>
<path d="M571.88 408.48C571.88 409.344 571.758 410.117 571.512 410.8C571.278 411.483 570.926 412.064 570.456 412.544C569.998 413.013 569.427 413.376 568.744 413.632C568.062 413.877 567.272 414 566.376 414H562.6V402.96H566.376C567.272 402.96 568.062 403.088 568.744 403.344C569.427 403.589 569.998 403.952 570.456 404.432C570.926 404.901 571.278 405.477 571.512 406.16C571.758 406.843 571.88 407.616 571.88 408.48ZM569.448 408.48C569.448 407.211 569.203 406.288 568.712 405.712C568.222 405.125 567.416 404.832 566.296 404.832H564.936V412.128H566.296C567.416 412.128 568.222 411.84 568.712 411.264C569.203 410.677 569.448 409.749 569.448 408.48ZM573.16 411.728C573.16 410.885 573.464 410.245 574.072 409.808C574.68 409.36 575.518 409.136 576.584 409.136H577.896V408.816C577.896 408.347 577.768 408.005 577.512 407.792C577.267 407.568 576.872 407.456 576.328 407.456C575.923 407.456 575.534 407.515 575.16 407.632C574.787 407.749 574.446 407.915 574.136 408.128L573.352 406.8C573.8 406.459 574.307 406.192 574.872 406C575.438 405.808 576.046 405.712 576.696 405.712C577.806 405.712 578.638 405.979 579.192 406.512C579.758 407.045 580.04 407.813 580.04 408.816V411.92C580.04 412.165 580.083 412.331 580.168 412.416C580.254 412.491 580.408 412.528 580.632 412.528H580.808V413.92C580.691 413.963 580.552 414 580.392 414.032C580.232 414.064 580.04 414.08 579.816 414.08C579.347 414.08 578.995 413.984 578.76 413.792C578.526 413.6 578.387 413.317 578.344 412.944C578.152 413.328 577.832 413.632 577.384 413.856C576.936 414.08 576.424 414.192 575.848 414.192C575.038 414.192 574.387 413.973 573.896 413.536C573.406 413.099 573.16 412.496 573.16 411.728ZM576.424 412.56C576.883 412.56 577.24 412.411 577.496 412.112C577.763 411.813 577.896 411.392 577.896 410.848V410.432H576.792C576.323 410.432 575.96 410.528 575.704 410.72C575.459 410.901 575.336 411.179 575.336 411.552C575.336 411.893 575.432 412.149 575.624 412.32C575.827 412.48 576.094 412.56 576.424 412.56ZM586.652 412.256V413.952C586.481 413.995 586.295 414.027 586.092 414.048C585.889 414.069 585.649 414.08 585.372 414.08C584.412 414.08 583.708 413.861 583.26 413.424C582.812 412.976 582.588 412.251 582.588 411.248V407.648H581.388V405.92H582.588V403.984H584.86V405.92H586.652V407.648H584.86V411.04C584.86 411.52 584.967 411.845 585.18 412.016C585.393 412.176 585.777 412.256 586.332 412.256H586.652ZM587.676 411.728C587.676 410.885 587.98 410.245 588.588 409.808C589.196 409.36 590.033 409.136 591.1 409.136H592.412V408.816C592.412 408.347 592.284 408.005 592.028 407.792C591.783 407.568 591.388 407.456 590.844 407.456C590.439 407.456 590.049 407.515 589.676 407.632C589.303 407.749 588.961 407.915 588.652 408.128L587.868 406.8C588.316 406.459 588.823 406.192 589.388 406C589.953 405.808 590.561 405.712 591.212 405.712C592.321 405.712 593.153 405.979 593.708 406.512C594.273 407.045 594.556 407.813 594.556 408.816V411.92C594.556 412.165 594.599 412.331 594.684 412.416C594.769 412.491 594.924 412.528 595.148 412.528H595.324V413.92C595.207 413.963 595.068 414 594.908 414.032C594.748 414.064 594.556 414.08 594.332 414.08C593.863 414.08 593.511 413.984 593.276 413.792C593.041 413.6 592.903 413.317 592.86 412.944C592.668 413.328 592.348 413.632 591.9 413.856C591.452 414.08 590.94 414.192 590.364 414.192C589.553 414.192 588.903 413.973 588.412 413.536C587.921 413.099 587.676 412.496 587.676 411.728ZM590.94 412.56C591.399 412.56 591.756 412.411 592.012 412.112C592.279 411.813 592.412 411.392 592.412 410.848V410.432H591.308C590.839 410.432 590.476 410.528 590.22 410.72C589.975 410.901 589.852 411.179 589.852 411.552C589.852 411.893 589.948 412.149 590.14 412.32C590.343 412.48 590.609 412.56 590.94 412.56Z" fill="white"/>
</g>
<defs>
<clipPath id="clip0_507_775">
<rect width="992" height="528" fill="white"/>
</clipPath>
</defs>
</svg>
